<?xml version="1.0" encoding="utf-8"?>
<!-- Generator: Adobe Illustrator 27.5.0, SVG Export Plug-In . SVG Version: 6.00 Build 0)  -->
<svg version="1.1" xmlns="http://www.w3.org/2000/svg" xmlns:xlink="http://www.w3.org/1999/xlink" x="0px" y="0px"
	 viewBox="0 0 400 277.6" style="enable-background:new 0 0 400 277.6;" xml:space="preserve">
<style type="text/css">
	.st0{opacity:0;fill:#D9E2E9;}
	.st1{fill:#F83462;}
	.st2{fill:#F87E95;}
	.st3{fill:#819EF4;}
	.st4{fill:#D9E2E9;}
	.st5{fill:#F7D627;}
	.st6{fill:#FF9300;}
	.st7{fill:#2A59FF;}
	.st8{display:none;}
	.st9{display:inline;}
	.st10{fill:#FFFFFF;}
	.st11{fill:#271E49;}
	.st12{fill-rule:evenodd;clip-rule:evenodd;fill:#F83462;}
	.st13{fill:#000095;}
	.st14{display:inline;fill:#271E49;}
</style>
<g id="圖層_4">
	<rect y="82.6" class="st0" width="400" height="195"/>
</g>
<g id="圖層_3">
	<g>
		<g>
			<rect x="130.9" y="181.3" class="st1" width="61.7" height="23.1"/>
			<g>
				<path class="st2" d="M189.9,202.7h-56.4v-19.5h56.4V202.7z M134.5,201.7H189v-17.7h-54.6V201.7z"/>
				<rect x="138.6" y="183.6" class="st2" width="0.9" height="18.6"/>
				<rect x="143.6" y="183.6" class="st2" width="0.9" height="18.6"/>
				<rect x="148.7" y="183.6" class="st2" width="0.9" height="18.6"/>
				<rect x="153.7" y="183.6" class="st2" width="0.9" height="18.6"/>
				<rect x="158.8" y="183.6" class="st2" width="0.9" height="18.6"/>
				<rect x="163.8" y="183.6" class="st2" width="0.9" height="18.6"/>
				<rect x="168.9" y="183.6" class="st2" width="0.9" height="18.6"/>
				<rect x="173.9" y="183.6" class="st2" width="0.9" height="18.6"/>
				<rect x="178.9" y="183.6" class="st2" width="0.9" height="18.6"/>
				<rect x="184" y="183.6" class="st2" width="0.9" height="18.6"/>
			</g>
		</g>
		<g>
			<rect x="223.4" y="204.5" class="st3" width="61.7" height="23.1"/>
			<g>
				<path class="st4" d="M282.4,225.7h-56.2v-19.3h56.2V225.7z M226.9,225h54.8v-17.9h-54.8V225z"/>
				<rect x="231.3" y="206.7" class="st4" width="0.7" height="18.6"/>
				<rect x="236.3" y="206.7" class="st4" width="0.7" height="18.6"/>
				<rect x="241.3" y="206.7" class="st4" width="0.7" height="18.6"/>
				<rect x="246.4" y="206.7" class="st4" width="0.7" height="18.6"/>
				<rect x="251.4" y="206.7" class="st4" width="0.7" height="18.6"/>
				<rect x="256.5" y="206.7" class="st4" width="0.7" height="18.6"/>
				<rect x="261.5" y="206.7" class="st4" width="0.7" height="18.6"/>
				<rect x="266.6" y="206.7" class="st4" width="0.7" height="18.6"/>
				<rect x="271.6" y="206.7" class="st4" width="0.7" height="18.6"/>
				<rect x="276.7" y="206.7" class="st4" width="0.7" height="18.6"/>
			</g>
		</g>
		<g>
			<rect x="100" y="204.5" class="st5" width="61.7" height="23.1"/>
			<g>
				<path class="st6" d="M159,225.7h-56.2v-19.3H159V225.7z M103.5,225h54.8v-17.9h-54.8V225z"/>
				<rect x="107.9" y="206.7" class="st6" width="0.7" height="18.6"/>
				<rect x="112.9" y="206.7" class="st6" width="0.7" height="18.6"/>
				<rect x="117.9" y="206.7" class="st6" width="0.7" height="18.6"/>
				<rect x="123" y="206.7" class="st6" width="0.7" height="18.6"/>
				<rect x="128" y="206.7" class="st6" width="0.7" height="18.6"/>
				<rect x="133.1" y="206.7" class="st6" width="0.7" height="18.6"/>
				<rect x="138.1" y="206.7" class="st6" width="0.7" height="18.6"/>
				<rect x="143.2" y="206.7" class="st6" width="0.7" height="18.6"/>
				<rect x="148.2" y="206.7" class="st6" width="0.7" height="18.6"/>
				<rect x="153.2" y="206.7" class="st6" width="0.7" height="18.6"/>
			</g>
		</g>
		<g>
			<rect x="192.6" y="181.3" class="st5" width="61.7" height="23.1"/>
			<g>
				<path class="st6" d="M251.5,202.5h-56.2v-19.3h56.2V202.5z M196,201.9h54.8v-17.9H196V201.9z"/>
				<rect x="200.4" y="183.6" class="st6" width="0.7" height="18.6"/>
				<rect x="205.4" y="183.6" class="st6" width="0.7" height="18.6"/>
				<rect x="210.5" y="183.6" class="st6" width="0.7" height="18.6"/>
				<rect x="215.5" y="183.6" class="st6" width="0.7" height="18.6"/>
				<rect x="220.6" y="183.6" class="st6" width="0.7" height="18.6"/>
				<rect x="225.6" y="183.6" class="st6" width="0.7" height="18.6"/>
				<rect x="230.7" y="183.6" class="st6" width="0.7" height="18.6"/>
				<rect x="235.7" y="183.6" class="st6" width="0.7" height="18.6"/>
				<rect x="240.8" y="183.6" class="st6" width="0.7" height="18.6"/>
				<rect x="245.8" y="183.6" class="st6" width="0.7" height="18.6"/>
			</g>
		</g>
		<g>
			<rect x="161.7" y="204.5" class="st7" width="61.7" height="23.1"/>
			<g>
				<path class="st3" d="M220.8,225.8h-56.4v-19.5h56.4V225.8z M165.3,224.9h54.6v-17.7h-54.6V224.9z"/>
				<rect x="169.4" y="206.7" class="st3" width="0.9" height="18.6"/>
				<rect x="174.5" y="206.7" class="st3" width="0.9" height="18.6"/>
				<rect x="179.5" y="206.7" class="st3" width="0.9" height="18.6"/>
				<rect x="184.6" y="206.7" class="st3" width="0.9" height="18.6"/>
				<rect x="189.6" y="206.7" class="st3" width="0.9" height="18.6"/>
				<rect x="194.7" y="206.7" class="st3" width="0.9" height="18.6"/>
				<rect x="199.7" y="206.7" class="st3" width="0.9" height="18.6"/>
				<rect x="204.7" y="206.7" class="st3" width="0.9" height="18.6"/>
				<rect x="209.8" y="206.7" class="st3" width="0.9" height="18.6"/>
				<rect x="214.8" y="206.7" class="st3" width="0.9" height="18.6"/>
			</g>
		</g>
	</g>
</g>
<g id="圖層_2">
	<g>
		<polygon class="st3" points="73.6,223.2 73.6,185.7 104.4,185.7 104.4,162.6 135.3,162.6 135.3,139.5 188.2,139.5 188.2,162.6 
			219.1,162.6 219.1,185.7 249.9,185.7 249.9,208.9 311.6,208.9 311.6,223.2 		"/>
		<path class="st7" d="M178.5,135.1h-7c-0.7,0-1.3,0.6-1.3,1.3c0,0.7,0.6,1.3,1.3,1.3h7c0.7,0,1.3-0.6,1.3-1.3
			C179.9,135.7,179.3,135.1,178.5,135.1L178.5,135.1z M164.5,135.1h-7c-0.7,0-1.3,0.6-1.3,1.3c0,0.7,0.6,1.3,1.3,1.3h7
			c0.7,0,1.3-0.6,1.3-1.3C165.8,135.7,165.2,135.1,164.5,135.1L164.5,135.1z M150.4,135.1h-7c-0.7,0-1.3,0.6-1.3,1.3
			c0,0.7,0.6,1.3,1.3,1.3h7c0.7,0,1.3-0.6,1.3-1.3C151.8,135.7,151.2,135.1,150.4,135.1L150.4,135.1z M136.4,135.1h-5.5v2.6h0.6
			c0.2,0.1,0.5,0.2,0.7,0.2s0.5-0.1,0.7-0.2h3.5c0.7,0,1.3-0.6,1.3-1.3C137.7,135.7,137.1,135.1,136.4,135.1L136.4,135.1z
			 M132.2,142.3c-0.7,0-1.3,0.6-1.3,1.3v7c0,0.7,0.6,1.3,1.3,1.3s1.3-0.6,1.3-1.3v-7C133.5,142.9,132.9,142.3,132.2,142.3
			L132.2,142.3z M132.2,156.4c-0.7,0-1.3,0.6-1.3,1.3v0.5l0,0l0,0h-6.5c-0.7,0-1.3,0.6-1.3,1.3c0,0.7,0.6,1.3,1.3,1.3h6.5
			c1.5,0,2.6-1.2,2.6-2.6v-0.5C133.5,157,132.9,156.4,132.2,156.4L132.2,156.4z M117.4,158.2h-7c-0.7,0-1.3,0.6-1.3,1.3
			c0,0.7,0.6,1.3,1.3,1.3h7c0.7,0,1.3-0.6,1.3-1.3C118.7,158.8,118.1,158.2,117.4,158.2L117.4,158.2z M103.3,158.2H100v2.6l0,0
			c0,0.6,0,1.1,0,1.1c0,0.7,0.6,1.3,1.3,1.3c0.7,0,1.3-0.6,1.3-1.3v-1.1h0.6c0.7,0,1.3-0.6,1.3-1.3
			C104.6,158.8,104,158.2,103.3,158.2L103.3,158.2z M101.4,167.7c-0.7,0-1.3,0.6-1.3,1.3v7c0,0.7,0.6,1.3,1.3,1.3
			c0.7,0,1.3-0.6,1.3-1.3v-7C102.7,168.3,102.1,167.7,101.4,167.7L101.4,167.7z M98.3,181.3h-7c-0.7,0-1.3,0.6-1.3,1.3
			c0,0.7,0.6,1.3,1.3,1.3h7c0.7,0,1.3-0.6,1.3-1.3C99.6,181.9,99,181.3,98.3,181.3L98.3,181.3z M84.3,181.3h-7
			c-0.7,0-1.3,0.6-1.3,1.3c0,0.7,0.6,1.3,1.3,1.3h7c0.7,0,1.3-0.6,1.3-1.3C85.6,181.9,85,181.3,84.3,181.3L84.3,181.3z M71.8,181.3
			h-2.6v2.6l0,0c0,1.6,0,3.4,0,3.4c0,0.7,0.6,1.3,1.3,1.3s1.3-0.6,1.3-1.3V181.3L71.8,181.3z M70.5,193.1c-0.7,0-1.3,0.6-1.3,1.3v7
			c0,0.7,0.6,1.3,1.3,1.3s1.3-0.6,1.3-1.3v-7C71.8,193.6,71.2,193.1,70.5,193.1L70.5,193.1z M70.5,207.1c-0.7,0-1.3,0.6-1.3,1.3v7
			c0,0.7,0.6,1.3,1.3,1.3s1.3-0.6,1.3-1.3v-7C71.8,207.7,71.2,207.1,70.5,207.1L70.5,207.1z M70.5,221.2c-0.7,0-1.3,0.6-1.3,1.3v5.1
			h2.6l0,0l0,0l0,0v-0.2c0.4-0.2,0.6-0.6,0.6-1.1c0-0.5-0.2-0.9-0.6-1.1v-2.7C71.8,221.7,71.2,221.2,70.5,221.2L70.5,221.2z
			 M85.2,224.9h-7c-0.7,0-1.3,0.6-1.3,1.3c0,0.7,0.6,1.3,1.3,1.3h7c0.7,0,1.3-0.6,1.3-1.3C86.5,225.5,85.9,224.9,85.2,224.9
			L85.2,224.9z M99.2,224.9h-7c-0.7,0-1.3,0.6-1.3,1.3c0,0.7,0.6,1.3,1.3,1.3h7c0.7,0,1.3-0.6,1.3-1.3
			C100.5,225.5,99.9,224.9,99.2,224.9L99.2,224.9z M113.3,224.9h-7c-0.7,0-1.3,0.6-1.3,1.3c0,0.7,0.6,1.3,1.3,1.3h7
			c0.7,0,1.3-0.6,1.3-1.3C114.6,225.5,114,224.9,113.3,224.9L113.3,224.9z M127.3,224.9h-7c-0.7,0-1.3,0.6-1.3,1.3
			c0,0.7,0.6,1.3,1.3,1.3h7c0.7,0,1.3-0.6,1.3-1.3C128.6,225.5,128,224.9,127.3,224.9L127.3,224.9z M141.4,224.9h-7
			c-0.7,0-1.3,0.6-1.3,1.3c0,0.7,0.6,1.3,1.3,1.3h7c0.7,0,1.3-0.6,1.3-1.3C142.7,225.5,142.1,224.9,141.4,224.9L141.4,224.9z
			 M155.4,224.9h-7c-0.7,0-1.3,0.6-1.3,1.3c0,0.7,0.6,1.3,1.3,1.3h7c0.7,0,1.3-0.6,1.3-1.3C156.7,225.5,156.1,224.9,155.4,224.9
			L155.4,224.9z M169.5,224.9h-7c-0.7,0-1.3,0.6-1.3,1.3c0,0.7,0.6,1.3,1.3,1.3h7c0.7,0,1.3-0.6,1.3-1.3
			C170.8,225.5,170.2,224.9,169.5,224.9L169.5,224.9z M183.5,224.9h-7c-0.7,0-1.3,0.6-1.3,1.3c0,0.7,0.6,1.3,1.3,1.3h7
			c0.7,0,1.3-0.6,1.3-1.3C184.8,225.5,184.3,224.9,183.5,224.9L183.5,224.9z M197.6,224.9h-5h-2c-0.7,0-1.3,0.6-1.3,1.3
			c0,0.7,0.6,1.3,1.3,1.3h2h5c0.7,0,1.3-0.6,1.3-1.3C198.9,225.5,198.3,224.9,197.6,224.9L197.6,224.9z M211.6,224.9h-7
			c-0.7,0-1.3,0.6-1.3,1.3c0,0.7,0.6,1.3,1.3,1.3h7c0.7,0,1.3-0.6,1.3-1.3C212.9,225.5,212.4,224.9,211.6,224.9L211.6,224.9z
			 M225.7,224.9h-7c-0.7,0-1.3,0.6-1.3,1.3c0,0.7,0.6,1.3,1.3,1.3h7c0.7,0,1.3-0.6,1.3-1.3C227,225.5,226.4,224.9,225.7,224.9
			L225.7,224.9z M239.7,224.9h-7c-0.7,0-1.3,0.6-1.3,1.3c0,0.7,0.6,1.3,1.3,1.3h7c0.7,0,1.3-0.6,1.3-1.3
			C241,225.5,240.5,224.9,239.7,224.9L239.7,224.9z M253.8,224.9h-7c-0.7,0-1.3,0.6-1.3,1.3c0,0.7,0.6,1.3,1.3,1.3h7
			c0.7,0,1.3-0.6,1.3-1.3C255.1,225.5,254.5,224.9,253.8,224.9L253.8,224.9z M267.8,224.9h-7c-0.7,0-1.3,0.6-1.3,1.3
			c0,0.7,0.6,1.3,1.3,1.3h7c0.7,0,1.3-0.6,1.3-1.3C269.2,225.5,268.6,224.9,267.8,224.9L267.8,224.9z M281.9,224.9h-7
			c-0.7,0-1.3,0.6-1.3,1.3c0,0.7,0.6,1.3,1.3,1.3h7c0.7,0,1.3-0.6,1.3-1.3C283.2,225.5,282.6,224.9,281.9,224.9L281.9,224.9z
			 M295.9,224.9h-7c-0.7,0-1.3,0.6-1.3,1.3c0,0.7,0.6,1.3,1.3,1.3h7c0.7,0,1.3-0.6,1.3-1.3C297.3,225.5,296.7,224.9,295.9,224.9
			L295.9,224.9z M310,224.9h-7c-0.7,0-1.3,0.6-1.3,1.3c0,0.7,0.6,1.3,1.3,1.3h7c0.7,0,1.3-0.6,1.3-1.3
			C311.3,225.5,310.7,224.9,310,224.9L310,224.9z M314.7,218.2c-0.7,0-1.3,0.6-1.3,1.3v7c0,0.4,0.2,0.8,0.5,1h1.7
			c0.3-0.2,0.5-0.6,0.5-1v-7C316,218.8,315.4,218.2,314.7,218.2L314.7,218.2z M315.5,204.5h-1.7c-0.3,0.2-0.5,0.6-0.5,1v7
			c0,0.7,0.6,1.3,1.3,1.3s1.3-0.6,1.3-1.3v-7C316,205.1,315.8,204.7,315.5,204.5L315.5,204.5z M310,204.5h-7c-0.7,0-1.3,0.6-1.3,1.3
			c0,0.7,0.6,1.3,1.3,1.3h7c0.7,0,1.3-0.6,1.3-1.3C311.3,205,310.7,204.5,310,204.5L310,204.5z M295.9,204.5h-7
			c-0.7,0-1.3,0.6-1.3,1.3c0,0.7,0.6,1.3,1.3,1.3h7c0.7,0,1.3-0.6,1.3-1.3C297.3,205,296.7,204.5,295.9,204.5L295.9,204.5z
			 M281.9,204.5h-7c-0.7,0-1.3,0.6-1.3,1.3c0,0.7,0.6,1.3,1.3,1.3h7c0.7,0,1.3-0.6,1.3-1.3C283.2,205,282.6,204.5,281.9,204.5
			L281.9,204.5z M267.8,204.5h-7c-0.7,0-1.3,0.6-1.3,1.3c0,0.7,0.6,1.3,1.3,1.3h7c0.7,0,1.3-0.6,1.3-1.3
			C269.2,205,268.6,204.5,267.8,204.5L267.8,204.5z M253,195.6c-0.7,0-1.3,0.6-1.3,1.3v7c0,0.7,0.6,1.3,1.3,1.3
			c0.7,0,1.3-0.6,1.3-1.3v-7C254.3,196.2,253.7,195.6,253,195.6L253,195.6z M253,181.6c-0.7,0-1.3,0.6-1.3,1.3v7
			c0,0.7,0.6,1.3,1.3,1.3c0.7,0,1.3-0.6,1.3-1.3v-7C254.3,182.1,253.7,181.6,253,181.6L253,181.6z M248.8,181.3h-7
			c-0.7,0-1.3,0.6-1.3,1.3c0,0.7,0.6,1.3,1.3,1.3h7c0.7,0,1.3-0.6,1.3-1.3C250.1,181.9,249.5,181.3,248.8,181.3L248.8,181.3z
			 M234.7,181.3h-7c-0.7,0-1.3,0.6-1.3,1.3c0,0.7,0.6,1.3,1.3,1.3h7c0.7,0,1.3-0.6,1.3-1.3C236.1,181.9,235.5,181.3,234.7,181.3
			L234.7,181.3z M222.1,170.3c-0.7,0-1.3,0.6-1.3,1.3v7c0,0.7,0.6,1.3,1.3,1.3c0.7,0,1.3-0.6,1.3-1.3v-7
			C223.4,170.8,222.9,170.3,222.1,170.3L222.1,170.3z M223.4,158.2h-2.6v6.3c0,0.7,0.6,1.3,1.3,1.3c0.7,0,1.3-0.6,1.3-1.3V158.2
			L223.4,158.2z M215.7,158.2h-7c-0.7,0-1.3,0.6-1.3,1.3c0,0.7,0.6,1.3,1.3,1.3h7c0.7,0,1.3-0.6,1.3-1.3
			C217,158.8,216.4,158.2,215.7,158.2L215.7,158.2z M201.7,158.2h-7c-0.7,0-1.3,0.6-1.3,1.3c0,0.7,0.6,1.3,1.3,1.3h7
			c0.7,0,1.3-0.6,1.3-1.3C203,158.8,202.4,158.2,201.7,158.2L201.7,158.2z M191.3,144.9c-0.7,0-1.3,0.6-1.3,1.3v7
			c0,0.7,0.6,1.3,1.3,1.3s1.3-0.6,1.3-1.3v-7C192.6,145.5,192,144.9,191.3,144.9L191.3,144.9z M192.6,135.1h-7
			c-0.7,0-1.3,0.6-1.3,1.3c0,0.7,0.6,1.3,1.3,1.3h4.4v1.5c0,0.7,0.6,1.3,1.3,1.3s1.3-0.6,1.3-1.3V135.1L192.6,135.1z"/>
	</g>
</g>
<g id="圖層_5" class="st8">
	<g class="st9">
		<g>
			<g>
				
					<rect x="69.2" y="250.7" transform="matrix(-1 -1.224647e-16 1.224647e-16 -1 200.0802 524.5177)" class="st3" width="61.7" height="23.1"/>
				<g>
					<path class="st4" d="M128.1,271.9H72v-19.3h56.2V271.9z M72.6,271.2h54.8v-17.9H72.6V271.2z"/>
					<rect x="122.4" y="253" class="st4" width="0.7" height="18.6"/>
					<rect x="117.4" y="253" class="st4" width="0.7" height="18.6"/>
					<rect x="112.3" y="253" class="st4" width="0.7" height="18.6"/>
					<rect x="107.3" y="253" class="st4" width="0.7" height="18.6"/>
					<rect x="102.2" y="253" class="st4" width="0.7" height="18.6"/>
					<rect x="97.2" y="253" class="st4" width="0.7" height="18.6"/>
					<rect x="92.1" y="253" class="st4" width="0.7" height="18.6"/>
					<rect x="87.1" y="253" class="st4" width="0.7" height="18.6"/>
					<rect x="82" y="253" class="st4" width="0.7" height="18.6"/>
					<rect x="77" y="253" class="st4" width="0.7" height="18.6"/>
				</g>
			</g>
			<g>
				<rect x="69.2" y="227.6" class="st1" width="61.7" height="23.1"/>
				<g>
					<path class="st2" d="M128.2,248.9H71.8v-19.5h56.4V248.9z M72.8,248h54.6v-17.7H72.8V248z"/>
					<rect x="76.9" y="229.8" class="st2" width="0.9" height="18.6"/>
					<rect x="81.9" y="229.8" class="st2" width="0.9" height="18.6"/>
					<rect x="87" y="229.8" class="st2" width="0.9" height="18.6"/>
					<rect x="92" y="229.8" class="st2" width="0.9" height="18.6"/>
					<rect x="97.1" y="229.8" class="st2" width="0.9" height="18.6"/>
					<rect x="102.1" y="229.8" class="st2" width="0.9" height="18.6"/>
					<rect x="107.2" y="229.8" class="st2" width="0.9" height="18.6"/>
					<rect x="112.2" y="229.8" class="st2" width="0.9" height="18.6"/>
					<rect x="117.2" y="229.8" class="st2" width="0.9" height="18.6"/>
					<rect x="122.3" y="229.8" class="st2" width="0.9" height="18.6"/>
				</g>
			</g>
		</g>
		<g>
			<rect x="130.9" y="181.3" class="st1" width="61.7" height="23.1"/>
			<g>
				<path class="st2" d="M189.9,202.7h-56.4v-19.5h56.4V202.7z M134.5,201.7H189v-17.7h-54.6V201.7z"/>
				<rect x="138.6" y="183.6" class="st2" width="0.9" height="18.6"/>
				<rect x="143.6" y="183.6" class="st2" width="0.9" height="18.6"/>
				<rect x="148.7" y="183.6" class="st2" width="0.9" height="18.6"/>
				<rect x="153.7" y="183.6" class="st2" width="0.9" height="18.6"/>
				<rect x="158.8" y="183.6" class="st2" width="0.9" height="18.6"/>
				<rect x="163.8" y="183.6" class="st2" width="0.9" height="18.6"/>
				<rect x="168.9" y="183.6" class="st2" width="0.9" height="18.6"/>
				<rect x="173.9" y="183.6" class="st2" width="0.9" height="18.6"/>
				<rect x="178.9" y="183.6" class="st2" width="0.9" height="18.6"/>
				<rect x="184" y="183.6" class="st2" width="0.9" height="18.6"/>
			</g>
		</g>
		<g>
			<g>
				
					<rect x="119.8" y="250.7" transform="matrix(-1 -1.224647e-16 1.224647e-16 -1 301.2424 524.5177)" class="st7" width="61.7" height="23.1"/>
				<g>
					<rect x="172.9" y="253" class="st3" width="0.9" height="18.6"/>
					<path class="st3" d="M178.8,272h-56.4v-19.5h56.4V272z M123.3,271.1h54.6v-17.7h-54.6V271.1z"/>
					<rect x="167.8" y="253" class="st3" width="0.9" height="18.6"/>
					<rect x="162.8" y="253" class="st3" width="0.9" height="18.6"/>
					<rect x="157.7" y="253" class="st3" width="0.9" height="18.6"/>
					<rect x="152.7" y="253" class="st3" width="0.9" height="18.6"/>
					<rect x="147.6" y="253" class="st3" width="0.9" height="18.6"/>
					<rect x="142.6" y="253" class="st3" width="0.9" height="18.6"/>
					<rect x="137.6" y="253" class="st3" width="0.9" height="18.6"/>
					<rect x="132.5" y="253" class="st3" width="0.9" height="18.6"/>
					<rect x="127.5" y="253" class="st3" width="0.9" height="18.6"/>
				</g>
			</g>
			<g>
				<rect x="119.8" y="227.6" class="st3" width="61.7" height="23.1"/>
				<g>
					<path class="st4" d="M178.7,248.8h-56.2v-19.3h56.2V248.8z M123.2,248.1H178v-17.9h-54.8V248.1z"/>
					<rect x="127.6" y="229.8" class="st4" width="0.7" height="18.6"/>
					<rect x="132.6" y="229.8" class="st4" width="0.7" height="18.6"/>
					<rect x="137.7" y="229.8" class="st4" width="0.7" height="18.6"/>
					<rect x="142.7" y="229.8" class="st4" width="0.7" height="18.6"/>
					<rect x="147.8" y="229.8" class="st4" width="0.7" height="18.6"/>
					<rect x="152.8" y="229.8" class="st4" width="0.7" height="18.6"/>
					<rect x="157.8" y="229.8" class="st4" width="0.7" height="18.6"/>
					<rect x="162.9" y="229.8" class="st4" width="0.7" height="18.6"/>
					<rect x="167.9" y="229.8" class="st4" width="0.7" height="18.6"/>
					<rect x="173" y="229.8" class="st4" width="0.7" height="18.6"/>
				</g>
			</g>
		</g>
		<g>
			<rect x="223.4" y="204.5" class="st3" width="61.7" height="23.1"/>
			<g>
				<path class="st4" d="M282.4,225.7h-56.2v-19.3h56.2V225.7z M226.9,225h54.8v-17.9h-54.8V225z"/>
				<rect x="231.3" y="206.7" class="st4" width="0.7" height="18.6"/>
				<rect x="236.3" y="206.7" class="st4" width="0.7" height="18.6"/>
				<rect x="241.3" y="206.7" class="st4" width="0.7" height="18.6"/>
				<rect x="246.4" y="206.7" class="st4" width="0.7" height="18.6"/>
				<rect x="251.4" y="206.7" class="st4" width="0.7" height="18.6"/>
				<rect x="256.5" y="206.7" class="st4" width="0.7" height="18.6"/>
				<rect x="261.5" y="206.7" class="st4" width="0.7" height="18.6"/>
				<rect x="266.6" y="206.7" class="st4" width="0.7" height="18.6"/>
				<rect x="271.6" y="206.7" class="st4" width="0.7" height="18.6"/>
				<rect x="276.7" y="206.7" class="st4" width="0.7" height="18.6"/>
			</g>
		</g>
		<g>
			<g>
				
					<rect x="271.5" y="250.7" transform="matrix(-1 -1.224647e-16 1.224647e-16 -1 604.729 524.5177)" class="st1" width="61.7" height="23.1"/>
				<g>
					<path class="st2" d="M330.6,272h-56.4v-19.5h56.4V272z M275.1,271.1h54.6v-17.7h-54.6V271.1z"/>
					<rect x="324.6" y="253" class="st2" width="0.9" height="18.6"/>
					<rect x="319.6" y="253" class="st2" width="0.9" height="18.6"/>
					<rect x="314.5" y="253" class="st2" width="0.9" height="18.6"/>
					<rect x="309.5" y="253" class="st2" width="0.9" height="18.6"/>
					<rect x="304.4" y="253" class="st2" width="0.9" height="18.6"/>
					<rect x="299.4" y="253" class="st2" width="0.9" height="18.6"/>
					<rect x="294.3" y="253" class="st2" width="0.9" height="18.6"/>
					<rect x="289.3" y="253" class="st2" width="0.9" height="18.6"/>
					<rect x="284.3" y="253" class="st2" width="0.9" height="18.6"/>
					<rect x="279.2" y="253" class="st2" width="0.9" height="18.6"/>
				</g>
			</g>
			<g>
				<rect x="271.5" y="227.6" class="st3" width="61.7" height="23.1"/>
				<g>
					<path class="st4" d="M330.4,248.8h-56.2v-19.3h56.2V248.8z M275,248.1h54.8v-17.9H275V248.1z"/>
					<rect x="279.3" y="229.8" class="st4" width="0.7" height="18.6"/>
					<rect x="284.4" y="229.8" class="st4" width="0.7" height="18.6"/>
					<rect x="289.4" y="229.8" class="st4" width="0.7" height="18.6"/>
					<rect x="294.5" y="229.8" class="st4" width="0.7" height="18.6"/>
					<rect x="299.5" y="229.8" class="st4" width="0.7" height="18.6"/>
					<rect x="304.5" y="229.8" class="st4" width="0.7" height="18.6"/>
					<rect x="309.6" y="229.8" class="st4" width="0.7" height="18.6"/>
					<rect x="314.6" y="229.8" class="st4" width="0.7" height="18.6"/>
					<rect x="319.7" y="229.8" class="st4" width="0.7" height="18.6"/>
					<rect x="324.7" y="229.8" class="st4" width="0.7" height="18.6"/>
				</g>
			</g>
		</g>
		<g>
			<g>
				
					<rect x="220.9" y="250.7" transform="matrix(-1 -1.224647e-16 1.224647e-16 -1 503.5668 524.5177)" class="st3" width="61.7" height="23.1"/>
				<g>
					<path class="st4" d="M279.9,271.9h-56.2v-19.3h56.2V271.9z M224.4,271.2h54.8v-17.9h-54.8V271.2z"/>
					<rect x="274.1" y="253" class="st4" width="0.7" height="18.6"/>
					<rect x="269.1" y="253" class="st4" width="0.7" height="18.6"/>
					<rect x="264.1" y="253" class="st4" width="0.7" height="18.6"/>
					<rect x="259" y="253" class="st4" width="0.7" height="18.6"/>
					<rect x="254" y="253" class="st4" width="0.7" height="18.6"/>
					<rect x="248.9" y="253" class="st4" width="0.7" height="18.6"/>
					<rect x="243.9" y="253" class="st4" width="0.7" height="18.6"/>
					<rect x="238.8" y="253" class="st4" width="0.7" height="18.6"/>
					<rect x="233.8" y="253" class="st4" width="0.7" height="18.6"/>
					<rect x="228.7" y="253" class="st4" width="0.7" height="18.6"/>
				</g>
			</g>
			<g>
				<rect x="220.9" y="227.6" class="st5" width="61.7" height="23.1"/>
				<g>
					<path class="st6" d="M279.9,248.8h-56.2v-19.3h56.2V248.8z M224.4,248.1h54.8v-17.9h-54.8V248.1z"/>
					<rect x="228.7" y="229.8" class="st6" width="0.7" height="18.6"/>
					<rect x="233.8" y="229.8" class="st6" width="0.7" height="18.6"/>
					<rect x="238.8" y="229.8" class="st6" width="0.7" height="18.6"/>
					<rect x="243.9" y="229.8" class="st6" width="0.7" height="18.6"/>
					<rect x="248.9" y="229.8" class="st6" width="0.7" height="18.6"/>
					<rect x="254" y="229.8" class="st6" width="0.7" height="18.6"/>
					<rect x="259" y="229.8" class="st6" width="0.7" height="18.6"/>
					<rect x="264.1" y="229.8" class="st6" width="0.7" height="18.6"/>
					<rect x="269.1" y="229.8" class="st6" width="0.7" height="18.6"/>
					<rect x="274.1" y="229.8" class="st6" width="0.7" height="18.6"/>
				</g>
			</g>
		</g>
		<g>
			<rect x="100" y="204.5" class="st5" width="61.7" height="23.1"/>
			<g>
				<path class="st6" d="M159,225.7h-56.2v-19.3H159V225.7z M103.5,225h54.8v-17.9h-54.8V225z"/>
				<rect x="107.9" y="206.7" class="st6" width="0.7" height="18.6"/>
				<rect x="112.9" y="206.7" class="st6" width="0.7" height="18.6"/>
				<rect x="117.9" y="206.7" class="st6" width="0.7" height="18.6"/>
				<rect x="123" y="206.7" class="st6" width="0.7" height="18.6"/>
				<rect x="128" y="206.7" class="st6" width="0.7" height="18.6"/>
				<rect x="133.1" y="206.7" class="st6" width="0.7" height="18.6"/>
				<rect x="138.1" y="206.7" class="st6" width="0.7" height="18.6"/>
				<rect x="143.2" y="206.7" class="st6" width="0.7" height="18.6"/>
				<rect x="148.2" y="206.7" class="st6" width="0.7" height="18.6"/>
				<rect x="153.2" y="206.7" class="st6" width="0.7" height="18.6"/>
			</g>
		</g>
		<g>
			<rect x="192.6" y="181.3" class="st5" width="61.7" height="23.1"/>
			<g>
				<path class="st6" d="M251.5,202.5h-56.2v-19.3h56.2V202.5z M196,201.9h54.8v-17.9H196V201.9z"/>
				<rect x="200.4" y="183.6" class="st6" width="0.7" height="18.6"/>
				<rect x="205.4" y="183.6" class="st6" width="0.7" height="18.6"/>
				<rect x="210.5" y="183.6" class="st6" width="0.7" height="18.6"/>
				<rect x="215.5" y="183.6" class="st6" width="0.7" height="18.6"/>
				<rect x="220.6" y="183.6" class="st6" width="0.7" height="18.6"/>
				<rect x="225.6" y="183.6" class="st6" width="0.7" height="18.6"/>
				<rect x="230.7" y="183.6" class="st6" width="0.7" height="18.6"/>
				<rect x="235.7" y="183.6" class="st6" width="0.7" height="18.6"/>
				<rect x="240.8" y="183.6" class="st6" width="0.7" height="18.6"/>
				<rect x="245.8" y="183.6" class="st6" width="0.7" height="18.6"/>
			</g>
		</g>
		<g>
			<g>
				
					<rect x="170.4" y="250.7" transform="matrix(-1 -1.224647e-16 1.224647e-16 -1 402.4046 524.5177)" class="st5" width="61.7" height="23.1"/>
				<g>
					<path class="st6" d="M229.3,271.9h-56.2v-19.3h56.2V271.9z M173.8,271.2h54.8v-17.9h-54.8V271.2z"/>
					<rect x="223.6" y="253" class="st6" width="0.7" height="18.6"/>
					<rect x="218.5" y="253" class="st6" width="0.7" height="18.6"/>
					<rect x="213.5" y="253" class="st6" width="0.7" height="18.6"/>
					<rect x="208.4" y="253" class="st6" width="0.7" height="18.6"/>
					<rect x="203.4" y="253" class="st6" width="0.7" height="18.6"/>
					<rect x="198.3" y="253" class="st6" width="0.7" height="18.6"/>
					<rect x="193.3" y="253" class="st6" width="0.7" height="18.6"/>
					<rect x="188.3" y="253" class="st6" width="0.7" height="18.6"/>
					<rect x="183.2" y="253" class="st6" width="0.7" height="18.6"/>
					<rect x="178.2" y="253" class="st6" width="0.7" height="18.6"/>
				</g>
			</g>
			<g>
				<rect x="170.4" y="227.6" class="st7" width="61.7" height="23.1"/>
				<g>
					<path class="st3" d="M229.4,248.9H173v-19.5h56.4V248.9z M173.9,248h54.6v-17.7h-54.6V248z"/>
					<rect x="178" y="229.8" class="st3" width="0.9" height="18.6"/>
					<rect x="183.1" y="229.8" class="st3" width="0.9" height="18.6"/>
					<rect x="188.1" y="229.8" class="st3" width="0.9" height="18.6"/>
					<rect x="193.2" y="229.8" class="st3" width="0.9" height="18.6"/>
					<rect x="198.2" y="229.8" class="st3" width="0.9" height="18.6"/>
					<rect x="203.3" y="229.8" class="st3" width="0.9" height="18.6"/>
					<rect x="208.3" y="229.8" class="st3" width="0.9" height="18.6"/>
					<rect x="213.4" y="229.8" class="st3" width="0.9" height="18.6"/>
					<rect x="218.4" y="229.8" class="st3" width="0.9" height="18.6"/>
					<rect x="223.4" y="229.8" class="st3" width="0.9" height="18.6"/>
				</g>
			</g>
		</g>
		<g>
			<rect x="161.7" y="204.5" class="st7" width="61.7" height="23.1"/>
			<g>
				<path class="st3" d="M220.8,225.8h-56.4v-19.5h56.4V225.8z M165.3,224.9h54.6v-17.7h-54.6V224.9z"/>
				<rect x="169.4" y="206.7" class="st3" width="0.9" height="18.6"/>
				<rect x="174.5" y="206.7" class="st3" width="0.9" height="18.6"/>
				<rect x="179.5" y="206.7" class="st3" width="0.9" height="18.6"/>
				<rect x="184.6" y="206.7" class="st3" width="0.9" height="18.6"/>
				<rect x="189.6" y="206.7" class="st3" width="0.9" height="18.6"/>
				<rect x="194.7" y="206.7" class="st3" width="0.9" height="18.6"/>
				<rect x="199.7" y="206.7" class="st3" width="0.9" height="18.6"/>
				<rect x="204.7" y="206.7" class="st3" width="0.9" height="18.6"/>
				<rect x="209.8" y="206.7" class="st3" width="0.9" height="18.6"/>
				<rect x="214.8" y="206.7" class="st3" width="0.9" height="18.6"/>
			</g>
		</g>
	</g>
</g>
<g id="_圖層_1" class="st8">
	<g class="st9">
		<g>
			<rect x="32.1" y="127.9" class="st4" width="16.2" height="0.9"/>
			<polygon class="st10" points="32.1,226.7 57.7,226.7 48.3,128.4 32.1,128.4 			"/>
			
				<rect x="28" y="118.3" transform="matrix(-1 -1.224647e-16 1.224647e-16 -1 80.5293 246.7215)" class="st10" width="24.6" height="10.1"/>
			<polygon class="st10" points="26,116 54.5,116 52.5,119.2 28.1,119.2 			"/>
			
				<rect x="28" y="121.5" transform="matrix(-1 -1.224647e-16 1.224647e-16 -1 80.5293 246.7215)" class="st7" width="24.6" height="3.8"/>
			<g>
				
					<rect x="47.7" y="122.2" transform="matrix(-1 -1.224647e-16 1.224647e-16 -1 98.9494 246.7215)" class="st3" width="3.6" height="2.4"/>
				
					<rect x="41.6" y="122.2" transform="matrix(-1 -1.224647e-16 1.224647e-16 -1 86.6693 246.7215)" class="st3" width="3.6" height="2.4"/>
				
					<rect x="35.4" y="122.2" transform="matrix(-1 -1.224647e-16 1.224647e-16 -1 74.3892 246.7215)" class="st3" width="3.6" height="2.4"/>
				
					<rect x="29.3" y="122.2" transform="matrix(-1 -1.224647e-16 1.224647e-16 -1 62.1091 246.7215)" class="st3" width="3.6" height="2.4"/>
			</g>
			<rect x="28.1" y="118.7" class="st4" width="24.5" height="0.9"/>
			<rect x="44.5" y="102.3" class="st10" width="0.9" height="14.9"/>
			<rect x="33.9" y="110.7" class="st10" width="0.9" height="6.5"/>
			<rect x="42.9" y="105" class="st10" width="4.1" height="0.9"/>
			<rect x="42.9" y="112.6" class="st10" width="4.1" height="0.9"/>
			<rect x="32.3" y="110.4" class="st10" width="4.1" height="0.9"/>
			<rect x="32.3" y="112.1" class="st10" width="4.1" height="0.9"/>
			<rect x="42.9" y="107.3" class="st10" width="4.1" height="0.9"/>
			<polygon class="st4" points="50,202.9 32.1,202.9 32.1,202 49,202 42.9,143.6 32.1,143.6 32.1,142.7 43.7,142.7 43.8,143.1 			
				"/>
			<path class="st4" d="M28.4,226.7c0,0-0.5-5.4-4.1-7.3c-3.6-1.9-23.7-6.2-23.7-6.2v13.5H28.4z"/>
			<path class="st7" d="M28.4,227.1H0.6c-0.3,0-0.5-0.2-0.5-0.5v-13.5c0-0.1,0.1-0.3,0.2-0.4c0.1-0.1,0.3-0.1,0.4-0.1
				c0.8,0.2,20.3,4.3,23.9,6.3c3.8,2,4.3,7.4,4.4,7.7c0,0.1,0,0.3-0.1,0.3C28.7,227.1,28.6,227.1,28.4,227.1z M1,226.2h26.9
				c-0.2-1.3-1.1-5-3.8-6.5c-3.2-1.7-19.8-5.4-23.1-6.1V226.2z"/>
			<path class="st11" d="M232.8,208.7c-2.7,10.3-12.1,18-23.3,18H0.1v16.5c2.2,16.8,10.9,29,29.3,34.3h309.1c0,0,42.4-16,61.5-68.8
				H232.8z"/>
			<path class="st1" d="M12.3,268.5c4.4,3.9,10,7,17,9h309.1c0,0,6.8-2.6,16.2-9H12.3z"/>
			<polygon class="st7" points="380.9,243.6 0.1,243.6 0.1,242.7 381.6,242.7 			"/>
			<rect y="226.2" class="st7" width="296.2" height="0.9"/>
			<polygon class="st10" points="379.5,208.7 388.4,208.7 386.8,192.1 381.1,192.1 			"/>
			
				<rect x="380" y="190.6" transform="matrix(-1 -1.224647e-16 1.224647e-16 -1 767.8935 383.0768)" class="st11" width="7.9" height="1.9"/>
			<path class="st7" d="M337,260.9h-18.3c-2.4,0-4.3-1.9-4.3-4.3c0-2.4,1.9-4.3,4.3-4.3H337c2.4,0,4.3,1.9,4.3,4.3
				C341.3,258.9,339.4,260.9,337,260.9z M318.7,253.1c-1.9,0-3.4,1.5-3.4,3.4c0,1.9,1.5,3.4,3.4,3.4H337c1.9,0,3.4-1.5,3.4-3.4
				c0-1.9-1.5-3.4-3.4-3.4H318.7z"/>
			<g>
				<path class="st12" d="M310.4,208.7h50.9v34h-50.9V208.7z"/>
				<rect x="310.4" y="208.7" class="st7" width="25.5" height="17"/>
				<path class="st10" d="M328.6,214l-2.8,0.8c0.3,0.4,0.6,0.8,0.8,1.3L328.6,214z"/>
				<path class="st10" d="M328.6,220.4l-2.1-2.1c-0.2,0.5-0.4,0.9-0.8,1.3L328.6,220.4z"/>
				<path class="st10" d="M326.6,218l2.8-0.8l-2.8-0.8c0.1,0.2,0.1,0.5,0.1,0.8C326.7,217.5,326.7,217.7,326.6,218z"/>
				<path class="st10" d="M326.3,211.7l-2.1,2.1c0.5,0.2,0.9,0.4,1.3,0.8L326.3,211.7z"/>
				<path class="st10" d="M323.9,213.7l-0.8-2.8l-1.1,2.9c0.3-0.1,0.7-0.2,1.1-0.2C323.4,213.6,323.6,213.6,323.9,213.7z"/>
				<path class="st10" d="M326.3,222.7l-0.8-2.8c-0.4,0.3-0.8,0.6-1.3,0.8L326.3,222.7z"/>
				<path class="st10" d="M319.9,222.7l2.1-2.1c-0.5-0.2-0.9-0.4-1.3-0.8L319.9,222.7z"/>
				<path class="st10" d="M317.6,214l2.1,2.1c0.2-0.5,0.4-0.9,0.8-1.3L317.6,214z"/>
				<path class="st10" d="M317.6,220.4l2.8-0.8c-0.3-0.4-0.6-0.8-0.8-1.3L317.6,220.4z"/>
				<path class="st10" d="M319.9,211.7l0.8,2.8c0.4-0.3,0.8-0.6,1.3-0.8L319.9,211.7z"/>
				<path class="st10" d="M319.6,216.5l-2.8,0.8l2.8,0.8c-0.1-0.2-0.1-0.5-0.1-0.8C319.5,217,319.5,216.7,319.6,216.5z"/>
				<path class="st10" d="M322.4,220.7l0.8,2.8l0.8-2.8c-0.2,0.1-0.5,0.1-0.8,0.1C322.9,220.8,322.6,220.8,322.4,220.7z"/>
				<path class="st10" d="M323.1,214.4c-1.6,0-2.8,1.3-2.8,2.8c0,1.6,1.3,2.8,2.8,2.8c1.6,0,2.8-1.3,2.8-2.8
					C326,215.6,324.7,214.4,323.1,214.4z"/>
				<path class="st13" d="M322,213.8C322,213.8,322,213.8,322,213.8L322,213.8L322,213.8z"/>
			</g>
		</g>
		<g>
			<path class="st10" d="M14.8,258.9c3.3-3.1,5.4-5.2,5.4-7.1c0-1.2-0.7-2-1.9-2c-0.9,0-1.7,0.6-2.3,1.3l-1.4-1.4
				c1.2-1.2,2.3-1.9,4-1.9c2.4,0,3.9,1.5,3.9,3.8c0,2.1-2,4.3-4.2,6.7c0.6-0.1,1.5-0.1,2-0.1h2.7v2.1h-8.4V258.9z"/>
			<path class="st10" d="M24.7,254.2c0-4.1,1.7-6.3,4.2-6.3s4.2,2.2,4.2,6.3c0,4.1-1.7,6.4-4.2,6.4S24.7,258.4,24.7,254.2z
				 M30.9,254.2c0-3.4-0.8-4.3-1.9-4.3c-1.1,0-1.9,0.9-1.9,4.3c0,3.4,0.8,4.5,1.9,4.5C30.1,258.7,30.9,257.6,30.9,254.2z"/>
			<path class="st10" d="M34.7,258.9c3.3-3.1,5.4-5.2,5.4-7.1c0-1.2-0.7-2-1.9-2c-0.9,0-1.7,0.6-2.3,1.3l-1.4-1.4
				c1.2-1.2,2.3-1.9,4-1.9c2.4,0,3.9,1.5,3.9,3.8c0,2.1-2,4.3-4.2,6.7c0.6-0.1,1.5-0.1,2-0.1h2.7v2.1h-8.4V258.9z"/>
			<path class="st10" d="M44.7,258.9c3.3-3.1,5.4-5.2,5.4-7.1c0-1.2-0.7-2-1.9-2c-0.9,0-1.7,0.6-2.3,1.3l-1.4-1.4
				c1.2-1.2,2.3-1.9,4-1.9c2.4,0,3.9,1.5,3.9,3.8c0,2.1-2,4.3-4.2,6.7c0.6-0.1,1.5-0.1,2-0.1h2.7v2.1h-8.4V258.9z"/>
		</g>
	</g>
</g>
<g id="圖層_6" class="st8">
	<rect x="191.4" y="-132.2" class="st14" width="1" height="32"/>
	<path class="st14" d="M220.9-75.8l-29.2-15.5l-29.2,15.5l-0.4-0.8l29.4-15.6c0.1-0.1,0.3-0.1,0.4,0l29.4,15.6L220.9-75.8z"/>
	<path class="st14" d="M191.7-90.3c-1.3,0-2.3-1.1-2.3-2.3h0.9c0,0.8,0.6,1.4,1.4,1.4c0.8,0,1.4-0.6,1.4-1.4c0-0.8-0.6-1.4-1.4-1.4
		h-0.5v-6.8h0.9v6c1.1,0.2,1.9,1.2,1.9,2.3C194.1-91.4,193-90.3,191.7-90.3z"/>
	<g class="st9">
		<polygon points="316,227.6 285.1,227.6 285.1,204.5 254.3,204.5 254.3,181.3 192.6,181.3 130.9,181.3 130.9,204.5 100,204.5 
			100,227.6 69.2,227.6 69.2,250.7 69.2,250.7 69.2,273.8 130.9,273.8 192.6,273.8 254.3,273.8 316,273.8 377.7,273.8 377.7,250.7 
			377.7,250.7 377.7,227.6 		"/>
	</g>
</g>
</svg>
