<?xml version="1.0" encoding="UTF-8"?>
<svg id="_1" data-name="1" xmlns="http://www.w3.org/2000/svg" xmlns:xlink="http://www.w3.org/1999/xlink" viewBox="0 0 300 300">
  <defs>
    <style>
      .cls-1 {
        fill: #fff;
      }

      .cls-2 {
        fill: #2a59ff;
      }

      .cls-3 {
        fill: #f83462;
      }

      .cls-4 {
        stroke: #fff;
        stroke-linecap: round;
        stroke-linejoin: round;
        stroke-width: 8px;
      }

      .cls-4, .cls-5 {
        fill: none;
      }

      .cls-6 {
        fill: #27d8ae;
      }

      .cls-7 {
        clip-path: url(#clippath);
      }

      .cls-8 {
        fill: #271e49;
      }
    </style>
    <clipPath id="clippath">
      <rect class="cls-5" x="18.87" y="64.4" width="240.13" height="229.53"/>
    </clipPath>
  </defs>
  <g>
    <g id="Path_5534" data-name="Path 5534">
      <path class="cls-1" d="m224.22,230.55h-12.58c-3.04,0-5.5-2.46-5.5-5.5s2.46-5.5,5.5-5.5h7.08v-99.49h-22.32c-3.04,0-5.5-2.46-5.5-5.5s2.46-5.5,5.5-5.5h27.82c3.04,0,5.5,2.46,5.5,5.5v110.49c0,3.04-2.46,5.5-5.5,5.5Z"/>
    </g>
    <g id="Group_1584" data-name="Group 1584">
      <g class="cls-7">
        <g id="Group_1583" data-name="Group 1583">
          <path id="Path_5535" data-name="Path 5535" class="cls-1" d="m190.78,219.7h-14.98c-1.33.03-2.43-1.01-2.47-2.34-.03-1.33,1.01-2.43,2.34-2.47.04,0,.08,0,.13,0h14.98c1.33-.03,2.43,1.01,2.47,2.34.03,1.33-1.01,2.43-2.34,2.47-.04,0-.08,0-.13,0"/>
          <path id="Path_5536" data-name="Path 5536" class="cls-1" d="m190.78,234.68h-14.98c-1.33.03-2.43-1.01-2.47-2.34-.03-1.33,1.01-2.43,2.34-2.47.04,0,.08,0,.13,0h14.98c1.33-.03,2.43,1.01,2.47,2.34.03,1.33-1.01,2.43-2.34,2.47-.04,0-.08,0-.13,0"/>
          <path id="Path_5537" data-name="Path 5537" class="cls-3" d="m144.24,293.94c-63.38,0-114.77-51.38-114.77-114.76,0-30.44,12.09-59.64,33.62-81.16,44.82-44.82,117.49-44.82,162.31,0,44.82,44.82,44.82,117.49,0,162.31-21.48,21.59-50.7,33.69-81.15,33.61m0-212.41c-53.93,0-97.65,43.72-97.65,97.65s43.72,97.65,97.65,97.65,97.65-43.72,97.65-97.65h0c-.06-53.91-43.74-97.59-97.65-97.65"/>
          <path id="Path_5538" data-name="Path 5538" class="cls-1" d="m103.57,141.05c-12.56,0-22.74-11.86-22.74-26.48s10.18-26.49,22.74-26.49h70.09c12.56,0,22.74,11.86,22.74,26.48s-10.18,26.49-22.74,26.49h-70.09Z"/>
          <path id="Path_5539" data-name="Path 5539" class="cls-1" d="m73.63,241.1H22.66c-2.1,0-3.79-1.7-3.79-3.79,0-.57.13-1.13.38-1.65l46.1-95.68c.63-1.31,1.96-2.15,3.42-2.15h50.97c2.1,0,3.79,1.7,3.79,3.79,0,.57-.13,1.13-.38,1.65l-46.1,95.68c-.63,1.31-1.96,2.15-3.42,2.15"/>
          <path id="Path_5540" data-name="Path 5540" class="cls-2" d="m72.6,236.28H23.05l45.9-95.22h49.55l-45.9,95.22Z"/>
          <path id="Path_5541" data-name="Path 5541" class="cls-1" d="m143.85,241.1h-49.51c-2.46,0-4.45-1.99-4.45-4.45,0-.67.15-1.33.44-1.93l45.47-94.36c.74-1.54,2.3-2.52,4.01-2.52h49.51c2.46,0,4.45,1.99,4.45,4.45,0,.67-.15,1.33-.44,1.93l-45.47,94.36c-.74,1.54-2.3,2.52-4.01,2.52"/>
          <path id="Path_5542" data-name="Path 5542" class="cls-2" d="m143.22,236.28h-49.55l45.9-95.22h49.55l-45.9,95.22Z"/>
          <path id="Path_5543" data-name="Path 5543" class="cls-6" d="m106.51,99.59l-9.07,14.21-2.16-4.35,12.07-.44c1.64-.17,3.12,1.02,3.29,2.66.08.77-.14,1.55-.62,2.16l-9.86,12.42c-.47.58-1.32.66-1.9.19-.47-.39-.63-1.05-.37-1.6l6.78-14.34,2.68,4.82-12.07-.44h-.32c-1.44-.08-2.56-1.31-2.49-2.75.03-.59.26-1.15.65-1.6l11.26-12.55c.5-.55,1.35-.58,1.9-.08.47.44.57,1.15.23,1.7"/>
          <path id="Path_5544" data-name="Path 5544" class="cls-8" d="m105.18,161.92h-42.8c-.15,0-.27-.12-.27-.27s.12-.27.27-.27h42.8c.15,0,.27.12.27.27s-.12.27-.27.27h0"/>
          <path id="Path_5545" data-name="Path 5545" class="cls-8" d="m56.49,233.07c-.15,0-.27-.12-.27-.26,0-.04,0-.08.03-.12l43.12-90.64c.07-.13.23-.18.36-.12.13.06.18.22.12.35l-43.12,90.65c-.04.09-.14.15-.24.15"/>
          <path id="Path_5546" data-name="Path 5546" class="cls-8" d="m39.37,233.07c-.15,0-.27-.12-.27-.26,0-.04,0-.08.03-.12l43.12-90.64c.06-.14.22-.2.35-.14.14.06.2.22.14.35,0,0,0,0,0,.01l-43.12,90.65c-.04.09-.14.15-.24.15"/>
          <path id="Path_5547" data-name="Path 5547" class="cls-8" d="m128.72,233.07c-.15,0-.27-.12-.27-.26,0-.04,0-.08.03-.12l43.12-90.64c.06-.14.22-.2.35-.14.14.06.2.22.14.35,0,0,0,0,0,.01l-43.12,90.65c-.04.09-.14.15-.24.15"/>
          <path id="Path_5548" data-name="Path 5548" class="cls-8" d="m111.6,233.07c-.15,0-.27-.12-.27-.26,0-.04,0-.08.03-.12l43.12-90.64c.07-.13.23-.18.36-.12.13.06.18.22.12.35l-43.12,90.65c-.04.09-.14.15-.24.15"/>
          <path id="Path_5549" data-name="Path 5549" class="cls-8" d="m93.94,186.53h-42.8c-.15,0-.27-.12-.27-.27s.12-.27.27-.27h42.8c.15,0,.27.12.27.27s-.12.27-.27.27"/>
          <path id="Path_5550" data-name="Path 5550" class="cls-8" d="m82.17,211.14h-42.8c-.15,0-.27-.12-.27-.27s.12-.27.27-.27h42.8c.15,0,.27.12.27.27s-.12.27-.27.27"/>
          <path id="Path_5551" data-name="Path 5551" class="cls-8" d="m177.94,161.92h-42.8c-.15,0-.27-.12-.27-.27s.12-.27.27-.27h42.8c.15,0,.27.12.27.27s-.12.27-.27.27"/>
          <path id="Path_5552" data-name="Path 5552" class="cls-8" d="m166.71,186.53h-42.8c-.15,0-.27-.12-.27-.27s.12-.27.27-.27h42.8c.15,0,.27.12.27.27s-.12.27-.27.27"/>
          <path id="Path_5553" data-name="Path 5553" class="cls-8" d="m154.93,211.14h-42.8c-.15,0-.27-.12-.27-.27s.12-.27.27-.27h42.8c.15,0,.27.12.27.27s-.12.27-.27.27"/>
          <path id="Path_5554" data-name="Path 5554" class="cls-8" d="m157.12,134.09h-62.11c-.15,0-.27-.12-.27-.27,0-.15.12-.27.27-.27h61.54c-4.09-5.02-6.42-12-6.42-19.26,0-9.46,4.1-18.44,10.45-22.86.12-.08.29-.06.37.07.08.12.06.29-.07.37h0c-6.21,4.34-10.22,13.13-10.22,22.43,0,7.35,2.43,14.4,6.67,19.36.1.11.08.28-.03.38-.05.04-.11.06-.17.06"/>
          <path id="Path_5555" data-name="Path 5555" class="cls-2" d="m193.72,114.57c0,12.91-8.98,23.37-20.06,23.37s-20.07-10.46-20.07-23.37,8.98-23.37,20.07-23.37,20.06,10.46,20.06,23.37"/>
          <path id="Path_5556" data-name="Path 5556" class="cls-8" d="m140.24,131.15c-.73,0-1.32-.59-1.32-1.32s.59-1.32,1.32-1.32,1.32.59,1.32,1.32h0c0,.73-.59,1.31-1.32,1.32m0-2.09c-.43,0-.78.35-.78.78s.35.78.78.78c.43,0,.78-.35.78-.78h0c0-.43-.35-.78-.78-.78"/>
          <path id="Path_5557" data-name="Path 5557" class="cls-8" d="m130.9,131.15c-.73,0-1.32-.59-1.32-1.32s.59-1.32,1.32-1.32,1.32.59,1.32,1.32h0c0,.73-.59,1.31-1.32,1.32m0-2.09c-.43,0-.78.35-.78.78s.35.78.78.78c.43,0,.78-.35.78-.78h0c0-.43-.35-.78-.78-.78"/>
          <path id="Path_5558" data-name="Path 5558" class="cls-2" d="m200.32,241.37h-12.52c-1.45,0-2.63-1.18-2.63-2.63v-27.37c0-1.45,1.18-2.63,2.63-2.63h12.52c6.26,0,11.33,5.07,11.33,11.33v9.97c0,6.26-5.07,11.33-11.33,11.33"/>
          <path id="Path_5559" data-name="Path 5559" class="cls-4" d="m200.32,241.37h-12.52c-1.45,0-2.63-1.18-2.63-2.63v-27.37c0-1.45,1.18-2.63,2.63-2.63h12.52c6.26,0,11.33,5.07,11.33,11.33v9.97c0,6.26-5.07,11.33-11.33,11.33h0Z"/>
          <rect id="Rectangle_882" data-name="Rectangle 882" class="cls-3" x="39.9" y="170.61" width="208.67" height="17.12" transform="translate(-84.45 154.47) rotate(-45)"/>
        </g>
      </g>
    </g>
  </g>
  <rect class="cls-5" width="300" height="300"/>
</svg>