<?xml version="1.0" encoding="UTF-8"?>
<svg id="_1" data-name="1" xmlns="http://www.w3.org/2000/svg" xmlns:xlink="http://www.w3.org/1999/xlink" viewBox="0 0 300 300">
  <defs>
    <style>
      .cls-1 {
        fill: url(#_未命名漸層_2);
      }

      .cls-2 {
        clip-path: url(#clippath-2);
      }

      .cls-3 {
        fill: #f83462;
      }

      .cls-4 {
        clip-path: url(#clippath-1);
      }

      .cls-5 {
        fill: #27d8ae;
      }

      .cls-6 {
        clip-path: url(#clippath);
      }

      .cls-7 {
        fill: none;
      }

      .cls-8 {
        clip-path: url(#clippath-3);
      }

      .cls-9 {
        fill: #271e49;
      }

      .cls-10 {
        fill: #f7d627;
      }
    </style>
    <clipPath id="clippath">
      <rect class="cls-7" x="28.53" y="6.02" width="229.98" height="287.85"/>
    </clipPath>
    <clipPath id="clippath-1">
      <path class="cls-7" d="m107.34,100.47c-21.44.53-42.89,20.9-43.43,44.22v41.28c-.01,25.91,16.16,46.91,42.07,46.91h0c1.62,0,5.09,0,4.8-.24.83-20.66,19.06-19.05,31.93-31.38,2.52-2.41,10.19-11.64,10.19-15.28v-41.28c.01-25.91-18.04-44.23-43.94-44.23h-1.61Z"/>
    </clipPath>
    <clipPath id="clippath-2">
      <path class="cls-7" d="m147.53,203.94c-14.65,12.76-34.85,12.39-31.1,34.84,3.75,22.45,49.32,23.06,49.32,23.06,0,0,37.02,3.11,57.36-26.26,9.65-13.94-3.72-37.54-18.22-43.42-6.02-2.46-12.45-3.74-18.95-3.75-13.66,0-27.04,5.63-38.41,15.53"/>
    </clipPath>
    <linearGradient id="_未命名漸層_2" data-name="未命名漸層 2" x1="-806.48" y1="688.43" x2="-805.51" y2="688.46" gradientTransform="translate(95803.62 52311.46) scale(118.66 -75.63)" gradientUnits="userSpaceOnUse">
      <stop offset="0" stop-color="#f7d627"/>
      <stop offset="1" stop-color="#f83462"/>
    </linearGradient>
    <clipPath id="clippath-3">
      <rect class="cls-7" x="28.53" y="6.02" width="229.98" height="287.85"/>
    </clipPath>
  </defs>
  <rect class="cls-7" width="300" height="300"/>
  <g>
    <g class="cls-6">
      <g id="Group_1908" data-name="Group 1908">
        <path id="Path_5782" data-name="Path 5782" class="cls-3" d="m143.5,293.87c-63.51,0-114.98-51.5-114.97-115.01,0-63.51,51.5-114.98,115.01-114.97,63.51,0,114.98,51.5,114.97,115.01,0,30.5-12.12,59.74-33.69,81.3-21.52,21.63-50.8,33.75-81.31,33.67m.03-212.82c-54.03,0-97.84,43.79-97.85,97.82,0,54.03,43.79,97.84,97.82,97.85,54.03,0,97.84-43.79,97.85-97.82-.05-54.01-43.81-97.78-97.82-97.85"/>
        <path id="Path_5783" data-name="Path 5783" class="cls-5" d="m95.04,107.97s2.18-15.39-26.16-25.01c0,0,10.98-6.26,26.2,1.68,0,0-19.65-28.61-34.91-34.39,0,0,24.06-.86,34.92,8.23,0,0-8.72-15.72-17.46-20.63,0,0,19.6,2.79,23.96,10.48,0,0,2.19-38.48,13.09-42.32,0,0,2.18,26.93,6.53,38.48,0,0,15.26-11.54,28.34-13.46,0,0-23.99,19.23-23.99,32.7,0,0,19.62-11.54,32.7-15.39,0,0-28.34,23.08-37.07,34.62,0,0,21.8-9.62,28.34-7.69,0,0-19.62,13.46-21.8,19.23-1.54,4.4-2.76,8.9-3.67,13.47h-29.03Z"/>
        <path id="Path_5784" data-name="Path 5784" class="cls-9" d="m110.82,108.66c-.14,0-.27-.11-.29-.25-6.09-39.93-.05-90.83.01-91.34.02-.16.16-.27.33-.26s.27.16.26.33c-.06.51-6.1,51.34-.01,91.18.02.16-.08.31-.24.33h0s-.03,0-.04,0"/>
        <path id="Path_5785" data-name="Path 5785" class="cls-10" d="m110.8,235.56h0c-25.91,0-46.9-21.01-46.9-46.91h0s0-41.28,0-41.28c.01-25.91,21.02-46.9,46.93-46.88,25.89.01,46.88,21,46.88,46.9v41.28c0,25.91-21.01,46.91-46.92,46.9h0"/>
      </g>
    </g>
    <g id="Group_1911" data-name="Group 1911">
      <g class="cls-4">
        <g id="Group_1910" data-name="Group 1910">
          <path id="Path_5786" data-name="Path 5786" class="cls-9" d="m159.26,178.5s-.08,0-.11-.02l-106.57-44.6c-.15-.06-.22-.23-.16-.38.06-.15.23-.22.38-.16l106.57,44.6c.15.06.22.23.16.38-.05.11-.15.18-.27.18"/>
          <path id="Path_5787" data-name="Path 5787" class="cls-9" d="m159.26,145.26s-.08,0-.11-.02l-106.57-44.6c-.15-.06-.22-.23-.16-.38.06-.15.23-.22.38-.16l106.57,44.6c.15.06.22.23.16.38-.05.11-.15.18-.27.18"/>
          <path id="Path_5788" data-name="Path 5788" class="cls-9" d="m159.25,242.29s-.08,0-.11-.02l-106.57-44.59c-.15-.06-.22-.23-.16-.38.06-.15.23-.22.38-.16l106.57,44.6c.15.06.22.23.16.38-.05.11-.15.18-.27.18"/>
          <path id="Path_5789" data-name="Path 5789" class="cls-9" d="m159.25,209.06s-.08,0-.11-.02l-106.57-44.6c-.15-.06-.22-.23-.16-.38.06-.15.23-.22.38-.16l106.57,44.6c.15.06.22.23.16.38-.05.11-.15.18-.27.18"/>
          <path id="Path_5790" data-name="Path 5790" class="cls-9" d="m52.68,178.48c-.16,0-.29-.13-.29-.29,0-.12.07-.23.18-.27l106.58-44.56c.15-.06.32,0,.38.16.06.15,0,.32-.16.38l-106.58,44.56s-.07.02-.11.02"/>
          <path id="Path_5791" data-name="Path 5791" class="cls-9" d="m52.68,145.25c-.16,0-.29-.13-.29-.29,0-.12.07-.23.18-.27l106.58-44.56c.15-.06.32,0,.38.16.06.15,0,.32-.16.38l-106.58,44.56s-.07.02-.11.02"/>
          <path id="Path_5792" data-name="Path 5792" class="cls-9" d="m52.67,242.28c-.16,0-.29-.13-.29-.29,0-.12.07-.23.18-.27l106.58-44.56c.15-.06.32,0,.38.16.06.15,0,.32-.16.38l-106.58,44.56s-.07.02-.11.02"/>
          <path id="Path_5793" data-name="Path 5793" class="cls-9" d="m52.67,209.04c-.16,0-.29-.13-.29-.29,0-.12.07-.23.18-.27l106.58-44.56c.15-.06.32,0,.38.16.06.15,0,.32-.16.38h0l-106.58,44.56s-.07.02-.11.02"/>
        </g>
      </g>
    </g>
    <g id="Group_1913" data-name="Group 1913">
      <g class="cls-2">
        <g id="Group_1912" data-name="Group 1912">
          <rect id="Rectangle_1104" data-name="Rectangle 1104" class="cls-1" x="112.68" y="188.41" width="120.08" height="76.54"/>
        </g>
      </g>
    </g>
    <g class="cls-8">
      <g id="Group_1914" data-name="Group 1914">
        <path id="Path_5796" data-name="Path 5796" class="cls-9" d="m163.96,259.54c-1.83,0-2.93-.08-3.06-.09-7.86-.25-15.66-1.29-23.31-3.12-15.64-3.9-24.73-10.88-26.28-20.18-2.62-15.67,6.4-20.44,16.83-25.96,4.83-2.56,9.82-5.2,14.36-9.15,17.54-15.27,38.56-19.59,57.66-11.83,8.82,3.58,17.2,13.52,20.38,24.19,2.25,7.55,1.53,14.54-2.03,19.68-10.56,15.25-25.67,21.61-36.48,24.26-5.92,1.45-11.99,2.19-18.08,2.22m17.11-73.52c-13.2,0-26.47,5.26-38.18,15.46-4.59,4-9.61,6.65-14.47,9.22-10.66,5.64-19.08,10.1-16.53,25.35,3.67,21.95,48.58,22.81,49.03,22.82h.02c7.06.32,14.13-.39,20.98-2.11,10.71-2.63,25.67-8.93,36.12-24.02,3.46-4.99,4.15-11.8,1.95-19.18-3.14-10.51-11.37-20.3-20.04-23.81-5.99-2.45-12.41-3.72-18.88-3.73"/>
        <rect id="Rectangle_1105" data-name="Rectangle 1105" class="cls-3" x="38.98" y="170.3" width="209.07" height="17.15" transform="translate(-84.45 153.83) rotate(-44.99)"/>
      </g>
    </g>
  </g>
</svg>