<?xml version="1.0" encoding="UTF-8"?>
<svg id="_1" data-name="1" xmlns="http://www.w3.org/2000/svg" xmlns:xlink="http://www.w3.org/1999/xlink" viewBox="0 0 300 300">
  <defs>
    <style>
      .cls-1 {
        fill: #fff;
      }

      .cls-2 {
        fill: #2a59ff;
      }

      .cls-3 {
        clip-path: url(#clippath-2);
      }

      .cls-4 {
        fill: #f83462;
      }

      .cls-5 {
        clip-path: url(#clippath-1);
      }

      .cls-6 {
        clip-path: url(#clippath-4);
      }

      .cls-7 {
        stroke-dasharray: 0 0 14.05 14.05;
      }

      .cls-7, .cls-8, .cls-9, .cls-10 {
        fill: none;
      }

      .cls-7, .cls-9, .cls-10 {
        stroke: #271e49;
      }

      .cls-7, .cls-10 {
        stroke-linecap: round;
        stroke-linejoin: round;
      }

      .cls-11 {
        fill: #27d8ae;
      }

      .cls-12 {
        clip-path: url(#clippath);
      }

      .cls-13 {
        clip-path: url(#clippath-3);
      }

      .cls-9 {
        stroke-miterlimit: 10;
        stroke-width: 1.17px;
      }

      .cls-14 {
        fill: #271e49;
      }

      .cls-15 {
        clip-path: url(#clippath-5);
      }
    </style>
    <clipPath id="clippath">
      <rect class="cls-8" x="27.53" y="62.77" width="231.16" height="231.33"/>
    </clipPath>
    <clipPath id="clippath-1">
      <rect class="cls-8" x="29.16" y="64.4" width="229.53" height="246.01"/>
    </clipPath>
    <clipPath id="clippath-2">
      <path class="cls-8" d="m104.67,130.36l-18.88-24.62-10.06,11.45s-22.16,8.33-27.35,20.82c-5.2,12.49-12.47,56.21-12.47,56.21h14.62l-.07,44.76h108.86v-44.56h13.78s-6.76-46.52-11.95-56.92c-5.2-10.41-28.06-20.82-28.06-20.82l-9.59-10.93-18.82,24.63Z"/>
    </clipPath>
    <clipPath id="clippath-3">
      <rect class="cls-8" x="29.16" y="64.4" width="229.53" height="246.01"/>
    </clipPath>
    <clipPath id="clippath-4">
      <path class="cls-8" d="m143.93,64.4c-63.38,0-114.77,51.38-114.77,114.76,0,30.44,12.09,59.63,33.61,81.15,44.82,44.82,117.49,44.82,162.31,0,44.82-44.82,44.82-117.49,0-162.31-21.48-21.59-50.7-33.7-81.15-33.61Z"/>
    </clipPath>
    <clipPath id="clippath-5">
      <rect class="cls-8" x="29.16" y="64.4" width="229.53" height="246.01"/>
    </clipPath>
  </defs>
  <g class="cls-12">
    <g id="Scroll_Group_4" data-name="Scroll Group 4">
      <g id="Group_1605" data-name="Group 1605">
        <g id="Group_1596" data-name="Group 1596">
          <g class="cls-5">
            <g id="Group_1595" data-name="Group 1595">
              <path id="Path_5575" data-name="Path 5575" class="cls-14" d="m117.98,114.71c-13.61-3.53-26.87-.45-27-.42l-.12-.52c.13-.03,13.52-3.15,27.26.42l-.14.52Z"/>
              <path id="Path_5576" data-name="Path 5576" class="cls-4" d="m143.93,293.94c-63.38,0-114.77-51.38-114.77-114.76,0-30.44,12.09-59.64,33.62-81.16,44.82-44.82,117.49-44.82,162.31,0,44.82,44.82,44.82,117.49,0,162.31-21.48,21.59-50.7,33.69-81.15,33.61m0-212.41c-53.93,0-97.65,43.72-97.65,97.65s43.72,97.65,97.65,97.65,97.65-43.72,97.65-97.65h0c-.06-53.91-43.74-97.59-97.65-97.65"/>
              <path id="Path_5577" data-name="Path 5577" class="cls-11" d="m104.67,130.36l-18.88-24.62-10.06,11.45s-22.16,8.33-27.35,20.81c-5.2,12.49-12.47,56.21-12.47,56.21h14.62l-.07,44.76h108.86v-44.56h13.78s-6.76-46.52-11.95-56.92c-5.2-10.41-28.06-20.82-28.06-20.82l-9.59-10.93-18.82,24.63Z"/>
            </g>
          </g>
        </g>
        <g id="Group_1598" data-name="Group 1598">
          <g class="cls-3">
            <g id="Group_1597" data-name="Group 1597">
              <path id="Path_5578" data-name="Path 5578" class="cls-14" d="m116.17,146.15c-.09,0-.17-.04-.22-.11l-11.14-15.47-10.03,15.46c-.05.08-.13.12-.22.12h0c-.09,0-.18-.05-.22-.12l-20.31-32.12c-.08-.12-.05-.29.07-.37.12-.08.29-.05.37.07,0,0,0,0,0,.01l20.09,31.77,10.02-15.44c.05-.07.13-.12.22-.12.09,0,.17.04.22.11l11.12,15.45,18.35-33.09c.07-.13.23-.18.36-.11s.18.23.11.36c0,0,0,0,0,.01l-18.56,33.46c-.04.08-.13.13-.22.14h-.02"/>
              <path id="Path_5579" data-name="Path 5579" class="cls-14" d="m110.68,160.34c-1.04,0-1.88-.84-1.88-1.87,0-1.04.84-1.88,1.87-1.88,1.04,0,1.88.84,1.88,1.87,0,0,0,0,0,0,0,1.03-.84,1.87-1.87,1.88m0-3.21c-.74,0-1.34.6-1.34,1.34s.6,1.34,1.34,1.34,1.34-.6,1.34-1.34h0c0-.74-.6-1.34-1.34-1.34"/>
              <path id="Path_5580" data-name="Path 5580" class="cls-14" d="m110.68,189.78c-1.04,0-1.88-.84-1.88-1.87,0-1.04.84-1.88,1.87-1.88,1.04,0,1.88.84,1.88,1.87,0,0,0,0,0,0,0,1.03-.84,1.87-1.87,1.88m0-3.21c-.74,0-1.34.6-1.34,1.34s.6,1.34,1.34,1.34,1.34-.6,1.34-1.34h0c0-.74-.6-1.34-1.34-1.34"/>
              <path id="Path_5581" data-name="Path 5581" class="cls-14" d="m104.49,239.03h0c-.15,0-.27-.12-.27-.27l.31-108.67c0-.15.12-.27.27-.27h0c.15,0,.27.12.27.27h0l-.31,108.67c0,.15-.12.27-.27.27"/>
              <path id="Path_5582" data-name="Path 5582" class="cls-14" d="m50.28,194.6c-.15,0-.27-.12-.27-.27h0v-24.62c0-.15.12-.27.27-.27.15,0,.27.12.27.27v24.62c0,.15-.12.27-.27.27h0"/>
              <path id="Path_5583" data-name="Path 5583" class="cls-14" d="m159.86,194.6c-.15,0-.27-.12-.27-.27h0v-24.62c0-.15.12-.27.27-.27s.27.12.27.27h0v24.62c0,.15-.12.27-.27.27h0"/>
            </g>
          </g>
        </g>
        <g id="Group_1600" data-name="Group 1600">
          <g class="cls-13">
            <g id="Group_1599" data-name="Group 1599">
              <path id="Path_5585" data-name="Path 5585" class="cls-1" d="m183.45,181.77v13.91h-24.34v-39.94h50.12s28.64,2.22,29.35,44.1c.72,41.88,0,39.87,0,39.87h-88.55s-5.69-25.14,21.92-25.14h44.79v-16.25c0-8.94-6.27-16.21-14.07-16.31l-19.22-.24Z"/>
              <line id="Line_284" data-name="Line 284" class="cls-9" x1="172.51" y1="195.58" x2="172.51" y2="155.5"/>
              <rect id="Rectangle_889" data-name="Rectangle 889" class="cls-14" x="167.81" y="195.62" width="9.41" height="3.64"/>
              <rect id="Rectangle_890" data-name="Rectangle 890" class="cls-14" x="170.57" y="199.27" width="3.89" height="4.09"/>
              <rect id="Rectangle_891" data-name="Rectangle 891" class="cls-14" x="172.21" y="202.54" width=".61" height="6.14"/>
              <path id="Path_5586" data-name="Path 5586" class="cls-14" d="m104.6,112.74h-.54v-4.18c-.03-2.06.99-3.99,2.7-5.13,1.36-.85,2.17-2.37,2.11-3.97-.09-2.4-2.02-4.32-4.42-4.42-2.51-.07-4.6,1.91-4.67,4.42,0,.04,0,.09,0,.13h-.53c0-2.81,2.28-5.08,5.08-5.08.05,0,.1,0,.14,0,2.68.11,4.83,2.26,4.94,4.94.06,1.8-.84,3.49-2.37,4.44-1.56,1.04-2.48,2.8-2.45,4.68v4.18Z"/>
              <path id="Path_5587" data-name="Path 5587" class="cls-14" d="m238.84,199.83c-.37-21.74-8.39-32.64-15.05-37.96-4.18-3.43-9.22-5.64-14.58-6.4h-50.38v40.47h24.88v-13.9l18.95.23c7.61.09,13.8,7.29,13.8,16.04v12.82h.54v-12.82c0-9.04-6.43-16.48-14.33-16.58l-19.49-.24v13.91h-23.81v-39.4h49.83c5.25.76,10.19,2.94,14.29,6.31,6.56,5.25,14.45,16.02,14.82,37.53.57,33.19.23,38.69.09,39.6h-88.15c-.29-1.52-1.82-10.98,3.52-17.66,2.49-2.99,5.89-5.09,9.69-5.96v-.55c-3.96.88-7.51,3.05-10.11,6.17-5.96,7.45-3.61,18.22-3.58,18.33l.05.21h88.58l.02.05.22-.04c.27-.05.42-.08.49-5.96.08-6.63-.02-18.14-.29-34.2"/>
              <path id="Path_5588" data-name="Path 5588" class="cls-14" d="m171.95,214.83h45.06v-3.69h-.54v3.16h-44.53c-2.86-.03-5.71.29-8.49.97v.55c2.78-.69,5.63-1.02,8.49-.99"/>
            </g>
          </g>
        </g>
        <g id="Group_1602" data-name="Group 1602">
          <g class="cls-6">
            <g id="Group_1601" data-name="Group 1601">
              <path id="Path_5589" data-name="Path 5589" class="cls-2" d="m229.1,310.15c0-15.93-12.57-15.93-12.57-31.87s12.57-15.93,12.57-31.87-12.57-15.94-12.57-31.87h-47.85s-3.69.43-3.69.64c.33,15.29,12.56,15.51,12.56,31.23s-12.57,15.93-12.57,31.87,12.57,15.93,12.57,31.87h51.54Z"/>
              <path id="Path_5590" data-name="Path 5590" class="cls-7" d="m182.42,299.32c-3.69-6.51-9.89-9.84-9.89-21.03,0-15.93,12.57-15.93,12.57-31.87,0-12.99-8.35-15.39-11.44-24.46"/>
              <path id="Path_5591" data-name="Path 5591" class="cls-10" d="m172.79,218.31c-.18-1.25-.26-2.5-.26-3.76"/>
            </g>
          </g>
        </g>
        <g id="Group_1604" data-name="Group 1604">
          <g class="cls-15">
            <g id="Group_1603" data-name="Group 1603">
              <rect id="Rectangle_893" data-name="Rectangle 893" class="cls-4" x="39.6" y="170.61" width="208.67" height="17.12" transform="translate(-84.54 154.25) rotate(-45)"/>
            </g>
          </g>
        </g>
      </g>
    </g>
  </g>
  <rect class="cls-8" width="300" height="300"/>
</svg>