<?xml version="1.0" encoding="UTF-8"?>
<svg xmlns="http://www.w3.org/2000/svg" viewBox="0 0 400 409.76">
  <defs>
    <style>
      .cls-1 {
        fill: #2a59ff;
      }

      .cls-2 {
        fill: #f83462;
      }

      .cls-3 {
        fill: #ff9300;
      }

      .cls-4, .cls-5 {
        fill: #d9e2e9;
      }

      .cls-5 {
        opacity: 0;
      }

      .cls-6 {
        fill: #f87e95;
      }

      .cls-7 {
        fill: #819ef4;
      }

      .cls-8 {
        fill: #f7d627;
      }
    </style>
  </defs>
  <g id="_圖層_4" data-name="圖層 4">
    <rect class="cls-5" y="214.76" width="400" height="195"/>
  </g>
  <g id="_圖層_3" data-name="圖層 3">
    <g>
      <g>
        <rect class="cls-2" x="130.89" y="313.54" width="61.7" height="23.12"/>
        <g>
          <path class="cls-6" d="m189.94,334.85h-56.39v-19.51h56.39v19.51Zm-55.48-.91h54.57v-17.69h-54.57v17.69Z"/>
          <rect class="cls-6" x="138.59" y="315.8" width=".91" height="18.6"/>
          <rect class="cls-6" x="143.63" y="315.8" width=".91" height="18.6"/>
          <rect class="cls-6" x="148.68" y="315.8" width=".91" height="18.6"/>
          <rect class="cls-6" x="153.72" y="315.8" width=".91" height="18.6"/>
          <rect class="cls-6" x="158.77" y="315.8" width=".91" height="18.6"/>
          <rect class="cls-6" x="163.81" y="315.8" width=".91" height="18.6"/>
          <rect class="cls-6" x="168.85" y="315.8" width=".91" height="18.6"/>
          <rect class="cls-6" x="173.9" y="315.8" width=".91" height="18.6"/>
          <rect class="cls-6" x="178.94" y="315.8" width=".91" height="18.6"/>
          <rect class="cls-6" x="183.98" y="315.8" width=".91" height="18.6"/>
        </g>
      </g>
      <g>
        <rect class="cls-7" x="223.44" y="336.66" width="61.7" height="23.12"/>
        <g>
          <path class="cls-4" d="m282.38,357.86h-56.17v-19.28h56.17v19.28Zm-55.48-.68h54.8v-17.92h-54.8v17.92Z"/>
          <rect class="cls-4" x="231.26" y="338.92" width=".68" height="18.6"/>
          <rect class="cls-4" x="236.3" y="338.92" width=".68" height="18.6"/>
          <rect class="cls-4" x="241.34" y="338.92" width=".68" height="18.6"/>
          <rect class="cls-4" x="246.39" y="338.92" width=".68" height="18.6"/>
          <rect class="cls-4" x="251.43" y="338.92" width=".68" height="18.6"/>
          <rect class="cls-4" x="256.48" y="338.92" width=".68" height="18.6"/>
          <rect class="cls-4" x="261.52" y="338.92" width=".68" height="18.6"/>
          <rect class="cls-4" x="266.56" y="338.92" width=".68" height="18.6"/>
          <rect class="cls-4" x="271.61" y="338.92" width=".68" height="18.6"/>
          <rect class="cls-4" x="276.65" y="338.92" width=".68" height="18.6"/>
        </g>
      </g>
      <g>
        <rect class="cls-8" x="100.04" y="336.66" width="61.7" height="23.12"/>
        <g>
          <path class="cls-3" d="m158.97,357.86h-56.17v-19.28h56.17v19.28Zm-55.48-.68h54.8v-17.92h-54.8v17.92Z"/>
          <rect class="cls-3" x="107.85" y="338.92" width=".68" height="18.6"/>
          <rect class="cls-3" x="112.9" y="338.92" width=".68" height="18.6"/>
          <rect class="cls-3" x="117.94" y="338.92" width=".68" height="18.6"/>
          <rect class="cls-3" x="122.98" y="338.92" width=".68" height="18.6"/>
          <rect class="cls-3" x="128.03" y="338.92" width=".68" height="18.6"/>
          <rect class="cls-3" x="133.07" y="338.92" width=".68" height="18.6"/>
          <rect class="cls-3" x="138.12" y="338.92" width=".68" height="18.6"/>
          <rect class="cls-3" x="143.16" y="338.92" width=".68" height="18.6"/>
          <rect class="cls-3" x="148.2" y="338.92" width=".68" height="18.6"/>
          <rect class="cls-3" x="153.25" y="338.92" width=".68" height="18.6"/>
        </g>
      </g>
      <g>
        <rect class="cls-8" x="192.59" y="313.54" width="61.7" height="23.12"/>
        <g>
          <path class="cls-3" d="m251.53,334.74h-56.17v-19.28h56.17v19.28Zm-55.48-.68h54.8v-17.92h-54.8v17.92Z"/>
          <rect class="cls-3" x="200.41" y="315.8" width=".68" height="18.6"/>
          <rect class="cls-3" x="205.45" y="315.8" width=".68" height="18.6"/>
          <rect class="cls-3" x="210.49" y="315.8" width=".68" height="18.6"/>
          <rect class="cls-3" x="215.54" y="315.8" width=".68" height="18.6"/>
          <rect class="cls-3" x="220.58" y="315.8" width=".68" height="18.6"/>
          <rect class="cls-3" x="225.62" y="315.8" width=".68" height="18.6"/>
          <rect class="cls-3" x="230.67" y="315.8" width=".68" height="18.6"/>
          <rect class="cls-3" x="235.71" y="315.8" width=".68" height="18.6"/>
          <rect class="cls-3" x="240.76" y="315.8" width=".68" height="18.6"/>
          <rect class="cls-3" x="245.8" y="315.8" width=".68" height="18.6"/>
        </g>
      </g>
      <g>
        <rect class="cls-1" x="161.74" y="336.66" width="61.7" height="23.12"/>
        <g>
          <path class="cls-7" d="m220.79,357.98h-56.39v-19.51h56.39v19.51Zm-55.48-.91h54.57v-17.69h-54.57v17.69Z"/>
          <rect class="cls-7" x="169.44" y="338.92" width=".91" height="18.6"/>
          <rect class="cls-7" x="174.48" y="338.92" width=".91" height="18.6"/>
          <rect class="cls-7" x="179.53" y="338.92" width=".91" height="18.6"/>
          <rect class="cls-7" x="184.57" y="338.92" width=".91" height="18.6"/>
          <rect class="cls-7" x="189.62" y="338.92" width=".91" height="18.6"/>
          <rect class="cls-7" x="194.66" y="338.92" width=".91" height="18.6"/>
          <rect class="cls-7" x="199.7" y="338.92" width=".91" height="18.6"/>
          <rect class="cls-7" x="204.75" y="338.92" width=".91" height="18.6"/>
          <rect class="cls-7" x="209.79" y="338.92" width=".91" height="18.6"/>
          <rect class="cls-7" x="214.84" y="338.92" width=".91" height="18.6"/>
        </g>
      </g>
    </g>
  </g>
</svg>