<?xml version="1.0" encoding="UTF-8"?>
<svg xmlns="http://www.w3.org/2000/svg" viewBox="0 0 400 277.57">
  <defs>
    <style>
      .cls-1 {
        fill: #2a59ff;
      }

      .cls-2 {
        fill: #d9e2e9;
        opacity: 0;
      }

      .cls-3 {
        fill: #819ef4;
      }
    </style>
  </defs>
  <g id="_圖層_4" data-name="圖層 4">
    <rect class="cls-2" y="82.56" width="400" height="195"/>
  </g>
  <g id="_圖層_2" data-name="圖層 2">
    <g>
      <polygon class="cls-3" points="73.58 223.19 73.58 185.74 104.43 185.74 104.43 162.61 135.28 162.61 135.28 139.49 188.2 139.49 188.2 162.61 219.05 162.61 219.05 185.74 249.9 185.74 249.9 208.85 311.61 208.85 311.61 223.19 73.58 223.19"/>
      <path class="cls-1" d="m178.54,135.1h-7.03c-.73,0-1.32.59-1.32,1.32s.59,1.32,1.32,1.32h7.03c.73,0,1.32-.59,1.32-1.32s-.59-1.32-1.32-1.32h0Zm-14.05,0h-7.03c-.73,0-1.32.59-1.32,1.32s.59,1.32,1.32,1.32h7.03c.73,0,1.32-.59,1.32-1.32s-.59-1.32-1.32-1.32h0Zm-14.05,0h-7.03c-.73,0-1.32.59-1.32,1.32s.59,1.32,1.32,1.32h7.03c.73,0,1.32-.59,1.32-1.32s-.59-1.32-1.32-1.32h0Zm-14.05,0h-5.49v2.63h.6c.21.14.46.21.72.21s.51-.08.72-.21h3.46c.73,0,1.32-.59,1.32-1.32s-.59-1.32-1.32-1.32h0Zm-4.18,7.24c-.73,0-1.32.59-1.32,1.32v7.03c0,.73.59,1.32,1.32,1.32s1.32-.59,1.32-1.32v-7.03c0-.73-.59-1.32-1.32-1.32h0Zm0,14.05c-.73,0-1.32.59-1.32,1.32v.51h-6.51c-.73,0-1.32.59-1.32,1.32s.59,1.32,1.32,1.32h6.51c1.46,0,2.63-1.18,2.63-2.63v-.51c0-.73-.59-1.32-1.32-1.32h0Zm-14.86,1.83h-7.03c-.73,0-1.32.59-1.32,1.32s.59,1.32,1.32,1.32h7.03c.73,0,1.32-.59,1.32-1.32s-.59-1.32-1.32-1.32h0Zm-14.05,0h-3.26v2.63h0v1.13c0,.73.59,1.32,1.32,1.32s1.32-.59,1.32-1.32v-1.13h.63c.73,0,1.32-.59,1.32-1.32s-.59-1.32-1.32-1.32h0Zm-1.94,9.47c-.73,0-1.32.59-1.32,1.32v7.03c0,.73.59,1.32,1.32,1.32s1.32-.59,1.32-1.32v-7.03c0-.73-.59-1.32-1.32-1.32h0Zm-3.04,13.65h-7.03c-.73,0-1.32.59-1.32,1.32s.59,1.32,1.32,1.32h7.03c.73,0,1.32-.59,1.32-1.32s-.59-1.32-1.32-1.32h0Zm-14.05,0h-7.03c-.73,0-1.32.59-1.32,1.32s.59,1.32,1.32,1.32h7.03c.73,0,1.32-.59,1.32-1.32s-.59-1.32-1.32-1.32h0Zm-12.44,0h-2.63v2.63h0v3.36c0,.73.59,1.32,1.32,1.32s1.32-.59,1.32-1.32v-6h0Zm-1.32,11.71c-.73,0-1.32.59-1.32,1.32v7.03c0,.73.59,1.32,1.32,1.32s1.32-.59,1.32-1.32v-7.03c0-.73-.59-1.32-1.32-1.32h0Zm0,14.05c-.73,0-1.32.59-1.32,1.32v7.03c0,.73.59,1.32,1.32,1.32s1.32-.59,1.32-1.32v-7.03c0-.73-.59-1.32-1.32-1.32h0Zm0,14.05c-.73,0-1.32.59-1.32,1.32v5.11h2.63v-.21c.36-.23.6-.64.6-1.11s-.24-.87-.6-1.11v-2.68c0-.73-.59-1.32-1.32-1.32h0Zm14.65,3.79h-7.03c-.73,0-1.32.59-1.32,1.32s.59,1.32,1.32,1.32h7.03c.73,0,1.32-.59,1.32-1.32s-.59-1.32-1.32-1.32h0Zm14.05,0h-7.03c-.73,0-1.32.59-1.32,1.32s.59,1.32,1.32,1.32h7.03c.73,0,1.32-.59,1.32-1.32s-.59-1.32-1.32-1.32h0Zm14.05,0h-7.03c-.73,0-1.32.59-1.32,1.32s.59,1.32,1.32,1.32h7.03c.73,0,1.32-.59,1.32-1.32s-.59-1.32-1.32-1.32h0Zm14.05,0h-7.03c-.73,0-1.32.59-1.32,1.32s.59,1.32,1.32,1.32h7.03c.73,0,1.32-.59,1.32-1.32s-.59-1.32-1.32-1.32h0Zm14.05,0h-7.03c-.73,0-1.32.59-1.32,1.32s.59,1.32,1.32,1.32h7.03c.73,0,1.32-.59,1.32-1.32s-.59-1.32-1.32-1.32h0Zm14.05,0h-7.03c-.73,0-1.32.59-1.32,1.32s.59,1.32,1.32,1.32h7.03c.73,0,1.32-.59,1.32-1.32s-.59-1.32-1.32-1.32h0Zm14.05,0h-7.03c-.73,0-1.32.59-1.32,1.32s.59,1.32,1.32,1.32h7.03c.73,0,1.32-.59,1.32-1.32s-.59-1.32-1.32-1.32h0Zm14.05,0h-7.03c-.73,0-1.32.59-1.32,1.32s.59,1.32,1.32,1.32h7.03c.73,0,1.32-.59,1.32-1.32s-.59-1.32-1.32-1.32h0Zm14.05,0h-7.03c-.73,0-1.32.59-1.32,1.32s.59,1.32,1.32,1.32h7.03c.73,0,1.32-.59,1.32-1.32s-.59-1.32-1.32-1.32h0Zm14.05,0h-7.03c-.73,0-1.32.59-1.32,1.32s.59,1.32,1.32,1.32h7.03c.73,0,1.32-.59,1.32-1.32s-.59-1.32-1.32-1.32h0Zm14.05,0h-7.03c-.73,0-1.32.59-1.32,1.32s.59,1.32,1.32,1.32h7.03c.73,0,1.32-.59,1.32-1.32s-.59-1.32-1.32-1.32h0Zm14.05,0h-7.03c-.73,0-1.32.59-1.32,1.32s.59,1.32,1.32,1.32h7.03c.73,0,1.32-.59,1.32-1.32s-.59-1.32-1.32-1.32h0Zm14.05,0h-7.03c-.73,0-1.32.59-1.32,1.32s.59,1.32,1.32,1.32h7.03c.73,0,1.32-.59,1.32-1.32s-.59-1.32-1.32-1.32h0Zm14.05,0h-7.03c-.73,0-1.32.59-1.32,1.32s.59,1.32,1.32,1.32h7.03c.73,0,1.32-.59,1.32-1.32s-.59-1.32-1.32-1.32h0Zm14.05,0h-7.03c-.73,0-1.32.59-1.32,1.32s.59,1.32,1.32,1.32h7.03c.73,0,1.32-.59,1.32-1.32s-.59-1.32-1.32-1.32h0Zm14.05,0h-7.03c-.73,0-1.32.59-1.32,1.32s.59,1.32,1.32,1.32h7.03c.73,0,1.32-.59,1.32-1.32s-.59-1.32-1.32-1.32h0Zm14.05,0h-7.03c-.73,0-1.32.59-1.32,1.32s.59,1.32,1.32,1.32h7.03c.73,0,1.32-.59,1.32-1.32s-.59-1.32-1.32-1.32h0Zm4.69-6.73c-.73,0-1.32.59-1.32,1.32v7.03c0,.41.19.78.48,1.02h1.67c.3-.24.48-.61.48-1.02v-7.03c0-.73-.59-1.32-1.32-1.32h0Zm.83-13.76h-1.66c-.3.24-.49.61-.49,1.02v7.03c0,.73.59,1.32,1.32,1.32s1.32-.59,1.32-1.32v-7.03c0-.41-.19-.78-.49-1.02h0Zm-5.51,0h-7.03c-.73,0-1.32.59-1.32,1.32s.59,1.32,1.32,1.32h7.03c.73,0,1.32-.59,1.32-1.32s-.59-1.32-1.32-1.32h0Zm-14.05,0h-7.03c-.73,0-1.32.59-1.32,1.32s.59,1.32,1.32,1.32h7.03c.73,0,1.32-.59,1.32-1.32s-.59-1.32-1.32-1.32h0Zm-14.05,0h-7.03c-.73,0-1.32.59-1.32,1.32s.59,1.32,1.32,1.32h7.03c.73,0,1.32-.59,1.32-1.32s-.59-1.32-1.32-1.32h0Zm-14.05,0h-7.03c-.73,0-1.32.59-1.32,1.32s.59,1.32,1.32,1.32h7.03c.73,0,1.32-.59,1.32-1.32s-.59-1.32-1.32-1.32h0Zm-14.86-8.85c-.73,0-1.32.59-1.32,1.32v7.03c0,.73.59,1.32,1.32,1.32s1.32-.59,1.32-1.32v-7.03c0-.73-.59-1.32-1.32-1.32h0Zm0-14.05c-.73,0-1.32.59-1.32,1.32v7.03c0,.73.59,1.32,1.32,1.32s1.32-.59,1.32-1.32v-7.03c0-.73-.59-1.32-1.32-1.32h0Zm-4.18-.21h-7.03c-.73,0-1.32.59-1.32,1.32s.59,1.32,1.32,1.32h7.03c.73,0,1.32-.59,1.32-1.32s-.59-1.32-1.32-1.32h0Zm-14.05,0h-7.03c-.73,0-1.32.59-1.32,1.32s.59,1.32,1.32,1.32h7.03c.73,0,1.32-.59,1.32-1.32s-.59-1.32-1.32-1.32h0Zm-12.62-11.09c-.73,0-1.32.59-1.32,1.32v7.03c0,.73.59,1.32,1.32,1.32s1.32-.59,1.32-1.32v-7.03c0-.73-.59-1.32-1.32-1.32h0Zm1.32-12.03h-2.63v6.32c0,.73.59,1.32,1.32,1.32s1.32-.59,1.32-1.32v-6.32h0Zm-7.73,0h-7.03c-.73,0-1.32.59-1.32,1.32s.59,1.32,1.32,1.32h7.03c.73,0,1.32-.59,1.32-1.32s-.59-1.32-1.32-1.32h0Zm-14.05,0h-7.03c-.73,0-1.32.59-1.32,1.32s.59,1.32,1.32,1.32h7.03c.73,0,1.32-.59,1.32-1.32s-.59-1.32-1.32-1.32h0Zm-10.39-13.33c-.73,0-1.32.59-1.32,1.32v7.03c0,.73.59,1.32,1.32,1.32s1.32-.59,1.32-1.32v-7.03c0-.73-.59-1.32-1.32-1.32h0Zm1.32-9.8h-7.03c-.73,0-1.32.59-1.32,1.32s.59,1.32,1.32,1.32h4.39v1.45c0,.73.59,1.32,1.32,1.32s1.32-.59,1.32-1.32v-4.09h0Z"/>
    </g>
  </g>
</svg>