<?xml version="1.0" encoding="utf-8"?>
<!-- Generator: Adobe Illustrator 27.5.0, SVG Export Plug-In . SVG Version: 6.00 Build 0)  -->
<svg version="1.1" id="圖層_1" xmlns="http://www.w3.org/2000/svg" xmlns:xlink="http://www.w3.org/1999/xlink" x="0px" y="0px"
	 viewBox="0 0 400 277.6" style="enable-background:new 0 0 400 277.6;" xml:space="preserve">
<style type="text/css">
	.st0{opacity:0;fill:#D9E2E9;}
	.st1{fill:#F83462;}
	.st2{fill:#F87E95;}
	.st3{fill:#819EF4;}
	.st4{fill:#D9E2E9;}
	.st5{fill:#F7D627;}
	.st6{fill:#FF9300;}
	.st7{fill:#2A59FF;}
</style>
<rect y="133" class="st0" width="400" height="140.8"/>
<g id="_圖層_3">
	<g>
		<g>
			<rect x="130.9" y="181.3" class="st1" width="61.7" height="23.1"/>
			<g>
				<path class="st2" d="M189.9,202.6h-56.4v-19.5h56.4V202.6z M134.5,201.7H189V184h-54.6L134.5,201.7L134.5,201.7z"/>
				<rect x="138.6" y="183.6" class="st2" width="0.9" height="18.6"/>
				<rect x="143.6" y="183.6" class="st2" width="0.9" height="18.6"/>
				<rect x="148.7" y="183.6" class="st2" width="0.9" height="18.6"/>
				<rect x="153.7" y="183.6" class="st2" width="0.9" height="18.6"/>
				<rect x="158.8" y="183.6" class="st2" width="0.9" height="18.6"/>
				<rect x="163.8" y="183.6" class="st2" width="0.9" height="18.6"/>
				<rect x="168.9" y="183.6" class="st2" width="0.9" height="18.6"/>
				<rect x="173.9" y="183.6" class="st2" width="0.9" height="18.6"/>
				<rect x="178.9" y="183.6" class="st2" width="0.9" height="18.6"/>
				<rect x="184" y="183.6" class="st2" width="0.9" height="18.6"/>
			</g>
		</g>
		<g>
			<rect x="223.4" y="204.5" class="st3" width="61.7" height="23.1"/>
			<g>
				<path class="st4" d="M282.4,225.7h-56.2v-19.3h56.2V225.7z M226.9,225h54.8v-17.9h-54.8L226.9,225L226.9,225z"/>
				<rect x="231.3" y="206.7" class="st4" width="0.7" height="18.6"/>
				<rect x="236.3" y="206.7" class="st4" width="0.7" height="18.6"/>
				<rect x="241.3" y="206.7" class="st4" width="0.7" height="18.6"/>
				<rect x="246.4" y="206.7" class="st4" width="0.7" height="18.6"/>
				<rect x="251.4" y="206.7" class="st4" width="0.7" height="18.6"/>
				<rect x="256.5" y="206.7" class="st4" width="0.7" height="18.6"/>
				<rect x="261.5" y="206.7" class="st4" width="0.7" height="18.6"/>
				<rect x="266.6" y="206.7" class="st4" width="0.7" height="18.6"/>
				<rect x="271.6" y="206.7" class="st4" width="0.7" height="18.6"/>
				<rect x="276.6" y="206.7" class="st4" width="0.7" height="18.6"/>
			</g>
		</g>
		<g>
			<rect x="100" y="204.5" class="st5" width="61.7" height="23.1"/>
			<g>
				<path class="st6" d="M159,225.7h-56.2v-19.3H159V225.7z M103.5,225h54.8v-17.9h-54.8V225z"/>
				<rect x="107.8" y="206.7" class="st6" width="0.7" height="18.6"/>
				<rect x="112.9" y="206.7" class="st6" width="0.7" height="18.6"/>
				<rect x="117.9" y="206.7" class="st6" width="0.7" height="18.6"/>
				<rect x="123" y="206.7" class="st6" width="0.7" height="18.6"/>
				<rect x="128" y="206.7" class="st6" width="0.7" height="18.6"/>
				<rect x="133.1" y="206.7" class="st6" width="0.7" height="18.6"/>
				<rect x="138.1" y="206.7" class="st6" width="0.7" height="18.6"/>
				<rect x="143.2" y="206.7" class="st6" width="0.7" height="18.6"/>
				<rect x="148.2" y="206.7" class="st6" width="0.7" height="18.6"/>
				<rect x="153.2" y="206.7" class="st6" width="0.7" height="18.6"/>
			</g>
		</g>
		<g>
			<rect x="192.6" y="181.3" class="st5" width="61.7" height="23.1"/>
			<g>
				<path class="st6" d="M251.5,202.5h-56.2v-19.3h56.2V202.5z M196.1,201.9h54.8V184h-54.8V201.9z"/>
				<rect x="200.4" y="183.6" class="st6" width="0.7" height="18.6"/>
				<rect x="205.4" y="183.6" class="st6" width="0.7" height="18.6"/>
				<rect x="210.5" y="183.6" class="st6" width="0.7" height="18.6"/>
				<rect x="215.5" y="183.6" class="st6" width="0.7" height="18.6"/>
				<rect x="220.6" y="183.6" class="st6" width="0.7" height="18.6"/>
				<rect x="225.6" y="183.6" class="st6" width="0.7" height="18.6"/>
				<rect x="230.7" y="183.6" class="st6" width="0.7" height="18.6"/>
				<rect x="235.7" y="183.6" class="st6" width="0.7" height="18.6"/>
				<rect x="240.8" y="183.6" class="st6" width="0.7" height="18.6"/>
				<rect x="245.8" y="183.6" class="st6" width="0.7" height="18.6"/>
			</g>
		</g>
		<g>
			<rect x="161.7" y="204.5" class="st7" width="61.7" height="23.1"/>
			<g>
				<path class="st3" d="M220.8,225.8h-56.4v-19.5h56.4L220.8,225.8L220.8,225.8z M165.3,224.9h54.6v-17.7h-54.6L165.3,224.9
					L165.3,224.9z"/>
				<rect x="169.4" y="206.7" class="st3" width="0.9" height="18.6"/>
				<rect x="174.5" y="206.7" class="st3" width="0.9" height="18.6"/>
				<rect x="179.5" y="206.7" class="st3" width="0.9" height="18.6"/>
				<rect x="184.6" y="206.7" class="st3" width="0.9" height="18.6"/>
				<rect x="189.6" y="206.7" class="st3" width="0.9" height="18.6"/>
				<rect x="194.7" y="206.7" class="st3" width="0.9" height="18.6"/>
				<rect x="199.7" y="206.7" class="st3" width="0.9" height="18.6"/>
				<rect x="204.8" y="206.7" class="st3" width="0.9" height="18.6"/>
				<rect x="209.8" y="206.7" class="st3" width="0.9" height="18.6"/>
				<rect x="214.8" y="206.7" class="st3" width="0.9" height="18.6"/>
			</g>
		</g>
	</g>
</g>
<g id="_圖層_5">
	<g>
		<g>
			<g>
				<rect x="69.2" y="250.7" class="st3" width="61.7" height="23.1"/>
				<g>
					<path class="st4" d="M128.1,271.9H71.9v-19.3h56.2V271.9z M72.6,271.2h54.8v-17.9H72.6V271.2z"/>
					<rect x="122.4" y="253" class="st4" width="0.7" height="18.6"/>
					<rect x="117.3" y="253" class="st4" width="0.7" height="18.6"/>
					<rect x="112.3" y="253" class="st4" width="0.7" height="18.6"/>
					<rect x="107.3" y="253" class="st4" width="0.7" height="18.6"/>
					<rect x="102.2" y="253" class="st4" width="0.7" height="18.6"/>
					<rect x="97.2" y="253" class="st4" width="0.7" height="18.6"/>
					<rect x="92.1" y="253" class="st4" width="0.7" height="18.6"/>
					<rect x="87.1" y="253" class="st4" width="0.7" height="18.6"/>
					<rect x="82.1" y="253" class="st4" width="0.7" height="18.6"/>
					<rect x="77" y="253" class="st4" width="0.7" height="18.6"/>
				</g>
			</g>
			<g>
				<rect x="69.2" y="227.6" class="st1" width="61.7" height="23.1"/>
				<g>
					<path class="st2" d="M128.2,248.9H71.9v-19.5h56.4v19.5H128.2z M72.8,248h54.6v-17.7H72.8V248z"/>
					<rect x="76.9" y="229.8" class="st2" width="0.9" height="18.6"/>
					<rect x="81.9" y="229.8" class="st2" width="0.9" height="18.6"/>
					<rect x="87" y="229.8" class="st2" width="0.9" height="18.6"/>
					<rect x="92" y="229.8" class="st2" width="0.9" height="18.6"/>
					<rect x="97.1" y="229.8" class="st2" width="0.9" height="18.6"/>
					<rect x="102.1" y="229.8" class="st2" width="0.9" height="18.6"/>
					<rect x="107.2" y="229.8" class="st2" width="0.9" height="18.6"/>
					<rect x="112.2" y="229.8" class="st2" width="0.9" height="18.6"/>
					<rect x="117.2" y="229.8" class="st2" width="0.9" height="18.6"/>
					<rect x="122.3" y="229.8" class="st2" width="0.9" height="18.6"/>
				</g>
			</g>
		</g>
		<g>
			<rect x="130.9" y="181.3" class="st1" width="61.7" height="23.1"/>
			<g>
				<path class="st2" d="M189.9,202.6h-56.4v-19.5h56.4V202.6z M134.5,201.7H189V184h-54.6L134.5,201.7L134.5,201.7z"/>
				<rect x="138.6" y="183.6" class="st2" width="0.9" height="18.6"/>
				<rect x="143.6" y="183.6" class="st2" width="0.9" height="18.6"/>
				<rect x="148.7" y="183.6" class="st2" width="0.9" height="18.6"/>
				<rect x="153.7" y="183.6" class="st2" width="0.9" height="18.6"/>
				<rect x="158.8" y="183.6" class="st2" width="0.9" height="18.6"/>
				<rect x="163.8" y="183.6" class="st2" width="0.9" height="18.6"/>
				<rect x="168.9" y="183.6" class="st2" width="0.9" height="18.6"/>
				<rect x="173.9" y="183.6" class="st2" width="0.9" height="18.6"/>
				<rect x="178.9" y="183.6" class="st2" width="0.9" height="18.6"/>
				<rect x="184" y="183.6" class="st2" width="0.9" height="18.6"/>
			</g>
		</g>
		<g>
			<g>
				<rect x="119.8" y="250.7" class="st7" width="61.7" height="23.1"/>
				<g>
					<rect x="172.9" y="253" class="st3" width="0.9" height="18.6"/>
					<path class="st3" d="M178.8,272h-56.4v-19.5h56.4V272z M123.3,271.1h54.6v-17.7h-54.6C123.3,253.4,123.3,271.1,123.3,271.1z"/>
					<rect x="167.8" y="253" class="st3" width="0.9" height="18.6"/>
					<rect x="162.8" y="253" class="st3" width="0.9" height="18.6"/>
					<rect x="157.7" y="253" class="st3" width="0.9" height="18.6"/>
					<rect x="152.7" y="253" class="st3" width="0.9" height="18.6"/>
					<rect x="147.6" y="253" class="st3" width="0.9" height="18.6"/>
					<rect x="142.6" y="253" class="st3" width="0.9" height="18.6"/>
					<rect x="137.6" y="253" class="st3" width="0.9" height="18.6"/>
					<rect x="132.5" y="253" class="st3" width="0.9" height="18.6"/>
					<rect x="127.5" y="253" class="st3" width="0.9" height="18.6"/>
				</g>
			</g>
			<g>
				<rect x="119.8" y="227.6" class="st3" width="61.7" height="23.1"/>
				<g>
					<path class="st4" d="M178.7,248.8h-56.2v-19.3h56.2V248.8z M123.2,248.1H178v-17.9h-54.8V248.1z"/>
					<rect x="127.6" y="229.8" class="st4" width="0.7" height="18.6"/>
					<rect x="132.6" y="229.8" class="st4" width="0.7" height="18.6"/>
					<rect x="137.7" y="229.8" class="st4" width="0.7" height="18.6"/>
					<rect x="142.7" y="229.8" class="st4" width="0.7" height="18.6"/>
					<rect x="147.8" y="229.8" class="st4" width="0.7" height="18.6"/>
					<rect x="152.8" y="229.8" class="st4" width="0.7" height="18.6"/>
					<rect x="157.9" y="229.8" class="st4" width="0.7" height="18.6"/>
					<rect x="162.9" y="229.8" class="st4" width="0.7" height="18.6"/>
					<rect x="167.9" y="229.8" class="st4" width="0.7" height="18.6"/>
					<rect x="173" y="229.8" class="st4" width="0.7" height="18.6"/>
				</g>
			</g>
		</g>
		<g>
			<rect x="223.4" y="204.5" class="st3" width="61.7" height="23.1"/>
			<g>
				<path class="st4" d="M282.4,225.7h-56.2v-19.3h56.2V225.7z M226.9,225h54.8v-17.9h-54.8L226.9,225L226.9,225z"/>
				<rect x="231.3" y="206.7" class="st4" width="0.7" height="18.6"/>
				<rect x="236.3" y="206.7" class="st4" width="0.7" height="18.6"/>
				<rect x="241.3" y="206.7" class="st4" width="0.7" height="18.6"/>
				<rect x="246.4" y="206.7" class="st4" width="0.7" height="18.6"/>
				<rect x="251.4" y="206.7" class="st4" width="0.7" height="18.6"/>
				<rect x="256.5" y="206.7" class="st4" width="0.7" height="18.6"/>
				<rect x="261.5" y="206.7" class="st4" width="0.7" height="18.6"/>
				<rect x="266.6" y="206.7" class="st4" width="0.7" height="18.6"/>
				<rect x="271.6" y="206.7" class="st4" width="0.7" height="18.6"/>
				<rect x="276.6" y="206.7" class="st4" width="0.7" height="18.6"/>
			</g>
		</g>
		<g>
			<g>
				<rect x="271.5" y="250.7" class="st1" width="61.7" height="23.1"/>
				<g>
					<path class="st2" d="M330.6,272h-56.4v-19.5h56.4V272z M275.1,271.1h54.6v-17.7h-54.6V271.1z"/>
					<rect x="324.6" y="253" class="st2" width="0.9" height="18.6"/>
					<rect x="319.6" y="253" class="st2" width="0.9" height="18.6"/>
					<rect x="314.5" y="253" class="st2" width="0.9" height="18.6"/>
					<rect x="309.5" y="253" class="st2" width="0.9" height="18.6"/>
					<rect x="304.4" y="253" class="st2" width="0.9" height="18.6"/>
					<rect x="299.4" y="253" class="st2" width="0.9" height="18.6"/>
					<rect x="294.3" y="253" class="st2" width="0.9" height="18.6"/>
					<rect x="289.3" y="253" class="st2" width="0.9" height="18.6"/>
					<rect x="284.3" y="253" class="st2" width="0.9" height="18.6"/>
					<rect x="279.2" y="253" class="st2" width="0.9" height="18.6"/>
				</g>
			</g>
			<g>
				<rect x="271.5" y="227.6" class="st3" width="61.7" height="23.1"/>
				<g>
					<path class="st4" d="M330.5,248.8h-56.2v-19.3h56.2V248.8z M275,248.1h54.8v-17.9H275V248.1z"/>
					<rect x="279.3" y="229.8" class="st4" width="0.7" height="18.6"/>
					<rect x="284.4" y="229.8" class="st4" width="0.7" height="18.6"/>
					<rect x="289.4" y="229.8" class="st4" width="0.7" height="18.6"/>
					<rect x="294.5" y="229.8" class="st4" width="0.7" height="18.6"/>
					<rect x="299.5" y="229.8" class="st4" width="0.7" height="18.6"/>
					<rect x="304.5" y="229.8" class="st4" width="0.7" height="18.6"/>
					<rect x="309.6" y="229.8" class="st4" width="0.7" height="18.6"/>
					<rect x="314.6" y="229.8" class="st4" width="0.7" height="18.6"/>
					<rect x="319.7" y="229.8" class="st4" width="0.7" height="18.6"/>
					<rect x="324.7" y="229.8" class="st4" width="0.7" height="18.6"/>
				</g>
			</g>
		</g>
		<g>
			<g>
				<rect x="220.9" y="250.7" class="st3" width="61.7" height="23.1"/>
				<g>
					<path class="st4" d="M279.9,271.9h-56.2v-19.3h56.2V271.9z M224.4,271.2h54.8v-17.9h-54.8L224.4,271.2L224.4,271.2z"/>
					<rect x="274.1" y="253" class="st4" width="0.7" height="18.6"/>
					<rect x="269.1" y="253" class="st4" width="0.7" height="18.6"/>
					<rect x="264" y="253" class="st4" width="0.7" height="18.6"/>
					<rect x="259" y="253" class="st4" width="0.7" height="18.6"/>
					<rect x="254" y="253" class="st4" width="0.7" height="18.6"/>
					<rect x="248.9" y="253" class="st4" width="0.7" height="18.6"/>
					<rect x="243.9" y="253" class="st4" width="0.7" height="18.6"/>
					<rect x="238.8" y="253" class="st4" width="0.7" height="18.6"/>
					<rect x="233.8" y="253" class="st4" width="0.7" height="18.6"/>
					<rect x="228.7" y="253" class="st4" width="0.7" height="18.6"/>
				</g>
			</g>
			<g>
				<rect x="220.9" y="227.6" class="st5" width="61.7" height="23.1"/>
				<g>
					<path class="st6" d="M279.9,248.8h-56.2v-19.3h56.2V248.8z M224.4,248.1h54.8v-17.9h-54.8L224.4,248.1L224.4,248.1z"/>
					<rect x="228.7" y="229.8" class="st6" width="0.7" height="18.6"/>
					<rect x="233.8" y="229.8" class="st6" width="0.7" height="18.6"/>
					<rect x="238.8" y="229.8" class="st6" width="0.7" height="18.6"/>
					<rect x="243.9" y="229.8" class="st6" width="0.7" height="18.6"/>
					<rect x="248.9" y="229.8" class="st6" width="0.7" height="18.6"/>
					<rect x="254" y="229.8" class="st6" width="0.7" height="18.6"/>
					<rect x="259" y="229.8" class="st6" width="0.7" height="18.6"/>
					<rect x="264" y="229.8" class="st6" width="0.7" height="18.6"/>
					<rect x="269.1" y="229.8" class="st6" width="0.7" height="18.6"/>
					<rect x="274.1" y="229.8" class="st6" width="0.7" height="18.6"/>
				</g>
			</g>
		</g>
		<g>
			<rect x="100" y="204.5" class="st5" width="61.7" height="23.1"/>
			<g>
				<path class="st6" d="M159,225.7h-56.2v-19.3H159V225.7z M103.5,225h54.8v-17.9h-54.8V225z"/>
				<rect x="107.8" y="206.7" class="st6" width="0.7" height="18.6"/>
				<rect x="112.9" y="206.7" class="st6" width="0.7" height="18.6"/>
				<rect x="117.9" y="206.7" class="st6" width="0.7" height="18.6"/>
				<rect x="123" y="206.7" class="st6" width="0.7" height="18.6"/>
				<rect x="128" y="206.7" class="st6" width="0.7" height="18.6"/>
				<rect x="133.1" y="206.7" class="st6" width="0.7" height="18.6"/>
				<rect x="138.1" y="206.7" class="st6" width="0.7" height="18.6"/>
				<rect x="143.2" y="206.7" class="st6" width="0.7" height="18.6"/>
				<rect x="148.2" y="206.7" class="st6" width="0.7" height="18.6"/>
				<rect x="153.2" y="206.7" class="st6" width="0.7" height="18.6"/>
			</g>
		</g>
		<g>
			<rect x="192.6" y="181.3" class="st5" width="61.7" height="23.1"/>
			<g>
				<path class="st6" d="M251.5,202.5h-56.2v-19.3h56.2V202.5z M196.1,201.9h54.8V184h-54.8V201.9z"/>
				<rect x="200.4" y="183.6" class="st6" width="0.7" height="18.6"/>
				<rect x="205.4" y="183.6" class="st6" width="0.7" height="18.6"/>
				<rect x="210.5" y="183.6" class="st6" width="0.7" height="18.6"/>
				<rect x="215.5" y="183.6" class="st6" width="0.7" height="18.6"/>
				<rect x="220.6" y="183.6" class="st6" width="0.7" height="18.6"/>
				<rect x="225.6" y="183.6" class="st6" width="0.7" height="18.6"/>
				<rect x="230.7" y="183.6" class="st6" width="0.7" height="18.6"/>
				<rect x="235.7" y="183.6" class="st6" width="0.7" height="18.6"/>
				<rect x="240.8" y="183.6" class="st6" width="0.7" height="18.6"/>
				<rect x="245.8" y="183.6" class="st6" width="0.7" height="18.6"/>
			</g>
		</g>
		<g>
			<g>
				<rect x="170.3" y="250.7" class="st5" width="61.7" height="23.1"/>
				<g>
					<path class="st6" d="M229.3,271.9h-56.2v-19.3h56.2V271.9z M173.8,271.2h54.8v-17.9h-54.8V271.2z"/>
					<rect x="223.6" y="253" class="st6" width="0.7" height="18.6"/>
					<rect x="218.5" y="253" class="st6" width="0.7" height="18.6"/>
					<rect x="213.5" y="253" class="st6" width="0.7" height="18.6"/>
					<rect x="208.4" y="253" class="st6" width="0.7" height="18.6"/>
					<rect x="203.4" y="253" class="st6" width="0.7" height="18.6"/>
					<rect x="198.3" y="253" class="st6" width="0.7" height="18.6"/>
					<rect x="193.3" y="253" class="st6" width="0.7" height="18.6"/>
					<rect x="188.2" y="253" class="st6" width="0.7" height="18.6"/>
					<rect x="183.2" y="253" class="st6" width="0.7" height="18.6"/>
					<rect x="178.2" y="253" class="st6" width="0.7" height="18.6"/>
				</g>
			</g>
			<g>
				<rect x="170.4" y="227.6" class="st7" width="61.7" height="23.1"/>
				<g>
					<path class="st3" d="M229.4,248.9H173v-19.5h56.4V248.9z M173.9,248h54.6v-17.7h-54.6V248L173.9,248z"/>
					<rect x="178.1" y="229.8" class="st3" width="0.9" height="18.6"/>
					<rect x="183.1" y="229.8" class="st3" width="0.9" height="18.6"/>
					<rect x="188.1" y="229.8" class="st3" width="0.9" height="18.6"/>
					<rect x="193.2" y="229.8" class="st3" width="0.9" height="18.6"/>
					<rect x="198.2" y="229.8" class="st3" width="0.9" height="18.6"/>
					<rect x="203.3" y="229.8" class="st3" width="0.9" height="18.6"/>
					<rect x="208.3" y="229.8" class="st3" width="0.9" height="18.6"/>
					<rect x="213.4" y="229.8" class="st3" width="0.9" height="18.6"/>
					<rect x="218.4" y="229.8" class="st3" width="0.9" height="18.6"/>
					<rect x="223.4" y="229.8" class="st3" width="0.9" height="18.6"/>
				</g>
			</g>
		</g>
		<g>
			<rect x="161.7" y="204.5" class="st7" width="61.7" height="23.1"/>
			<g>
				<path class="st3" d="M220.8,225.8h-56.4v-19.5h56.4L220.8,225.8L220.8,225.8z M165.3,224.9h54.6v-17.7h-54.6L165.3,224.9
					L165.3,224.9z"/>
				<rect x="169.4" y="206.7" class="st3" width="0.9" height="18.6"/>
				<rect x="174.5" y="206.7" class="st3" width="0.9" height="18.6"/>
				<rect x="179.5" y="206.7" class="st3" width="0.9" height="18.6"/>
				<rect x="184.6" y="206.7" class="st3" width="0.9" height="18.6"/>
				<rect x="189.6" y="206.7" class="st3" width="0.9" height="18.6"/>
				<rect x="194.7" y="206.7" class="st3" width="0.9" height="18.6"/>
				<rect x="199.7" y="206.7" class="st3" width="0.9" height="18.6"/>
				<rect x="204.8" y="206.7" class="st3" width="0.9" height="18.6"/>
				<rect x="209.8" y="206.7" class="st3" width="0.9" height="18.6"/>
				<rect x="214.8" y="206.7" class="st3" width="0.9" height="18.6"/>
			</g>
		</g>
	</g>
</g>
</svg>
