<?xml version="1.0" encoding="UTF-8"?>
<svg id="_1" data-name="1" xmlns="http://www.w3.org/2000/svg" xmlns:xlink="http://www.w3.org/1999/xlink" viewBox="0 0 371 371">
  <defs>
    <style>
      .cls-1 {
        fill: #0fb698;
      }

      .cls-2 {
        fill: url(#_未命名漸層_14);
      }

      .cls-3 {
        fill: #2a59ff;
      }

      .cls-4 {
        fill: #95f9ca;
      }

      .cls-5 {
        isolation: isolate;
      }

      .cls-6, .cls-7 {
        stroke: #271e49;
        stroke-miterlimit: 10;
      }

      .cls-6, .cls-8 {
        fill: #d9e2e9;
      }

      .cls-9 {
        fill: url(#_未命名漸層_14-4);
      }

      .cls-10 {
        fill: #f83462;
      }

      .cls-11 {
        clip-path: url(#clippath-1);
      }

      .cls-12 {
        fill: #f7eca4;
      }

      .cls-7, .cls-13 {
        fill: none;
      }

      .cls-14 {
        fill: #27d8ae;
      }

      .cls-15 {
        fill: url(#_未命名漸層_14-2);
      }

      .cls-16 {
        clip-path: url(#clippath);
      }

      .cls-17 {
        fill: #cafce4;
        opacity: .8;
      }

      .cls-18 {
        fill: #271e49;
      }

      .cls-19 {
        opacity: .36;
      }

      .cls-20 {
        fill: url(#_未命名漸層_14-3);
      }
    </style>
    <clipPath id="clippath">
      <rect class="cls-13" x="-.86" y="-.37" width="371" height="320"/>
    </clipPath>
    <linearGradient id="_未命名漸層_14" data-name="未命名漸層 14" x1="426.07" y1="370.86" x2="-84.06" y2="-71.1" gradientUnits="userSpaceOnUse">
      <stop offset="0" stop-color="#95f9ca"/>
      <stop offset="1" stop-color="#0fb698"/>
    </linearGradient>
    <linearGradient id="_未命名漸層_14-2" data-name="未命名漸層 14" x1="571.85" y1="202.59" x2="61.72" y2="-239.36" xlink:href="#_未命名漸層_14"/>
    <linearGradient id="_未命名漸層_14-3" data-name="未命名漸層 14" x1="403.09" y1="397.38" x2="-107.04" y2="-44.57" xlink:href="#_未命名漸層_14"/>
    <linearGradient id="_未命名漸層_14-4" data-name="未命名漸層 14" x1="256.88" y1="566.15" x2="-253.25" y2="124.19" xlink:href="#_未命名漸層_14"/>
    <clipPath id="clippath-1">
      <path class="cls-13" d="m190.9,118.28l-23.15-30.18-12.33,14.03s-27.16,10.21-33.53,25.52-15.29,68.9-15.29,68.9h17.92l-.08,54.86h133.45v-54.62h16.89s-8.28-57.02-14.65-69.78c-6.37-12.76-34.4-25.52-34.4-25.52l-11.75-13.4-23.07,30.19Z"/>
    </clipPath>
  </defs>
  <g class="cls-16">
    <g>
      <polygon class="cls-1" points="122.25 335.63 132.35 358.63 137.61 370.63 146.89 370.63 146.89 358.63 146.89 335.63 122.25 335.63"/>
      <polygon class="cls-19" points="122.25 335.63 132.35 358.63 146.89 358.63 146.89 335.63 122.25 335.63"/>
    </g>
    <g>
      <polygon class="cls-1" points="29.89 355.42 29.89 358.63 29.89 370.63 59.08 358.63 66.89 355.42 29.89 355.42"/>
      <polygon class="cls-19" points="29.89 355.42 29.89 358.63 59.08 358.63 66.89 355.42 29.89 355.42"/>
    </g>
    <g>
      <polygon class="cls-1" points="247.53 335.63 237.43 358.63 232.17 370.63 222.89 370.63 222.89 358.63 222.89 335.63 247.53 335.63"/>
      <polygon class="cls-19" points="247.53 335.63 237.43 358.63 222.89 358.63 222.89 335.63 247.53 335.63"/>
    </g>
    <g>
      <polygon class="cls-1" points="339.89 355.42 339.89 358.63 339.89 370.63 310.71 358.63 302.89 355.42 339.89 355.42"/>
      <polygon class="cls-19" points="339.89 355.42 339.89 358.63 310.71 358.63 302.89 355.42 339.89 355.42"/>
    </g>
    <rect class="cls-14" x="23.89" y="23.63" width="322" height="322"/>
    <polygon class="cls-1" points="322.89 322.63 322.89 29.63 315.89 29.63 315.89 339.63 280.89 322.63 280.89 29.63 273.89 29.63 273.89 339.63 238.89 322.63 238.89 29.63 231.89 29.63 231.89 339.63 196.89 322.63 196.89 29.63 189.89 29.63 189.89 339.63 154.89 322.63 154.89 29.63 147.89 29.63 147.89 339.63 112.89 322.63 112.89 29.63 105.89 29.63 105.89 339.63 70.89 322.63 70.89 29.63 63.89 29.63 63.89 339.63 31.89 324.09 31.89 29.63 23.89 29.63 23.89 346.63 28.89 346.63 31.89 346.63 354.89 346.63 354.89 339.63 322.89 322.63"/>
    <g>
      <rect class="cls-4" x="40.89" y="29.73" width="7" height="314.91"/>
      <rect class="cls-4" x="81.89" y="29.73" width="7" height="314.91"/>
      <rect class="cls-4" x="122.89" y="29.73" width="7" height="314.91"/>
      <rect class="cls-4" x="163.89" y="29.73" width="7" height="314.91"/>
      <rect class="cls-4" x="204.89" y="29.73" width="7" height="314.91"/>
      <rect class="cls-4" x="245.89" y="29.73" width="7" height="314.91"/>
      <rect class="cls-4" x="286.89" y="29.73" width="7" height="314.91"/>
      <rect class="cls-4" x="327.89" y="29.73" width="7" height="314.91"/>
    </g>
    <rect class="cls-14" x="47.89" y="23.63" width="16" height="321"/>
    <rect class="cls-14" x="88.89" y="23.63" width="17" height="321"/>
    <rect class="cls-14" x="129.89" y="23.63" width="18" height="321"/>
    <rect class="cls-14" x="170.89" y="23.63" width="19" height="321"/>
    <rect class="cls-14" x="211.89" y="23.63" width="20" height="321"/>
    <rect class="cls-14" x="252.89" y="23.63" width="21" height="321"/>
    <rect class="cls-14" x="293.89" y="23.63" width="22" height="321"/>
    <rect class="cls-14" x="334.89" y="23.63" width="22" height="321"/>
    <polygon class="cls-1" points="31.89 46.18 40.89 46.18 48.39 30.86 63.89 30.86 70.89 46.18 81.89 46.18 89.64 30.86 105.89 30.86 112.89 46.18 122.89 46.18 129.89 30.86 147.89 30.86 154.89 46.18 163.89 46.18 170.89 30.86 189.39 30.86 196.89 46.18 204.89 46.18 211.89 30.86 231.89 30.86 238.89 46.18 245.89 46.18 252.89 30.86 273.89 30.86 280.89 46.18 286.89 46.18 293.89 30.86 315.89 30.86 322.89 46.18 327.89 46.18 334.89 30.86 356.89 30.86 356.89 12.63 23.89 12.63 23.89 29.41 31.89 46.18"/>
    <g>
      <rect class="cls-1" x="3.89" y="23.63" width="20" height="322"/>
      <rect class="cls-1" x="345.89" y="23.63" width="20" height="322"/>
      <rect class="cls-1" x="23.89" y="3.63" width="322" height="20"/>
      <rect class="cls-1" x="23.89" y="345.63" width="322" height="10"/>
    </g>
    <rect class="cls-18" x="23.89" y="29.13" width="1" height="313"/>
    <rect class="cls-18" x="29.39" y="22.63" width="310" height="1"/>
    <rect class="cls-18" x="345.89" y="29.13" width="1" height="311"/>
    <rect class="cls-18" x="23.89" y="344.63" width="323" height="1"/>
    <rect class="cls-14" x="-.11" y="-.37" width="30" height="30"/>
    <rect class="cls-14" x="-.11" y="340.63" width="30" height="30"/>
    <rect class="cls-14" x="339.89" y="340.63" width="30" height="30"/>
    <rect class="cls-14" x="339.89" y="-.37" width="30" height="30"/>
    <circle class="cls-2" cx="14.89" cy="14.63" r="7"/>
    <circle class="cls-15" cx="354.89" cy="14.63" r="7"/>
    <circle class="cls-20" cx="354.89" cy="355.63" r="7"/>
    <circle class="cls-9" cx="13.89" cy="355.63" r="7"/>
    <circle class="cls-19" cx="14.89" cy="14.63" r="7"/>
    <circle class="cls-19" cx="354.89" cy="14.63" r="7"/>
    <circle class="cls-19" cx="354.89" cy="355.63" r="7"/>
    <circle class="cls-19" cx="13.89" cy="355.63" r="7"/>
  </g>
  <g>
    <rect class="cls-17" x="57.89" y="56.63" width="253" height="253" rx="11.64" ry="11.64"/>
    <g id="_紡織品" data-name="紡織品" class="cls-5">
      <g class="cls-5">
        <path class="cls-18" d="m154.15,283.49c-.08-.44-.18-.94-.34-1.51-5.82.91-6.6,1.09-7.12,1.38-.1-.39-.39-1.3-.6-1.77.55-.13,1.14-.78,1.92-1.69.42-.47,1.27-1.56,2.26-2.99-2.81.31-3.38.44-3.74.6-.1-.36-.39-1.27-.6-1.74.42-.13.91-.68,1.46-1.43.57-.78,2.47-3.74,3.56-6.55l1.82.78c-1.22,2.44-2.71,4.94-4.19,6.92l2.81-.26c.65-1.04,1.33-2.18,1.85-3.28l1.66.96c-1.66,2.91-3.69,5.82-5.77,8.16l4.21-.57c-.29-.86-.57-1.69-.88-2.44l1.53-.47c.7,1.69,1.48,3.98,1.79,5.33l-1.64.57Zm-5.3,1.27c-.26,2.24-.78,4.68-1.33,6.29-.36-.21-1.17-.47-1.59-.6.6-1.59.99-3.9,1.25-5.98l1.66.29Zm2.73-.36c.34,1.77.68,4.06.75,5.59l-1.64.34c-.05-1.53-.34-3.87-.65-5.64l1.53-.29Zm2.65-.73c.55,1.35,1.07,3.07,1.3,4.19l-1.46.52c-.23-1.14-.78-2.94-1.25-4.26l1.4-.44Zm6.94-9.65c-.03,1.4-.08,2.76-.18,4.11h7.12v.91c-.36,7.7-.65,10.45-1.46,11.36-.47.6-1.01.81-1.77.88-.7.05-1.98.05-3.25-.03-.05-.57-.26-1.33-.57-1.85,1.3.13,2.55.13,3.04.13.44.03.68-.05.91-.34.55-.57.88-2.99,1.17-9.26h-5.36c-.55,4.78-1.82,9-5.25,11.73-.26-.47-.86-1.07-1.35-1.35,4.5-3.38,4.89-9.75,5.04-16.3h-3.69v-1.85h6.27c-.18-1.07-.68-2.55-1.17-3.72l1.77-.44c.57,1.27,1.14,2.99,1.35,4.03l-.44.13h6.16v1.85h-8.35Z"/>
        <path class="cls-18" d="m174.56,284.72c-.29,2.24-.73,4.65-1.27,6.24-.31-.16-.96-.36-1.33-.47.62-1.61.99-3.9,1.22-5.98l1.38.21Zm4.21-1.3c-.05-.39-.13-.86-.26-1.4-4.6.91-5.33,1.12-5.75,1.35-.08-.34-.36-1.17-.55-1.56.49-.13,1.01-.81,1.74-1.77.36-.47,1.17-1.64,2.05-3.15-2.55.34-3.09.47-3.43.65-.08-.36-.36-1.17-.57-1.64.42-.1.81-.62,1.25-1.43.52-.75,2.08-3.74,2.89-6.55l1.66.7c-.94,2.44-2.16,4.97-3.43,6.94l2.52-.21c.6-1.12,1.17-2.26,1.64-3.41l1.53.81c-1.48,2.99-3.35,6.03-5.23,8.42l3.35-.55c-.18-.83-.42-1.66-.68-2.39l1.3-.29c.57,1.64,1.14,3.82,1.33,5.07l-1.38.39Zm-2.08,1.07c.31,1.74.62,4,.7,5.49l-1.38.31c-.03-1.51-.34-3.8-.62-5.54l1.3-.26Zm2.21-.52c.6,1.59,1.27,3.64,1.56,4.99l-1.3.44c-.26-1.38-.94-3.48-1.48-5.04l1.22-.39Zm16.22-4.91c-.68,2.34-1.66,4.52-2.94,6.47.44,2,1.01,3.17,1.66,3.2.39,0,.7-1.2.86-3.28.29.39.96.81,1.25.96-.49,3.48-1.3,4.45-2.11,4.42-1.3-.03-2.24-1.35-2.91-3.59-1.17,1.48-2.57,2.78-4.16,3.88-.23-.34-.83-.94-1.17-1.2.62-.42,1.22-.86,1.79-1.35h-.88v-.68h-3.85v1.79h-1.51v-10.84h6.97v9.1c.86-.81,1.61-1.72,2.31-2.65-.42-2.16-.73-4.84-.94-7.93h-9.8v-1.59h2.37c-.1-.96-.39-2.13-.7-3.09l1.33-.29c.39,1.04.73,2.39.83,3.38h1.82c.34-1.04.7-2.42.88-3.38l1.64.39c-.34.99-.7,2.08-1.01,2.99h2.6c-.13-2.42-.21-5.04-.26-7.8h1.66c.03,2.76.1,5.38.23,7.8h4.55v1.59h-4.47c.13,2.21.34,4.24.6,5.93.81-1.46,1.43-3.02,1.9-4.63l1.46.39Zm-6.42-6.76h-8.48v-1.53h3.69c-.34-.7-.75-1.51-1.17-2.16l1.56-.52c.55.78,1.14,1.87,1.46,2.68h2.94v1.53Zm-6.03,7.96v2.39h3.85v-2.39h-3.85Zm3.85,6.24v-2.44h-3.85v2.44h3.85Zm7.62-11.57c-.44-1.27-1.48-3.25-2.47-4.71l1.43-.6c.99,1.46,2.08,3.35,2.55,4.58l-1.51.73Z"/>
        <path class="cls-18" d="m199.13,280.32h9.18v11.08h-1.9v-1.17h-5.43v1.4h-1.85v-11.31Zm1.85,1.87v6.16h5.43v-6.16h-5.43Zm16.07-4.6h-14.14v-8.61h14.14v8.61Zm-1.95-6.76h-10.32v4.91h10.32v-4.91Zm5.72,9.49v11.13h-1.9v-1.22h-5.9v1.4h-1.87v-11.31h9.67Zm-1.9,8.03v-6.16h-5.9v6.16h5.9Z"/>
      </g>
    </g>
    <g>
      <path class="cls-3" d="m171.89,252.29c-18.5-9.16-48-19.33-48-38.66,0-19.33,36-19.33,36-38.67,0-19.33-36-19.33-36-38.66,0-19.33,29.5-18.16,48-38.66h-54.5c-17,11.5-39.5,19.33-39.5,38.66,0,19.33,29.5,19.5,29.5,38.84,0,19.33-33,19.16-33,38.49,0,19.33,13.5,28.51,36,38.66h61.5Z"/>
      <g>
        <path id="Path_5575" data-name="Path 5575" class="cls-18" d="m207.22,99.1c-16.68-4.33-32.94-.55-33.1-.51l-.15-.64c.16-.04,16.57-3.86,33.42.51l-.17.64Z"/>
        <path id="Path_5577" data-name="Path 5577" class="cls-12" d="m190.9,118.28l-23.15-30.18-12.33,14.03s-27.16,10.21-33.53,25.51c-6.37,15.31-15.29,68.9-15.29,68.9h17.92l-.08,54.86h133.45v-54.62h16.89s-8.28-57.02-14.65-69.78c-6.37-12.76-34.4-25.52-34.4-25.52l-11.75-13.4-23.07,30.19Z"/>
        <g id="Group_1598" data-name="Group 1598">
          <g class="cls-11">
            <g id="Group_1597" data-name="Group 1597">
              <path id="Path_5578" data-name="Path 5578" class="cls-18" d="m205.1,137.68c-.11,0-.2-.05-.27-.14l-13.6-19.01-12.35,18.92c-.06.09-.16.15-.27.15h0c-.11,0-.21-.06-.27-.15l-24.79-39.44c-.1-.15-.06-.35.09-.45.15-.1.35-.06.45.09,0,0,0,0,0,.01l24.51,39.01,12.33-18.89c.06-.09.16-.15.27-.15.11,0,.21.05.27.14l13.58,18.98,22.61-40.5c.08-.16.28-.22.44-.14s.22.28.14.44c0,0,0,0,0,.01l-22.87,40.95c-.05.1-.16.16-.27.17h-.02"/>
              <path id="Path_5579" data-name="Path 5579" class="cls-18" d="m198.33,155.05c-1.27,0-2.3-1.03-2.3-2.3,0-1.27,1.03-2.3,2.3-2.3,1.27,0,2.3,1.03,2.3,2.3,0,0,0,0,0,0,0,1.27-1.03,2.29-2.3,2.29m.01-3.94c-.91,0-1.64.73-1.65,1.63s.73,1.64,1.63,1.65c.91,0,1.64-.73,1.65-1.63h0c0-.91-.73-1.64-1.63-1.65"/>
              <path id="Path_5580" data-name="Path 5580" class="cls-18" d="m198.22,191.14c-1.27,0-2.3-1.03-2.3-2.3,0-1.27,1.03-2.3,2.3-2.3,1.27,0,2.3,1.03,2.3,2.3,0,0,0,0,0,0,0,1.27-1.03,2.29-2.3,2.29m.01-3.94c-.91,0-1.64.73-1.65,1.63s.73,1.64,1.63,1.65c.91,0,1.64-.73,1.65-1.63h0c0-.91-.73-1.64-1.63-1.65"/>
              <path id="Path_5581" data-name="Path 5581" class="cls-18" d="m190.46,251.49h0c-.18,0-.33-.15-.33-.33l.76-133.2c0-.18.15-.33.33-.33h0c.18,0,.33.15.33.33h0l-.76,133.2c0,.18-.15.33-.33.33"/>
              <path id="Path_5582" data-name="Path 5582" class="cls-18" d="m124.16,196.83c-.18,0-.33-.15-.33-.33h0l.09-30.18c0-.18.15-.33.33-.33.18,0,.33.15.33.33l-.09,30.18c0,.18-.15.33-.33.33h0"/>
            </g>
          </g>
        </g>
        <path id="Path_5586" data-name="Path 5586" class="cls-18" d="m190.82,96.69h-.66v-5.13c-.03-2.52,1.21-4.89,3.31-6.29,1.67-1.05,2.66-2.9,2.59-4.87-.12-2.94-2.47-5.3-5.41-5.41-3.08-.09-5.64,2.34-5.73,5.41,0,.05,0,.11,0,.16h-.65c0-3.44,2.79-6.23,6.23-6.23.06,0,.12,0,.18,0,3.29.13,5.92,2.76,6.05,6.05.07,2.2-1.03,4.27-2.9,5.44-1.91,1.28-3.04,3.44-3,5.73v5.13Z"/>
      </g>
      <g>
        <polygon class="cls-6" points="237.81 245.69 204.47 245.69 209.24 178.34 233.05 178.34 237.81 245.69"/>
        <line class="cls-7" x1="208.28" y1="191.84" x2="233.14" y2="179.71"/>
        <line class="cls-7" x1="207.22" y1="206.82" x2="234.19" y2="193.67"/>
        <line class="cls-7" x1="206.16" y1="221.8" x2="235.12" y2="207.68"/>
        <line class="cls-7" x1="205.1" y1="236.78" x2="236.11" y2="221.66"/>
        <line class="cls-7" x1="218.89" y1="244.52" x2="237.1" y2="235.64"/>
        <rect class="cls-10" x="206.39" y="171.63" width="29.5" height="7.56"/>
        <polygon class="cls-6" points="280.31 244.54 240.29 244.54 246.01 163.68 274.6 163.68 280.31 244.54"/>
        <line class="cls-7" x1="244.41" y1="188.35" x2="275.39" y2="173.13"/>
        <line class="cls-7" x1="245.39" y1="174.13" x2="274.75" y2="159.51"/>
        <line class="cls-7" x1="243.29" y1="204.22" x2="276.39" y2="188.13"/>
        <line class="cls-7" x1="242.17" y1="220.08" x2="277.39" y2="203.13"/>
        <line class="cls-7" x1="241.05" y1="235.94" x2="278.39" y2="218.13"/>
        <line class="cls-7" x1="255.65" y1="244.14" x2="279.39" y2="233.13"/>
        <rect class="cls-10" x="200.39" y="243.85" width="41.5" height="7.56"/>
        <rect class="cls-3" x="236.39" y="243.85" width="47.5" height="7.56"/>
        <rect class="cls-3" x="243.39" y="156.63" width="33.5" height="7.56"/>
      </g>
      <path class="cls-3" d="m74.39,213.97c0,19.33,13.5,28.51,36,38.66h61.5c-18.5-9.16-48-19.33-48-38.66"/>
      <path class="cls-8" d="m113.13,248.87c-.08,0-.15-.02-.22-.05-4.1-2.06-7.53-4-10.49-5.94-.23-.15-.29-.46-.14-.69.15-.23.46-.29.69-.14,2.92,1.91,6.32,3.84,10.39,5.88.25.12.35.42.22.67-.09.17-.26.28-.45.28Zm-18.28-12.08c-.13,0-.25-.05-.35-.14-3.14-3.06-5.44-6.28-7.02-9.86-.11-.25,0-.55.25-.66.25-.11.55,0,.66.25,1.53,3.46,3.75,6.58,6.8,9.55.2.19.2.51,0,.71-.1.1-.23.15-.36.15Zm-9.32-19.35c-.26,0-.47-.2-.5-.46-.09-1.08-.14-2.21-.14-3.36,0-3.12.82-5.89,2.5-8.46.15-.23.46-.3.69-.14.23.15.3.46.14.69-1.57,2.4-2.34,4.99-2.34,7.91,0,1.12.05,2.22.14,3.28.02.28-.18.52-.45.54-.02,0-.03,0-.04,0Zm9.48-18.35c-.16,0-.32-.08-.41-.22-.16-.23-.1-.54.13-.69,2.18-1.49,4.58-2.89,6.9-4.24,1.14-.66,2.27-1.32,3.39-1.99.24-.14.54-.07.69.17s.07.54-.17.69c-1.12.68-2.26,1.34-3.4,2-2.31,1.34-4.69,2.73-6.84,4.2-.09.06-.18.09-.28.09Z"/>
      <path class="cls-8" d="m102.23,155.28c-.1,0-.19-.03-.28-.08-3.33-2.22-6.79-4.63-9.36-7.67-.18-.21-.15-.53.06-.71.21-.18.53-.15.71.06,2.49,2.93,5.88,5.31,9.15,7.48.23.15.29.46.14.69-.1.14-.25.22-.42.22Zm-13.24-16.56c-.25,0-.47-.19-.5-.45-.07-.64-.1-1.3-.1-1.97,0-3.51.75-6.86,2.22-9.95.12-.25.42-.35.67-.24.25.12.35.42.24.67-1.43,2.99-2.12,6.11-2.12,9.51,0,.64.03,1.27.1,1.87.03.27-.17.52-.44.55-.02,0-.04,0-.05,0Zm7.96-19.66c-.13,0-.26-.05-.36-.15-.19-.2-.19-.51,0-.71,2.47-2.45,5.49-4.82,9.5-7.47.23-.15.54-.09.69.14.15.23.09.54-.14.69-3.95,2.61-6.92,4.95-9.34,7.35-.1.1-.22.14-.35.14Zm17.93-12.65c-.17,0-.34-.09-.43-.25-.14-.24-.06-.54.18-.68l1.89-1.11c2.78-1.63,5.66-3.33,8.4-5.06.23-.15.54-.08.69.16.15.23.08.54-.16.69-2.75,1.74-5.64,3.43-8.42,5.07l-1.89,1.11c-.08.05-.17.07-.25.07Z"/>
    </g>
  </g>
</svg>