<?xml version="1.0" encoding="UTF-8"?>
<svg id="_1" data-name="1" xmlns="http://www.w3.org/2000/svg" xmlns:xlink="http://www.w3.org/1999/xlink" viewBox="0 0 371 371">
  <defs>
    <style>
      .cls-1 {
        fill: #d13554;
      }

      .cls-2 {
        fill: #2a59ff;
      }

      .cls-3 {
        isolation: isolate;
      }

      .cls-4 {
        fill: #e54e61;
      }

      .cls-5 {
        fill: #f83462;
      }

      .cls-6 {
        fill: #d46b0b;
      }

      .cls-7 {
        clip-path: url(#clippath-1);
      }

      .cls-8 {
        fill: #f7eca4;
      }

      .cls-9 {
        fill: #f0b818;
      }

      .cls-10 {
        fill: #27d8ae;
      }

      .cls-11 {
        clip-path: url(#clippath);
      }

      .cls-12 {
        fill: url(#_未命名漸層_6-4);
      }

      .cls-13 {
        fill: #d9e2e9;
      }

      .cls-14 {
        fill: #fec5a2;
      }

      .cls-15 {
        fill: none;
      }

      .cls-16 {
        fill: url(#_未命名漸層_6-3);
      }

      .cls-17 {
        fill: #271e49;
      }

      .cls-18 {
        fill: #fbf5d1;
        opacity: .8;
      }

      .cls-19 {
        opacity: .36;
      }

      .cls-20 {
        fill: #f87e95;
      }

      .cls-21 {
        fill: #819ef4;
      }

      .cls-22 {
        fill: url(#_未命名漸層_6);
      }

      .cls-23 {
        fill: #f7d627;
      }

      .cls-24 {
        fill: url(#_未命名漸層_6-2);
      }
    </style>
    <clipPath id="clippath">
      <rect class="cls-15" x="-.36" y="0" width="371" height="320"/>
    </clipPath>
    <linearGradient id="_未命名漸層_6" data-name="未命名漸層 6" x1="20.48" y1="20.16" x2="10.85" y2="10.41" gradientUnits="userSpaceOnUse">
      <stop offset="0" stop-color="#f7d627"/>
      <stop offset="1" stop-color="#f0b818"/>
    </linearGradient>
    <linearGradient id="_未命名漸層_6-2" data-name="未命名漸層 6" x1="360.48" y1="20.16" x2="350.85" y2="10.41" xlink:href="#_未命名漸層_6"/>
    <linearGradient id="_未命名漸層_6-3" data-name="未命名漸層 6" x1="360.48" y1="361.16" x2="350.85" y2="351.41" xlink:href="#_未命名漸層_6"/>
    <linearGradient id="_未命名漸層_6-4" data-name="未命名漸層 6" x1="19.48" y1="361.16" x2="9.85" y2="351.41" xlink:href="#_未命名漸層_6"/>
    <clipPath id="clippath-1">
      <path id="Path_5563-2" data-name="Path 5563" class="cls-15" d="m170.3,248.04h0c-19.58,8.05-41.98-1.3-50.03-20.89h0l-12.82-31.2c-8.05-19.58,1.3-41.98,20.89-50.03,19.58-8.05,41.98,1.3,50.03,20.89l12.82,31.2c8.05,19.58-1.3,41.98-20.89,50.03h0"/>
    </clipPath>
  </defs>
  <g class="cls-11">
    <g>
      <polygon class="cls-9" points="122.75 336 132.84 359 138.11 371 147.39 371 147.39 359 147.39 336 122.75 336"/>
      <polygon class="cls-19" points="122.75 336 132.84 359 147.39 359 147.39 336 122.75 336"/>
    </g>
    <g>
      <polygon class="cls-9" points="30.39 355.79 30.39 359 30.39 371 59.57 359 67.39 355.79 30.39 355.79"/>
      <polygon class="cls-19" points="30.39 355.79 30.39 359 59.57 359 67.39 355.79 30.39 355.79"/>
    </g>
    <g>
      <polygon class="cls-9" points="248.02 336 237.93 359 232.66 371 223.39 371 223.39 359 223.39 336 248.02 336"/>
      <polygon class="cls-19" points="248.02 336 237.93 359 223.39 359 223.39 336 248.02 336"/>
    </g>
    <g>
      <polygon class="cls-9" points="340.39 355.79 340.39 359 340.39 371 311.2 359 303.39 355.79 340.39 355.79"/>
      <polygon class="cls-19" points="340.39 355.79 340.39 359 311.2 359 303.39 355.79 340.39 355.79"/>
    </g>
    <rect class="cls-23" x="24.39" y="24" width="322" height="322"/>
    <polygon class="cls-9" points="323.39 323 323.39 30 316.39 30 316.39 340 281.39 323 281.39 30 274.39 30 274.39 340 239.39 323 239.39 30 232.39 30 232.39 340 197.39 323 197.39 30 190.39 30 190.39 340 155.39 323 155.39 30 148.39 30 148.39 340 113.39 323 113.39 30 106.39 30 106.39 340 71.39 323 71.39 30 64.39 30 64.39 340 32.39 324.46 32.39 30 24.39 30 24.39 347 29.39 347 32.39 347 355.39 347 355.39 340 323.39 323"/>
    <rect class="cls-8" x="41.39" y="30.09" width="7" height="314.91"/>
    <rect class="cls-8" x="82.39" y="30.09" width="7" height="314.91"/>
    <rect class="cls-8" x="123.39" y="30.09" width="7" height="314.91"/>
    <rect class="cls-8" x="164.39" y="30.09" width="7" height="314.91"/>
    <rect class="cls-8" x="205.39" y="30.09" width="7" height="314.91"/>
    <rect class="cls-8" x="246.39" y="30.09" width="7" height="314.91"/>
    <rect class="cls-8" x="287.39" y="30.09" width="7" height="314.91"/>
    <rect class="cls-8" x="328.39" y="30.09" width="7" height="314.91"/>
    <rect class="cls-23" x="48.39" y="24" width="16" height="321"/>
    <rect class="cls-23" x="89.39" y="24" width="17" height="321"/>
    <rect class="cls-23" x="130.39" y="24" width="18" height="321"/>
    <rect class="cls-23" x="171.39" y="24" width="19" height="321"/>
    <rect class="cls-23" x="212.39" y="24" width="20" height="321"/>
    <rect class="cls-23" x="253.39" y="24" width="21" height="321"/>
    <rect class="cls-23" x="294.39" y="24" width="22" height="321"/>
    <rect class="cls-23" x="335.39" y="24" width="22" height="321"/>
    <polygon class="cls-9" points="32.39 46.55 41.39 46.55 48.89 31.23 64.39 31.23 71.39 46.55 82.39 46.55 90.13 31.23 106.39 31.23 113.39 46.55 123.39 46.55 130.39 31.23 148.39 31.23 155.39 46.55 164.39 46.55 171.39 31.23 189.89 31.23 197.39 46.55 205.39 46.55 212.39 31.23 232.39 31.23 239.39 46.55 246.39 46.55 253.39 31.23 274.39 31.23 281.39 46.55 287.39 46.55 294.39 31.23 316.39 31.23 323.39 46.55 328.39 46.55 335.39 31.23 357.39 31.23 357.39 13 24.39 13 24.39 29.78 32.39 46.55"/>
    <g>
      <rect class="cls-9" x="4.39" y="24" width="20" height="322"/>
      <rect class="cls-9" x="346.39" y="24" width="20" height="322"/>
      <rect class="cls-9" x="175.39" y="-147" width="20" height="322" transform="translate(199.39 -171.39) rotate(90)"/>
      <rect class="cls-9" x="180.39" y="190" width="10" height="322" transform="translate(536.39 165.61) rotate(90)"/>
    </g>
    <rect class="cls-17" x="24.39" y="29.5" width="1" height="313"/>
    <rect class="cls-17" x="29.89" y="23" width="310" height="1"/>
    <rect class="cls-17" x="346.39" y="29.5" width="1" height="311"/>
    <rect class="cls-17" x="24.39" y="345" width="323" height="1"/>
    <rect class="cls-23" x=".39" y="0" width="30" height="30"/>
    <rect class="cls-23" x=".39" y="341" width="30" height="30"/>
    <rect class="cls-23" x="340.39" y="341" width="30" height="30"/>
    <rect class="cls-23" x="340.39" y="0" width="30" height="30"/>
    <g>
      <circle class="cls-22" cx="15.39" cy="15" r="7"/>
      <circle class="cls-19" cx="15.39" cy="15" r="7"/>
    </g>
    <g>
      <circle class="cls-24" cx="355.39" cy="15" r="7"/>
      <circle class="cls-19" cx="355.39" cy="15" r="7"/>
    </g>
    <g>
      <circle class="cls-16" cx="355.39" cy="356" r="7"/>
      <circle class="cls-19" cx="355.39" cy="356" r="7"/>
    </g>
    <g>
      <circle class="cls-12" cx="14.39" cy="356" r="7"/>
      <circle class="cls-19" cx="14.39" cy="356" r="7"/>
    </g>
  </g>
  <g>
    <rect class="cls-18" x="58.89" y="57" width="253" height="253" rx="11.64" ry="11.64"/>
    <g id="_紡織品" data-name="紡織品" class="cls-3">
      <g class="cls-3">
        <path class="cls-17" d="m155.38,285.66v4.06l4.94-1.04c-.03.44-.03,1.12.03,1.46-6.06,1.48-6.81,1.66-7.31,1.98-.05-.47-.39-1.22-.65-1.61.47-.18,1.14-.62,1.14-1.66v-3.17h-2.42c-.34,2.21-1.04,4.58-2.44,6.4-.36-.31-1.17-.78-1.64-.99,2.18-2.76,2.5-6.5,2.5-9.15v-3.3h20.31v1.46h-18.46v1.38h17.24v1.33h-17.24c-.03.47-.05.91-.1,1.4h19.14v1.48h-2.71l1.27,1.07c-1.51.75-3.33,1.46-4.89,1.98,1.82.86,4.08,1.43,6.66,1.64-.39.39-.86,1.09-1.09,1.61-5.43-.68-9.26-2.76-11.18-6.29h-3.09Zm13.03-8.32h-18.62v-7.28h5.38v-1.82h1.9v1.82h3.77v-1.82h1.9v1.82h5.67v7.28Zm-16.82-4.29h3.59v-1.66h-3.59v1.66Zm0,2.96h3.59v-1.69h-3.59v1.69Zm5.49-4.63v1.66h3.77v-1.66h-3.77Zm0,2.94v1.69h3.77v-1.69h-3.77Zm3.22,11.34c.6.86,1.4,1.61,2.39,2.24,1.53-.57,3.54-1.53,4.78-2.24h-7.18Zm6.24-14.28h-3.8v1.66h3.8v-1.66Zm0,2.94h-3.8v1.69h3.8v-1.69Z"/>
        <path class="cls-17" d="m177.03,278.77v3.87c0,2.94-.44,6.92-2.78,9.59-.29-.36-1.04-1.01-1.46-1.25,2.11-2.42,2.37-5.77,2.37-8.37v-5.46h3.28c-.26-.34-.68-.73-.94-.96,2.05-.39,4.42-.91,6.66-1.53-1.98-.57-4-1.09-5.85-1.51l1.14-.94h-4.16v-1.59h9.59c-.44-.65-.94-1.35-1.4-1.92l1.38-.7c.68.78,1.48,1.82,1.98,2.63h8.74v1.59h-3.98l1.04.62c-1.14.62-2.5,1.22-3.98,1.74,1.9.57,3.67,1.14,4.97,1.61l-1.04.96h3.77v1.61h-19.32Zm19.73,10.74v1.64h-19.27v-1.64h8.5v-2.6h-6.06v-1.56h6.06v-2.31h-5.43c-.73,1.25-1.59,2.37-2.47,3.2-.18-.34-.68-1.25-1.01-1.59,1.43-1.35,2.68-3.35,3.43-5.43l1.66.47c-.23.6-.47,1.17-.73,1.77h4.55v-2.21h1.9v2.21h6.99v1.59h-6.99v2.31h6.42v1.56h-6.42v2.6h8.87Zm-4.81-12.35c-1.51-.57-3.41-1.2-5.51-1.85-2.34.75-4.81,1.35-7.02,1.85h12.53Zm-11.93-4.94c2.03.49,4.32,1.09,6.53,1.74,1.66-.55,3.17-1.12,4.34-1.74h-10.87Z"/>
        <path class="cls-17" d="m200.12,280.69h9.18v11.08h-1.9v-1.17h-5.43v1.4h-1.85v-11.31Zm1.85,1.87v6.16h5.43v-6.16h-5.43Zm16.07-4.6h-14.14v-8.61h14.14v8.61Zm-1.95-6.76h-10.32v4.91h10.32v-4.91Zm5.72,9.49v11.13h-1.9v-1.22h-5.9v1.4h-1.87v-11.31h9.67Zm-1.9,8.03v-6.16h-5.9v6.16h5.9Z"/>
      </g>
    </g>
    <g>
      <g>
        <rect class="cls-21" x="191.54" y="92.89" width="34.65" height="11.25"/>
        <rect class="cls-13" x="202.76" y="127.77" width="46.86" height="112"/>
        <polygon class="cls-2" points="191.54 104.13 168.65 127.77 202.76 127.77 225.45 104.88 226.19 104.13 191.54 104.13"/>
        <polygon class="cls-21" points="225.45 104.88 202.76 127.77 249.62 127.77 226.19 104.13 226.19 104.88 225.45 104.88"/>
        <polygon class="cls-21" points="226.19 104.88 226.19 104.13 225.45 104.88 226.19 104.88"/>
        <rect class="cls-21" x="168.65" y="127.77" width="34.11" height="112"/>
      </g>
      <g>
        <path id="Path_5561" data-name="Path 5561" class="cls-10" d="m118.73,156.5s-3.13-12.31-27.55-10.78c0,0,6.35-8.14,20.33-6.87,0,0-23.75-15.52-37.08-15.14,0,0,17.92-8.12,28.95-4.63,0,0-11.47-9.17-19.61-10.17,0,0,15.68-3.99,21.37.48,0,0-10.31-29.76-3.26-36.06,0,0,10.02,19.68,16.9,27.05,0,0,7.95-13.47,17.24-18.99,0,0-12.15,21.99-7.97,32.17,0,0,11.24-14.82,19.94-21.79,0,0-14.25,26.26-17.26,37.69,0,0,13.49-14.04,19.03-14.62,0,0-10.65,16.27-10.5,21.32.2,3.8.68,7.58,1.41,11.32l-21.95,9.02Z"/>
        <path id="Path_5562" data-name="Path 5562" class="cls-17" d="m130.87,152.11c-.11.04-.23,0-.29-.1-17.02-28.29-28.27-68.64-28.38-69.05-.04-.13.04-.26.17-.29.13-.04.26.04.29.17h0c.11.4,11.35,40.7,28.33,68.93.07.11.03.26-.08.33,0,0,0,0,0,0-.01,0-.02,0-.03.01"/>
        <path id="Path_5563" data-name="Path 5563" class="cls-23" d="m170.3,248.04h0c-19.58,8.05-41.98-1.3-50.03-20.89h0l-12.82-31.2c-8.05-19.58,1.3-41.98,20.89-50.03,19.58-8.05,41.98,1.3,50.03,20.89l12.82,31.2c8.05,19.58-1.3,41.98-20.89,50.03h0"/>
        <g class="cls-7">
          <g id="Group_1588" data-name="Group 1588">
            <path id="Path_5564" data-name="Path 5564" class="cls-17" d="m189.19,189.85s-.06.02-.09.02l-94.42-.59c-.13,0-.24-.11-.23-.25,0-.13.11-.23.23-.23l94.41.59c.13,0,.24.11.24.24,0,.1-.06.18-.15.22"/>
            <path id="Path_5565" data-name="Path 5565" class="cls-17" d="m178.86,164.73s-.06.02-.09.02l-94.42-.59c-.13,0-.24-.11-.23-.25,0-.13.11-.23.23-.23l94.41.59c.13,0,.24.11.24.24,0,.1-.06.18-.15.22"/>
            <path id="Path_5566" data-name="Path 5566" class="cls-17" d="m209.01,238.08s-.06.02-.09.02l-94.42-.59c-.13,0-.24-.11-.23-.25,0-.13.11-.23.23-.23l94.41.59c.13,0,.24.11.24.24,0,.1-.06.18-.15.22"/>
            <path id="Path_5567" data-name="Path 5567" class="cls-17" d="m198.68,212.95s-.06.02-.09.02l-94.42-.59c-.13,0-.24-.11-.23-.25,0-.13.11-.23.23-.23l94.41.59c.13,0,.24.11.24.24,0,.1-.06.18-.15.22"/>
            <path id="Path_5568" data-name="Path 5568" class="cls-17" d="m108.62,222.96c-.12.05-.26,0-.31-.13-.04-.09-.02-.19.05-.26l66.72-66.81c.1-.09.25-.09.34,0,.09.09.09.24,0,.33l-66.72,66.81s-.05.04-.08.05"/>
            <path id="Path_5569" data-name="Path 5569" class="cls-17" d="m98.3,197.84c-.12.05-.26,0-.31-.13-.04-.09-.02-.19.05-.26l66.72-66.81c.1-.09.25-.09.34,0,.09.09.09.24,0,.33l-66.72,66.81s-.05.04-.08.05"/>
            <path id="Path_5570" data-name="Path 5570" class="cls-17" d="m128.44,271.19c-.12.05-.26,0-.31-.13-.04-.09-.02-.19.05-.26l66.72-66.81c.1-.09.25-.09.34,0,.09.09.09.24,0,.33l-66.72,66.81s-.05.04-.08.05"/>
            <path id="Path_5571" data-name="Path 5571" class="cls-17" d="m118.11,246.06c-.12.05-.26,0-.31-.13-.04-.09-.02-.19.05-.26l66.72-66.81c.1-.09.25-.09.34,0,.09.09.09.24,0,.33l-66.72,66.81s-.05.04-.08.05"/>
          </g>
        </g>
      </g>
      <g>
        <path class="cls-6" d="m186.69,201.63c7.92-7.14,13.52-17.65,25.17-17.27,12.82.41,24.38-.99,44.27,15.79,11.99,10.86,27.78,6.91,30.74,5.92,2.96-.99,7.9-.99,8.88,3.95s-3.95,5.92-3.95,5.92c0,0,3.95,4.93.99,8.88s-8.13,2.96-11.47,0c-3.34-2.96-6.22-1.7-10.21,2.6s-12.87,29.97-49.39,32.93c-36.52,2.96-49.3-10.74-53.79-23.19s11.99-29.44,18.75-35.53Z"/>
        <path class="cls-8" d="m188.67,203.6c3.95-3.95,12.83-14.8,20.73-15.79,7.9-.99,17.77,2.96,20.73,16.78,2.96,13.82.99,12.83,4.93,23.69,3.95,10.86.86,23.92-3.52,26.76-4.38,2.85-21.16,5.81-33.99,1.86s-22.7-7.9-26.65-18.75c-3.95-10.86,1.97-18.75,17.77-34.54Z"/>
        <path class="cls-4" d="m189.12,205.35c3.72-3.72,12.09-13.95,19.54-14.89,7.44-.93,16.75,2.79,19.54,15.82,2.79,13.02.93,12.09,4.65,22.33,3.72,10.23.81,22.55-3.32,25.23-4.13,2.68-19.94,5.47-32.04,1.75-12.09-3.72-21.4-7.44-25.12-17.68-3.72-10.23,1.86-17.68,16.75-32.56Z"/>
        <path class="cls-14" d="m210.38,213.47c2.21,3.11,0,7.9-5.92,10.86-4.88,2.44-9.63,2.12-11.84-.99-2.21-3.11,2.47-7.7,6.91-10.86,4.44-3.16,8.65-2.12,10.86.99Z"/>
        <path class="cls-5" d="m208.41,215.44c.99,1.97-.57,4.23-3.95,5.92-1.97.99-6.33,2-7.77-.03s.74-3.7,3.82-5.89c3.08-2.19,6.78-2.23,7.9,0Z"/>
      </g>
      <path class="cls-1" d="m155.93,225.09c0,18.85-15.28,34.12-34.12,34.12s-34.12-15.28-34.12-34.12,15.68-20.47,34.52-20.47,33.72,1.63,33.72,20.47Z"/>
      <path class="cls-10" d="m114.81,203.42s-.69-4.86-4.51-6.25c0,0,5.73-.52,11.28,3.99,0,0,4.51-4.17,14.93-2.43,0,0-6.94,2.43-7.64,5.21,0,0,8.33-1.04,11.8,5.21,0,0-6.6-2.43-12.5-.35,0,0,3.47,2.78,2.43,6.94,0,0-4.51-4.86-10.07-5.21,0,0-.35,1.74-3.47,2.43s-6.25,1.74-7.29,3.47c0,0-1.39-4.51,2.43-7.99,0,0-2.78-4.51-10.07-4.51,0,0,4.17-3.47,12.67-.52Z"/>
      <path class="cls-20" d="m104.61,223.64c-.93,1.86-2.25,4.66-5.59,4.66s-6.53-2.8-5.59-8.39c.93-5.59,5.28-6.84,8.39-5.59,4.66,1.86,4.29,6.33,2.8,9.32Z"/>
      <path class="cls-8" d="m247.88,239.87c-.12,0-.24-.04-.35-.12-.26-.19-.31-.55-.12-.81,5.97-7.96,6.82-20.39,6.82-20.51.02-.32.27-.58.61-.54.32.02.56.29.54.61-.03.52-.87,12.89-7.06,21.13-.11.15-.29.23-.46.23Z"/>
      <path class="cls-8" d="m257.14,241.02c-.11,0-.21-.03-.31-.09-.27-.17-.35-.53-.18-.8,5.59-8.94,3.3-18.22,3.28-18.31-.08-.31.11-.62.42-.7.31-.08.62.11.7.42.1.4,2.43,9.86-3.42,19.21-.11.18-.3.27-.49.27Z"/>
      <path class="cls-8" d="m261.76,238.71c-.2,0-.39-.1-.5-.28-3.06-5.11-16.8-9.24-18.56-9.31-.06.03-.14.05-.21.05-.31.04-.59-.23-.61-.55-.01-.27.2-.55.45-.62,1.39-.44,16.5,4.13,19.92,9.84.16.27.08.63-.2.79-.09.06-.2.08-.3.08Zm-18.72-10.14s0,.04,0,.05c0-.02,0-.03,0-.05Zm0,0h0s0,0,0,0Zm0,0h0,0Zm0,0h0s0,0,0,0Z"/>
      <path class="cls-8" d="m262.92,230.61c-.18,0-.35-.08-.46-.23-3.31-4.41-13.4-7.14-13.5-7.16-.31-.08-.49-.4-.41-.71.08-.31.39-.5.71-.41.43.11,10.58,2.86,14.13,7.59.19.26.14.62-.12.81-.1.08-.23.12-.35.12Z"/>
    </g>
  </g>
</svg>