<?xml version="1.0" encoding="UTF-8"?>
<svg id="_1" data-name="1" xmlns="http://www.w3.org/2000/svg" xmlns:xlink="http://www.w3.org/1999/xlink" viewBox="0 0 371 371">
  <defs>
    <style>
      .cls-1 {
        fill: #d13554;
      }

      .cls-2 {
        fill: url(#_未命名漸層_10-3);
      }

      .cls-3 {
        fill: url(#_未命名漸層_10);
      }

      .cls-4 {
        fill: url(#_未命名漸層_10-2);
      }

      .cls-5 {
        fill: #f83462;
      }

      .cls-6 {
        clip-path: url(#clippath);
      }

      .cls-7 {
        fill: none;
      }

      .cls-8 {
        fill: #271e49;
      }

      .cls-9 {
        opacity: .36;
      }

      .cls-10 {
        fill: url(#_未命名漸層_10-4);
      }

      .cls-11 {
        fill: #f87e95;
      }

      .cls-12 {
        fill: #fbbeca;
        opacity: .8;
      }
    </style>
    <clipPath id="clippath">
      <rect class="cls-7" x=".52" y="47" width="370" height="324"/>
    </clipPath>
    <linearGradient id="_未命名漸層_10" data-name="未命名漸層 10" x1="426.69" y1="371.23" x2="-83.44" y2="-70.73" gradientUnits="userSpaceOnUse">
      <stop offset="0" stop-color="#f87e95"/>
      <stop offset="1" stop-color="#f83462"/>
    </linearGradient>
    <linearGradient id="_未命名漸層_10-2" data-name="未命名漸層 10" x1="572.47" y1="202.96" x2="62.34" y2="-238.99" xlink:href="#_未命名漸層_10"/>
    <linearGradient id="_未命名漸層_10-3" data-name="未命名漸層 10" x1="403.71" y1="397.75" x2="-106.42" y2="-44.2" xlink:href="#_未命名漸層_10"/>
    <linearGradient id="_未命名漸層_10-4" data-name="未命名漸層 10" x1="257.5" y1="566.51" x2="-252.63" y2="124.56" xlink:href="#_未命名漸層_10"/>
  </defs>
  <g class="cls-6">
    <g>
      <polygon class="cls-1" points="122.88 336 132.97 359 138.24 371 147.52 371 147.52 359 147.52 336 122.88 336"/>
      <polygon class="cls-9" points="122.88 336 132.97 359 147.52 359 147.52 336 122.88 336"/>
    </g>
    <g>
      <polygon class="cls-1" points="30.52 355.79 30.52 359 30.52 371 59.7 359 67.52 355.79 30.52 355.79"/>
      <polygon class="cls-9" points="30.52 355.79 30.52 359 59.7 359 67.52 355.79 30.52 355.79"/>
    </g>
    <g>
      <polygon class="cls-1" points="248.15 336 238.06 359 232.79 371 223.52 371 223.52 359 223.52 336 248.15 336"/>
      <polygon class="cls-9" points="248.15 336 238.06 359 223.52 359 223.52 336 248.15 336"/>
    </g>
    <g>
      <polygon class="cls-1" points="340.52 355.79 340.52 359 340.52 371 311.33 359 303.52 355.79 340.52 355.79"/>
      <polygon class="cls-9" points="340.52 355.79 340.52 359 311.33 359 303.52 355.79 340.52 355.79"/>
    </g>
    <rect class="cls-5" x="24.52" y="24" width="322" height="322"/>
    <polygon class="cls-1" points="323.52 323 323.52 30 316.52 30 316.52 340 281.52 323 281.52 30 274.52 30 274.52 340 239.52 323 239.52 30 232.52 30 232.52 340 197.52 323 197.52 30 190.52 30 190.52 340 155.52 323 155.52 30 148.52 30 148.52 340 113.52 323 113.52 30 106.52 30 106.52 340 71.52 323 71.52 30 64.52 30 64.52 340 32.52 324.46 32.52 30 24.52 30 24.52 347 29.52 347 32.52 347 355.52 347 355.52 340 323.52 323"/>
    <rect class="cls-11" x="41.52" y="30.09" width="7" height="314.91"/>
    <rect class="cls-11" x="82.52" y="30.09" width="7" height="314.91"/>
    <rect class="cls-11" x="123.52" y="30.09" width="7" height="314.91"/>
    <rect class="cls-11" x="164.52" y="30.09" width="7" height="314.91"/>
    <rect class="cls-11" x="205.52" y="30.09" width="7" height="314.91"/>
    <rect class="cls-11" x="246.52" y="30.09" width="7" height="314.91"/>
    <rect class="cls-11" x="287.52" y="30.09" width="7" height="314.91"/>
    <rect class="cls-11" x="328.52" y="30.09" width="7" height="314.91"/>
    <rect class="cls-5" x="48.52" y="24" width="16" height="321"/>
    <rect class="cls-5" x="89.52" y="24" width="17" height="321"/>
    <rect class="cls-5" x="130.52" y="24" width="18" height="321"/>
    <rect class="cls-5" x="171.52" y="24" width="19" height="321"/>
    <rect class="cls-5" x="212.52" y="24" width="20" height="321"/>
    <rect class="cls-5" x="253.52" y="24" width="21" height="321"/>
    <rect class="cls-5" x="294.52" y="24" width="22" height="321"/>
    <rect class="cls-5" x="335.52" y="24" width="22" height="321"/>
    <polygon class="cls-1" points="32.52 46.55 41.52 46.55 49.02 31.23 64.52 31.23 71.52 46.55 82.52 46.55 90.26 31.23 106.52 31.23 113.52 46.55 123.52 46.55 130.52 31.23 148.52 31.23 155.52 46.55 164.52 46.55 171.52 31.23 190.02 31.23 197.52 46.55 205.52 46.55 212.52 31.23 232.52 31.23 239.52 46.55 246.52 46.55 253.52 31.23 274.52 31.23 281.52 46.55 287.52 46.55 294.52 31.23 316.52 31.23 323.52 46.55 328.52 46.55 335.52 31.23 357.52 31.23 357.52 13 24.52 13 24.52 29.78 32.52 46.55"/>
    <g>
      <rect class="cls-1" x="4.52" y="24" width="20" height="322"/>
      <rect class="cls-1" x="346.52" y="24" width="20" height="322"/>
      <rect class="cls-1" x="24.52" y="4" width="322" height="20"/>
      <rect class="cls-1" x="24.52" y="346" width="322" height="10"/>
    </g>
    <rect class="cls-8" x="24.52" y="29.5" width="1" height="313"/>
    <rect class="cls-8" x="30.02" y="23" width="310" height="1"/>
    <rect class="cls-8" x="346.52" y="29.5" width="1" height="311"/>
    <rect class="cls-8" x="24.52" y="345" width="323" height="1"/>
    <rect class="cls-5" x=".52" width="30" height="30"/>
    <rect class="cls-5" x=".52" y="341" width="30" height="30"/>
    <rect class="cls-5" x="340.52" y="341" width="30" height="30"/>
    <rect class="cls-5" x="340.52" width="30" height="30"/>
    <circle class="cls-3" cx="15.52" cy="15" r="7"/>
    <circle class="cls-4" cx="355.52" cy="15" r="7"/>
    <circle class="cls-2" cx="355.52" cy="356" r="7"/>
    <circle class="cls-10" cx="14.52" cy="356" r="7"/>
    <circle class="cls-9" cx="15.52" cy="15" r="7"/>
    <circle class="cls-9" cx="355.52" cy="15" r="7"/>
    <circle class="cls-9" cx="355.52" cy="356" r="7"/>
    <circle class="cls-9" cx="14.52" cy="356" r="7"/>
  </g>
  <rect id="Rectangle_1327" data-name="Rectangle 1327" class="cls-12" x="33.02" y="64.27" width="305" height="245" rx="4" ry="4"/>
  <g>
    <path class="cls-8" d="m56.19,75.26c-.52,1.17-1.12,2.32-1.8,3.4v12.57h-1.3v-10.66c-.77,1.03-1.6,1.96-2.43,2.74-.14-.32-.52-1.01-.76-1.33,1.96-1.69,3.89-4.38,5.04-7.13l1.24.41Zm7.6,14.13c1.01,0,1.15-.79,1.3-3.87.34.27.86.52,1.24.61-.22,3.33-.58,4.48-2.47,4.48h-3.42c-1.78,0-2.34-.52-2.34-2.43v-13.13h1.3v4.9h6.39v1.3h-6.39v6.97c0,.95.2,1.17,1.13,1.17h3.26Z"/>
    <path class="cls-8" d="m86,88.51v1.33h-16.06v-1.33h7.24v-10.34h-6.3v-1.37h14.22v1.37h-6.46v10.34h7.36Z"/>
    <path class="cls-8" d="m92.15,82.06v2.68c0,2.04-.31,4.79-1.93,6.64-.2-.25-.72-.7-1.01-.86,1.46-1.67,1.64-4,1.64-5.8v-3.78h2.27c-.18-.23-.47-.5-.65-.67,1.42-.27,3.06-.63,4.61-1.06-1.37-.4-2.77-.76-4.05-1.04l.79-.65h-2.88v-1.1h6.64c-.31-.45-.65-.94-.97-1.33l.95-.49c.47.54,1.03,1.26,1.37,1.82h6.05v1.1h-2.75l.72.43c-.79.43-1.73.85-2.75,1.21,1.31.4,2.54.79,3.44,1.12l-.72.67h2.61v1.12h-13.38Zm13.67,7.44v1.13h-13.34v-1.13h5.89v-1.8h-4.2v-1.08h4.2v-1.6h-3.76c-.5.86-1.1,1.64-1.71,2.21-.13-.23-.47-.86-.7-1.1.99-.94,1.85-2.32,2.38-3.76l1.15.32c-.16.41-.32.81-.5,1.22h3.15v-1.53h1.31v1.53h4.84v1.1h-4.84v1.6h4.45v1.08h-4.45v1.8h6.14Zm-3.33-8.55c-1.04-.4-2.36-.83-3.82-1.28-1.62.52-3.33.94-4.86,1.28h8.68Zm-8.26-3.42c1.4.34,2.99.76,4.52,1.21,1.15-.38,2.2-.77,3.01-1.21h-7.53Z"/>
    <path class="cls-8" d="m109.78,83.39h6.36v7.67h-1.31v-.81h-3.76v.97h-1.28v-7.83Zm1.28,1.3v4.27h3.76v-4.27h-3.76Zm11.13-3.19h-9.79v-5.96h9.79v5.96Zm-1.35-4.68h-7.15v3.4h7.15v-3.4Zm3.96,6.57v7.71h-1.31v-.85h-4.09v.97h-1.3v-7.83h6.7Zm-1.31,5.56v-4.27h-4.09v4.27h4.09Z"/>
    <path class="cls-8" d="m131.02,78.69c0-.83.63-1.35,1.35-1.35s1.37.52,1.37,1.35-.65,1.35-1.37,1.35-1.35-.52-1.35-1.35Zm0,8.82c0-.83.63-1.37,1.35-1.37s1.37.54,1.37,1.37-.65,1.35-1.37,1.35-1.35-.54-1.35-1.35Z"/>
    <path class="cls-8" d="m155.61,80.86h-1.73v8.7c0,.83-.22,1.19-.74,1.42-.52.22-1.37.25-2.83.25-.07-.34-.29-.92-.49-1.28,1.08.04,2.05.04,2.32.02.31-.02.43-.11.43-.41v-8.7h-4.27v-1.06h-8.93v-1.15h2.75v-.92l-.85.58c-.31-.65-1.01-1.67-1.66-2.4l.85-.54c.65.67,1.35,1.6,1.66,2.25v-2.83h1.08v3.85h1.39v-3.85h1.1v2.92c.54-.65,1.26-1.66,1.64-2.32l1.08.59c-.65.83-1.4,1.75-2,2.36l-.72-.43v.74h2.7v.95h4.18v-4.75h1.3v4.75h1.73v1.26Zm-11.06,7.69c1.22-.18,2.52-.34,3.78-.52l.04,1.19c-3.13.45-6.48.92-8.79,1.24l-.2-1.28c1.08-.13,2.43-.29,3.91-.49v-2.12h-2.84v-1.12h2.84v-1.84h-3.29v-1.13h4.65c.41-.74.94-1.82,1.21-2.58l1.19.43c-.38.72-.79,1.49-1.19,2.14h2.02v1.13h-3.31v1.84h2.93v1.12h-2.93v1.98Zm-2.65-8.7c.56.59,1.17,1.44,1.4,2.04l-.99.56c-.23-.59-.81-1.46-1.37-2.11l.95-.49Zm8.5,6.93c-.18-1.1-.85-2.81-1.58-4.12l1.12-.4c.76,1.3,1.46,2.97,1.66,4.07l-1.19.45Z"/>
    <path class="cls-8" d="m175.36,82.1v1.46h-16.35v-1.46h16.35Z"/>
    <path class="cls-8" d="m194.73,87.97v1.46h-15.86v-1.46h15.86Zm-1.51-10.6v1.42h-12.84v-1.42h12.84Z"/>
    <path class="cls-8" d="m213.15,75.92v10.62h-1.4v-.92h-4.59v5.6h-1.39v-5.6h-4.65v.97h-1.35v-10.68h13.38Zm-12.03,1.28v2.97h4.65v-2.97h-4.65Zm4.65,7.15v-2.92h-4.65v2.92h4.65Zm5.98-7.15h-4.59v2.97h4.59v-2.97Zm0,7.15v-2.92h-4.59v2.92h4.59Z"/>
    <path class="cls-8" d="m227.64,81.77c1.66,2.34,4.38,4.65,6.81,5.78-.31.27-.74.77-.97,1.13-2.38-1.31-5.01-3.73-6.75-6.27v4.48h3.48v1.21h-3.48v3.1h-1.31v-3.1h-3.42v-1.21h3.42v-4.39c-1.73,2.63-4.34,5.04-6.81,6.37-.23-.32-.65-.83-.95-1.1,2.54-1.19,5.28-3.53,6.9-6.01h-6.28v-1.22h7.15v-2.29h1.31v2.29h7.2v1.22h-6.28Zm-5.76-4.27h-3.64v-1.24h3.64v-1.49h1.31v1.49h2.14v1.24h-2.14v1.69h-1.31v-1.69Zm7.04,0h-2.14v-1.24h2.14v-1.49h1.31v1.49h3.64v1.24h-3.64v1.69h-1.31v-1.69Z"/>
    <path class="cls-8" d="m238.62,81.61l1.17-1.03c1.28,1.04,2.92,2.67,4.03,4l-1.22,1.03c-1.17-1.42-2.7-2.95-3.98-4Z"/>
    <path class="cls-8" d="m254.68,81.54c-2.3.25-4.63.5-6.36.7l-.16-1.03,1.73-.16v-4.92h-1.39v-1.03h8.68v1.03h-1.28v6.37h-1.22v-.97Zm-1.8,3.67c-.16.45-.34.86-.54,1.28.85.72,1.78,1.62,2.25,2.21l-.76.79c-.47-.58-1.26-1.4-2.03-2.12-.74,1.12-1.69,2.02-2.75,2.67-.07-.29-.34-.94-.52-1.24,1.44-.81,2.74-2.12,3.33-3.85l1.03.27Zm9.6-2.02c-1.51.32-3.44.61-5.46.83v7.17h-1.33v-7.04c-1.89.2-3.8.34-5.46.41-.16-.31-.5-.94-.74-1.22,3.91-.04,9.04-.45,11.99-1.01l.99.86Zm-11.38-7.06v.99h3.58v-.99h-3.58Zm0,2.81h3.58v-.97h-3.58v.97Zm0,2.02c1.13-.13,2.34-.25,3.58-.4v-.77h-3.58v1.17Zm6.66-3.6c.86.41,1.84.95,2.77,1.49.63-.56,1.17-1.21,1.58-1.89h-4.86v-1.12h5.54l.22-.05.85.41c-.5,1.26-1.3,2.36-2.27,3.28,1.04.65,1.96,1.3,2.59,1.84l-.92.94c-.63-.58-1.58-1.28-2.65-1.96-1.12.85-2.34,1.48-3.58,1.93-.16-.31-.5-.72-.76-.97,1.12-.36,2.25-.9,3.26-1.62-.88-.52-1.8-1.04-2.65-1.46l.86-.81Zm4.18,7.15c-.13.49-.31.92-.52,1.37.65,1.1,1.8,2.21,2.97,2.77-.29.22-.67.63-.85.94-1.01-.58-1.98-1.6-2.66-2.68-.77,1.22-1.71,2.23-2.79,2.95-.11-.29-.38-.94-.56-1.24,1.51-.92,2.79-2.43,3.4-4.39l1.01.29Z"/>
    <path class="cls-8" d="m270.26,88.96v1.44h-1.13v-6.48c-.29.52-.59,1.01-.94,1.44-.09-.31-.4-1.06-.61-1.42,1.26-1.69,2.09-4.23,2.58-6.97h-2.2v-1.24h5.98v1.24h-2.52c-.27,1.5-.65,2.95-1.12,4.29h3.17v7.71h-3.21Zm2.16-6.52h-2.16v5.31h2.16v-5.31Zm11.6-1.13h-8.34v2.45c0,2.21-.25,5.35-1.62,7.49-.2-.2-.72-.56-1.01-.68,1.26-2.02,1.42-4.81,1.42-6.82v-3.58h9.54v1.15Zm-.58-2.3h-8.66v-3.64h1.22v2.5h2.43v-3.08h1.21v3.08h2.54v-2.5h1.26v3.64Zm-3.03,2.97c-.05,1.04-.13,2.02-.25,2.9.67,2.29,2,4.34,3.83,5.26-.27.2-.63.65-.81.97-1.48-.86-2.63-2.43-3.4-4.3-.56,1.91-1.57,3.42-3.51,4.39-.14-.29-.5-.72-.79-.94,3.15-1.51,3.57-4.43,3.75-8.28h1.19Zm-2.99,4.81c-.34-.77-1.04-2.14-1.62-3.15l.86-.49c.59,1.01,1.31,2.3,1.64,3.04l-.88.59Zm6.55-2.99c-.68.99-1.42,2.12-2.05,2.88l-.81-.54c.61-.81,1.42-2.11,1.82-3.01l1.04.67Z"/>
    <path class="cls-8" d="m292.75,79h1.98v11.92h-1.06v-1.03h-4.77v1.28h-1.04v-12.17h1.93v-2.3h-2.25v-1.15h7.4v1.15h-2.18v2.3Zm.92,9.79v-4.79h-1.01c-.7,0-.92-.18-.92-1.03v-2.83h-.99v1.35c0,1.08-.27,2.43-1.39,3.42-.11-.13-.29-.32-.47-.45v4.32h4.77Zm-4.77-8.64v4.18c.94-.86,1.1-1.94,1.1-2.83v-1.35h-1.1Zm.72,5.78h3.31v1.06h-3.31v-1.06Zm1.12-6.93h1.04v-2.3h-1.04v2.3Zm2.93,1.15h-1.17v2.81c0,.23.02.25.23.25h.67c.16,0,.23,0,.27-.02v-3.04Zm9.34,4.14c-.56,1.75-1.49,3.13-2.65,4.21.99.67,2.2,1.22,3.62,1.57-.25.25-.61.77-.77,1.12-1.51-.45-2.75-1.1-3.82-1.89-1.15.85-2.48,1.46-3.89,1.89-.14-.32-.43-.79-.68-1.04,1.28-.34,2.54-.88,3.62-1.64-.54-.5-1.01-1.06-1.4-1.62-.32.32-.68.65-1.04.94-.16-.23-.63-.67-.88-.88.45-.32.88-.68,1.28-1.1-.27-.47-.49-.97-.67-1.44l.95-.58c.13.36.27.72.45,1.08.56-.76.99-1.6,1.28-2.52l1.17.23c-.14.49-.32.94-.54,1.39h2.94l.23-.05.81.34Zm-4.45-5.08c-.22,1.96-.88,3.26-2.92,4.03-.13-.29-.47-.72-.7-.94,1.69-.56,2.23-1.53,2.43-2.99-1.24.13-1.55.2-1.8.29-.07-.27-.27-.9-.41-1.22.31-.05.61-.29.97-.65.38-.34,1.66-1.71,2.48-3.06l1.26.41c-.81,1.15-1.75,2.25-2.67,3.11l4.32-.29c-.38-.47-.79-.95-1.15-1.35l.94-.54c.88.96,2.03,2.29,2.63,3.06l-1.01.63c-.16-.23-.38-.5-.59-.81l-1.31.11v1.94c0,.43.05.54.32.54h1.42c.25,0,.65,0,.88-.07.04.31.05.77.11,1.04-.22.09-.59.09-.96.09h-1.51c-1.17,0-1.44-.41-1.44-1.62v-1.84l-1.3.11Zm-.13,5.87c-.2.32-.41.63-.63.92.41.63.94,1.21,1.58,1.76.83-.74,1.51-1.64,1.98-2.68h-2.93Z"/>
    <path class="cls-8" d="m311.69,85.1c-.22-.58-.7-1.67-1.13-2.56v8.64h-1.17v-8.21c-.5,1.87-1.15,3.67-1.84,4.81-.13-.32-.43-.81-.65-1.08.97-1.51,1.93-4.38,2.38-6.82h-2.02v-1.22h2.12v-3.89h1.17v3.89h1.62v1.22h-1.62v1.12c.43.67,1.55,2.63,1.8,3.12l-.67.99Zm7.04,3.49l.07,1.12c-2.39.41-4.92.81-6.73,1.12l-.32-1.19c1.08-.14,2.54-.36,4.12-.59l-.29-.09c.36-.88.79-2.3,1.01-3.26l1.22.31c-.32.99-.7,2.07-1.04,2.9l1.96-.31Zm-4.02-10.91h-2.57v-1.1h2.57v-1.8h1.17v1.8h2.59v1.1h-2.59v1.57h2.18v1.1h-5.55v-1.1h2.2v-1.57Zm3.21,7.67h-5.22v-4.03h5.22v4.03Zm-4.27,3.6c-.07-.74-.38-1.96-.72-2.9l1.04-.27c.36.92.72,2.12.81,2.84l-1.13.32Zm3.1-6.64h-2.94v2.05h2.94v-2.05Zm6.75-2.25h-1.1v9.58c0,.74-.18,1.12-.61,1.33-.47.22-1.21.25-2.32.25-.05-.32-.23-.92-.41-1.26.81.04,1.55.04,1.8.02.22-.02.31-.09.31-.34v-9.58h-2.7v-1.22h2.7v-4.02h1.24v4.02h1.1v1.22Zm-3.94,6.34c-.11-1.13-.52-3.02-1.03-4.46l1.01-.27c.52,1.42.99,3.26,1.1,4.36l-1.08.38Z"/>
    <path class="cls-8" d="m56.46,115.55c0,.72-.16,1.1-.59,1.31-.49.22-1.19.25-2.41.25-.04-.34-.2-.9-.38-1.24.86.04,1.62.02,1.85.02.23-.02.34-.11.34-.36v-5.51c-.81.63-1.62,1.22-2.34,1.76l-.59-1.01c-.16,2.2-.54,4.57-1.44,6.39-.16-.23-.65-.63-.92-.77,1.22-2.5,1.33-6.01,1.33-8.62v-6.34h5.15v14.12Zm-4.03-7.8c0,.88-.02,1.87-.09,2.92.77-.43,1.85-1.1,2.93-1.8v-1.67l-.85.67c-.41-.59-1.28-1.55-2-2.23v2.12Zm0-5.08v2.79l.72-.56c.77.7,1.69,1.64,2.12,2.25v-4.48h-2.84Zm7.51,5.24c-1.73,0-2.25-.58-2.25-2.11v-4.9h1.31v2.09h6.63v1.17h-6.63v1.67c0,.65.18.9.94.9h4.36c.54,0,1.44-.04,1.85-.11.05.36.09.86.14,1.15-.34.09-1.15.13-1.93.13h-4.43Zm-2.05,1.4h7.76v7.81h-1.31v-.67h-5.19v.74h-1.26v-7.89Zm1.26,1.13v1.84h5.19v-1.84h-5.19Zm5.19,4.86v-1.93h-5.19v1.93h5.19Z"/>
    <path class="cls-8" d="m70.04,107.61l1.17-1.03c1.28,1.04,2.92,2.67,4.03,4l-1.22,1.03c-1.17-1.42-2.7-2.95-3.98-4Z"/>
    <path class="cls-8" d="m87.57,105.92v.05h6.46v9.47c0,.83-.18,1.26-.81,1.48-.61.22-1.69.23-3.28.23-.07-.38-.29-.97-.49-1.33,1.26.05,2.47.04,2.83.02.34-.02.43-.11.43-.4v-8.19h-5.2c-.05.47-.14.95-.27,1.44,1.71,1.26,3.8,2.95,4.84,4.11l-.95,1.01c-.92-1.06-2.7-2.63-4.3-3.89-.67,1.53-1.94,3.03-4.27,4.25-.2-.31-.67-.77-.99-1.03,3.46-1.66,4.3-3.94,4.52-5.89h-4.88v9.96h-1.33v-11.24h6.27v-2.66h-6.93v-1.31h15.45v1.31h-7.09v2.61Z"/>
    <path class="cls-8" d="m101.33,107.14c0,1.4-.05,2.81-.27,4.18.7.76,2.09,2.49,2.45,2.92l-.9,1.08c-.38-.59-1.17-1.69-1.85-2.56-.41,1.6-1.15,3.12-2.41,4.45-.2-.29-.61-.74-.9-.94,2.39-2.56,2.66-5.89,2.66-9.13v-6.21h1.22v6.21Zm-2.86,1.98c-.16-1.22-.58-3.38-1.01-5.01l.99-.23c.45,1.62.9,3.73,1.08,4.9l-1.06.34Zm8.71-1.44c-.38.76-.81,1.46-1.28,2.12h2.32v-1.6h1.21v1.6h3.69v4.5c0,.61-.09.94-.52,1.13-.4.2-1.03.2-1.94.2-.05-.34-.22-.79-.36-1.12.63.02,1.17.02,1.35,0,.18,0,.23-.05.23-.22v-3.33h-2.45v6.25h-1.21v-6.25h-2.25v4.7h-1.22v-4.45c-.43.45-.86.86-1.31,1.22-.13-.27-.5-.88-.74-1.13,1.22-.92,2.27-2.18,3.1-3.64h-2.4v-1.17h2.99c.25-.56.49-1.13.68-1.73-.92.4-1.85.72-2.75,1.01-.13-.22-.45-.61-.7-.88-.41,1.03-.88,2.12-1.28,2.86l-.83-.4c.43-.99,1.03-2.61,1.3-3.73l1.15.47-.23.56c1.33-.36,2.68-.83,3.96-1.4-1.26-.49-2.54-.9-3.75-1.24l.81-.9c1.39.38,2.9.9,4.32,1.46,1.03-.54,1.93-1.15,2.61-1.8l1.15.54c-.68.65-1.51,1.24-2.43,1.8,1.21.5,2.32,1.06,3.17,1.51l-.81,1.01c-.92-.56-2.21-1.21-3.67-1.8-.59.31-1.22.59-1.85.86l1.06.27c-.18.52-.38,1.04-.58,1.53h6.18v1.17h-6.72Z"/>
    <path class="cls-8" d="m122.2,115.57c0,.7-.14,1.08-.58,1.3-.45.22-1.12.23-2.27.23-.05-.34-.22-.88-.38-1.22.79.04,1.51.02,1.73.02.22-.02.31-.09.31-.34v-5.22c-.67.54-1.33,1.06-2,1.53l-.49-1.01c-.16,2.2-.54,4.59-1.37,6.41-.18-.25-.68-.7-.95-.85,1.13-2.52,1.22-6.03,1.22-8.62v-6.36h4.77v14.13Zm-3.58-7.76c0,.86-.02,1.89-.09,2.97.65-.41,1.55-1.03,2.48-1.67v-1.85l-.68.52c-.36-.61-1.08-1.51-1.71-2.18v2.21Zm0-5.15v2.81l.74-.49c.58.59,1.26,1.35,1.66,1.91v-4.23h-2.39Zm14.17,3.87v1.06h-10.1v-1.06h4.38v-1.24h-3.44v-1.01h3.44v-1.1h-4.01v-1.04h4.01v-1.35h1.3v1.35h4.21v1.04h-4.21v1.1h3.71v1.01h-3.71v1.24h4.43Zm-1.06,9.29c0,.65-.13.97-.61,1.17-.47.2-1.21.2-2.32.2-.05-.32-.2-.79-.38-1.12.81.04,1.55.02,1.76.02.23,0,.29-.07.29-.27v-1.62h-5.24v3.03h-1.24v-8.64h7.74v7.24Zm-6.5-6.21v1.33h5.24v-1.33h-5.24Zm5.24,3.64v-1.33h-5.24v1.33h5.24Z"/>
    <path class="cls-8" d="m149.93,109.7h-13.07v-1.24h13.07v1.24Z"/>
    <path class="cls-8" d="m170.06,103.79h-6.57v11.25c0,1.06-.31,1.51-1.06,1.75-.77.25-2.11.27-4.18.27-.11-.43-.38-1.12-.65-1.51,1.67.05,3.29.05,3.78.04.43-.02.59-.14.59-.56v-11.24h-7.62v-1.37h15.7v1.37Z"/>
    <path class="cls-8" d="m188.97,113.97v1.46h-15.86v-1.46h15.86Zm-1.51-10.6v1.42h-12.84v-1.42h12.84Z"/>
    <path class="cls-8" d="m195.41,107.14c0,1.4-.05,2.81-.27,4.18.7.76,2.09,2.49,2.45,2.92l-.9,1.08c-.38-.59-1.17-1.69-1.85-2.56-.41,1.6-1.15,3.12-2.41,4.45-.2-.29-.61-.74-.9-.94,2.39-2.56,2.66-5.89,2.66-9.13v-6.21h1.22v6.21Zm-2.86,1.98c-.16-1.22-.58-3.38-1.01-5.01l.99-.23c.45,1.62.9,3.73,1.08,4.9l-1.06.34Zm8.71-1.44c-.38.76-.81,1.46-1.28,2.12h2.32v-1.6h1.21v1.6h3.69v4.5c0,.61-.09.94-.52,1.13-.4.2-1.03.2-1.94.2-.05-.34-.22-.79-.36-1.12.63.02,1.17.02,1.35,0,.18,0,.23-.05.23-.22v-3.33h-2.45v6.25h-1.21v-6.25h-2.25v4.7h-1.22v-4.45c-.43.45-.86.86-1.31,1.22-.13-.27-.5-.88-.74-1.13,1.22-.92,2.27-2.18,3.1-3.64h-2.4v-1.17h2.99c.25-.56.49-1.13.68-1.73-.92.4-1.85.72-2.75,1.01-.13-.22-.45-.61-.7-.88-.41,1.03-.88,2.12-1.28,2.86l-.83-.4c.43-.99,1.03-2.61,1.3-3.73l1.15.47-.23.56c1.33-.36,2.68-.83,3.96-1.4-1.26-.49-2.54-.9-3.75-1.24l.81-.9c1.39.38,2.9.9,4.32,1.46,1.03-.54,1.93-1.15,2.61-1.8l1.15.54c-.68.65-1.51,1.24-2.43,1.8,1.21.5,2.32,1.06,3.17,1.51l-.81,1.01c-.92-.56-2.21-1.21-3.67-1.8-.59.31-1.22.59-1.85.86l1.06.27c-.18.52-.38,1.04-.58,1.53h6.18v1.17h-6.72Z"/>
    <path class="cls-8" d="m225.2,109.7h-13.07v-1.24h13.07v1.24Z"/>
    <path class="cls-8" d="m239.04,107.77c1.66,2.34,4.38,4.65,6.81,5.78-.31.27-.74.77-.97,1.13-2.38-1.31-5.01-3.73-6.75-6.27v4.48h3.47v1.21h-3.47v3.1h-1.31v-3.1h-3.42v-1.21h3.42v-4.39c-1.73,2.63-4.34,5.04-6.81,6.37-.23-.32-.65-.83-.95-1.1,2.54-1.19,5.28-3.53,6.9-6.01h-6.28v-1.22h7.15v-2.29h1.31v2.29h7.2v1.22h-6.28Zm-5.76-4.27h-3.64v-1.24h3.64v-1.49h1.31v1.49h2.14v1.24h-2.14v1.69h-1.31v-1.69Zm7.04,0h-2.14v-1.24h2.14v-1.49h1.31v1.49h3.64v1.24h-3.64v1.69h-1.31v-1.69Z"/>
    <path class="cls-8" d="m261.03,115.14c1.28,0,1.6-.65,1.73-3.71.38.22.97.41,1.37.5-.25,3.71-.97,4.56-3.22,4.56h-8.08c-2.61,0-3.85-.94-3.85-2.49,0-1.33.45-2.7,9.72-10.39h-9.62v-1.35h11.51l.32-.09.94.67c-.05.07-.14.14-.27.2-10.57,8.59-11.18,9.9-11.18,10.86,0,.86.9,1.24,2.29,1.24h8.35Z"/>
    <path class="cls-8" d="m270.68,107.14c0,1.4-.05,2.81-.27,4.18.7.76,2.09,2.49,2.45,2.92l-.9,1.08c-.38-.59-1.17-1.69-1.85-2.56-.41,1.6-1.15,3.12-2.41,4.45-.2-.29-.61-.74-.9-.94,2.39-2.56,2.66-5.89,2.66-9.13v-6.21h1.22v6.21Zm-2.86,1.98c-.16-1.22-.58-3.38-1.01-5.01l.99-.23c.45,1.62.9,3.73,1.08,4.9l-1.06.34Zm8.71-1.44c-.38.76-.81,1.46-1.28,2.12h2.32v-1.6h1.21v1.6h3.69v4.5c0,.61-.09.94-.52,1.13-.4.2-1.03.2-1.94.2-.05-.34-.22-.79-.36-1.12.63.02,1.17.02,1.35,0,.18,0,.23-.05.23-.22v-3.33h-2.45v6.25h-1.21v-6.25h-2.25v4.7h-1.22v-4.45c-.43.45-.86.86-1.31,1.22-.13-.27-.5-.88-.74-1.13,1.22-.92,2.27-2.18,3.1-3.64h-2.4v-1.17h2.99c.25-.56.49-1.13.68-1.73-.92.4-1.85.72-2.75,1.01-.13-.22-.45-.61-.7-.88-.41,1.03-.88,2.12-1.28,2.86l-.83-.4c.43-.99,1.03-2.61,1.3-3.73l1.15.47-.23.56c1.33-.36,2.68-.83,3.96-1.4-1.26-.49-2.54-.9-3.75-1.24l.81-.9c1.39.38,2.9.9,4.32,1.46,1.03-.54,1.93-1.15,2.61-1.8l1.15.54c-.68.65-1.51,1.24-2.43,1.8,1.21.5,2.32,1.06,3.17,1.51l-.81,1.01c-.92-.56-2.21-1.21-3.67-1.8-.59.31-1.22.59-1.85.86l1.06.27c-.18.52-.38,1.04-.58,1.53h6.18v1.17h-6.72Z"/>
    <path class="cls-8" d="m292.67,100.43l1.08.56c-2.07,2.14-3.35,4.81-3.35,8.01s1.28,5.87,3.35,8.01l-1.08.56c-2.16-2.2-3.58-5.06-3.58-8.57s1.42-6.37,3.58-8.57Z"/>
    <path class="cls-8" d="m300.68,102.61h2.04l5.09,13.23h-1.82l-1.49-4.03h-5.62l-1.49,4.03h-1.75l5.04-13.23Zm3.44,7.9l-.79-2.11c-.54-1.49-1.06-2.93-1.6-4.45h-.07c-.5,1.53-1.04,2.97-1.58,4.45l-.79,2.11h4.84Z"/>
    <path class="cls-8" d="m312.62,102.61h4.48c3.19,0,5.04.92,5.04,3.26,0,1.3-.68,2.43-2.12,2.86v.09c1.84.31,2.95,1.41,2.95,3.15,0,2.7-1.82,3.87-5.49,3.87h-4.86v-13.23Zm4.21,5.64c2.52,0,3.64-.67,3.64-2.16,0-1.58-1.12-2.16-3.49-2.16h-2.7v4.32h2.56Zm.45,6.27c2.74,0,4.03-.65,4.03-2.59,0-1.64-1.22-2.38-4.09-2.38h-2.95v4.97h3.01Z"/>
    <path class="cls-8" d="m50.84,140.06l1.01-1.15c1.1,1.01,2.75,1.69,4.38,1.69,1.93,0,3.33-.77,3.33-2.11s-1.24-1.87-2.7-2.41l-2.14-.76c-1.39-.5-3.12-1.46-3.12-3.37,0-2.12,1.96-3.57,4.68-3.57,1.87,0,3.44.68,4.52,1.67l-.92,1.1c-.95-.79-2.14-1.31-3.62-1.31-1.69,0-2.97.7-2.97,1.93,0,1.3,1.46,1.82,2.67,2.23l2.12.76c1.73.61,3.17,1.6,3.17,3.58,0,2.14-1.95,3.73-5.06,3.73-2.2,0-4.03-.79-5.35-2.02Z"/>
    <path class="cls-8" d="m64.67,143.57l-1.08-.56c2.07-2.14,3.35-4.81,3.35-8.01s-1.28-5.87-3.35-8.01l1.08-.56c2.16,2.2,3.58,5.06,3.58,8.57s-1.42,6.37-3.58,8.57Z"/>
    <path class="cls-8" d="m90.18,136.11v1.3h-16.19v-1.3h4.14v-4.25h-3.42v-1.3h3.42v-3.64h1.35v3.64h5.11v-3.64h1.37v3.64h3.57v1.3h-3.57v4.25h4.21Zm-9.79,2.88c-1.28,1.55-3.31,3.21-5.11,4.25-.25-.27-.74-.7-1.06-.95,1.76-.92,3.78-2.48,4.79-3.83l1.39.54Zm-.9-2.88h5.11v-4.25h-5.11v4.25Zm5.28,2.32c1.66,1.17,3.89,2.9,5.02,3.96l-1.26.83c-1.06-1.06-3.22-2.84-4.92-4.11l1.15-.68Z"/>
    <path class="cls-8" d="m99,133.54c-2.3.25-4.63.5-6.36.7l-.16-1.03,1.73-.16v-4.92h-1.39v-1.03h8.68v1.03h-1.28v6.37h-1.22v-.97Zm-1.8,3.67c-.16.45-.34.86-.54,1.28.85.72,1.78,1.62,2.25,2.21l-.76.79c-.47-.58-1.26-1.4-2.03-2.12-.74,1.12-1.69,2.02-2.75,2.67-.07-.29-.34-.94-.52-1.24,1.44-.81,2.74-2.12,3.33-3.85l1.03.27Zm9.6-2.02c-1.51.32-3.44.61-5.46.83v7.17h-1.33v-7.04c-1.89.2-3.8.34-5.46.41-.16-.31-.5-.94-.74-1.22,3.91-.04,9.04-.45,11.99-1.01l.99.86Zm-11.38-7.06v.99h3.58v-.99h-3.58Zm0,2.81h3.58v-.97h-3.58v.97Zm0,2.02c1.13-.13,2.34-.25,3.58-.4v-.77h-3.58v1.17Zm6.66-3.6c.86.41,1.84.95,2.77,1.49.63-.56,1.17-1.21,1.58-1.89h-4.86v-1.12h5.54l.22-.05.85.41c-.5,1.26-1.3,2.36-2.27,3.28,1.04.65,1.96,1.3,2.59,1.84l-.92.94c-.63-.58-1.58-1.28-2.65-1.96-1.12.85-2.34,1.48-3.58,1.93-.16-.31-.5-.72-.76-.97,1.12-.36,2.25-.9,3.26-1.62-.88-.52-1.8-1.04-2.65-1.46l.86-.81Zm4.18,7.15c-.13.49-.31.92-.52,1.37.65,1.1,1.8,2.21,2.97,2.77-.29.22-.67.63-.85.94-1.01-.58-1.98-1.6-2.66-2.68-.77,1.22-1.71,2.23-2.79,2.95-.11-.29-.38-.94-.56-1.24,1.51-.92,2.79-2.43,3.4-4.39l1.01.29Z"/>
    <path class="cls-8" d="m120.77,127.31c-.18.29-.38.54-.58.81,2.11,2.23,4.61,3.71,7.47,4.92-.34.29-.72.79-.92,1.21-1.03-.5-2-1.01-2.92-1.6v1.22h-9.02v-.92c-.9.54-1.82,1.04-2.75,1.46-.23-.36-.59-.86-.97-1.17,3.4-1.35,6.7-3.73,8.52-6.5l1.17.58Zm-6.9,8.71h11.09v7.09h-1.39v-.94h-8.35v1.01h-1.35v-7.17Zm1.35,1.19v3.73h8.35v-3.73h-8.35Zm8.57-4.59c-1.58-.97-3.03-2.11-4.38-3.55-1.17,1.35-2.59,2.54-4.12,3.55h8.5Z"/>
    <path class="cls-8" d="m134.21,136.67v6.55h-1.24v-6.16c-1.06.32-2.09.65-2.97.92l-.36-1.28c.92-.25,2.07-.56,3.33-.95v-4.01h-1.64c-.22,1.01-.47,1.93-.79,2.66-.23-.16-.74-.49-1.03-.59.68-1.53,1.03-3.8,1.24-6l1.17.2c-.09.81-.22,1.64-.34,2.43h1.39v-3.66h1.24v3.66h1.84v1.3h-1.84v3.67l2.09-.65.18,1.19-2.27.72Zm11.78-6.9s0,.52-.02.68c-.4,8.16-.79,10.95-1.51,11.85-.34.47-.7.63-1.24.68-.49.07-1.26.05-2.05,0-.02-.4-.14-.95-.38-1.31.81.07,1.53.09,1.89.09.29,0,.47-.07.67-.31.58-.63.97-3.29,1.33-10.42h-.86c-.9,4.72-2.88,9.51-5.87,11.88-.25-.29-.72-.61-1.12-.81,2.95-2.12,4.9-6.55,5.83-11.07h-1.48c-.81,3.08-2.47,6.45-4.43,8.16-.25-.27-.68-.58-1.06-.77,1.91-1.49,3.51-4.5,4.34-7.38h-1.55c-.59,1.31-1.28,2.5-2.05,3.42-.22-.22-.76-.59-1.03-.77,1.48-1.6,2.56-4.2,3.15-6.91l1.22.25c-.22.95-.49,1.87-.79,2.75h7Z"/>
    <path class="cls-8" d="m149.48,133.61l1.17-1.03c1.28,1.04,2.92,2.67,4.03,4l-1.22,1.03c-1.17-1.42-2.7-2.95-3.98-4Z"/>
    <path class="cls-8" d="m170.94,141.14c1.28,0,1.6-.65,1.73-3.71.38.22.97.41,1.37.5-.25,3.71-.97,4.56-3.22,4.56h-8.08c-2.61,0-3.85-.94-3.85-2.49,0-1.33.45-2.7,9.72-10.39h-9.62v-1.35h11.51l.32-.09.94.67c-.05.07-.14.14-.27.2-10.57,8.59-11.18,9.9-11.18,10.86,0,.86.9,1.24,2.29,1.24h8.35Z"/>
    <path class="cls-8" d="m180.41,133.14c0,1.4-.05,2.81-.27,4.18.7.76,2.09,2.49,2.45,2.92l-.9,1.08c-.38-.59-1.17-1.69-1.85-2.56-.41,1.6-1.15,3.12-2.41,4.45-.2-.29-.61-.74-.9-.94,2.39-2.56,2.66-5.89,2.66-9.13v-6.21h1.22v6.21Zm-2.86,1.98c-.16-1.22-.58-3.38-1.01-5.01l.99-.23c.45,1.62.9,3.73,1.08,4.9l-1.06.34Zm8.71-1.44c-.38.76-.81,1.46-1.28,2.12h2.32v-1.6h1.21v1.6h3.69v4.5c0,.61-.09.94-.52,1.13-.4.2-1.03.2-1.94.2-.05-.34-.22-.79-.36-1.12.63.02,1.17.02,1.35,0,.18,0,.23-.05.23-.22v-3.33h-2.45v6.25h-1.21v-6.25h-2.25v4.7h-1.22v-4.45c-.43.45-.86.86-1.31,1.22-.13-.27-.5-.88-.74-1.13,1.22-.92,2.27-2.18,3.1-3.64h-2.4v-1.17h2.99c.25-.56.49-1.13.68-1.73-.92.4-1.85.72-2.75,1.01-.13-.22-.45-.61-.7-.88-.41,1.03-.88,2.12-1.28,2.86l-.83-.4c.43-.99,1.03-2.61,1.3-3.73l1.15.47-.23.56c1.33-.36,2.68-.83,3.96-1.4-1.26-.49-2.54-.9-3.75-1.24l.81-.9c1.39.38,2.9.9,4.32,1.46,1.03-.54,1.93-1.15,2.61-1.8l1.15.54c-.68.65-1.51,1.24-2.43,1.8,1.21.5,2.32,1.06,3.17,1.51l-.81,1.01c-.92-.56-2.21-1.21-3.67-1.8-.59.31-1.22.59-1.85.86l1.06.27c-.18.52-.38,1.04-.58,1.53h6.18v1.17h-6.72Z"/>
    <path class="cls-8" d="m210.01,135.7h-13.07v-1.24h13.07v1.24Z"/>
    <path class="cls-8" d="m214.04,127.58h7.13v1.1h-2.21v2.23h1.75v12.01h-1.01v-1.04h-4.25v1.3h-.97v-12.26h1.78v-2.23h-2.21v-1.1Zm5.65,13.2v-4.77h-.79c-.67,0-.9-.16-.9-1.04v-2.92h-.79v1.53c0,1.08-.22,2.5-1.21,3.49-.11-.14-.38-.36-.56-.49v4.2h4.25Zm-4.25-8.73v4.45c.85-.9.99-2,.99-2.92v-1.53h-.99Zm.49,5.87h3.22v1.01h-3.22v-1.01Zm2.07-9.24h-.79v2.23h.79v-2.23Zm1.69,3.37h-.92v2.92c0,.23.04.25.2.25h.49c.14,0,.2,0,.23-.02v-3.15Zm10.57.63v1.22h-9.08v-1.22h2v-2.36h-1.69v-1.19h1.69v-2.36h1.15v2.36h2.74v-2.36h1.15v2.36h1.5v1.19h-1.5v2.36h2.04Zm-8.07,2.65h7.04v7.81h-1.21v-.72h-4.66v.81h-1.17v-7.9Zm1.17,1.15v1.84h4.66v-1.84h-4.66Zm4.66,4.83v-1.89h-4.66v1.89h4.66Zm-3.69-8.62h2.74v-2.36h-2.74v2.36Z"/>
    <path class="cls-8" d="m237.86,131h1.98v11.92h-1.06v-1.03h-4.77v1.28h-1.04v-12.17h1.93v-2.3h-2.25v-1.15h7.4v1.15h-2.18v2.3Zm.92,9.79v-4.79h-1.01c-.7,0-.92-.18-.92-1.03v-2.83h-.99v1.35c0,1.08-.27,2.43-1.39,3.42-.11-.13-.29-.32-.47-.45v4.32h4.77Zm-4.77-8.64v4.18c.94-.86,1.1-1.94,1.1-2.83v-1.35h-1.1Zm.72,5.78h3.31v1.06h-3.31v-1.06Zm1.12-6.93h1.04v-2.3h-1.04v2.3Zm2.93,1.15h-1.17v2.81c0,.23.02.25.23.25h.67c.16,0,.23,0,.27-.02v-3.04Zm9.34,4.14c-.56,1.75-1.49,3.13-2.65,4.21.99.67,2.2,1.22,3.62,1.57-.25.25-.61.77-.77,1.12-1.51-.45-2.75-1.1-3.82-1.89-1.15.85-2.48,1.46-3.89,1.89-.14-.32-.43-.79-.68-1.04,1.28-.34,2.54-.88,3.62-1.64-.54-.5-1.01-1.06-1.4-1.62-.32.32-.68.65-1.04.94-.16-.23-.63-.67-.88-.88.45-.32.88-.68,1.28-1.1-.27-.47-.49-.97-.67-1.44l.95-.58c.13.36.27.72.45,1.08.56-.76.99-1.6,1.28-2.52l1.17.23c-.14.49-.32.94-.54,1.39h2.94l.23-.05.81.34Zm-4.45-5.08c-.22,1.96-.88,3.26-2.92,4.03-.13-.29-.47-.72-.7-.94,1.69-.56,2.23-1.53,2.43-2.99-1.24.13-1.55.2-1.8.29-.07-.27-.27-.9-.41-1.22.31-.05.61-.29.97-.65.38-.34,1.66-1.71,2.48-3.06l1.26.41c-.81,1.15-1.75,2.25-2.67,3.11l4.32-.29c-.38-.47-.79-.95-1.15-1.35l.94-.54c.88.96,2.03,2.29,2.63,3.06l-1.01.63c-.16-.23-.38-.5-.59-.81l-1.31.11v1.94c0,.43.05.54.32.54h1.42c.25,0,.65,0,.88-.07.04.31.05.77.11,1.04-.22.09-.59.09-.96.09h-1.51c-1.17,0-1.44-.41-1.44-1.62v-1.84l-1.3.11Zm-.13,5.87c-.2.32-.41.63-.63.92.41.63.94,1.21,1.58,1.76.83-.74,1.51-1.64,1.98-2.68h-2.93Z"/>
    <path class="cls-8" d="m264.11,141.14c1.28,0,1.6-.65,1.73-3.71.38.22.97.41,1.37.5-.25,3.71-.97,4.56-3.22,4.56h-8.08c-2.61,0-3.85-.94-3.85-2.49,0-1.33.45-2.7,9.72-10.39h-9.62v-1.35h11.51l.32-.09.94.67c-.05.07-.14.14-.27.2-10.57,8.59-11.18,9.9-11.18,10.86,0,.86.9,1.24,2.29,1.24h8.35Z"/>
    <path class="cls-8" d="m273.57,133.14c0,1.4-.05,2.81-.27,4.18.7.76,2.09,2.49,2.45,2.92l-.9,1.08c-.38-.59-1.17-1.69-1.85-2.56-.41,1.6-1.15,3.12-2.41,4.45-.2-.29-.61-.74-.9-.94,2.39-2.56,2.66-5.89,2.66-9.13v-6.21h1.22v6.21Zm-2.86,1.98c-.16-1.22-.58-3.38-1.01-5.01l.99-.23c.45,1.62.9,3.73,1.08,4.9l-1.06.34Zm8.71-1.44c-.38.76-.81,1.46-1.28,2.12h2.32v-1.6h1.21v1.6h3.69v4.5c0,.61-.09.94-.52,1.13-.4.2-1.03.2-1.94.2-.05-.34-.22-.79-.36-1.12.63.02,1.17.02,1.35,0,.18,0,.23-.05.23-.22v-3.33h-2.45v6.25h-1.21v-6.25h-2.25v4.7h-1.22v-4.45c-.43.45-.86.86-1.31,1.22-.13-.27-.5-.88-.74-1.13,1.22-.92,2.27-2.18,3.1-3.64h-2.4v-1.17h2.99c.25-.56.49-1.13.68-1.73-.92.4-1.85.72-2.75,1.01-.13-.22-.45-.61-.7-.88-.41,1.03-.88,2.12-1.28,2.86l-.83-.4c.43-.99,1.03-2.61,1.3-3.73l1.15.47-.23.56c1.33-.36,2.68-.83,3.96-1.4-1.26-.49-2.54-.9-3.75-1.24l.81-.9c1.39.38,2.9.9,4.32,1.46,1.03-.54,1.93-1.15,2.61-1.8l1.15.54c-.68.65-1.51,1.24-2.43,1.8,1.21.5,2.32,1.06,3.17,1.51l-.81,1.01c-.92-.56-2.21-1.21-3.67-1.8-.59.31-1.22.59-1.85.86l1.06.27c-.18.52-.38,1.04-.58,1.53h6.18v1.17h-6.72Z"/>
    <path class="cls-8" d="m303.23,130.93c-2.21,3.29-6.21,7.02-9.88,9.29.14.11.29.22.47.32,1.13.72,2.59.85,4.61.85s4.75-.14,6.48-.32c-.16.34-.38,1.04-.4,1.44-1.33.09-4.41.2-6.14.2-2.16,0-3.64-.22-4.83-.97-.74-.47-1.3-1.04-1.69-1.04-.58,0-1.42,1.04-2.27,2.23l-.99-1.22c1.19-1.3,2.36-2.27,3.28-2.27.09,0,.16.02.23.04,3.28-1.89,6.84-5.11,8.84-7.83h-11.43v-1.3h12.42l.29-.09,1.01.68Zm-6.21-.61c-.36-.77-1.19-2.09-1.87-3.03l1.15-.59c.72.92,1.58,2.18,1.95,2.92l-1.22.7Z"/>
    <path class="cls-8" d="m323.41,136.11v1.3h-16.19v-1.3h4.14v-4.25h-3.42v-1.3h3.42v-3.64h1.35v3.64h5.11v-3.64h1.37v3.64h3.57v1.3h-3.57v4.25h4.21Zm-9.79,2.88c-1.28,1.55-3.31,3.21-5.11,4.25-.25-.27-.74-.7-1.06-.95,1.76-.92,3.78-2.48,4.79-3.83l1.39.54Zm-.9-2.88h5.11v-4.25h-5.11v4.25Zm5.28,2.32c1.66,1.17,3.89,2.9,5.02,3.96l-1.26.83c-1.06-1.06-3.22-2.84-4.92-4.11l1.15-.68Z"/>
    <path class="cls-8" d="m56.64,159.54c-2.3.25-4.63.5-6.36.7l-.16-1.03,1.73-.16v-4.92h-1.39v-1.03h8.68v1.03h-1.28v6.37h-1.22v-.97Zm-1.8,3.67c-.16.45-.34.86-.54,1.28.85.72,1.78,1.62,2.25,2.21l-.76.79c-.47-.58-1.26-1.4-2.04-2.12-.74,1.12-1.69,2.02-2.75,2.67-.07-.29-.34-.94-.52-1.24,1.44-.81,2.74-2.12,3.33-3.85l1.03.27Zm9.6-2.02c-1.51.32-3.44.61-5.46.83v7.17h-1.33v-7.04c-1.89.2-3.8.34-5.46.41-.16-.31-.5-.94-.74-1.22,3.91-.04,9.04-.45,11.99-1.01l.99.86Zm-11.38-7.06v.99h3.58v-.99h-3.58Zm0,2.81h3.58v-.97h-3.58v.97Zm0,2.02c1.13-.13,2.34-.25,3.58-.4v-.77h-3.58v1.17Zm6.66-3.6c.86.41,1.84.95,2.77,1.49.63-.56,1.17-1.21,1.58-1.89h-4.86v-1.12h5.54l.22-.05.85.41c-.5,1.26-1.3,2.36-2.27,3.28,1.04.65,1.96,1.3,2.59,1.84l-.92.94c-.63-.58-1.58-1.28-2.65-1.96-1.12.85-2.34,1.48-3.58,1.93-.16-.31-.5-.72-.76-.97,1.12-.36,2.25-.9,3.26-1.62-.88-.52-1.8-1.04-2.65-1.46l.86-.81Zm4.18,7.15c-.13.49-.31.92-.52,1.37.65,1.1,1.8,2.21,2.97,2.77-.29.22-.67.63-.85.94-1.01-.58-1.98-1.6-2.66-2.68-.77,1.22-1.71,2.23-2.79,2.95-.11-.29-.38-.94-.56-1.24,1.51-.92,2.79-2.43,3.4-4.39l1.01.29Z"/>
    <path class="cls-8" d="m78.13,153.31c-.18.29-.38.54-.58.81,2.11,2.23,4.61,3.71,7.47,4.92-.34.29-.72.79-.92,1.21-1.03-.5-2-1.01-2.92-1.6v1.22h-9.02v-.92c-.9.54-1.82,1.04-2.75,1.46-.23-.36-.59-.86-.97-1.17,3.4-1.35,6.7-3.73,8.52-6.5l1.17.58Zm-6.9,8.71h11.09v7.09h-1.39v-.94h-8.35v1.01h-1.35v-7.17Zm1.35,1.19v3.73h8.35v-3.73h-8.35Zm8.57-4.59c-1.58-.97-3.03-2.11-4.38-3.55-1.17,1.35-2.59,2.54-4.12,3.55h8.5Z"/>
    <path class="cls-8" d="m91.3,162.67v6.55h-1.24v-6.16c-1.06.32-2.09.65-2.97.92l-.36-1.28c.92-.25,2.07-.56,3.33-.95v-4.01h-1.64c-.22,1.01-.47,1.93-.79,2.66-.23-.16-.74-.49-1.03-.59.68-1.53,1.03-3.8,1.24-6l1.17.2c-.09.81-.22,1.64-.34,2.43h1.39v-3.66h1.24v3.66h1.84v1.3h-1.84v3.67l2.09-.65.18,1.19-2.27.72Zm11.78-6.9s0,.52-.02.68c-.4,8.16-.79,10.95-1.51,11.85-.34.47-.7.63-1.24.68-.49.07-1.26.05-2.05,0-.02-.4-.14-.95-.38-1.31.81.07,1.53.09,1.89.09.29,0,.47-.07.67-.31.58-.63.97-3.29,1.33-10.42h-.86c-.9,4.72-2.88,9.51-5.87,11.88-.25-.29-.72-.61-1.12-.81,2.95-2.12,4.9-6.55,5.83-11.07h-1.48c-.81,3.08-2.47,6.45-4.43,8.16-.25-.27-.68-.58-1.06-.77,1.91-1.49,3.51-4.5,4.34-7.38h-1.55c-.59,1.31-1.28,2.5-2.05,3.42-.22-.22-.76-.59-1.03-.77,1.48-1.6,2.56-4.2,3.15-6.91l1.22.25c-.22.95-.49,1.87-.79,2.75h7Z"/>
    <path class="cls-8" d="m106.3,159.61l1.17-1.03c1.28,1.04,2.92,2.67,4.03,4l-1.22,1.03c-1.17-1.42-2.7-2.95-3.98-4Z"/>
    <path class="cls-8" d="m123.38,157.92v.05h6.46v9.47c0,.83-.18,1.26-.81,1.48-.61.22-1.69.23-3.28.23-.07-.38-.29-.97-.49-1.33,1.26.05,2.47.04,2.83.02.34-.02.43-.11.43-.4v-8.19h-5.2c-.05.47-.14.95-.27,1.44,1.71,1.26,3.8,2.95,4.84,4.11l-.95,1.01c-.92-1.06-2.7-2.63-4.3-3.89-.67,1.53-1.94,3.03-4.27,4.25-.2-.31-.67-.77-.99-1.03,3.46-1.66,4.3-3.94,4.52-5.89h-4.88v9.96h-1.33v-11.24h6.27v-2.66h-6.93v-1.31h15.45v1.31h-7.09v2.61Z"/>
    <path class="cls-8" d="m136.68,159.14c0,1.4-.05,2.81-.27,4.18.7.76,2.09,2.49,2.45,2.92l-.9,1.08c-.38-.59-1.17-1.69-1.85-2.56-.41,1.6-1.15,3.12-2.41,4.45-.2-.29-.61-.74-.9-.94,2.39-2.56,2.66-5.89,2.66-9.13v-6.21h1.22v6.21Zm-2.86,1.98c-.16-1.22-.58-3.38-1.01-5.01l.99-.23c.45,1.62.9,3.73,1.08,4.9l-1.06.34Zm8.71-1.44c-.38.76-.81,1.46-1.28,2.12h2.32v-1.6h1.21v1.6h3.69v4.5c0,.61-.09.94-.52,1.13-.4.2-1.03.2-1.94.2-.05-.34-.22-.79-.36-1.12.63.02,1.17.02,1.35,0,.18,0,.23-.05.23-.22v-3.33h-2.45v6.25h-1.21v-6.25h-2.25v4.7h-1.22v-4.45c-.43.45-.86.86-1.31,1.22-.13-.27-.5-.88-.74-1.13,1.22-.92,2.27-2.18,3.1-3.64h-2.4v-1.17h2.99c.25-.56.49-1.13.68-1.73-.92.4-1.85.72-2.75,1.01-.13-.22-.45-.61-.7-.88-.41,1.03-.88,2.12-1.28,2.86l-.83-.4c.43-.99,1.03-2.61,1.3-3.73l1.15.47-.23.56c1.33-.36,2.68-.83,3.96-1.4-1.26-.49-2.54-.9-3.75-1.24l.81-.9c1.39.38,2.9.9,4.32,1.46,1.03-.54,1.93-1.15,2.61-1.8l1.15.54c-.68.65-1.51,1.24-2.43,1.8,1.21.5,2.32,1.06,3.17,1.51l-.81,1.01c-.92-.56-2.21-1.21-3.67-1.8-.59.31-1.22.59-1.85.86l1.06.27c-.18.52-.38,1.04-.58,1.53h6.18v1.17h-6.72Z"/>
    <path class="cls-8" d="m55.34,211.18c-.27,2.52-.79,4.57-1.51,6.25,1.75,1.73,4.21,2.12,7.26,2.12.7,0,4.57,0,5.49-.02-.2.31-.43.88-.5,1.24h-5.02c-3.31,0-5.91-.45-7.78-2.25-.63,1.13-1.39,2.02-2.25,2.7-.22-.27-.68-.74-.99-.92.94-.67,1.73-1.58,2.38-2.77-.67-.92-1.21-2.05-1.64-3.49l.99-.4c.32,1.08.7,1.98,1.21,2.72.45-1.19.81-2.58,1.04-4.18h-2.18c-.29.14-.72.38-.72.56-.09-.25-.38-.79-.56-1.08.34-.07.77-.5,1.13-1.06.32-.45,1.22-1.93,1.93-3.51h-3.12v-1.19h3.62l.43-.2.86.56c-.83,1.73-1.73,3.4-2.61,4.74h1.55l.23-.04.76.22Zm4.41-3.82h-3.33v-1.06h3.33v-1.51h1.28v1.51h4.01v2.41h1.24v1.06h-1.24v2.47h-4.01v1.39h4.43v1.01h-4.43v1.4h5.1v1.08h-5.1v1.78h-1.28v-1.78h-4.36v-1.08h4.36v-1.4h-3.6v-1.01h3.6v-1.39h-3.46v-1.06h3.46v-1.41h-4.5v-1.06h4.5v-1.35Zm1.28,0v1.35h2.81v-1.35h-2.81Zm2.81,2.41h-2.81v1.41h2.81v-1.41Z"/>
    <path class="cls-8" d="m76.49,214.87c-.4-.65-1.33-1.91-2.07-2.88v9.2h-1.33v-8.64c-.77,2.11-1.8,4.16-2.86,5.38-.14-.38-.49-.94-.74-1.26,1.37-1.49,2.74-4.29,3.4-6.77h-2.79v-1.28h2.99v-3.85h1.33v3.85h2.45v1.28h-2.45v.47c.67.72,2.47,2.83,2.92,3.35l-.85,1.15Zm9.65-4.95h-1.85v9.47c0,.92-.23,1.33-.83,1.53-.59.23-1.66.27-3.17.27-.07-.38-.29-.99-.49-1.37,1.17.04,2.32.02,2.67.02.32-.02.45-.11.45-.43v-7.67c-1.42,2.59-3.47,5.13-5.46,6.63-.23-.34-.63-.81-.95-1.08,2.25-1.53,4.61-4.54,5.94-7.36h-4.9v-1.28h5.37v-3.83h1.37v3.83h1.85v1.28Z"/>
    <path class="cls-8" d="m91.74,208.69c0-.83.63-1.35,1.35-1.35s1.37.52,1.37,1.35-.65,1.35-1.37,1.35-1.35-.52-1.35-1.35Zm0,8.82c0-.83.63-1.37,1.35-1.37s1.37.54,1.37,1.37-.65,1.35-1.37,1.35-1.35-.54-1.35-1.35Z"/>
    <path class="cls-8" d="m107.51,207.97l.77-.04-.02,1.24-.76.05v.09c0,2.2-.2,4.99-1.87,7.6.88.79,1.67,1.55,2.23,2.16l-.99,1.04c-.5-.59-1.22-1.33-2.03-2.11-.96,1.15-2.23,2.25-3.98,3.21-.2-.32-.61-.77-.94-1.01,1.73-.94,2.99-2,3.89-3.11-1.01-.9-2.12-1.8-3.12-2.54.41-1.3.83-3.1,1.21-4.99l-1.85.13-.16-1.33,2.27-.11c.18-1.19.36-2.38.45-3.42l1.39.09c-.13,1.03-.31,2.14-.49,3.26l2.68-.14v-.88h1.31v.81Zm-4.25,1.53c-.32,1.67-.7,3.31-1.06,4.66.77.58,1.58,1.22,2.38,1.87,1.46-2.32,1.62-4.77,1.62-6.73l-2.93.2Zm12.17-2.79v13.79h-1.31v-1.08h-3.89v1.33h-1.28v-14.04h6.48Zm-1.31,11.43v-10.16h-3.89v10.16h3.89Z"/>
    <path class="cls-8" d="m133.94,219.93c.7,0,.83-.45.92-3.02.29.25.86.49,1.22.59-.16,2.9-.52,3.67-2.03,3.67h-2.59c-1.58,0-2.04-.43-2.04-1.94v-6.36h-3.31c-.34,3.92-1.24,6.86-5.73,8.34-.14-.32-.54-.88-.83-1.13,4.2-1.26,4.86-3.8,5.15-7.2h-4.79v-1.28h7.24v-6.82h1.33v6.82h7.4v1.28h-5.11v6.34c0,.59.14.72.83.72h2.34Zm-10.41-9.36c-.32-1.17-1.22-3.06-2.12-4.47l1.21-.45c.92,1.37,1.85,3.21,2.18,4.41l-1.26.5Zm10.98-4.61c-.74,1.55-1.71,3.4-2.5,4.55l-1.12-.45c.77-1.21,1.75-3.17,2.27-4.61l1.35.5Z"/>
    <path class="cls-8" d="m148.07,207.25c-.22.76-.47,1.57-.7,2.25h7.22v11.72h-1.35v-.96h-11.51v.96h-1.3v-11.72h5.56c.2-.68.38-1.51.52-2.25h-6.9v-1.28h15.83v1.28h-7.38Zm-6.34,11.78h2.56v-8.28h-2.56v8.28Zm7.58-8.28h-3.8v1.98h3.8v-1.98Zm0,3.08h-3.8v2.02h3.8v-2.02Zm-3.8,5.2h3.8v-2.09h-3.8v2.09Zm7.72-8.28h-2.7v8.28h2.7v-8.28Z"/>
    <path class="cls-8" d="m160.06,211.61l1.17-1.03c1.28,1.04,2.92,2.67,4.03,4l-1.22,1.03c-1.17-1.42-2.7-2.95-3.98-4Z"/>
    <path class="cls-8" d="m170.73,212.98c-.22-1.19-.74-3.24-1.19-4.79l.92-.34c.5,1.57,1.04,3.56,1.22,4.66l-.95.47Zm3.8,6.01c-.34-.61-1.13-1.71-1.8-2.57-.36,1.73-1.04,3.38-2.21,4.84-.18-.29-.61-.7-.88-.88,2.11-2.65,2.34-6.03,2.34-9.27v-6.14h1.19v6.14c0,1.31-.04,2.63-.2,3.91.61.72,2.09,2.59,2.43,3.04l-.86.94Zm1.17-11.31c-.47,1.35-1.01,3.01-1.49,4.03l-.83-.32c.41-1.08.92-2.86,1.15-4.07l1.17.36Zm8.84,12.28c.4,0,.47-.23.52-1.84.25.2.74.38,1.08.47-.11,1.96-.45,2.45-1.48,2.45h-1.78c-1.3,0-1.6-.34-1.6-1.53v-2.88h-1.91c-.31,2.41-1.19,3.82-4.14,4.59-.13-.31-.47-.79-.74-1.03,2.61-.61,3.37-1.66,3.64-3.57h-2.83v-1.12h10.7v1.12h-3.47v2.88c0,.4.09.45.52.45h1.5Zm-9.29-6.03c.59-.07,1.3-.14,2.05-.25v-1.44h-1.55v-.97h1.55v-1.21h1.13v1.21h1.5v.97h-1.5v1.3l1.6-.2.04.95c-1.64.23-3.28.47-4.59.63l-.23-.99Zm10.57-4.25h-10.1v-1.03h4.25v-1.3h-3.28v-1.04h3.28v-1.53h1.28v1.53h3.62v1.04h-3.62v1.3h4.57v1.03Zm-3.37,3.93v-1.37h-1.55v-.97h1.55v-1.19h1.15v1.19h1.75v.97h-1.75v1.37h2.21v.97h-5.42v-.97h2.05Z"/>
    <path class="cls-8" d="m197.99,207.25c-.22.76-.47,1.57-.7,2.25h7.22v11.72h-1.35v-.96h-11.51v.96h-1.3v-11.72h5.56c.2-.68.38-1.51.52-2.25h-6.9v-1.28h15.83v1.28h-7.38Zm-6.34,11.78h2.56v-8.28h-2.56v8.28Zm7.58-8.28h-3.8v1.98h3.8v-1.98Zm0,3.08h-3.8v2.02h3.8v-2.02Zm-3.8,5.2h3.8v-2.09h-3.8v2.09Zm7.72-8.28h-2.7v8.28h2.7v-8.28Z"/>
    <path class="cls-8" d="m214.78,209.99c-.41.86-.92,1.73-1.48,2.54v8.7h-1.31v-6.97c-.68.81-1.4,1.51-2.12,2.11-.22-.25-.77-.72-1.08-.94,1.87-1.37,3.62-3.58,4.7-5.83l1.3.4Zm.04-3.42h1.89v1.28h-1.89v1.69h-1.31v-1.69h-4.3v-1.28h4.3v-1.8h1.31v1.8Zm4.56,1.28h-2v-1.28h2v-1.8h1.31v1.8h4.21v1.28h-4.21v1.78h-1.31v-1.78Zm3.58,11.87c.83,0,.97-.45,1.08-2.77.31.25.83.47,1.22.56-.2,2.68-.58,3.48-2.23,3.48h-3.31c-1.78,0-2.29-.45-2.29-2.16v-9.02h1.31v3.01h6.12v1.28h-6.12v4.75c0,.74.18.88,1.08.88h3.13Z"/>
    <path class="cls-8" d="m243.86,219.68c0,.76-.18,1.12-.72,1.33-.56.22-1.49.22-2.92.22-.07-.36-.23-.86-.41-1.21,1.08.04,2.09.02,2.38,0,.29-.02.38-.09.38-.36v-8.8h-11.47v10.37h-1.3v-11.51h14.06v9.96Zm-.23-11.18h-13.7v-3.13h1.33v2.02h4.77v-2.61h1.35v2.61h4.86v-2.02h1.39v3.13Zm-10.8,10.28v-3.56h1.12v2.54h2.18v-3.47h-4.07v-1.03h6.07c.34-.68.72-1.58.94-2.21l1.17.31c-.29.65-.61,1.33-.92,1.91h2.18v1.03h-4.18v3.47h2.23v-2.54h1.13v3.56h-7.85Zm1.6-7.69c.41.54.85,1.28,1.03,1.76l-1.1.36c-.16-.5-.59-1.26-.97-1.84l1.04-.29Z"/>
    <path class="cls-8" d="m254.78,212.55c-.45.83-.96,1.64-1.57,2.39h9.88v6.27h-1.37v-.72h-8.52v.77h-1.33v-4.77c-.94.92-2,1.75-3.17,2.39-.18-.29-.56-.79-.83-1.06,2.27-1.22,4.2-3.22,5.31-5.28h-4.79v-1.28h15.92v1.28h-9.54Zm8.35-3.19h-13.49v-3.78h1.33v2.56h4.68v-3.37h1.35v3.37h4.75v-2.56h1.37v3.78Zm-1.4,6.81h-8.52v3.1h8.52v-3.1Z"/>
    <path class="cls-8" d="m283.37,211.09c-.76,2.92-2.14,5.1-3.96,6.73,1.37.97,3.01,1.69,4.86,2.14-.31.31-.72.86-.92,1.26-1.96-.54-3.64-1.37-5.06-2.5-1.67,1.24-3.64,2.07-5.71,2.63-.16-.38-.49-.95-.76-1.22,1.94-.45,3.8-1.21,5.4-2.34-1.57-1.53-2.74-3.49-3.57-5.78h-.67c-.36,2.92-1.4,6.14-4.32,8.89-.2-.36-.68-.88-.97-1.13,3.82-3.55,4.12-8.03,4.12-11.22v-1.62h-3.15v-1.31h11.04c-.36,1.66-.83,3.69-1.22,5.13h3.69l.25-.07.94.41Zm-10.19-2.54c0,.68-.02,1.42-.07,2.2h3.94c.32-1.12.68-2.52.97-3.82h-4.84v1.62Zm1.78,3.46c.74,1.94,1.87,3.6,3.35,4.93,1.46-1.26,2.59-2.9,3.29-4.93h-6.64Z"/>
    <path class="cls-8" d="m296.75,211.29c1.26,3.96,3.6,7.22,7.08,8.64-.32.31-.77.86-1.01,1.26-3.46-1.64-5.74-4.83-7.17-8.91-.86,3.46-2.81,6.91-7.18,8.91-.2-.36-.63-.83-1.01-1.1,4.47-1.94,6.27-5.4,7-8.8h-6.64v-1.37h6.86c.27-1.89.25-3.69.27-5.11h1.44c-.02,1.44-.04,3.22-.29,5.11h7.44v1.37h-6.79Z"/>
    <path class="cls-8" d="m312.86,217.5c-1.93.65-3.98,1.35-5.58,1.87l-.31-1.35c.67-.2,1.49-.45,2.41-.76v-4.86h-2.04v-1.24h2.04v-3.91h-2.23v-1.26h5.58v1.26h-2.07v3.91h1.8v1.24h-1.8v4.47l1.96-.65.23,1.28Zm10.75,1.91v1.22h-11.59v-1.22h5.47v-2.47h-4.09v-1.22h4.09v-2.11h-3.87v-8.01h9.15v8.01h-3.93v2.11h4.2v1.22h-4.2v2.47h4.77Zm-8.77-10.37h2.74v-2.27h-2.74v2.27Zm0,3.4h2.74v-2.29h-2.74v2.29Zm6.64-5.67h-2.75v2.27h2.75v-2.27Zm0,3.39h-2.75v2.29h2.75v-2.29Z"/>
    <path class="cls-8" d="m57.2,233.47c-.56,1.58-1.28,3.19-2.16,4.68h9.98v9.06h-1.39v-1.24h-8.55v1.26h-1.33v-7.13c-.86,1.15-1.87,2.18-2.99,3.04-.2-.31-.65-.77-.94-1.03,2.81-2.07,4.81-5.46,5.87-8.64h-5.13v-1.31h15.56v1.31h-8.91Zm-2.12,5.96v5.24h8.55v-5.24h-8.55Z"/>
    <path class="cls-8" d="m83.75,242.49c-.96.67-2.2,1.35-3.26,1.85,1.17.76,2.65,1.28,4.38,1.57-.25.25-.59.74-.74,1.08-3.58-.72-6.05-2.47-7.44-5.26-.86.67-1.94,1.28-3.15,1.82v2.05l4.12-.88c-.04.32-.05.79-.04,1.03-4.74,1.12-5.29,1.26-5.64,1.49v-.09c-.09-.31-.31-.72-.47-.92.29-.18.76-.56.76-1.37v-.81c-1.04.38-2.11.68-3.12.9-.14-.29-.49-.74-.74-.99,2.27-.41,4.83-1.26,6.57-2.32h-6.27v-1.12h7.6c-.16-.36-.38-.77-.56-1.1l1.24-.36c.29.45.56,1.01.76,1.46h6.86v1.12h-6.72c.43.77.97,1.44,1.67,2.04,1.08-.54,2.39-1.3,3.19-1.87l.97.68Zm-11.04-7.42h-4.05v-.97h4.05v-1.1h-2.14c-.22.4-.45.77-.68,1.08-.22-.16-.7-.4-.95-.52.61-.72,1.12-1.73,1.42-2.72l1.06.25c-.11.32-.25.65-.4.97h1.69v-1.3h1.17v1.3h3.17v.94h-3.17v1.1h3.8v.97h-3.8v.96h3.35v2.2c0,.5-.09.74-.49.9-.34.16-.9.16-1.69.16-.05-.29-.23-.61-.36-.86.59.02,1.04.02,1.21,0,.16,0,.2-.05.2-.2v-1.3h-2.21v2.92h-1.17v-2.92h-2.05v2.45h-1.08v-3.35h3.13v-.96Zm7.56,2.49h-1.21v-5.87h1.21v5.87Zm3.4.81c0,.7-.16.99-.65,1.19-.52.2-1.33.2-2.59.2-.05-.34-.25-.77-.43-1.1.99.04,1.85.02,2.11,0,.27,0,.34-.07.34-.31v-7.4h1.22v7.42Z"/>
    <path class="cls-8" d="m93.92,233.47c-.56,1.58-1.28,3.19-2.16,4.68h9.97v9.06h-1.39v-1.24h-8.55v1.26h-1.33v-7.13c-.86,1.15-1.87,2.18-2.99,3.04-.2-.31-.65-.77-.94-1.03,2.81-2.07,4.81-5.46,5.87-8.64h-5.13v-1.31h15.56v1.31h-8.91Zm-2.12,5.96v5.24h8.55v-5.24h-8.55Z"/>
    <path class="cls-8" d="m110.98,241.59c-.31-.59-1.03-1.71-1.64-2.59v8.19h-1.28v-8.5c-.65,2.02-1.51,3.98-2.41,5.17-.14-.36-.47-.9-.68-1.21,1.17-1.51,2.36-4.32,2.93-6.79h-2.52v-1.24h2.68v-3.85h1.28v3.85h2.32v1.24h-2.32v1.57c.56.63,2.11,2.61,2.47,3.1l-.83,1.06Zm10.17-4.9c-.54,2.84-1.57,5.13-2.92,6.9.99,1.1,2.18,1.98,3.57,2.54-.29.27-.7.77-.9,1.12-1.35-.63-2.52-1.55-3.49-2.68-1.06,1.13-2.29,2-3.58,2.63-.16-.31-.54-.81-.83-1.06,1.31-.54,2.54-1.42,3.6-2.58-1.15-1.64-2.02-3.62-2.63-5.85h-.09c-.07,2.95-.49,6.82-2.49,9.45-.22-.23-.77-.65-1.06-.79,2.05-2.75,2.25-6.63,2.25-9.47v-5.02h8.77v1.24h-7.47v3.37h6.23l.23-.04.81.25Zm-6,1.01c.52,1.8,1.26,3.46,2.25,4.84.99-1.33,1.76-2.97,2.25-4.84h-4.5Z"/>
    <path class="cls-8" d="m126.3,233.24c-.54.83-1.15,1.58-1.78,2.14-.18-.22-.65-.67-.95-.88,1.13-.94,2.16-2.38,2.77-3.83l1.19.32c-.16.36-.32.72-.5,1.08h4.63v1.17h-3.37c.61.52,1.35,1.19,1.73,1.64l-.88.77c-.4-.52-1.21-1.33-1.87-1.89l.65-.52h-1.6Zm9.76,8.41h3.58v1.13h-3.58v3.04c0,.77-.2,1.08-.79,1.24-.61.18-1.64.18-3.21.18-.04-.36-.2-.77-.36-1.13,1.21.05,2.3.05,2.61.04.31-.04.4-.11.4-.36v-3.01h-10.86v-1.13h10.86v-1.26h1.35v1.26Zm3.91-9.56v1.17h-3.96c.59.54,1.31,1.28,1.67,1.76l-.92.77c-.34-.52-1.08-1.35-1.71-1.94l.79-.59h-1.76c-.47.85-.99,1.57-1.51,2.16l-.16-.14v.85h6.59v1.17h-6.59v1.6h5.58v1.08h-12.57v-1.08h5.64v-1.6h-6.54v-1.17h6.54v-1.12h1.01c-.18-.14-.38-.29-.52-.38.99-.97,1.78-2.43,2.23-3.96l1.24.29c-.11.4-.25.76-.41,1.13h5.37Zm-12.19,10.86c1.03.79,2.38,1.93,3.06,2.66l-.99.79c-.65-.72-1.98-1.93-3.02-2.75l.95-.7Z"/>
    <path class="cls-8" d="m149,233.47c-.56,1.58-1.28,3.19-2.16,4.68h9.97v9.06h-1.39v-1.24h-8.55v1.26h-1.33v-7.13c-.86,1.15-1.87,2.18-2.99,3.04-.2-.31-.65-.77-.94-1.03,2.81-2.07,4.81-5.46,5.87-8.64h-5.13v-1.31h15.56v1.31h-8.91Zm-2.12,5.96v5.24h8.55v-5.24h-8.55Z"/>
    <path class="cls-8" d="m167.01,240.87c-.4-.65-1.33-1.91-2.07-2.88v9.2h-1.33v-8.64c-.77,2.11-1.8,4.16-2.86,5.38-.14-.38-.49-.94-.74-1.26,1.37-1.49,2.74-4.29,3.4-6.77h-2.79v-1.28h2.99v-3.85h1.33v3.85h2.45v1.28h-2.45v.47c.67.72,2.47,2.83,2.92,3.35l-.85,1.15Zm9.65-4.95h-1.85v9.47c0,.92-.23,1.33-.83,1.53-.59.23-1.66.27-3.17.27-.07-.38-.29-.99-.49-1.37,1.17.04,2.32.02,2.67.02.32-.02.45-.11.45-.43v-7.67c-1.42,2.59-3.48,5.13-5.46,6.63-.23-.34-.63-.81-.95-1.08,2.25-1.53,4.61-4.54,5.94-7.36h-4.9v-1.28h5.37v-3.83h1.37v3.83h1.85v1.28Z"/>
    <path class="cls-8" d="m193.91,242.49c-.95.67-2.2,1.35-3.26,1.85,1.17.76,2.65,1.28,4.38,1.57-.25.25-.59.74-.74,1.08-3.58-.72-6.05-2.47-7.44-5.26-.86.67-1.94,1.28-3.15,1.82v2.05l4.12-.88c-.04.32-.05.79-.04,1.03-4.74,1.12-5.29,1.26-5.64,1.49v-.09c-.09-.31-.31-.72-.47-.92.29-.18.76-.56.76-1.37v-.81c-1.04.38-2.11.68-3.12.9-.14-.29-.49-.74-.74-.99,2.27-.41,4.83-1.26,6.57-2.32h-6.27v-1.12h7.6c-.16-.36-.38-.77-.56-1.1l1.24-.36c.29.45.56,1.01.76,1.46h6.86v1.12h-6.72c.43.77.97,1.44,1.67,2.04,1.08-.54,2.39-1.3,3.19-1.87l.97.68Zm-11.04-7.42h-4.05v-.97h4.05v-1.1h-2.14c-.22.4-.45.77-.68,1.08-.22-.16-.7-.4-.95-.52.61-.72,1.12-1.73,1.42-2.72l1.06.25c-.11.32-.25.65-.4.97h1.69v-1.3h1.17v1.3h3.17v.94h-3.17v1.1h3.8v.97h-3.8v.96h3.35v2.2c0,.5-.09.74-.49.9-.34.16-.9.16-1.69.16-.05-.29-.23-.61-.36-.86.59.02,1.04.02,1.21,0,.16,0,.2-.05.2-.2v-1.3h-2.21v2.92h-1.17v-2.92h-2.05v2.45h-1.08v-3.35h3.13v-.96Zm7.56,2.49h-1.21v-5.87h1.21v5.87Zm3.4.81c0,.7-.16.99-.65,1.19-.52.2-1.33.2-2.59.2-.05-.34-.25-.77-.43-1.1.99.04,1.85.02,2.11,0,.27,0,.34-.07.34-.31v-7.4h1.22v7.42Z"/>
    <path class="cls-8" d="m197.74,239.39h6.36v7.67h-1.31v-.81h-3.76v.97h-1.28v-7.83Zm1.28,1.3v4.27h3.76v-4.27h-3.76Zm11.13-3.19h-9.79v-5.96h9.79v5.96Zm-1.35-4.68h-7.15v3.4h7.15v-3.4Zm3.96,6.57v7.71h-1.31v-.85h-4.09v.97h-1.3v-7.83h6.7Zm-1.31,5.56v-4.27h-4.09v4.27h4.09Z"/>
    <path class="cls-8" d="m216.46,237.61l1.17-1.03c1.28,1.04,2.92,2.67,4.03,4l-1.22,1.03c-1.17-1.42-2.7-2.95-3.98-4Z"/>
    <path class="cls-8" d="m236.95,234.37v1.58h3.64v9.79c0,.61-.11.95-.54,1.17-.4.2-1.03.23-1.93.23-.04-.34-.2-.85-.38-1.19.61.04,1.15.02,1.33.02s.22-.05.22-.25v-2.47h-2.4v3.82h-1.21v-3.82h-2.25v3.91h-1.26v-11.22h3.46v-1.58h-3.96l-.54.95c-.68-.74-1.78-1.67-2.84-2.47-.58.9-1.22,1.75-1.91,2.47h4.32v1.17h-1.85v1.94h2.43v1.17h-2.43v4.97l2.41-.5.07,1.08c-2.16.52-4.5,1.06-6.18,1.44l-.29-1.21c.77-.13,1.78-.34,2.88-.58v-5.2h-2.68v-1.17h2.68v-1.94h-1.73v-.79c-.29.29-.58.54-.86.79-.09-.31-.38-1.03-.54-1.35,1.37-1.06,2.77-2.72,3.62-4.46l1.01.45c-.11.25-.23.52-.38.76.99.68,1.98,1.48,2.68,2.14v-.81h4.09v-2.43h1.31v2.43h4.16v1.15h-4.16Zm-10.68,6.19c.31,1.04.59,2.41.7,3.29l-.92.27c-.05-.9-.36-2.27-.65-3.33l.86-.23Zm3.04,3.08c.29-.88.65-2.32.81-3.29l.97.32c-.32,1.1-.68,2.41-1.01,3.24l-.77-.27Zm4.12-4.63h2.25v-1.89h-2.25v1.89Zm2.25,3.1v-1.96h-2.25v1.96h2.25Zm1.21-4.99v1.89h2.4v-1.89h-2.4Zm2.4,4.99v-1.96h-2.4v1.96h2.4Zm.74-9.07c-.43-.5-1.39-1.21-2.2-1.67l.85-.65c.81.42,1.78,1.1,2.27,1.58l-.92.74Z"/>
    <path class="cls-8" d="m251.83,233.25c-.22.76-.47,1.57-.7,2.25h7.22v11.72h-1.35v-.96h-11.51v.96h-1.3v-11.72h5.56c.2-.68.38-1.51.52-2.25h-6.9v-1.28h15.83v1.28h-7.38Zm-6.34,11.78h2.56v-8.28h-2.56v8.28Zm7.58-8.28h-3.8v1.98h3.8v-1.98Zm0,3.08h-3.8v2.02h3.8v-2.02Zm-3.8,5.2h3.8v-2.09h-3.8v2.09Zm7.72-8.28h-2.7v8.28h2.7v-8.28Z"/>
    <path class="cls-8" d="m261.51,231.94h6.36v1.22h-3.01c-.22,1.42-.47,2.79-.81,4.09h3.26v7.6h-3.37v1.51h-1.15v-5.55c-.23.49-.49.95-.77,1.37-.14-.31-.56-.9-.81-1.19,1.26-1.89,1.96-4.77,2.38-7.83h-2.07v-1.22Zm4.61,6.46h-2.18v5.26h2.18v-5.26Zm9.09,3.93h2.67v1.04h-2.67v2.5c0,.63-.11.95-.59,1.13-.47.2-1.17.2-2.3.2-.05-.32-.23-.79-.4-1.1.83.02,1.55.02,1.75,0,.23,0,.29-.05.29-.27v-2.47h-6.05v-1.04h6.05v-1.12c-2.18.07-4.25.13-5.85.16l-.09-1.1c1.13,0,2.61-.02,4.21-.04v-1.19h-3.51v-4.75h3.51v-.96h-3.89v-1.08h3.89v-1.3h1.24v1.3h4.18v1.08h-4.18v.96h3.6v4.75h-1.4c.86.67,1.84,1.55,2.32,2.18l-.94.59c-.14-.22-.36-.45-.59-.7l-1.24.04v1.17Zm-5.06,1.12c.77.59,1.58,1.42,1.96,1.98l-.95.7c-.36-.58-1.17-1.48-1.89-2.09l.88-.59Zm-.27-7.18h2.34v-1.13h-2.34v1.13Zm2.34,1.94v-1.15h-2.34v1.15h2.34Zm1.24-3.08v1.13h2.38v-1.13h-2.38Zm2.38,1.93h-2.38v1.15h2.38v-1.15Zm-2.38,3.17l2.02-.04c-.31-.29-.63-.56-.94-.79l.61-.34h-1.69v1.17Z"/>
    <path class="cls-8" d="m66.29,296.92v1.31h-15.9v-1.31h4.38c.36-1.64.74-3.75,1.1-5.89h-3.35v-1.31h3.56c.22-1.33.42-2.67.58-3.87h-5.13v-1.31h13.47v1.31h-6.91c-.18,1.21-.38,2.56-.59,3.87h4.54l.23-.07,1.03.11c-.13,1.98-.38,4.83-.65,7.17h3.66Zm-9-5.89c-.34,2.14-.72,4.25-1.06,5.89h5.02c.2-1.91.41-4.21.56-5.89h-4.52Z"/>
    <path class="cls-8" d="m77.32,289.38v2.45h6.28v1.22h-6.28v4.39h7.09v1.24h-15.47v-1.24h6.99v-4.39h-6.18v-1.22h6.18v-2.45h-3.89v-.99c-.92.5-1.89.96-2.86,1.3-.2-.36-.56-.88-.9-1.21,3.35-1.1,6.66-3.2,8.37-5.87l1.22.58c-.13.2-.29.43-.45.65,1.78,1.91,4.95,3.78,7.69,4.64-.32.27-.74.81-.94,1.15-.94-.34-1.93-.81-2.9-1.37v1.12h-3.96Zm-4.93,4.07c.68,1.01,1.42,2.36,1.71,3.22l-1.17.49c-.25-.83-.97-2.25-1.66-3.26l1.12-.45Zm8.68-5.31c-1.62-.95-3.2-2.16-4.38-3.38-1.19,1.3-2.63,2.45-4.21,3.38h8.59Zm-2.11,8.62c.63-.88,1.44-2.3,1.87-3.31l1.28.49c-.67,1.13-1.49,2.41-2.14,3.26l-1.01-.43Z"/>
    <path class="cls-8" d="m103.08,296.51v1.33h-16.06v-1.33h7.24v-10.34h-6.3v-1.37h14.22v1.37h-6.46v10.34h7.36Z"/>
    <path class="cls-8" d="m111.57,296.22c-1.41,1.1-3.62,2.29-5.42,3.01-.23-.27-.67-.72-.97-.99,1.8-.68,4.03-1.85,5.13-2.83l1.26.81Zm9.87-.96h-16.06v-1.22h2.86v-10.41h10.53v10.41h2.66v1.22Zm-11.92-10.51v1.53h7.92v-1.53h-7.92Zm7.92,2.56h-7.92v1.51h7.92v-1.51Zm-7.92,2.54v1.55h7.92v-1.55h-7.92Zm0,4.2h7.92v-1.62h-7.92v1.62Zm6.61,1.31c2.02.9,4.18,2.03,5.51,2.86l-1.06,1.01c-1.26-.86-3.31-2.02-5.29-2.95l.85-.92Z"/>
    <path class="cls-8" d="m125.9,286.69c0-.83.63-1.35,1.35-1.35s1.37.52,1.37,1.35-.65,1.35-1.37,1.35-1.35-.52-1.35-1.35Zm0,8.82c0-.83.63-1.37,1.35-1.37s1.37.54,1.37,1.37-.65,1.35-1.37,1.35-1.35-.54-1.35-1.35Z"/>
    <path class="cls-8" d="m142.57,283.31c-.18.29-.38.54-.58.81,2.11,2.23,4.61,3.71,7.47,4.92-.34.29-.72.79-.92,1.21-1.03-.5-2-1.01-2.92-1.6v1.22h-9.02v-.92c-.9.54-1.82,1.04-2.75,1.46-.23-.36-.59-.86-.97-1.17,3.4-1.35,6.7-3.73,8.52-6.5l1.17.58Zm-6.9,8.71h11.09v7.09h-1.39v-.94h-8.35v1.01h-1.35v-7.17Zm1.35,1.19v3.73h8.35v-3.73h-8.35Zm8.57-4.59c-1.58-.97-3.03-2.11-4.38-3.55-1.17,1.35-2.59,2.54-4.12,3.55h8.5Z"/>
    <path class="cls-8" d="m160.12,289.38v2.45h6.28v1.22h-6.28v4.39h7.09v1.24h-15.47v-1.24h6.99v-4.39h-6.18v-1.22h6.18v-2.45h-3.89v-.99c-.92.5-1.89.96-2.86,1.3-.2-.36-.56-.88-.9-1.21,3.35-1.1,6.66-3.2,8.37-5.87l1.22.58c-.13.2-.29.43-.45.65,1.78,1.91,4.95,3.78,7.69,4.64-.32.27-.74.81-.94,1.15-.94-.34-1.93-.81-2.9-1.37v1.12h-3.96Zm-4.93,4.07c.68,1.01,1.42,2.36,1.71,3.22l-1.17.49c-.25-.83-.97-2.25-1.66-3.26l1.12-.45Zm8.68-5.31c-1.62-.95-3.21-2.16-4.38-3.38-1.19,1.3-2.63,2.45-4.21,3.38h8.59Zm-2.11,8.62c.63-.88,1.44-2.3,1.87-3.31l1.28.49c-.67,1.13-1.49,2.41-2.14,3.26l-1.01-.43Z"/>
    <path class="cls-8" d="m185.88,296.51v1.33h-16.06v-1.33h7.24v-10.34h-6.3v-1.37h14.22v1.37h-6.46v10.34h7.36Z"/>
    <path class="cls-8" d="m194.37,296.22c-1.41,1.1-3.62,2.29-5.42,3.01-.23-.27-.67-.72-.97-.99,1.8-.68,4.03-1.85,5.13-2.83l1.26.81Zm9.87-.96h-16.06v-1.22h2.86v-10.41h10.53v10.41h2.66v1.22Zm-11.92-10.51v1.53h7.92v-1.53h-7.92Zm7.92,2.56h-7.92v1.51h7.92v-1.51Zm-7.92,2.54v1.55h7.92v-1.55h-7.92Zm0,4.2h7.92v-1.62h-7.92v1.62Zm6.61,1.31c2.02.9,4.18,2.03,5.51,2.86l-1.06,1.01c-1.26-.86-3.31-2.02-5.29-2.95l.85-.92Z"/>
    <path class="cls-8" d="m212.36,287.5c-.68-.83-1.82-1.85-2.95-2.68-.58.88-1.22,1.69-1.89,2.38h4.32v1.13h-1.78v1.94h2.38v1.15h-2.38v5.37c.83-.16,1.73-.34,2.59-.52l.09,1.12c-2.12.49-4.32.94-6.01,1.3l-.29-1.22c.7-.13,1.55-.29,2.49-.45v-5.58h-2.39v-1.15h2.39v-1.94h-1.57v-.95c-.25.25-.5.47-.76.68-.09-.27-.41-.95-.58-1.24,1.26-.95,2.58-2.48,3.31-4.11l.99.42c-.11.25-.23.49-.38.74,1.21.81,2.38,1.78,3.04,2.61l-.63,1.03Zm-4.68,4.92c.36,1.08.65,2.47.7,3.37l-.94.25c-.04-.94-.32-2.34-.65-3.42l.88-.2Zm2.88,3.06c.23-.88.54-2.3.67-3.28l1.01.27c-.27,1.08-.58,2.41-.83,3.24l-.85-.23Zm11.74,2.18c0,.76-.18,1.13-.65,1.33-.5.22-1.33.23-2.7.23-.05-.32-.22-.86-.4-1.21,1.03.04,1.94.04,2.21.02.29-.02.38-.09.38-.4v-12.91h-6.88v14.49h-1.15v-15.68h9.18v14.12Zm-6.93-6.97h.81v4.14h1.13v-5.31h-2.38v-1.04h3.31c.31-.97.65-2.38.83-3.37l1.01.29c-.27.99-.61,2.2-.92,3.08h1.39v1.04h-2.41v5.31h1.17v-4.14h.79v5.19h-4.74v-5.19Zm.81-5.51c.45.88.83,2.02.94,2.72l-.86.31c-.11-.72-.49-1.91-.9-2.79l.83-.23Z"/>
    <path class="cls-8" d="m227.74,290.19c-.11,2.88-.54,6.41-1.94,8.95-.27-.2-.86-.49-1.22-.58,1.71-2.99,1.87-7.24,1.87-10.17v-4.54c4.16-.14,9.13-.5,11.88-1.03l.92.99c-3.01.54-7.51.9-11.49,1.04v1.3h11.74v4.03h-11.76Zm.02-2.97v1.93h10.42v-1.93h-10.42Zm12.23,10.66c0,.61-.09.92-.52,1.13-.4.2-1.03.22-2,.22-.04-.34-.2-.81-.36-1.13.65.02,1.19.02,1.37,0,.2,0,.23-.05.23-.22v-2.14h-2.36v3.26h-1.17v-3.26h-2.3v3.26h-1.15v-3.26h-2.25v3.46h-1.24v-7.53h11.76v6.21Zm-8.26-3.24v-1.85h-2.25v1.85h2.25Zm3.46,0v-1.85h-2.3v1.85h2.3Zm3.53,0v-1.85h-2.36v1.85h2.36Z"/>
    <path class="cls-8" d="m248.25,294.92h3.69v1.21h-3.69v3.06h-1.26v-3.06h-3.89v-1.21h3.89v-1.46h-3.17v-6.23h3.17v-1.33h-3.71v-1.19h3.71v-1.94h1.28v1.94h3.56v1.19h-3.56v1.33h3.26v6.23h-3.28v1.46Zm-3.31-5.08h2.14v-1.58h-2.14v1.58Zm0,2.59h2.14v-1.62h-2.14v1.62Zm5.44-4.18h-2.2v1.58h2.2v-1.58Zm0,2.56h-2.2v1.62h2.2v-1.62Zm7.02,6.9c.74,0,.85-.81.94-3.89.34.29.86.56,1.26.65-.16,3.33-.49,4.5-2.11,4.5h-2.43c-1.57,0-1.98-.54-1.98-2.4v-13.58h1.33v13.61c0,.92.14,1.1.83,1.1h2.16Z"/>
    <path class="cls-8" d="m276.71,294.49c-.95.67-2.2,1.35-3.26,1.85,1.17.76,2.65,1.28,4.38,1.57-.25.25-.59.74-.74,1.08-3.58-.72-6.05-2.47-7.44-5.26-.86.67-1.94,1.28-3.15,1.82v2.05l4.12-.88c-.04.32-.05.79-.04,1.03-4.74,1.12-5.29,1.26-5.64,1.49v-.09c-.09-.31-.31-.72-.47-.92.29-.18.76-.56.76-1.37v-.81c-1.04.38-2.11.68-3.12.9-.14-.29-.49-.74-.74-.99,2.27-.41,4.83-1.26,6.57-2.32h-6.27v-1.12h7.6c-.16-.36-.38-.77-.56-1.1l1.24-.36c.29.45.56,1.01.76,1.46h6.86v1.12h-6.72c.43.77.97,1.44,1.67,2.04,1.08-.54,2.39-1.3,3.19-1.87l.97.68Zm-11.04-7.42h-4.05v-.97h4.05v-1.1h-2.14c-.22.4-.45.77-.68,1.08-.22-.16-.7-.4-.95-.52.61-.72,1.12-1.73,1.42-2.72l1.06.25c-.11.32-.25.65-.4.97h1.69v-1.3h1.17v1.3h3.17v.94h-3.17v1.1h3.8v.97h-3.8v.96h3.35v2.2c0,.5-.09.74-.49.9-.34.16-.9.16-1.69.16-.05-.29-.23-.61-.36-.86.59.02,1.04.02,1.21,0,.16,0,.2-.05.2-.2v-1.3h-2.21v2.92h-1.17v-2.92h-2.05v2.45h-1.08v-3.35h3.13v-.96Zm7.56,2.49h-1.21v-5.87h1.21v5.87Zm3.4.81c0,.7-.16.99-.65,1.19-.52.2-1.33.2-2.59.2-.05-.34-.25-.77-.43-1.1.99.04,1.85.02,2.11,0,.27,0,.34-.07.34-.31v-7.4h1.22v7.42Z"/>
    <path class="cls-8" d="m280.54,291.39h6.36v7.67h-1.31v-.81h-3.76v.97h-1.28v-7.83Zm1.28,1.3v4.27h3.76v-4.27h-3.76Zm11.13-3.19h-9.79v-5.96h9.79v5.96Zm-1.35-4.68h-7.15v3.4h7.15v-3.4Zm3.96,6.57v7.71h-1.31v-.85h-4.09v.97h-1.3v-7.83h6.7Zm-1.31,5.56v-4.27h-4.09v4.27h4.09Z"/>
  </g>
</svg>