<?xml version="1.0" encoding="UTF-8"?>
<svg id="_1" data-name="1" xmlns="http://www.w3.org/2000/svg" xmlns:xlink="http://www.w3.org/1999/xlink" viewBox="0 0 371 371">
  <defs>
    <style>
      .cls-1 {
        fill: #f7eca4;
      }

      .cls-2 {
        fill: #f0b818;
      }

      .cls-3 {
        clip-path: url(#clippath);
      }

      .cls-4 {
        fill: url(#_未命名漸層_6-4);
      }

      .cls-5 {
        fill: none;
      }

      .cls-6 {
        fill: url(#_未命名漸層_6-3);
      }

      .cls-7 {
        fill: #271e49;
      }

      .cls-8 {
        fill: #fbf5d1;
        opacity: .8;
      }

      .cls-9 {
        opacity: .36;
      }

      .cls-10 {
        fill: url(#_未命名漸層_6);
      }

      .cls-11 {
        fill: #f7d627;
      }

      .cls-12 {
        fill: url(#_未命名漸層_6-2);
      }
    </style>
    <clipPath id="clippath">
      <rect class="cls-5" x=".39" y="47" width="370" height="324"/>
    </clipPath>
    <linearGradient id="_未命名漸層_6" data-name="未命名漸層 6" x1="20.48" y1="20.16" x2="10.85" y2="10.41" gradientUnits="userSpaceOnUse">
      <stop offset="0" stop-color="#f7d627"/>
      <stop offset="1" stop-color="#f0b818"/>
    </linearGradient>
    <linearGradient id="_未命名漸層_6-2" data-name="未命名漸層 6" x1="360.48" y1="20.16" x2="350.85" y2="10.41" xlink:href="#_未命名漸層_6"/>
    <linearGradient id="_未命名漸層_6-3" data-name="未命名漸層 6" x1="360.48" y1="361.16" x2="350.85" y2="351.41" xlink:href="#_未命名漸層_6"/>
    <linearGradient id="_未命名漸層_6-4" data-name="未命名漸層 6" x1="19.48" y1="361.16" x2="9.85" y2="351.41" xlink:href="#_未命名漸層_6"/>
  </defs>
  <g class="cls-3">
    <g>
      <g>
        <polygon class="cls-2" points="122.75 336 132.84 359 138.11 371 147.39 371 147.39 359 147.39 336 122.75 336"/>
        <polygon class="cls-9" points="122.75 336 132.84 359 147.39 359 147.39 336 122.75 336"/>
      </g>
      <g>
        <polygon class="cls-2" points="30.39 355.79 30.39 359 30.39 371 59.57 359 67.39 355.79 30.39 355.79"/>
        <polygon class="cls-9" points="30.39 355.79 30.39 359 59.57 359 67.39 355.79 30.39 355.79"/>
      </g>
      <g>
        <polygon class="cls-2" points="248.02 336 237.93 359 232.66 371 223.39 371 223.39 359 223.39 336 248.02 336"/>
        <polygon class="cls-9" points="248.02 336 237.93 359 223.39 359 223.39 336 248.02 336"/>
      </g>
      <g>
        <polygon class="cls-2" points="340.39 355.79 340.39 359 340.39 371 311.2 359 303.39 355.79 340.39 355.79"/>
        <polygon class="cls-9" points="340.39 355.79 340.39 359 311.2 359 303.39 355.79 340.39 355.79"/>
      </g>
      <rect class="cls-11" x="24.39" y="24" width="322" height="322"/>
      <polygon class="cls-2" points="323.39 323 323.39 30 316.39 30 316.39 340 281.39 323 281.39 30 274.39 30 274.39 340 239.39 323 239.39 30 232.39 30 232.39 340 197.39 323 197.39 30 190.39 30 190.39 340 155.39 323 155.39 30 148.39 30 148.39 340 113.39 323 113.39 30 106.39 30 106.39 340 71.39 323 71.39 30 64.39 30 64.39 340 32.39 324.46 32.39 30 24.39 30 24.39 347 29.39 347 32.39 347 355.39 347 355.39 340 323.39 323"/>
      <rect class="cls-1" x="41.39" y="30.09" width="7" height="314.91"/>
      <rect class="cls-1" x="82.39" y="30.09" width="7" height="314.91"/>
      <rect class="cls-1" x="123.39" y="30.09" width="7" height="314.91"/>
      <rect class="cls-1" x="164.39" y="30.09" width="7" height="314.91"/>
      <rect class="cls-1" x="205.39" y="30.09" width="7" height="314.91"/>
      <rect class="cls-1" x="246.39" y="30.09" width="7" height="314.91"/>
      <rect class="cls-1" x="287.39" y="30.09" width="7" height="314.91"/>
      <rect class="cls-1" x="328.39" y="30.09" width="7" height="314.91"/>
      <rect class="cls-11" x="48.39" y="24" width="16" height="321"/>
      <rect class="cls-11" x="89.39" y="24" width="17" height="321"/>
      <rect class="cls-11" x="130.39" y="24" width="18" height="321"/>
      <rect class="cls-11" x="171.39" y="24" width="19" height="321"/>
      <rect class="cls-11" x="212.39" y="24" width="20" height="321"/>
      <rect class="cls-11" x="253.39" y="24" width="21" height="321"/>
      <rect class="cls-11" x="294.39" y="24" width="22" height="321"/>
      <rect class="cls-11" x="335.39" y="24" width="22" height="321"/>
      <polygon class="cls-2" points="32.39 46.55 41.39 46.55 48.89 31.23 64.39 31.23 71.39 46.55 82.39 46.55 90.13 31.23 106.39 31.23 113.39 46.55 123.39 46.55 130.39 31.23 148.39 31.23 155.39 46.55 164.39 46.55 171.39 31.23 189.89 31.23 197.39 46.55 205.39 46.55 212.39 31.23 232.39 31.23 239.39 46.55 246.39 46.55 253.39 31.23 274.39 31.23 281.39 46.55 287.39 46.55 294.39 31.23 316.39 31.23 323.39 46.55 328.39 46.55 335.39 31.23 357.39 31.23 357.39 13 24.39 13 24.39 29.78 32.39 46.55"/>
      <g>
        <rect class="cls-2" x="4.39" y="24" width="20" height="322"/>
        <rect class="cls-2" x="346.39" y="24" width="20" height="322"/>
        <rect class="cls-2" x="175.39" y="-147" width="20" height="322" transform="translate(199.39 -171.39) rotate(90)"/>
        <rect class="cls-2" x="180.39" y="190" width="10" height="322" transform="translate(536.39 165.61) rotate(90)"/>
      </g>
      <rect class="cls-7" x="24.39" y="29.5" width="1" height="313"/>
      <rect class="cls-7" x="29.89" y="23" width="310" height="1"/>
      <rect class="cls-7" x="346.39" y="29.5" width="1" height="311"/>
      <rect class="cls-7" x="24.39" y="345" width="323" height="1"/>
      <rect class="cls-11" x=".39" width="30" height="30"/>
      <rect class="cls-11" x=".39" y="341" width="30" height="30"/>
      <rect class="cls-11" x="340.39" y="341" width="30" height="30"/>
      <rect class="cls-11" x="340.39" width="30" height="30"/>
      <g>
        <circle class="cls-10" cx="15.39" cy="15" r="7"/>
        <circle class="cls-9" cx="15.39" cy="15" r="7"/>
      </g>
      <g>
        <circle class="cls-12" cx="355.39" cy="15" r="7"/>
        <circle class="cls-9" cx="355.39" cy="15" r="7"/>
      </g>
      <g>
        <circle class="cls-6" cx="355.39" cy="356" r="7"/>
        <circle class="cls-9" cx="355.39" cy="356" r="7"/>
      </g>
      <g>
        <circle class="cls-4" cx="14.39" cy="356" r="7"/>
        <circle class="cls-9" cx="14.39" cy="356" r="7"/>
      </g>
    </g>
  </g>
  <rect id="Rectangle_1326" data-name="Rectangle 1326" class="cls-8" x="32.89" y="66.27" width="305" height="243" rx="4" ry="4"/>
  <g>
    <path class="cls-7" d="m65.57,91.34v1.26h-15.81v-1.26h9.11c.72-1.22,1.53-2.95,1.96-4.21l1.46.36c-.61,1.26-1.35,2.72-2.04,3.85h5.31Zm-.45-12.39h-14.96v-1.24h14.96v1.24Zm-1.82,7.74h-11.5v-5.85h11.5v5.85Zm-8.84,4.36c-.22-.94-.81-2.47-1.37-3.62l1.24-.32c.58,1.12,1.19,2.63,1.42,3.55l-1.3.4Zm7.4-8.95h-8.71v3.33h8.71v-3.33Z"/>
    <path class="cls-7" d="m67.63,92.58c1.03-.74,1.98-2.12,2.5-3.46l1.28.36c-.56,1.42-1.5,2.9-2.59,3.78l-1.19-.68Zm2.27-10.33c-.4.32-.79.63-1.22.94-.2-.32-.65-.77-.95-.99,2.41-1.57,4.18-3.75,5.11-5.47l1.5.29c-.18.31-.38.61-.59.94h4.07l.22-.05.92.56c-.4.79-1.01,1.69-1.6,2.43h4.72v7.54h-12.15v-6.18Zm1.28,1.85h4.02v-2.09h-4.02v2.09Zm0,3.19h4.02v-2.12h-4.02v2.12Zm1.76-8.25c-.47.61-.99,1.24-1.57,1.84h4.34c.47-.52.97-1.21,1.33-1.84h-4.11Zm1.46,10.46c.23,1.08.41,2.5.43,3.35l-1.35.16c0-.86-.14-2.3-.36-3.42l1.28-.09Zm6.3-7.49h-4.23v2.09h4.23v-2.09Zm0,3.15h-4.23v2.12h4.23v-2.12Zm-2.79,4.21c.52,1.03,1.08,2.45,1.28,3.31l-1.28.32c-.18-.86-.7-2.3-1.22-3.38l1.22-.25Zm3.49-.4c1.04,1.08,2.23,2.61,2.75,3.66l-1.28.59c-.47-1.03-1.64-2.59-2.68-3.73l1.21-.52Z"/>
    <path class="cls-7" d="m90.91,79.51c-.14.41-.31.85-.5,1.26.67.99,1.66,1.51,2.97,1.76v-3.8h-6.43v-1.13h13.5l.23-.05.94.29c-.41,1.04-.94,2.25-1.42,3.02l-1.13-.32c.27-.47.58-1.13.85-1.8h-5.22v1.44h4.27v.99h-4.27v1.53c.61.05,1.31.07,2.05.07s4.56,0,5.51-.04c-.2.31-.41.86-.49,1.22h-5.02c-3.35,0-5.49-.36-6.84-2.23-.9,1.51-2.11,2.72-3.53,3.58-.11-.31-.41-.97-.65-1.28,1.8-.99,3.26-2.67,3.94-4.83l1.24.31Zm7.04,9.88c1.44.99,3.26,2.36,4.21,3.19l-.86.86c-.41-.38-.97-.85-1.57-1.31-4.83.22-9.96.45-13.32.54l-.11-1.28c1.82-.02,4.34-.07,7.09-.14v-1.86h-5.55v-3.87h5.55v-1.17h1.31v1.17h5.58v3.87h-2.34Zm-4.56-1.04v-1.8h-4.27v1.8h4.27Zm1.31-1.8v1.8h4.25v-1.8h-4.25Zm3.73,4.56c-.49-.34-.99-.72-1.42-1.03l.81-.68h-3.12v1.82l3.73-.11Z"/>
    <path class="cls-7" d="m119.44,91.5c0,.85-.18,1.28-.76,1.49-.61.23-1.67.25-3.17.25-.05-.38-.23-.99-.41-1.35,1.17.05,2.27.04,2.61.04.32-.02.41-.13.41-.43v-10.77h-5.47c-.07.25-.14.47-.22.7,1.64.94,3.71,2.25,4.79,3.13l-.9,1.04c-.97-.83-2.79-2.11-4.39-3.08-.77,1.4-2.02,2.52-4.03,3.29-.16-.32-.54-.77-.83-1.01,2.41-.88,3.58-2.27,4.18-4.09h-4.93v12.48h-1.31v-13.79h6.55c.14-.79.23-1.66.29-2.57h1.4c-.07.92-.16,1.76-.31,2.57h6.5v12.08Zm-3.33-.5c-.88-.88-2.61-2.25-4.11-3.33-.81,1.37-2.09,2.54-4.19,3.33-.14-.32-.5-.77-.81-1.01,3.29-1.1,4.29-3.29,4.74-5.42h1.37c-.14.68-.31,1.33-.56,1.98,1.55,1.04,3.55,2.5,4.54,3.46l-.97.99Z"/>
    <path class="cls-7" d="m125.2,82.71c-.49,1.21-1.42,2.5-2.36,3.19-.18-.27-.54-.67-.79-.86.9-.52,1.82-1.64,2.29-2.65l.86.32Zm3.8,9.65c-.63-.56-1.78-1.42-2.81-2.14-.52,1.06-1.51,2.07-3.4,2.88-.13-.29-.45-.74-.68-.97,2.5-1.06,3.22-2.43,3.4-3.75h-3.17v-1.13h3.24v-1.64h1.17v1.64h1.93c-.27-.43-.74-.97-1.13-1.37l.77-.49c.47.43.99,1.04,1.24,1.46l-.59.4h1.19v1.13h-3.46c-.02.27-.05.52-.13.79,1.1.7,2.47,1.64,3.19,2.27l-.76.92Zm-3.35-10.5h-3.29v-1.12h3.29v-3.89h1.19v3.89h3.13v1.12h-3.13v3.37h-1.19v-3.37Zm-1.87-1.89c-.14-.61-.58-1.51-1.03-2.18l.94-.38c.49.67.94,1.55,1.08,2.12l-.99.43Zm4.07,2.48c.43.31,2,1.6,2.36,1.94l-.76.88c-.43-.54-1.76-1.85-2.3-2.29l.7-.54Zm1.91-4.66c-.43.81-.86,1.66-1.26,2.23l-.9-.32c.34-.61.79-1.6,1.03-2.27l1.13.36Zm4.2,13.05c-.83.92-2.21,1.87-3.38,2.41-.22-.25-.63-.65-.9-.9,1.17-.49,2.48-1.4,3.12-2.18l1.17.67Zm-.9-10.35c.14-.52.29-1.15.41-1.69h-3.24v-1.17h8.34v1.17h-3.67c-.18.58-.38,1.19-.56,1.69h3.55v9.33h-6.95v-9.33h2.12Zm3.55,1.06h-4.45v1.71h4.45v-1.71Zm0,2.72h-4.45v1.73h4.45v-1.73Zm0,2.74h-4.45v1.75h4.45v-1.75Zm-.85,3.21c1.03.65,2.38,1.6,3.08,2.27l-1.04.74c-.63-.65-1.94-1.66-3.01-2.34l.97-.67Z"/>
    <path class="cls-7" d="m142.73,80.69c0-.83.63-1.35,1.35-1.35s1.37.52,1.37,1.35-.65,1.35-1.37,1.35-1.35-.52-1.35-1.35Zm0,8.82c0-.83.63-1.37,1.35-1.37s1.37.54,1.37,1.37-.65,1.35-1.37,1.35-1.35-.54-1.35-1.35Z"/>
    <path class="cls-7" d="m49.85,117.73c.77-1.42,1.87-3.85,2.67-5.96l1.03.7c-.74,1.98-1.69,4.25-2.52,5.94l-1.17-.68Zm2.34-9.85c-.41-1.01-1.39-2.65-2.25-3.82l1.06-.63c.86,1.15,1.87,2.7,2.3,3.73l-1.12.72Zm8.26-4.75c-.11.22-.23.41-.34.63,1.4,1.96,3.83,4,5.94,5.02-.32.23-.76.72-.99,1.04-1.89-1.08-4.07-3.04-5.6-5.02-1.33,1.96-3.13,3.76-5.28,5.11-.2-.23-.65-.67-.95-.87,2.61-1.6,4.84-4,5.98-6.3l1.24.38Zm4.03,8.53c-1.04,1.76-2.93,3.92-4.3,5.28.59.56,1.12,1.13,1.51,1.58l-1.06.77c-.86-1.12-2.7-2.93-4.14-4.18l.97-.67c.56.47,1.19,1.03,1.82,1.62,1.03-.95,2.39-2.47,3.31-3.73h-7.35v-1.17h8.14l.22-.07.88.56Zm-1.8-3.46v1.17h-6.09v-1.17h6.09Z"/>
    <path class="cls-7" d="m83.17,109.59c-.43,2.18-1.12,4.1-2,5.74.49,1.82,1.06,2.72,1.58,2.72.32-.02.5-.49.59-2.23.25.22.63.49.94.58-.2,2.39-.61,2.84-1.62,2.84-.92,0-1.69-.9-2.27-2.61-.72.99-1.51,1.89-2.41,2.63-.22-.23-.72-.63-1.01-.83.52-.4,1.01-.83,1.46-1.3h-5.26v-7.74h5.33v.92h-1.87v1.24h1.87v3.37h-1.87v1.28h2.02v.7c.49-.54.92-1.15,1.3-1.82-.38-1.76-.67-4.05-.83-6.82h-6.86v3.78c0,2.21-.18,5.2-1.3,7.22-.22-.18-.74-.49-1.01-.59.74-1.35,1.01-3.08,1.1-4.68h-1.26v.83c0,1.26-.2,3.13-1.31,4.41-.18-.18-.58-.45-.81-.58.95-1.15,1.12-2.77,1.12-3.87v-.79h-.99v-1.13h3.31v-1.48h-2.52v-4.18h1.04v3.08h1.48v-3.17h7.96l-.02-.74h-.45v-1.19h-2.27v-1.15h2.27v-1.26h1.31v1.26h4.02v1.15h-4.02v.76h.32c0,.41.02.79.02,1.17h2.05c-.4-.38-.95-.83-1.49-1.13l.81-.61c.63.34,1.4.92,1.76,1.37l-.49.38h1.17v1.15h-3.78c.09,2.05.27,3.75.5,5.15.5-1.22.9-2.56,1.17-4.01l1.21.2Zm-11.24-4.41h-3.8v-1.15h3.8v-1.26h1.31v1.26h2.2v1.15h-2.2v1.28h-1.31v-1.28Zm2.25,5.13v1.24h1.48v-1.24h-1.48Zm3.33,2.14h-3.33v1.58h3.33v-1.58Zm-3.33,3.75h1.48v-1.28h-1.48v1.28Z"/>
    <path class="cls-7" d="m87.21,109.61l1.17-1.03c1.28,1.04,2.92,2.67,4.03,4l-1.22,1.03c-1.17-1.42-2.7-2.95-3.98-4Z"/>
    <path class="cls-7" d="m95.78,117.73c.77-1.42,1.87-3.85,2.67-5.96l1.03.7c-.74,1.98-1.69,4.25-2.52,5.94l-1.17-.68Zm2.34-9.85c-.41-1.01-1.39-2.65-2.25-3.82l1.06-.63c.86,1.15,1.87,2.7,2.3,3.73l-1.12.72Zm8.26-4.75c-.11.22-.23.41-.34.63,1.4,1.96,3.83,4,5.94,5.02-.32.23-.76.72-.99,1.04-1.89-1.08-4.07-3.04-5.6-5.02-1.33,1.96-3.13,3.76-5.28,5.11-.2-.23-.65-.67-.95-.87,2.61-1.6,4.84-4,5.98-6.3l1.24.38Zm4.03,8.53c-1.04,1.76-2.93,3.92-4.3,5.28.59.56,1.12,1.13,1.51,1.58l-1.06.77c-.86-1.12-2.7-2.93-4.14-4.18l.97-.67c.56.47,1.19,1.03,1.82,1.62,1.03-.95,2.39-2.47,3.31-3.73h-7.35v-1.17h8.14l.22-.07.88.56Zm-1.8-3.46v1.17h-6.09v-1.17h6.09Z"/>
    <path class="cls-7" d="m117.82,111.65c-.88,1.82-2.03,3.96-3.01,5.56l-1.15-.86c.9-1.35,2.2-3.6,3.15-5.56l1.01.87Zm-1.17-3.94c-.52-.83-1.75-2.04-2.79-2.86l.92-.86c1.04.81,2.29,1.94,2.84,2.77l-.97.96Zm8.82,5.82c1.17,1.67,3.06,3.28,4.79,4.09-.31.27-.74.74-.94,1.1-1.67-.95-3.49-2.68-4.72-4.54v5.02h-1.31v-5.13c-1.37,1.98-3.44,3.75-5.46,4.68-.22-.32-.61-.79-.9-1.06,1.96-.81,4.03-2.41,5.31-4.16h-3.28v-6.27h4.32v-1.51h-5.26v-1.21h5.26v-1.76h1.31v1.76h5.28v1.21h-5.28v1.51h4.46v6.27h-3.6Zm-5.28-3.64h3.1v-1.6h-3.1v1.6Zm0,2.59h3.1v-1.6h-3.1v1.6Zm4.41-4.2v1.6h3.21v-1.6h-3.21Zm3.21,2.59h-3.21v1.6h3.21v-1.6Z"/>
    <path class="cls-7" d="m133.14,109.61l1.17-1.03c1.28,1.04,2.92,2.67,4.03,4l-1.22,1.03c-1.17-1.42-2.7-2.95-3.98-4Z"/>
    <path class="cls-7" d="m147.42,106.93h-6.09v-1.12h6.09v1.12Zm-5.4,3.6h4.86v1.06h-4.86v-1.06Zm4.88,7.62h-3.76v.81h-1.12v-6.03h4.88v5.22Zm-.02-8.89h-4.84v-1.06h4.84v1.06Zm-3.75,4.79v2.99h2.67v-2.99h-2.67Zm1.39-8.37c-.25-.63-.83-1.66-1.28-2.41l.99-.45c.49.74,1.06,1.71,1.33,2.34l-1.04.52Zm12.71,11.88c0,.7-.16,1.08-.61,1.28s-1.21.22-2.43.22c-.05-.31-.23-.83-.4-1.15.92.04,1.73.04,1.98.02.23-.02.32-.09.32-.36v-6.82h-6.55c-.02,2.67-.27,6.18-1.64,8.52-.2-.2-.7-.56-.94-.67,1.33-2.36,1.46-5.73,1.46-8.28v-6.72h8.8v13.97Zm-7.69-12.77v1.93h2.7v-1.93h-2.7Zm0,4.84h2.7v-1.82h-2.7v1.82Zm1.78,6.5v.83h-.99v-5.04h4.81v4.21h-3.82Zm0-3.2v2.2h2.77v-2.2h-2.77Zm4.77-8.14h-2.72v1.93h2.72v-1.93Zm0,4.84v-1.82h-2.72v1.82h2.72Z"/>
    <path class="cls-7" d="m174.93,114.49c-.96.67-2.2,1.35-3.26,1.85,1.17.76,2.65,1.28,4.38,1.57-.25.25-.59.74-.74,1.08-3.58-.72-6.05-2.47-7.44-5.26-.86.67-1.94,1.28-3.15,1.82v2.05l4.12-.88c-.04.32-.05.79-.04,1.03-4.74,1.12-5.29,1.26-5.64,1.49v-.09c-.09-.31-.31-.72-.47-.92.29-.18.76-.56.76-1.37v-.81c-1.04.38-2.11.68-3.12.9-.14-.29-.49-.74-.74-.99,2.27-.41,4.83-1.26,6.57-2.32h-6.27v-1.12h7.6c-.16-.36-.38-.77-.56-1.1l1.24-.36c.29.45.56,1.01.76,1.46h6.86v1.12h-6.72c.43.77.97,1.44,1.67,2.04,1.08-.54,2.39-1.3,3.19-1.87l.97.68Zm-11.04-7.42h-4.05v-.97h4.05v-1.1h-2.14c-.22.4-.45.77-.68,1.08-.22-.16-.7-.4-.95-.52.61-.72,1.12-1.73,1.42-2.72l1.06.25c-.11.32-.25.65-.4.97h1.69v-1.3h1.17v1.3h3.17v.94h-3.17v1.1h3.8v.97h-3.8v.96h3.35v2.2c0,.5-.09.74-.49.9-.34.16-.9.16-1.69.16-.05-.29-.23-.61-.36-.86.59.02,1.04.02,1.21,0,.16,0,.2-.05.2-.2v-1.3h-2.21v2.92h-1.17v-2.92h-2.05v2.45h-1.08v-3.35h3.13v-.96Zm7.56,2.49h-1.21v-5.87h1.21v5.87Zm3.4.81c0,.7-.16.99-.65,1.19-.52.2-1.33.2-2.59.2-.05-.34-.25-.77-.43-1.1.99.04,1.85.02,2.11,0,.27,0,.34-.07.34-.31v-7.4h1.22v7.42Z"/>
    <path class="cls-7" d="m182.96,103c-.31.88-.63,1.87-.94,2.65h2.99v11.69h-5.01v1.42h-1.22v-13.11h2.02c.27-.86.59-2.07.72-2.92l1.44.27Zm.83,3.85h-3.78v3.76h3.78v-3.76Zm0,9.27v-4.32h-3.78v4.32h3.78Zm10.03-9.85c-.29,8.21-.52,10.98-1.24,11.87-.4.5-.81.67-1.42.72-.63.07-1.66.04-2.67-.02-.04-.4-.2-.94-.45-1.31,1.17.11,2.25.11,2.67.11.36,0,.56-.04.74-.27.59-.63.86-3.37,1.1-10.53h-4.57c-.5,1.21-1.06,2.3-1.69,3.15-.23-.22-.81-.58-1.1-.76,1.21-1.58,2.18-4.07,2.75-6.54l1.28.31c-.22.88-.47,1.75-.77,2.59h5.38v.68Zm-3.98,8.12c-.54-1.08-1.75-2.86-2.74-4.16l1.04-.61c1.01,1.28,2.25,3.01,2.83,4.07l-1.13.7Z"/>
    <path class="cls-7" d="m204.02,105.69c-.97.65-1.96,1.22-2.92,1.71l4.34-.23c.58-.31,1.12-.65,1.64-1.01l1.21.68c-2.39,1.48-4.79,2.61-7.08,3.51l7.72-.38c-.52-.49-1.08-.99-1.6-1.39l1.03-.56c1.26.95,2.74,2.34,3.46,3.24l-1.04.67c-.23-.31-.54-.67-.9-1.03-10.46.58-11.42.59-12.05.85-.05-.25-.22-.85-.34-1.19.54-.04,1.28-.29,2.27-.67.63-.23,2.11-.86,3.75-1.69-3.98.25-4.54.34-4.86.47-.05-.25-.25-.88-.38-1.19.36-.04.76-.18,1.26-.41.42-.18,1.46-.7,2.52-1.39h-5.46v-1.21h7.58c-.18-.49-.5-1.08-.81-1.53l1.33-.31c.38.54.79,1.31.97,1.84h6.64v1.21h-8.28Zm-5.67,6.68h12.26v6.79h-1.42v-.58h-9.49v.63h-1.35v-6.84Zm1.35,1.06v1.53h4.05v-1.53h-4.05Zm4.05,4.09v-1.6h-4.05v1.6h4.05Zm5.44-4.09h-4.1v1.53h4.1v-1.53Zm0,4.09v-1.6h-4.1v1.6h4.1Z"/>
    <path class="cls-7" d="m224.06,103.31c-.11.09-.2.2-.32.31,1.78,1.19,4.81,2.3,7.15,2.86-.22.31-.43.83-.52,1.15-2.45-.74-5.53-2.02-7.45-3.35-1.94,1.44-4.61,2.54-7.36,3.38-.16-.27-.52-.74-.77-.97,3.28-.92,6.43-2.34,8.05-3.94l1.24.56Zm5.37,14.46c0,.67-.14.99-.65,1.19-.49.18-1.3.2-2.57.2-.07-.34-.29-.79-.45-1.1l.4.02c-.2-.34-.45-.72-.76-1.13-2.3.29-4.74.58-6.48.77l-.29-1.06,1.37-.13c.31-.58.61-1.28.92-1.98h-3.51v4.65h-1.3v-4.65h-.88v-1.1h.88v-.72h1.3v.72h4c.14-.38.29-.72.43-1.06h-4.47v-4.23h1.21v3.24h8.39v-3.24h1.26v4.23h-5.11l-.45,1.06h6.77v4.32Zm-10.86-10.88h3.69c-.2-.41-.43-.86-.65-1.22l1.21-.34c.32.47.65,1.08.83,1.57h3.4v.97h-8.48v-.97Zm6.84,4.36c-.63-.36-1.5-.77-2.45-1.17-1.04.49-2.16.9-3.17,1.21-.16-.16-.52-.54-.74-.7.92-.25,1.89-.56,2.81-.94-.77-.25-1.57-.5-2.3-.68l.74-.67c.86.22,1.8.5,2.7.85.77-.38,1.44-.79,1.94-1.24l.92.34c-.5.45-1.13.9-1.85,1.28.83.34,1.58.7,2.12.99l-.72.74Zm-3.21,3.29c-.29.65-.58,1.3-.83,1.84,1.03-.11,2.2-.23,3.35-.36-.29-.36-.58-.74-.85-1.04l.96-.43h-2.63Zm4.09,3.53c.72.02,1.3.02,1.49-.02.25-.02.32-.07.32-.27v-3.24h-3.24c.83.95,1.84,2.25,2.36,3.06l-.94.47Z"/>
    <path class="cls-7" d="m248.31,117.5c0,.85-.18,1.28-.76,1.49-.61.23-1.67.25-3.17.25-.05-.38-.23-.99-.41-1.35,1.17.05,2.27.04,2.61.04.32-.02.41-.13.41-.43v-10.77h-5.47c-.07.25-.14.47-.22.7,1.64.94,3.71,2.25,4.79,3.13l-.9,1.04c-.97-.83-2.79-2.11-4.39-3.08-.77,1.4-2.02,2.52-4.03,3.29-.16-.32-.54-.77-.83-1.01,2.41-.88,3.58-2.27,4.18-4.09h-4.93v12.48h-1.31v-13.79h6.55c.14-.79.23-1.66.29-2.57h1.4c-.07.92-.16,1.76-.31,2.57h6.5v12.08Zm-3.33-.5c-.88-.88-2.61-2.25-4.1-3.33-.81,1.37-2.09,2.54-4.2,3.33-.14-.32-.5-.77-.81-1.01,3.29-1.1,4.29-3.29,4.74-5.42h1.37c-.14.68-.31,1.33-.56,1.98,1.55,1.04,3.55,2.5,4.54,3.46l-.97.99Z"/>
    <path class="cls-7" d="m252.31,109.61l1.17-1.03c1.28,1.04,2.92,2.67,4.03,4l-1.22,1.03c-1.17-1.42-2.7-2.95-3.98-4Z"/>
    <path class="cls-7" d="m275.79,117.46c0,.85-.18,1.28-.77,1.51-.61.22-1.64.22-3.17.22-.05-.38-.25-.99-.45-1.35,1.17.04,2.29.04,2.65.02.32-.02.4-.11.4-.4v-9.38h-4.59c.68,2.75,2.04,4.74,4.39,5.74-.29.29-.72.81-.94,1.17-2.36-1.17-3.75-3.19-4.52-5.89-.76,2.75-2.23,4.75-4.63,5.98-.2-.31-.61-.81-.9-1.06,2.41-1.17,3.89-3.11,4.5-5.94h-4.68v11.13h-1.33v-12.44h6.55c-.09-.63-.16-1.3-.2-2h-3.24v-1.19h4.38c.05,1.13.16,2.2.32,3.19h6.23v10.7Z"/>
    <path class="cls-7" d="m283.44,117.84c0,.61-.13.94-.5,1.13-.36.18-.95.22-1.91.22-.04-.29-.2-.77-.34-1.06.68.02,1.3.02,1.48,0,.2,0,.27-.07.27-.29v-5.22c-.47.43-.94.85-1.39,1.26l-.43-.81c-.11,2.11-.4,4.39-1.04,6.14-.2-.16-.65-.43-.92-.52.95-2.56,1.03-6.19,1.03-8.79v-6.46h3.76v14.4Zm-2.74-7.96c0,.85-.02,1.82-.07,2.83.5-.34,1.13-.79,1.8-1.3v-2.27l-.59.41c-.25-.45-.7-1.08-1.13-1.64v1.96Zm0-5.22v2.75l.49-.31c.45.49.92,1.06,1.24,1.55v-4h-1.73Zm14.28,5.87c-.4,1.91-.99,3.62-1.75,5.1.25,1.44.59,2.3.99,2.32.22,0,.4-.7.49-1.93.2.23.58.5.77.59-.29,2.04-.76,2.63-1.26,2.61-.77-.02-1.33-.88-1.75-2.34-.54.83-1.15,1.58-1.84,2.18-.14-.18-.47-.47-.72-.61.43-.4.83-.83,1.21-1.31h-3.47v-7.2h3.69v.88h-1.19v1.17h1.17v3.1h-1.17v1.17h1.19v.59c.31-.4.59-.86.85-1.33-.32-1.8-.5-4.12-.61-6.72h-4.52v3.57c0,2.07-.14,4.97-1.06,6.9-.22-.16-.68-.4-.95-.5.65-1.33.88-3.02.95-4.59h-.77c-.09,1.6-.29,3.06-.83,4.07-.18-.11-.56-.32-.79-.43.52-.94.67-2.23.74-3.64h-.54v-.97h2.23v-1.4h-1.82v-4h.87v3.01h.95v-3.1h5.51l-.04-.99h1.08l.02.99h2.67v1.1h-2.63c.05,1.89.18,3.62.34,5.04.45-1.12.81-2.39,1.06-3.75l.94.43Zm-8.35-5.24h-2.56v-1.15h2.56v-1.33h1.21v1.33h1.42v1.15h-1.42v1.48h-1.21v-1.48Zm1.85,5.53v1.17h.9v-1.17h-.9Zm1.98,2.05h-1.98v1.33h1.98v-1.33Zm-1.98,3.39h.9v-1.17h-.9v1.17Zm3.06-10.97h-1.58v-1.15h1.58v-1.33h1.21v1.33h2.45v1.15h-2.45v1.24h-1.21v-1.24Zm2.12.56c.58.34,1.3.9,1.66,1.28l-.76.58c-.36-.41-1.04-.96-1.64-1.35l.74-.5Z"/>
    <path class="cls-7" d="m299.87,105.24c-.54.83-1.15,1.58-1.78,2.14-.18-.22-.65-.67-.95-.88,1.13-.94,2.16-2.38,2.77-3.83l1.19.32c-.16.36-.32.72-.5,1.08h4.63v1.17h-3.37c.61.52,1.35,1.19,1.73,1.64l-.88.77c-.4-.52-1.21-1.33-1.87-1.89l.65-.52h-1.6Zm9.76,8.41h3.58v1.13h-3.58v3.04c0,.77-.2,1.08-.79,1.24-.61.18-1.64.18-3.21.18-.04-.36-.2-.77-.36-1.13,1.21.05,2.3.05,2.61.04.31-.04.4-.11.4-.36v-3.01h-10.86v-1.13h10.86v-1.26h1.35v1.26Zm3.91-9.56v1.17h-3.96c.59.54,1.31,1.28,1.67,1.76l-.92.77c-.34-.52-1.08-1.35-1.71-1.94l.79-.59h-1.76c-.47.85-.99,1.57-1.51,2.16l-.16-.14v.85h6.59v1.17h-6.59v1.6h5.58v1.08h-12.57v-1.08h5.64v-1.6h-6.54v-1.17h6.54v-1.12h1.01c-.18-.14-.38-.29-.52-.38.99-.97,1.78-2.43,2.23-3.96l1.24.29c-.11.4-.25.76-.41,1.13h5.37Zm-12.19,10.86c1.03.79,2.38,1.93,3.06,2.66l-.99.79c-.65-.72-1.98-1.93-3.02-2.75l.95-.7Z"/>
    <path class="cls-7" d="m317.27,118.74c1.46-.67,2.23-1.62,2.29-3.03-.11.04-.22.04-.32.04-.74,0-1.35-.43-1.35-1.3s.65-1.3,1.37-1.3c.99,0,1.55.85,1.55,2.2,0,2.09-1.19,3.6-3.12,4.34l-.41-.95Zm.52-12.05c0-.83.63-1.35,1.35-1.35s1.37.52,1.37,1.35-.65,1.35-1.37,1.35-1.35-.52-1.35-1.35Z"/>
    <path class="cls-7" d="m65.69,143.35v1.3h-15.95v-1.3h7.29v-4.57h-5.35v-1.3h5.35v-3.93h-4.23c-.58,1.13-1.21,2.12-1.87,2.94-.27-.22-.86-.61-1.22-.79,1.48-1.58,2.63-4.07,3.33-6.63l1.35.29c-.29.99-.61,1.96-1.01,2.88h3.66v-3.46h1.37v3.46h6.45v1.31h-6.45v3.93h5.78v1.3h-5.78v4.57h7.29Z"/>
    <path class="cls-7" d="m69.27,135.12c-.22-.27-.65-.63-.94-.77,1.39-1.67,2.27-3.89,2.68-5.58l1.24.16c-.13.47-.27.95-.45,1.46h2.25l.23-.07.79.52c-.36.81-.83,1.69-1.3,2.45h2.34v6.93h-6.63v-5.38l-.23.29Zm-.94,9.56c.81-.81,1.17-2.27,1.33-3.67l.97.25c-.18,1.5-.5,3.04-1.42,3.96l-.88-.54Zm3.08-13.23c-.27.61-.56,1.24-.9,1.84h2.02c.34-.52.68-1.21.96-1.84h-2.07Zm.85,4.75v-1.8h-1.64v1.8h1.64Zm-1.64,1.04v1.85h1.64v-1.85h-1.64Zm1.6,3.78c.22,1.06.31,2.41.27,3.31l-.97.13c.05-.88-.04-2.25-.22-3.33l.92-.11Zm1.64-.05c.41.97.74,2.29.85,3.13l-.94.22c-.07-.86-.4-2.16-.79-3.15l.88-.2Zm1.1-6.57h-1.69v1.8h1.69v-1.8Zm0,2.84h-1.69v1.85h1.69v-1.85Zm.63,3.42c.61,1.03,1.22,2.39,1.46,3.26l-.9.36c-.23-.9-.85-2.27-1.4-3.29l.85-.32Zm9.29-.05h-3.76v4.57h-1.3v-4.57h-3.42v-1.17h3.42v-2.48h-2.85v-1.19h2.85v-2.32h-3.22v-1.19h1.73c-.22-.86-.72-2.12-1.22-3.08l1.08-.38c.58.99,1.12,2.29,1.33,3.15l-.79.31h3.38l-.85-.27c.47-.86,1.08-2.25,1.35-3.22l1.35.36c-.5,1.06-1.08,2.32-1.58,3.13h2.09v1.19h-3.35v2.32h3.03v1.19h-3.03v2.48h3.76v1.17Z"/>
    <path class="cls-7" d="m88.45,135.61l1.17-1.03c1.28,1.04,2.92,2.67,4.03,4l-1.22,1.03c-1.17-1.42-2.7-2.95-3.98-4Z"/>
    <path class="cls-7" d="m97.64,143.73c.77-1.42,1.87-3.85,2.67-5.96l1.03.7c-.74,1.98-1.69,4.25-2.52,5.94l-1.17-.68Zm2.34-9.85c-.41-1.01-1.39-2.65-2.25-3.82l1.06-.63c.86,1.15,1.87,2.7,2.3,3.73l-1.12.72Zm8.26-4.75c-.11.22-.23.41-.34.63,1.4,1.96,3.83,4,5.94,5.02-.32.23-.76.72-.99,1.04-1.89-1.08-4.07-3.04-5.6-5.02-1.33,1.96-3.13,3.76-5.28,5.11-.2-.23-.65-.67-.95-.87,2.61-1.6,4.84-4,5.98-6.3l1.24.38Zm4.03,8.53c-1.04,1.76-2.93,3.92-4.3,5.28.59.56,1.12,1.13,1.51,1.58l-1.06.77c-.86-1.12-2.7-2.93-4.14-4.18l.97-.67c.56.47,1.19,1.03,1.82,1.62,1.03-.95,2.39-2.47,3.31-3.73h-7.35v-1.17h8.14l.22-.07.88.56Zm-1.8-3.46v1.17h-6.09v-1.17h6.09Z"/>
    <path class="cls-7" d="m131.59,135.59c-.43,2.18-1.12,4.1-2,5.74.49,1.82,1.06,2.72,1.58,2.72.32-.02.5-.49.59-2.23.25.22.63.49.94.58-.2,2.39-.61,2.84-1.62,2.84-.92,0-1.69-.9-2.27-2.61-.72.99-1.51,1.89-2.41,2.63-.22-.23-.72-.63-1.01-.83.52-.4,1.01-.83,1.46-1.3h-5.26v-7.74h5.33v.92h-1.87v1.24h1.87v3.37h-1.87v1.28h2.02v.7c.49-.54.92-1.15,1.3-1.82-.38-1.76-.67-4.05-.83-6.82h-6.86v3.78c0,2.21-.18,5.2-1.3,7.22-.22-.18-.74-.49-1.01-.59.74-1.35,1.01-3.08,1.1-4.68h-1.26v.83c0,1.26-.2,3.13-1.31,4.41-.18-.18-.58-.45-.81-.58.95-1.15,1.12-2.77,1.12-3.87v-.79h-.99v-1.13h3.31v-1.48h-2.52v-4.18h1.04v3.08h1.48v-3.17h7.96l-.02-.74h-.45v-1.19h-2.27v-1.15h2.27v-1.26h1.31v1.26h4.02v1.15h-4.02v.76h.32c0,.41.02.79.02,1.17h2.05c-.4-.38-.95-.83-1.49-1.13l.81-.61c.63.34,1.4.92,1.76,1.37l-.49.38h1.17v1.15h-3.78c.09,2.05.27,3.75.5,5.15.5-1.22.9-2.56,1.17-4.01l1.21.2Zm-11.24-4.41h-3.8v-1.15h3.8v-1.26h1.31v1.26h2.2v1.15h-2.2v1.28h-1.31v-1.28Zm2.25,5.13v1.24h1.48v-1.24h-1.48Zm3.33,2.14h-3.33v1.58h3.33v-1.58Zm-3.33,3.75h1.48v-1.28h-1.48v1.28Z"/>
    <path class="cls-7" d="m136.24,135.61l1.17-1.03c1.28,1.04,2.92,2.67,4.03,4l-1.22,1.03c-1.17-1.42-2.7-2.95-3.98-4Z"/>
    <path class="cls-7" d="m151.14,132.93h-6.09v-1.12h6.09v1.12Zm-5.4,3.6h4.86v1.06h-4.86v-1.06Zm4.88,7.62h-3.76v.81h-1.12v-6.03h4.88v5.22Zm-.02-8.89h-4.84v-1.06h4.84v1.06Zm-3.75,4.79v2.99h2.67v-2.99h-2.67Zm1.39-8.37c-.25-.63-.83-1.66-1.28-2.41l.99-.45c.49.74,1.06,1.71,1.33,2.34l-1.04.52Zm12.71,11.88c0,.7-.16,1.08-.61,1.28s-1.21.22-2.43.22c-.05-.31-.23-.83-.4-1.15.92.04,1.73.04,1.98.02.23-.02.32-.09.32-.36v-6.82h-6.55c-.02,2.67-.27,6.18-1.64,8.52-.2-.2-.7-.56-.94-.67,1.33-2.36,1.46-5.73,1.46-8.28v-6.72h8.8v13.97Zm-7.69-12.77v1.93h2.7v-1.93h-2.7Zm0,4.84h2.7v-1.82h-2.7v1.82Zm1.78,6.5v.83h-.99v-5.04h4.81v4.21h-3.82Zm0-3.2v2.2h2.77v-2.2h-2.77Zm4.77-8.14h-2.72v1.93h2.72v-1.93Zm0,4.84v-1.82h-2.72v1.82h2.72Z"/>
    <path class="cls-7" d="m179.27,140.49c-.95.67-2.2,1.35-3.26,1.85,1.17.76,2.65,1.28,4.38,1.57-.25.25-.59.74-.74,1.08-3.58-.72-6.05-2.47-7.44-5.26-.86.67-1.94,1.28-3.15,1.82v2.05l4.12-.88c-.04.32-.05.79-.04,1.03-4.74,1.12-5.29,1.26-5.64,1.49v-.09c-.09-.31-.31-.72-.47-.92.29-.18.76-.56.76-1.37v-.81c-1.04.38-2.11.68-3.12.9-.14-.29-.49-.74-.74-.99,2.27-.41,4.83-1.26,6.57-2.32h-6.27v-1.12h7.6c-.16-.36-.38-.77-.56-1.1l1.24-.36c.29.45.56,1.01.76,1.46h6.86v1.12h-6.72c.43.77.97,1.44,1.67,2.04,1.08-.54,2.39-1.3,3.19-1.87l.97.68Zm-11.04-7.42h-4.05v-.97h4.05v-1.1h-2.14c-.22.4-.45.77-.68,1.08-.22-.16-.7-.4-.95-.52.61-.72,1.12-1.73,1.42-2.72l1.06.25c-.11.32-.25.65-.4.97h1.69v-1.3h1.17v1.3h3.17v.94h-3.17v1.1h3.8v.97h-3.8v.96h3.35v2.2c0,.5-.09.74-.49.9-.34.16-.9.16-1.69.16-.05-.29-.23-.61-.36-.86.59.02,1.04.02,1.21,0,.16,0,.2-.05.2-.2v-1.3h-2.21v2.92h-1.17v-2.92h-2.05v2.45h-1.08v-3.35h3.13v-.96Zm7.56,2.49h-1.21v-5.87h1.21v5.87Zm3.4.81c0,.7-.16.99-.65,1.19-.52.2-1.33.2-2.59.2-.05-.34-.25-.77-.43-1.1.99.04,1.85.02,2.11,0,.27,0,.34-.07.34-.31v-7.4h1.22v7.42Z"/>
    <path class="cls-7" d="m187.92,129c-.31.88-.63,1.87-.94,2.65h2.99v11.69h-5.01v1.42h-1.22v-13.11h2.02c.27-.86.59-2.07.72-2.92l1.44.27Zm.83,3.85h-3.78v3.76h3.78v-3.76Zm0,9.27v-4.32h-3.78v4.32h3.78Zm10.03-9.85c-.29,8.21-.52,10.98-1.24,11.87-.4.5-.81.67-1.42.72-.63.07-1.66.04-2.67-.02-.04-.4-.2-.94-.45-1.31,1.17.11,2.25.11,2.67.11.36,0,.56-.04.74-.27.59-.63.86-3.37,1.1-10.53h-4.57c-.5,1.21-1.06,2.3-1.69,3.15-.23-.22-.81-.58-1.1-.76,1.21-1.58,2.18-4.07,2.75-6.54l1.28.31c-.22.88-.47,1.75-.77,2.59h5.38v.68Zm-3.98,8.12c-.54-1.08-1.75-2.86-2.74-4.16l1.04-.61c1.01,1.28,2.25,3.01,2.83,4.07l-1.13.7Z"/>
    <path class="cls-7" d="m201.65,144.74c.56-.95.99-2.54,1.21-3.67l.94.32c-.27,1.15-.65,2.77-1.17,3.75l-.97-.4Zm.88-9.67c-.2-.23-.58-.56-.85-.7,1.28-1.67,2.07-3.89,2.47-5.58l1.12.16c-.11.43-.25.9-.4,1.35h1.94l.22-.05.74.49c-.34.86-.79,1.82-1.24,2.59h1.94v6.91h-5.76v-5.4l-.18.23Zm1.96-3.69c-.23.65-.52,1.31-.86,1.94h1.76c.31-.54.63-1.28.9-1.94h-1.8Zm.58,4.88v-1.84h-1.42v1.84h1.42Zm-1.42,1.04v1.85h1.42v-1.85h-1.42Zm1.57,3.96c.11,1.12.18,2.5.16,3.46l-.94.11c.04-.95-.02-2.36-.11-3.46l.88-.11Zm1.44-.16c.31,1.01.63,2.3.76,3.13l-.88.22c-.11-.85-.4-2.16-.7-3.17l.83-.18Zm.86-6.68h-1.49v1.84h1.49v-1.84Zm0,2.88h-1.49v1.85h1.49v-1.85Zm.68,3.49c.41.81.85,1.89,1.04,2.58l-.86.31c-.18-.7-.61-1.78-1.01-2.63l.83-.25Zm9.04,3.03c0,.65-.13.97-.61,1.17-.45.2-1.19.2-2.32.2-.05-.34-.22-.79-.4-1.12.83.04,1.57.04,1.78.02.23,0,.29-.07.29-.27v-1.53h-4.65c-.2,1.13-.58,2.27-1.31,3.15-.18-.25-.67-.74-.92-.88,1.06-1.35,1.19-3.17,1.19-4.59v-3.31h6.95v7.17Zm.99-9.25v1.03h-9v-1.03h3.91v-1.22h-3.26v-.97h3.26v-1.1h-3.71v-1.03h3.71v-1.46h1.28v1.46h3.67v1.03h-3.67v1.1h3.31v.97h-3.31v1.22h3.82Zm-2.25,6.77v-1.33h-4.47c0,.41-.02.86-.05,1.33h4.52Zm-4.47-3.62v1.33h4.47v-1.33h-4.47Z"/>
    <path class="cls-7" d="m220.76,144.58c1.03-.74,1.98-2.12,2.5-3.46l1.28.36c-.56,1.42-1.5,2.9-2.59,3.78l-1.19-.68Zm2.27-10.33c-.4.32-.79.63-1.22.94-.2-.32-.65-.77-.95-.99,2.41-1.57,4.18-3.75,5.11-5.47l1.5.29c-.18.31-.38.61-.59.94h4.07l.22-.05.92.56c-.4.79-1.01,1.69-1.6,2.43h4.72v7.54h-12.15v-6.18Zm1.28,1.85h4.02v-2.09h-4.02v2.09Zm0,3.19h4.02v-2.12h-4.02v2.12Zm1.76-8.25c-.47.61-.99,1.24-1.57,1.84h4.34c.47-.52.97-1.21,1.33-1.84h-4.11Zm1.46,10.46c.23,1.08.41,2.5.43,3.35l-1.35.16c0-.86-.14-2.3-.36-3.42l1.28-.09Zm6.3-7.49h-4.23v2.09h4.23v-2.09Zm0,3.15h-4.23v2.12h4.23v-2.12Zm-2.79,4.21c.52,1.03,1.08,2.45,1.28,3.31l-1.28.32c-.18-.86-.7-2.3-1.22-3.38l1.22-.25Zm3.49-.4c1.04,1.08,2.23,2.61,2.75,3.66l-1.28.59c-.47-1.03-1.64-2.59-2.68-3.73l1.21-.52Z"/>
    <path class="cls-7" d="m240.82,135.61l1.17-1.03c1.28,1.04,2.92,2.67,4.03,4l-1.22,1.03c-1.17-1.42-2.7-2.95-3.98-4Z"/>
    <path class="cls-7" d="m264.69,136.31c-.13-.27-.31-.56-.54-.9-2.2.16-3.28.25-3.83.32,1.71,1.19,3.89,2.2,5.98,2.74-.29.23-.65.72-.85,1.04-2.81-.85-5.8-2.5-7.71-4.5-1.8,2.16-4.45,3.65-7.33,4.64-.14-.27-.52-.81-.77-1.04,2.07-.61,3.98-1.51,5.51-2.7-.04-.13-.09-.23-.14-.36-3.29.2-3.85.27-4.14.4-.07-.27-.27-.85-.43-1.13.23-.05.49-.2.72-.43.27-.23,1.1-1.12,1.62-2.03l1.21.52c-.47.65-1.04,1.28-1.6,1.82l2.09-.09c-.18-.27-.36-.5-.54-.74l.97-.34c.4.5.81,1.13,1.1,1.64.59-.58,1.1-1.22,1.51-1.96l1.22.38c-.09.16-.2.34-.31.5.27.29.54.58.88.86l-.09-.2c.2-.05.4-.18.58-.4.22-.2.86-1.04,1.22-1.87l1.21.5c-.34.56-.77,1.13-1.21,1.62l2.45-.14c-.23-.31-.5-.59-.76-.86l.94-.43c.81.81,1.67,1.89,2.05,2.66l-1.01.49Zm-1.93-3.64c-.25-.27-.56-.58-.92-.9-8.12.38-8.97.38-9.53.56-.05-.23-.25-.85-.4-1.15.32-.04.7-.18,1.12-.41.49-.23,1.98-1.12,3.08-2.07l1.19.59c-.86.65-1.8,1.26-2.72,1.76l6.12-.22c-.52-.41-1.08-.83-1.6-1.17l.97-.52c1.31.83,2.92,2.07,3.73,2.95l-1.04.58Zm.74,8.23c-2.2,2.34-6.32,3.69-10.82,4.32-.14-.32-.4-.79-.65-1.1,4.36-.5,8.37-1.71,10.37-3.76l1.1.54Zm-4.18-3.6c-1.48,1.19-3.87,2.21-5.83,2.83-.2-.25-.5-.61-.79-.83,1.93-.54,4.34-1.48,5.64-2.49l.99.49Zm2,1.76c-1.85,1.55-4.95,2.75-7.78,3.42-.16-.29-.45-.68-.72-.97,2.74-.54,5.82-1.62,7.47-2.97l1.03.52Z"/>
    <path class="cls-7" d="m268.55,144.58c1.03-.74,1.98-2.12,2.5-3.46l1.28.36c-.56,1.42-1.5,2.9-2.59,3.78l-1.19-.68Zm2.27-10.33c-.4.32-.79.63-1.22.94-.2-.32-.65-.77-.95-.99,2.41-1.57,4.18-3.75,5.11-5.47l1.5.29c-.18.31-.38.61-.59.94h4.07l.22-.05.92.56c-.4.79-1.01,1.69-1.6,2.43h4.72v7.54h-12.15v-6.18Zm1.28,1.85h4.02v-2.09h-4.02v2.09Zm0,3.19h4.02v-2.12h-4.02v2.12Zm1.76-8.25c-.47.61-.99,1.24-1.57,1.84h4.34c.47-.52.97-1.21,1.33-1.84h-4.11Zm1.46,10.46c.23,1.08.41,2.5.43,3.35l-1.35.16c0-.86-.14-2.3-.36-3.42l1.28-.09Zm6.3-7.49h-4.23v2.09h4.23v-2.09Zm0,3.15h-4.23v2.12h4.23v-2.12Zm-2.79,4.21c.52,1.03,1.08,2.45,1.28,3.31l-1.28.32c-.18-.86-.7-2.3-1.22-3.38l1.22-.25Zm3.49-.4c1.04,1.08,2.23,2.61,2.75,3.66l-1.28.59c-.47-1.03-1.64-2.59-2.68-3.73l1.21-.52Z"/>
    <path class="cls-7" d="m290.25,131.24c-.54.83-1.15,1.58-1.78,2.14-.18-.22-.65-.67-.95-.88,1.13-.94,2.16-2.38,2.77-3.83l1.19.32c-.16.36-.32.72-.5,1.08h4.63v1.17h-3.37c.61.52,1.35,1.19,1.73,1.64l-.88.77c-.4-.52-1.21-1.33-1.87-1.89l.65-.52h-1.6Zm9.76,8.41h3.58v1.13h-3.58v3.04c0,.77-.2,1.08-.79,1.24-.61.18-1.64.18-3.21.18-.04-.36-.2-.77-.36-1.13,1.21.05,2.3.05,2.61.04.31-.04.4-.11.4-.36v-3.01h-10.86v-1.13h10.86v-1.26h1.35v1.26Zm3.91-9.56v1.17h-3.96c.59.54,1.31,1.28,1.67,1.76l-.92.77c-.34-.52-1.08-1.35-1.71-1.94l.79-.59h-1.76c-.47.85-.99,1.57-1.51,2.16l-.16-.14v.85h6.59v1.17h-6.59v1.6h5.58v1.08h-12.57v-1.08h5.64v-1.6h-6.54v-1.17h6.54v-1.12h1.01c-.18-.14-.38-.29-.52-.38.99-.97,1.78-2.43,2.23-3.96l1.24.29c-.11.4-.25.76-.41,1.13h5.37Zm-12.19,10.86c1.03.79,2.38,1.93,3.06,2.66l-.99.79c-.65-.72-1.98-1.93-3.02-2.75l.95-.7Z"/>
    <path class="cls-7" d="m312.98,133.65c-.86,4.68-2.97,8.01-5.51,9.79-.2-.29-.74-.81-1.06-1.01,2.29-1.49,4.11-4.2,4.97-7.74h-4.39v-1.33h4.86l.27-.05.86.34Zm8.52-.65c-1.19,1.37-2.75,2.99-4.01,4.05,1.53,2.21,3.47,4.09,5.64,5.1-.31.27-.76.81-.99,1.21-2.79-1.48-5.11-4.32-6.75-7.56v7.6c0,.88-.22,1.31-.74,1.55-.54.25-1.44.29-2.81.29-.05-.4-.29-1.06-.5-1.46,1.03.04,1.96.04,2.23.04.31-.02.42-.11.42-.41v-14.57h1.4v4.32c.4.99.88,1.98,1.44,2.92,1.21-1.12,2.61-2.7,3.47-3.92l1.21.86Z"/>
    <path class="cls-7" d="m52.24,162.06v2.68c0,2.04-.31,4.79-1.93,6.64-.2-.25-.72-.7-1.01-.86,1.46-1.67,1.64-4,1.64-5.8v-3.78h2.27c-.18-.23-.47-.5-.65-.67,1.42-.27,3.06-.63,4.61-1.06-1.37-.4-2.77-.76-4.05-1.04l.79-.65h-2.88v-1.1h6.64c-.31-.45-.65-.94-.97-1.33l.95-.49c.47.54,1.03,1.26,1.37,1.82h6.05v1.1h-2.75l.72.43c-.79.43-1.73.85-2.75,1.21,1.31.4,2.54.79,3.44,1.12l-.72.67h2.61v1.12h-13.38Zm13.67,7.44v1.13h-13.34v-1.13h5.89v-1.8h-4.2v-1.08h4.2v-1.6h-3.76c-.5.86-1.1,1.64-1.71,2.21-.13-.23-.47-.86-.7-1.1.99-.94,1.85-2.32,2.38-3.76l1.15.32c-.16.41-.32.81-.5,1.22h3.15v-1.53h1.31v1.53h4.84v1.1h-4.84v1.6h4.45v1.08h-4.45v1.8h6.14Zm-3.33-8.55c-1.04-.4-2.36-.83-3.82-1.28-1.62.52-3.33.94-4.86,1.28h8.68Zm-8.26-3.42c1.4.34,2.99.76,4.52,1.21,1.15-.38,2.2-.77,3.01-1.21h-7.53Z"/>
    <path class="cls-7" d="m69.49,170.74c1.46-.67,2.23-1.62,2.29-3.03-.11.04-.22.04-.32.04-.74,0-1.35-.43-1.35-1.3s.65-1.3,1.37-1.3c.99,0,1.55.85,1.55,2.2,0,2.09-1.19,3.6-3.12,4.34l-.41-.95Zm.52-12.05c0-.83.63-1.35,1.35-1.35s1.37.52,1.37,1.35-.65,1.35-1.37,1.35-1.35-.52-1.35-1.35Z"/>
    <path class="cls-7" d="m86.16,166.13c-1.22.14-2.5.29-3.73.43v3.22c0,.68-.14,1.01-.65,1.22-.52.2-1.3.2-2.54.2-.07-.36-.27-.85-.41-1.19.88.04,1.75.04,1.98.02.25-.02.32-.07.32-.29v-3.06c-1.51.18-2.93.32-4.07.45l-.14-1.28c1.13-.11,2.61-.23,4.21-.4v-1.17c.81-.54,1.73-1.37,2.47-2.14h-5.71v-1.15h6.75l.31-.09.88.68c-.92,1.1-2.21,2.27-3.4,3.13v.61c1.21-.13,2.49-.25,3.71-.4l.02,1.19Zm.18-10.32c-2.25.65-5.73.99-8.62,1.15-.04-.31-.22-.79-.36-1.1,2.83-.18,6.23-.56,8.07-1.12l.92,1.06Zm-7.2,5.08c-.23-.83-.81-2.12-1.3-3.08l1.08-.43c.54.95,1.1,2.23,1.37,3.03l-1.15.49Zm2.5-3.78c.38.97.83,2.23,1.03,3.04l-1.15.41c-.18-.83-.61-2.14-.97-3.13l1.1-.32Zm1.49,3.24c.59-.97,1.35-2.59,1.75-3.73l1.28.5c-.59,1.22-1.35,2.72-1.96,3.64l-1.06-.42Zm8.16,9.2c.61,0,.72-.67.79-3.35.32.25.83.5,1.19.59-.13,2.93-.45,3.94-1.89,3.94h-2.21c-1.48,0-1.87-.49-1.87-2.23v-13.25h1.31v13.27c0,.88.13,1.03.72,1.03h1.96Z"/>
    <path class="cls-7" d="m110.3,166.49c-.96.67-2.2,1.35-3.26,1.85,1.17.76,2.65,1.28,4.38,1.57-.25.25-.59.74-.74,1.08-3.58-.72-6.05-2.47-7.44-5.26-.86.67-1.94,1.28-3.15,1.82v2.05l4.12-.88c-.04.32-.05.79-.04,1.03-4.74,1.12-5.29,1.26-5.64,1.49v-.09c-.09-.31-.31-.72-.47-.92.29-.18.76-.56.76-1.37v-.81c-1.04.38-2.11.68-3.12.9-.14-.29-.49-.74-.74-.99,2.27-.41,4.83-1.26,6.57-2.32h-6.27v-1.12h7.6c-.16-.36-.38-.77-.56-1.1l1.24-.36c.29.45.56,1.01.76,1.46h6.86v1.12h-6.72c.43.77.97,1.44,1.67,2.04,1.08-.54,2.39-1.3,3.19-1.87l.97.68Zm-11.04-7.42h-4.05v-.97h4.05v-1.1h-2.14c-.22.4-.45.77-.68,1.08-.22-.16-.7-.4-.95-.52.61-.72,1.12-1.73,1.42-2.72l1.06.25c-.11.32-.25.65-.4.97h1.69v-1.3h1.17v1.3h3.17v.94h-3.17v1.1h3.8v.97h-3.8v.96h3.35v2.2c0,.5-.09.74-.49.9-.34.16-.9.16-1.69.16-.05-.29-.23-.61-.36-.86.59.02,1.04.02,1.21,0,.16,0,.2-.05.2-.2v-1.3h-2.21v2.92h-1.17v-2.92h-2.05v2.45h-1.08v-3.35h3.13v-.96Zm7.56,2.49h-1.21v-5.87h1.21v5.87Zm3.4.81c0,.7-.16.99-.65,1.19-.52.2-1.33.2-2.59.2-.05-.34-.25-.77-.43-1.1.99.04,1.85.02,2.11,0,.27,0,.34-.07.34-.31v-7.4h1.22v7.42Z"/>
    <path class="cls-7" d="m113.95,163.39h6.36v7.67h-1.31v-.81h-3.76v.97h-1.28v-7.83Zm1.28,1.3v4.27h3.76v-4.27h-3.76Zm11.13-3.19h-9.79v-5.96h9.79v5.96Zm-1.35-4.68h-7.15v3.4h7.15v-3.4Zm3.96,6.57v7.71h-1.31v-.85h-4.09v.97h-1.3v-7.83h6.7Zm-1.31,5.56v-4.27h-4.09v4.27h4.09Z"/>
    <path class="cls-7" d="m132.49,161.61l1.17-1.03c1.28,1.04,2.92,2.67,4.03,4l-1.22,1.03c-1.17-1.42-2.7-2.95-3.98-4Z"/>
    <path class="cls-7" d="m145.63,157.51c-.14.41-.31.85-.5,1.26.67.99,1.66,1.51,2.97,1.76v-3.8h-6.43v-1.13h13.5l.23-.05.94.29c-.41,1.04-.94,2.25-1.42,3.02l-1.13-.32c.27-.47.58-1.13.85-1.8h-5.22v1.44h4.27v.99h-4.27v1.53c.61.05,1.31.07,2.05.07s4.56,0,5.51-.04c-.2.31-.41.86-.49,1.22h-5.02c-3.35,0-5.49-.36-6.84-2.23-.9,1.51-2.11,2.72-3.53,3.58-.11-.31-.41-.97-.65-1.28,1.8-.99,3.26-2.67,3.94-4.83l1.24.31Zm7.04,9.88c1.44.99,3.26,2.36,4.21,3.19l-.86.86c-.41-.38-.97-.85-1.57-1.31-4.83.22-9.96.45-13.32.54l-.11-1.28c1.82-.02,4.34-.07,7.09-.14v-1.86h-5.55v-3.87h5.55v-1.17h1.31v1.17h5.58v3.87h-2.34Zm-4.56-1.04v-1.8h-4.27v1.8h4.27Zm1.31-1.8v1.8h4.25v-1.8h-4.25Zm3.73,4.56c-.49-.34-.99-.72-1.42-1.03l.81-.68h-3.12v1.82l3.73-.11Z"/>
    <path class="cls-7" d="m161.74,160.71c-.49,1.21-1.42,2.5-2.36,3.19-.18-.27-.54-.67-.79-.86.9-.52,1.82-1.64,2.29-2.65l.86.32Zm3.8,9.65c-.63-.56-1.78-1.42-2.81-2.14-.52,1.06-1.51,2.07-3.4,2.88-.13-.29-.45-.74-.68-.97,2.5-1.06,3.22-2.43,3.4-3.75h-3.17v-1.13h3.24v-1.64h1.17v1.64h1.93c-.27-.43-.74-.97-1.13-1.37l.77-.49c.47.43.99,1.04,1.24,1.46l-.59.4h1.19v1.13h-3.46c-.02.27-.05.52-.13.79,1.1.7,2.47,1.64,3.19,2.27l-.76.92Zm-3.35-10.5h-3.29v-1.12h3.29v-3.89h1.19v3.89h3.13v1.12h-3.13v3.37h-1.19v-3.37Zm-1.87-1.89c-.14-.61-.58-1.51-1.03-2.18l.94-.38c.49.67.94,1.55,1.08,2.12l-.99.43Zm4.07,2.48c.43.31,2,1.6,2.36,1.94l-.76.88c-.43-.54-1.76-1.85-2.3-2.29l.7-.54Zm1.91-4.66c-.43.81-.86,1.66-1.26,2.23l-.9-.32c.34-.61.79-1.6,1.03-2.27l1.13.36Zm4.2,13.05c-.83.92-2.21,1.87-3.38,2.41-.22-.25-.63-.65-.9-.9,1.17-.49,2.48-1.4,3.11-2.18l1.17.67Zm-.9-10.35c.14-.52.29-1.15.41-1.69h-3.24v-1.17h8.34v1.17h-3.67c-.18.58-.38,1.19-.56,1.69h3.55v9.33h-6.95v-9.33h2.12Zm3.55,1.06h-4.45v1.71h4.45v-1.71Zm0,2.72h-4.45v1.73h4.45v-1.73Zm0,2.74h-4.45v1.75h4.45v-1.75Zm-.85,3.21c1.03.65,2.38,1.6,3.08,2.27l-1.04.74c-.63-.65-1.94-1.66-3.01-2.34l.97-.67Z"/>
    <path class="cls-7" d="m58.38,207.26c1.67,2.5,4.77,4.92,7.62,6.1-.27.27-.72.83-.9,1.17-2.72-1.28-5.56-3.6-7.42-6-1.85,2.29-4.92,4.77-7.44,6.12-.16-.34-.52-.79-.83-1.08,2.23-1.04,4.92-3.08,6.7-5.06h-3.21v-1.26h5.47Zm-.07,14.24h7.02v1.22h-15.21v-1.22h6.82v-2.99h-5.04v-1.19h5.04v-2.75h-4.27v-1.21h10.05v1.21h-4.41v2.75h5.11v1.19h-5.11v2.99Z"/>
    <path class="cls-7" d="m72.48,218.13c.76.49,2.74,1.91,3.21,2.3l-.76.95c-.45-.47-1.58-1.46-2.45-2.14v3.98h-1.22v-3.91c-.88,1.13-2,2.23-3.04,2.92-.14-.31-.45-.77-.7-1.03,1.21-.67,2.57-1.96,3.42-3.24h-2.97v-1.08h3.29v-1.26h-1.94l.02-1.04h5.31v1.04h-2.16v1.26h3.4v1.08h-3.4v.16Zm-1.3-8.91h-3.33v-1.08h3.33v-1.33h1.24v1.33h3.58v1.08h-3.58v1.21h3.15v1.06h-7.29v-1.06h2.9v-1.21Zm3.57,5.8v-1.57h-5.69v1.57h-1.13v-2.63h7.99v2.63h-1.17Zm8.61-.05c-.47,1.93-1.28,3.53-2.29,4.81.88.97,1.96,1.73,3.24,2.18-.27.25-.61.74-.79,1.08-1.28-.54-2.34-1.33-3.24-2.34-1.08,1.12-2.34,1.96-3.67,2.56-.14-.32-.47-.83-.72-1.06,1.33-.52,2.58-1.35,3.62-2.43-.74-1.06-1.33-2.3-1.76-3.67l.99-.27h-1.76v-1.13h5.4l.22-.05.77.34Zm-4.23-4.9c0,1.46-.31,3.24-1.85,4.45-.16-.25-.63-.68-.85-.85,1.39-1.03,1.57-2.41,1.57-3.62v-2.52h4.23v4.3c0,.49.02.63.23.63h.77c.18,0,.47-.02.67-.07.02.32.05.79.11,1.08-.2.07-.49.09-.77.09h-.88c-1.06,0-1.26-.49-1.26-1.75v-3.17h-1.96v1.42Zm-.32,5.74c.36,1.12.85,2.14,1.49,3.03.67-.88,1.21-1.89,1.58-3.03h-3.08Z"/>
    <path class="cls-7" d="m89.05,214.13c-.22-.32-.58-.72-.96-1.13-.4.95-.88,1.8-1.48,2.45-.16-.2-.61-.61-.88-.77,1.01-1.08,1.67-2.7,2.04-4.45l1.12.2c-.13.56-.27,1.08-.43,1.58.5.45,1.03.97,1.3,1.37l-.7.76Zm1.76,2.21h3.21v1.19h-3.21v5.62h-1.26v-5.62h-3.57v-1.19h3.57v-1.26h.49c-.22-.22-.58-.5-.81-.67.99-.99,1.67-2.5,2.02-4.11l1.13.2c-.14.58-.31,1.13-.49,1.66.67.68,1.42,1.58,1.8,2.18l-.83.67c-.29-.5-.85-1.22-1.4-1.87-.34.74-.77,1.4-1.26,1.94h.61v1.26Zm-2,2.5c-.4,1.24-1.04,2.52-1.75,3.37-.23-.18-.72-.47-1.01-.59.72-.79,1.28-1.91,1.62-3.01l1.13.23Zm5.1-8.89h-7.83v-1.21h3.69c-.22-.5-.52-1.13-.79-1.6l1.21-.38c.38.63.81,1.4,1.01,1.93l-.16.05h2.88v1.21Zm-1.46,8.59c.59.94,1.26,2.18,1.55,2.99l-1.06.45c-.27-.83-.92-2.12-1.49-3.08l1.01-.36Zm9.74,3.75h-6.14v.9h-1.22v-10.14c-.23.38-.45.74-.7,1.08-.22-.23-.72-.67-1.01-.85,1.24-1.58,2.29-4.03,2.92-6.45l1.22.27c-.27,1.04-.63,2.09-1.03,3.08h5.87v1.22h-2.49v2.39h2.29v1.15h-2.29v2.45h2.3v1.17h-2.3v2.48h2.58v1.22Zm-3.78-10.88h-2.36v2.39h2.36v-2.39Zm0,3.55h-2.36v2.45h2.36v-2.45Zm-2.36,6.1h2.36v-2.48h-2.36v2.48Zm2.86-11.04c-.2-.7-.72-1.78-1.19-2.61l1.15-.41c.5.79,1.04,1.85,1.24,2.54l-1.21.49Z"/>
    <path class="cls-7" d="m106.19,215.36c-.31,1.95-.99,4.43-1.84,5.69-.13-.38-.43-.95-.63-1.31.67-1.04,1.31-3.06,1.58-4.65l.88.27Zm-1.31-3.33c-.16-1.03-.56-2.61-.95-3.82l.9-.22c.41,1.21.83,2.77,1.01,3.78l-.95.25Zm2.7,2.02v9.18h-1.19v-9.18h-2.36v-1.26h2.36v-6h1.19v6h2.14v1.26h-2.14Zm.95,1.08c.31.5,1.53,2.7,1.8,3.26l-.94.99c-.29-.88-1.22-3.04-1.6-3.71l.74-.54Zm1.69-6.79c-.45,1.24-1.03,2.83-1.48,3.78l-.81-.31c.43-1.01.95-2.7,1.21-3.83l1.08.36Zm10.21,13.61v1.01h-10.77v-1.01h4.81v-1.15h-3.94v-.94h3.94v-.94h-3.69v-4.46h8.66v4.46h-3.76v.94h4.05v.94h-4.05v1.15h4.75Zm-10.39-9.38h10.3v.99h-10.3v-.99Zm9.17-.85h-8.12v-4.38h8.12v4.38Zm-7.26,4.57h2.52v-1.04h-2.52v1.04Zm2.52,1.82v-1.04h-2.52v1.04h2.52Zm3.49-9.94h-5.67v.94h5.67v-.94Zm0,1.75h-5.67v.97h5.67v-.97Zm.27,5.33h-2.56v1.04h2.56v-1.04Zm0,1.82h-2.56v1.04h2.56v-1.04Z"/>
    <path class="cls-7" d="m125.2,212.71c-.49,1.21-1.42,2.5-2.36,3.19-.18-.27-.54-.67-.79-.86.9-.52,1.82-1.64,2.29-2.65l.86.32Zm3.8,9.65c-.63-.56-1.78-1.42-2.81-2.14-.52,1.06-1.51,2.07-3.4,2.88-.13-.29-.45-.74-.68-.97,2.5-1.06,3.22-2.43,3.4-3.75h-3.17v-1.13h3.24v-1.64h1.17v1.64h1.93c-.27-.43-.74-.97-1.13-1.37l.77-.49c.47.43.99,1.04,1.24,1.46l-.59.4h1.19v1.13h-3.46c-.02.27-.05.52-.13.79,1.1.7,2.47,1.64,3.19,2.27l-.76.92Zm-3.35-10.5h-3.29v-1.12h3.29v-3.89h1.19v3.89h3.13v1.12h-3.13v3.37h-1.19v-3.37Zm-1.87-1.89c-.14-.61-.58-1.51-1.03-2.18l.94-.38c.49.67.94,1.55,1.08,2.12l-.99.43Zm4.07,2.48c.43.31,2,1.6,2.36,1.94l-.76.88c-.43-.54-1.76-1.85-2.3-2.29l.7-.54Zm1.91-4.66c-.43.81-.86,1.66-1.26,2.23l-.9-.32c.34-.61.79-1.6,1.03-2.27l1.13.36Zm4.2,13.05c-.83.92-2.21,1.87-3.38,2.41-.22-.25-.63-.65-.9-.9,1.17-.49,2.48-1.4,3.12-2.18l1.17.67Zm-.9-10.35c.14-.52.29-1.15.41-1.69h-3.24v-1.17h8.34v1.17h-3.67c-.18.58-.38,1.19-.56,1.69h3.55v9.33h-6.95v-9.33h2.12Zm3.55,1.06h-4.45v1.71h4.45v-1.71Zm0,2.72h-4.45v1.73h4.45v-1.73Zm0,2.74h-4.45v1.75h4.45v-1.75Zm-.85,3.21c1.03.65,2.38,1.6,3.08,2.27l-1.04.74c-.63-.65-1.94-1.66-3.01-2.34l.97-.67Z"/>
    <path class="cls-7" d="m141.49,213.61l1.17-1.03c1.28,1.04,2.92,2.67,4.03,4l-1.22,1.03c-1.17-1.42-2.7-2.95-3.98-4Z"/>
    <path class="cls-7" d="m156.41,220.76c-2.34.63-4.81,1.26-6.63,1.75l-.29-1.26c.32-.07.65-.14,1.03-.23v-6.57h1.1v6.34l1.26-.32v-6.57c.54-.41,1.12-1.04,1.6-1.64h-4.45v-1.13h5.35l.23-.07.77.56c-.63.92-1.51,1.89-2.34,2.61v1.73h2.2v1.13h-2.2v3.1l2.23-.56.13,1.15Zm-2.9-11.63h-3.6v-1.15h3.6v-1.21h1.31v1.21h2.54v1.15h-2.54v1.35h-1.31v-1.35Zm4,7.76h1.12v1.98c0,1.4-.36,3.19-2.41,4.36-.2-.23-.58-.58-.85-.72,1.85-1.03,2.14-2.52,2.14-3.67v-1.94Zm2.81-3.84c-.58.76-1.17,1.48-1.75,2.09l4.83-.16c-.38-.43-.81-.86-1.21-1.24l.94-.54c1.01.86,2.14,2.14,2.65,3.03l-1.01.59c-.14-.27-.34-.54-.56-.86-6.01.27-6.73.32-7.17.45-.07-.23-.29-.77-.41-1.06.34-.05.67-.38,1.1-.85.22-.22.67-.76,1.17-1.44h-2.5v-1.13h3.29c.31-.45.59-.95.86-1.44l1.22.41c-.2.34-.43.68-.67,1.03h4.63v1.13h-5.42Zm.43-3.92h-2.65v-1.15h2.65v-1.21h1.31v1.21h3.64v1.15h-3.64v1.3h-1.31v-1.3Zm-.54,7.89h1.1v5.64h-1.1v-5.64Zm5.06,4.99c.2,0,.52-.02.72-.07.02.29.05.72.07.99-.18.05-.49.07-.77.07h-1.01c-1.1,0-1.3-.45-1.3-1.58v-4.54h1.17v4.56c0,.43.02.58.25.58h.86Z"/>
    <path class="cls-7" d="m177.76,217.5c1.66,1.66,4.23,3.17,6.5,3.92-.31.27-.72.79-.92,1.12-2.29-.92-4.93-2.67-6.7-4.57v5.26h-1.39v-5.17c-1.73,1.96-4.36,3.67-6.7,4.56-.18-.31-.61-.83-.9-1.1,2.34-.76,4.9-2.3,6.48-4.01h-6.03v-1.24h7.15v-1.51h-5.4v-7.11h12.3v7.11h-5.51v1.51h7.15v1.24h-6.03Zm-6.55-6.86h4.05v-1.84h-4.05v1.84Zm4.05,2.95v-1.85h-4.05v1.85h4.05Zm5.47-4.79h-4.09v1.84h4.09v-1.84Zm0,2.94h-4.09v1.85h4.09v-1.85Z"/>
    <path class="cls-7" d="m188.27,210.69c0-.83.63-1.35,1.35-1.35s1.37.52,1.37,1.35-.65,1.35-1.37,1.35-1.35-.52-1.35-1.35Zm0,8.82c0-.83.63-1.37,1.35-1.37s1.37.54,1.37,1.37-.65,1.35-1.37,1.35-1.35-.54-1.35-1.35Z"/>
    <path class="cls-7" d="m52.33,244.17c-.43,1.28-1.19,2.68-1.85,3.58-.22-.16-.67-.5-.94-.65.7-.85,1.33-2.07,1.69-3.24l1.1.31Zm2.21-1.26v6.25h-1.31v-6.25h-3.58v-1.15h3.58v-1.89h-3.67v-1.13h4.97c.34-.83.76-2.02.97-2.84l1.22.25c-.32.86-.67,1.84-1.01,2.59h2.29v1.13h-3.46v1.89h3.26v1.15h-3.26Zm3.19-7.13h-7.89v-1.12h3.53c-.23-.54-.54-1.15-.79-1.64l1.3-.34c.38.61.77,1.39,1.03,1.98h2.83v1.12Zm-6.03,2.88c-.09-.67-.38-1.71-.68-2.5l1.06-.25c.36.77.67,1.78.74,2.45l-1.12.31Zm4.57,5.1c.58.88,1.21,2.05,1.51,2.83l-.95.54c-.29-.77-.94-2.02-1.48-2.88l.92-.49Zm9.58-3.69h-1.96v9.08h-1.3v-9.08h-2.47v.63c0,2.58-.23,6.1-1.87,8.45-.22-.25-.74-.67-1.03-.81,1.51-2.16,1.66-5.24,1.66-7.63v-6.19c2.02-.32,4.3-.86,5.6-1.4l1.06.99c-1.48.56-3.53,1.01-5.42,1.3v3.42h5.73v1.26Z"/>
    <path class="cls-7" d="m69.21,239.12c-.22-.27-.65-.63-.94-.77,1.39-1.67,2.27-3.89,2.68-5.58l1.24.16c-.13.47-.27.95-.45,1.46h2.25l.23-.07.79.52c-.36.81-.83,1.69-1.3,2.45h2.34v6.93h-6.63v-5.38l-.23.29Zm-.94,9.56c.81-.81,1.17-2.27,1.33-3.67l.97.25c-.18,1.5-.5,3.04-1.42,3.96l-.88-.54Zm3.08-13.23c-.27.61-.56,1.24-.9,1.84h2.02c.34-.52.68-1.21.96-1.84h-2.07Zm.85,4.75v-1.8h-1.64v1.8h1.64Zm-1.64,1.04v1.85h1.64v-1.85h-1.64Zm1.6,3.78c.22,1.06.31,2.41.27,3.31l-.97.13c.05-.88-.04-2.25-.22-3.33l.92-.11Zm1.64-.05c.41.97.74,2.29.85,3.13l-.94.22c-.07-.86-.4-2.16-.79-3.15l.88-.2Zm1.1-6.57h-1.69v1.8h1.69v-1.8Zm0,2.84h-1.69v1.85h1.69v-1.85Zm.63,3.42c.61,1.03,1.22,2.39,1.46,3.26l-.9.36c-.23-.9-.85-2.27-1.4-3.29l.85-.32Zm9.29-.05h-3.76v4.57h-1.3v-4.57h-3.42v-1.17h3.42v-2.48h-2.85v-1.19h2.85v-2.32h-3.22v-1.19h1.73c-.22-.86-.72-2.12-1.22-3.08l1.08-.38c.58.99,1.12,2.29,1.33,3.15l-.79.31h3.38l-.85-.27c.47-.86,1.08-2.25,1.35-3.22l1.35.36c-.5,1.06-1.08,2.32-1.58,3.13h2.09v1.19h-3.35v2.32h3.03v1.19h-3.03v2.48h3.76v1.17Z"/>
    <path class="cls-7" d="m92.24,242.17c-.25-.58-.86-1.6-1.39-2.47v9.51h-1.28v-8.26c-.5,1.82-1.19,3.55-1.87,4.65-.14-.4-.47-.99-.68-1.31,1.01-1.51,2-4.38,2.47-6.79h-2.2v-1.26h2.29v-3.46h1.28v3.46h1.75v1.26h-1.75v.58c.5.65,1.89,2.59,2.2,3.1l-.81,1.01Zm3.76-9.38h1.22v7.38c0,3.22-.4,7.04-4.14,9.11-.16-.27-.56-.76-.85-.99,2.59-1.24,3.4-3.42,3.66-5.58-.9.77-1.82,1.55-2.65,2.21l-.65-1.21c.85-.56,2.12-1.48,3.38-2.39.02-.4.02-.79.02-1.15v-7.38Zm-1.28,6.82c-.27-1.01-.94-2.57-1.58-3.75l.99-.4c.67,1.15,1.37,2.67,1.64,3.66l-1.04.49Zm7.49,8.14c.38,0,.45-.47.49-2.2.31.22.77.43,1.15.52-.13,2.14-.45,2.88-1.57,2.88h-1.75c-1.22,0-1.58-.41-1.58-2.02v-14.15h1.26v8.54l.5-.47c1.08.94,2.45,2.23,3.1,3.06l-.85.85c-.59-.77-1.73-1.98-2.75-2.92v5.11c0,.67.07.79.5.79h1.5Zm1.3-11.9c-.67,1.26-1.44,2.74-2.09,3.71l-.95-.47c.61-1.01,1.4-2.61,1.82-3.76l1.22.52Z"/>
    <path class="cls-7" d="m107.21,239.61l1.17-1.03c1.28,1.04,2.92,2.67,4.03,4l-1.22,1.03c-1.17-1.42-2.7-2.95-3.98-4Z"/>
    <path class="cls-7" d="m123.45,236.53c-1.78,1.53-4.38,2.84-6.64,3.51-.2-.31-.59-.81-.85-1.06,2.3-.59,4.92-1.8,6.59-3.17h-6.09v-1.17h6.99v-1.87h1.33v1.87h7.13v1.17h-7.13v.04c2.47.9,5.69,2.25,7.36,3.17l-.72,1.04c-1.48-.85-4.27-2.11-6.64-3.06v2.95h-1.33v-3.42Zm1.31,7.27h7.38v1.24h-7.38v2.61c0,.74-.2,1.08-.79,1.3-.61.2-1.49.22-2.95.22-.11-.36-.4-.9-.63-1.24,1.22.04,2.36.04,2.67.02.32-.02.4-.07.4-.31v-2.59h-7.24v-1.24h7.24v-.92c.99-.34,2.05-.85,2.94-1.37h-7.06v-1.19h8.68l.31-.07.85.74c-1.19.9-2.81,1.8-4.39,2.43v.38Z"/>
    <path class="cls-7" d="m135.95,239.61l1.17-1.03c1.28,1.04,2.92,2.67,4.03,4l-1.22,1.03c-1.17-1.42-2.7-2.95-3.98-4Z"/>
    <path class="cls-7" d="m160.89,246.31h-7.38v2.93h-1.31v-2.93h-7.22v-1.22h7.22v-1.53h-5.02v-6.52h11.51v6.52h-5.17v1.53h7.38v1.22Zm-12.15-11.07h-3.69v-1.21h3.69v-1.26h1.31v1.26h2.43v1.21h-2.43v1.44h-1.31v-1.44Zm-.29,4.54h8.91v-1.66h-8.91v1.66Zm0,2.7h8.91v-1.69h-8.91v1.69Zm7.4-7.24h-2.5v-1.21h2.5v-1.26h1.31v1.26h3.64v1.21h-3.64v1.46h-1.31v-1.46Z"/>
    <path class="cls-7" d="m167.99,236.03v-.68h-4.01v-1.15h4.01v-1.39h1.31v1.39h2.23v1.15h-2.23v1.03h-1.21c-.11.22-.23.43-.34.65h11.7v1.12h-12.37c-.67,1.01-1.48,2.02-2.49,2.88-.23-.31-.67-.67-.99-.83,1.58-1.3,2.7-2.97,3.28-4.34l1.1.18Zm9.65,7.65c-.07,1.01-.14,1.8-.22,2.45h1.91v1.03h-2.07c-.13.68-.29,1.1-.47,1.33-.34.4-.72.54-1.26.58s-1.5.04-2.45-.04c-.02-.31-.13-.76-.32-1.04.99.09,1.89.09,2.23.09.32,0,.5-.04.67-.23.11-.13.22-.32.31-.68h-9.96c.14-.94.29-2.18.43-3.47h-2.65v-1.12h2.77c.11-1.13.2-2.3.27-3.31h10.97v.59c-.04,1.03-.07,1.93-.13,2.72h2.14v1.12h-2.18Zm-1.51,2.45c.09-.61.16-1.42.23-2.45h-8.64c-.09.88-.18,1.71-.27,2.45h5.69c-.7-.56-1.98-1.3-3.06-1.71l.7-.74c1.1.41,2.41,1.12,3.1,1.66l-.7.79h2.95Zm-8.1-5.83c-.07.74-.11,1.49-.18,2.27h5.2c-.67-.52-1.76-1.17-2.66-1.55l.68-.72c1.01.4,2.21,1.1,2.83,1.58l-.61.68h3.12c.04-.67.07-1.42.11-2.27h-8.48Zm6.27-4.95h-2.16v-1.15h2.16v-1.39h1.31v1.39h4.07v1.15h-4.07v1.03h-1.31v-1.03Z"/>
    <path class="cls-7" d="m183.57,239.61l1.17-1.03c1.28,1.04,2.92,2.67,4.03,4l-1.22,1.03c-1.17-1.42-2.7-2.95-3.98-4Z"/>
    <path class="cls-7" d="m199.87,242.96s0,.38-.02.56c-.2,3.42-.4,4.72-.79,5.17-.29.32-.59.45-1.03.47-.38.05-1.06.04-1.8,0-.02-.34-.14-.79-.31-1.1.68.05,1.3.07,1.57.07.23,0,.38-.04.5-.2.25-.25.43-1.28.58-3.83h-2.09c-.38,2.39-1.24,4.12-3.46,5.2-.13-.31-.5-.76-.77-.97,1.89-.88,2.67-2.27,2.99-4.23h-2.54v-1.13h2.68c.04-.45.07-.95.09-1.48h1.24c-.02.5-.05,1.01-.11,1.48h3.26Zm-3.87-7.72h-3.31v-1.19h3.31v-1.28h1.31v1.28h2.85v1.19h-2.85v1.17h-1.31v-1.17Zm5.06.45c-.07.49-.14.97-.25,1.39h5.87s-.02.36-.05.54c-.23,1.98-.45,2.86-.86,3.24-.29.27-.61.36-1.1.4-.43.02-1.3.02-2.18-.04-.04-.34-.16-.79-.36-1.1.85.07,1.71.09,2,.09.31,0,.47-.02.59-.14.22-.2.4-.72.56-1.87h-4.83c-.86,1.87-2.61,2.95-6.5,3.53-.09-.27-.36-.77-.59-1.01,3.28-.43,4.86-1.21,5.65-2.52h-4.83v-1.12h5.29c.14-.41.22-.88.29-1.39h1.3Zm6.93,7.27s0,.38-.02.56c-.18,3.44-.34,4.75-.76,5.2-.27.32-.58.43-1.04.49-.41.04-1.17.04-1.95-.02-.02-.34-.16-.81-.32-1.13.74.07,1.42.09,1.67.09.27,0,.43-.04.56-.2.23-.25.38-1.26.52-3.85h-2.38c-.36,2.45-1.24,4.14-3.57,5.2-.13-.32-.5-.77-.76-.99,1.98-.86,2.75-2.21,3.06-4.21h-2.47v-1.13h2.61c.04-.45.07-.95.09-1.48h1.26c-.02.5-.05,1.01-.09,1.48h3.57Zm.49-8.91v1.19h-3.46v1.19h-1.31v-1.19h-2.83v-1.19h2.83v-1.28h1.31v1.28h3.46Z"/>
    <path class="cls-7" d="m216.76,242.65c-.29-.65-1.03-1.93-1.62-2.95v9.49h-1.31v-8.59c-.59,1.94-1.39,3.8-2.21,4.97-.14-.4-.47-.97-.72-1.3,1.17-1.49,2.3-4.34,2.84-6.79h-2.39v-1.26h2.48v-3.46h1.31v3.46h2.18v1.26h-2.18v.58c.5.65,2.12,3.03,2.45,3.6l-.83.99Zm9.96-2.83c-.7,2.43-1.93,4.38-3.47,5.89,1.28,1.06,2.83,1.85,4.61,2.34-.29.25-.67.77-.86,1.12-1.84-.56-3.42-1.42-4.74-2.59-1.49,1.21-3.24,2.07-5.06,2.65-.14-.34-.47-.9-.7-1.17,1.73-.47,3.4-1.26,4.84-2.38-1.22-1.33-2.18-2.95-2.88-4.84l.23-.07h-.67v-1.24h3.6v-2.68h-3.84v-1.24h3.84v-2.83h1.31v2.83h4.19v1.24h-4.19v2.68h2.72l.25-.05.81.36Zm-6.99.94c.59,1.55,1.46,2.93,2.57,4.09,1.15-1.12,2.12-2.48,2.77-4.09h-5.35Z"/>
    <path class="cls-7" d="m231.18,239.61l1.17-1.03c1.28,1.04,2.92,2.67,4.03,4l-1.22,1.03c-1.17-1.42-2.7-2.95-3.98-4Z"/>
    <path class="cls-7" d="m250.65,235.25v2.58h4.54v11.25h-1.33v-1.04h-11.31v1.12h-1.31v-11.33h4.34v-2.58h-5.29v-1.3h15.7v1.3h-5.33Zm3.2,11.54v-3.08h-2.66c-1.48,0-1.82-.38-1.82-1.82v-2.83h-2.59c-.09,1.89-.76,3.98-3.46,5.31-.14-.27-.52-.74-.77-.94v3.35h11.31Zm-11.31-7.72v4.36c2.39-1.19,2.92-2.81,3.01-4.36h-3.01Zm6.82-3.82h-2.58v2.58h2.58v-2.58Zm1.28,3.82v2.83c0,.47.07.54.68.54h2.16c.18,0,.29,0,.36-.02v-3.35h-3.2Z"/>
    <path class="cls-7" d="m273.41,234.08c-2.92.67-7.08,1.19-10.86,1.49v2.5c0,3.17-.34,7.94-2.72,11.15-.23-.25-.79-.7-1.08-.85,2.25-3.06,2.48-7.31,2.48-10.3v-3.53c3.91-.31,8.5-.9,11.07-1.53l1.1,1.06Zm-4.39,8.39c.86,1.98,1.95,4.59,2.45,6.1l-1.17.43c-.16-.52-.41-1.19-.67-1.94-4.14.94-4.74,1.1-5.08,1.33-.13-.31-.61-.92-.83-1.17,2.21-2.39,2.25-5.55,2.25-8.16v-2.83h1.31v2.88c0,2.29-.07,5.15-1.51,7.62l3.44-.74c-.4-1.08-.86-2.21-1.28-3.19l1.08-.34Zm3.06-6.63c.36,5.24,1.12,10.05,3.33,12.17-.29.25-.74.76-.96,1.12-2.41-2.5-3.2-7.42-3.6-13.2l1.22-.09Z"/>
    <path class="cls-7" d="m280.44,235.24c-.54.83-1.15,1.58-1.78,2.14-.18-.22-.65-.67-.95-.88,1.13-.94,2.16-2.38,2.77-3.83l1.19.32c-.16.36-.32.72-.5,1.08h4.63v1.17h-3.37c.61.52,1.35,1.19,1.73,1.64l-.88.77c-.4-.52-1.21-1.33-1.87-1.89l.65-.52h-1.6Zm9.76,8.41h3.58v1.13h-3.58v3.04c0,.77-.2,1.08-.79,1.24-.61.18-1.64.18-3.21.18-.04-.36-.2-.77-.36-1.13,1.21.05,2.3.05,2.61.04.31-.04.4-.11.4-.36v-3.01h-10.86v-1.13h10.86v-1.26h1.35v1.26Zm3.91-9.56v1.17h-3.96c.59.54,1.31,1.28,1.67,1.76l-.92.77c-.34-.52-1.08-1.35-1.71-1.94l.79-.59h-1.76c-.47.85-.99,1.57-1.51,2.16l-.16-.14v.85h6.59v1.17h-6.59v1.6h5.58v1.08h-12.57v-1.08h5.64v-1.6h-6.54v-1.17h6.54v-1.12h1.01c-.18-.14-.38-.29-.52-.38.99-.97,1.78-2.43,2.23-3.96l1.24.29c-.11.4-.25.76-.41,1.13h5.37Zm-12.19,10.86c1.03.79,2.38,1.93,3.06,2.66l-.99.79c-.65-.72-1.98-1.93-3.02-2.75l.95-.7Z"/>
    <path class="cls-7" d="m298.39,248.74c1.46-.67,2.23-1.62,2.29-3.03-.11.04-.22.04-.32.04-.74,0-1.35-.43-1.35-1.3s.65-1.3,1.37-1.3c.99,0,1.55.85,1.55,2.2,0,2.09-1.19,3.6-3.12,4.34l-.41-.95Zm.52-12.05c0-.83.63-1.35,1.35-1.35s1.37.52,1.37,1.35-.65,1.35-1.37,1.35-1.35-.52-1.35-1.35Z"/>
    <path class="cls-7" d="m306.81,247.73c.77-1.42,1.87-3.85,2.67-5.96l1.03.7c-.74,1.98-1.69,4.25-2.52,5.94l-1.17-.68Zm2.34-9.85c-.41-1.01-1.39-2.65-2.25-3.82l1.06-.63c.86,1.15,1.87,2.7,2.3,3.73l-1.12.72Zm8.26-4.75c-.11.22-.23.41-.34.63,1.4,1.96,3.83,4,5.94,5.02-.32.23-.76.72-.99,1.04-1.89-1.08-4.07-3.04-5.6-5.02-1.33,1.96-3.13,3.76-5.28,5.11-.2-.23-.65-.67-.95-.87,2.61-1.6,4.84-4,5.98-6.3l1.24.38Zm4.03,8.53c-1.04,1.76-2.93,3.92-4.3,5.28.59.56,1.12,1.13,1.51,1.58l-1.06.77c-.86-1.12-2.7-2.93-4.14-4.18l.97-.67c.56.47,1.19,1.03,1.82,1.62,1.03-.95,2.39-2.47,3.31-3.73h-7.35v-1.17h8.14l.22-.07.88.56Zm-1.8-3.46v1.17h-6.09v-1.17h6.09Z"/>
    <path class="cls-7" d="m64.87,265.59c-.43,2.18-1.12,4.1-2,5.74.49,1.82,1.06,2.72,1.58,2.72.32-.02.5-.49.59-2.23.25.22.63.49.94.58-.2,2.39-.61,2.84-1.62,2.84-.92,0-1.69-.9-2.27-2.61-.72.99-1.51,1.89-2.41,2.63-.22-.23-.72-.63-1.01-.83.52-.4,1.01-.83,1.46-1.3h-5.26v-7.74h5.33v.92h-1.87v1.24h1.87v3.37h-1.87v1.28h2.02v.7c.49-.54.92-1.15,1.3-1.82-.38-1.76-.67-4.05-.83-6.82h-6.86v3.78c0,2.21-.18,5.2-1.3,7.22-.22-.18-.74-.49-1.01-.59.74-1.35,1.01-3.08,1.1-4.68h-1.26v.83c0,1.26-.2,3.13-1.31,4.41-.18-.18-.58-.45-.81-.58.95-1.15,1.12-2.77,1.12-3.87v-.79h-.99v-1.13h3.31v-1.48h-2.52v-4.18h1.04v3.08h1.48v-3.17h7.96l-.02-.74h-.45v-1.19h-2.27v-1.15h2.27v-1.26h1.31v1.26h4.02v1.15h-4.02v.76h.32c0,.41.02.79.02,1.17h2.05c-.4-.38-.95-.83-1.49-1.13l.81-.61c.63.34,1.4.92,1.76,1.37l-.49.38h1.17v1.15h-3.78c.09,2.05.27,3.75.5,5.15.5-1.22.9-2.56,1.17-4.01l1.21.2Zm-11.24-4.41h-3.8v-1.15h3.8v-1.26h1.31v1.26h2.2v1.15h-2.2v1.28h-1.31v-1.28Zm2.25,5.13v1.24h1.48v-1.24h-1.48Zm3.33,2.14h-3.33v1.58h3.33v-1.58Zm-3.33,3.75h1.48v-1.28h-1.48v1.28Z"/>
    <path class="cls-7" d="m83.39,265.09c-.76,2.92-2.14,5.1-3.96,6.73,1.37.97,3.01,1.69,4.86,2.14-.31.31-.72.86-.92,1.26-1.96-.54-3.64-1.37-5.06-2.5-1.67,1.24-3.64,2.07-5.71,2.63-.16-.38-.49-.95-.76-1.22,1.94-.45,3.8-1.21,5.4-2.34-1.57-1.53-2.74-3.49-3.57-5.78h-.67c-.36,2.92-1.4,6.14-4.32,8.89-.2-.36-.68-.88-.97-1.13,3.82-3.55,4.12-8.03,4.12-11.22v-1.62h-3.15v-1.31h11.04c-.36,1.66-.83,3.69-1.22,5.13h3.69l.25-.07.94.41Zm-10.19-2.54c0,.68-.02,1.42-.07,2.2h3.94c.32-1.12.68-2.52.97-3.82h-4.84v1.62Zm1.78,3.46c.74,1.94,1.87,3.6,3.35,4.93,1.46-1.26,2.59-2.9,3.29-4.93h-6.64Z"/>
    <path class="cls-7" d="m86.51,273.73c.77-1.42,1.87-3.85,2.67-5.96l1.03.7c-.74,1.98-1.69,4.25-2.52,5.94l-1.17-.68Zm2.34-9.85c-.41-1.01-1.39-2.65-2.25-3.82l1.06-.63c.86,1.15,1.87,2.7,2.3,3.73l-1.12.72Zm8.26-4.75c-.11.22-.23.41-.34.63,1.4,1.96,3.83,4,5.94,5.02-.32.23-.76.72-.99,1.04-1.89-1.08-4.07-3.04-5.6-5.02-1.33,1.96-3.13,3.76-5.28,5.11-.2-.23-.65-.67-.95-.87,2.61-1.6,4.84-4,5.98-6.3l1.24.38Zm4.03,8.53c-1.04,1.76-2.93,3.92-4.3,5.28.59.56,1.12,1.13,1.51,1.58l-1.06.77c-.87-1.12-2.7-2.93-4.14-4.18l.97-.67c.56.47,1.19,1.03,1.82,1.62,1.03-.95,2.39-2.47,3.31-3.73h-7.35v-1.17h8.14l.22-.07.88.56Zm-1.8-3.46v1.17h-6.08v-1.17h6.08Z"/>
    <path class="cls-7" d="m108.57,267.65c-.88,1.82-2.03,3.96-3.01,5.56l-1.15-.86c.9-1.35,2.2-3.6,3.15-5.56l1.01.87Zm-1.17-3.94c-.52-.83-1.75-2.04-2.79-2.86l.92-.86c1.04.81,2.29,1.94,2.84,2.77l-.97.96Zm8.82,5.82c1.17,1.67,3.06,3.28,4.79,4.09-.31.27-.74.74-.94,1.1-1.67-.95-3.49-2.68-4.72-4.54v5.02h-1.31v-5.13c-1.37,1.98-3.44,3.75-5.46,4.68-.22-.32-.61-.79-.9-1.06,1.96-.81,4.03-2.41,5.31-4.16h-3.28v-6.27h4.32v-1.51h-5.26v-1.21h5.26v-1.76h1.31v1.76h5.28v1.21h-5.28v1.51h4.46v6.27h-3.6Zm-5.28-3.64h3.1v-1.6h-3.1v1.6Zm0,2.59h3.1v-1.6h-3.1v1.6Zm4.41-4.2v1.6h3.21v-1.6h-3.21Zm3.21,2.59h-3.21v1.6h3.21v-1.6Z"/>
    <path class="cls-7" d="m137.4,261.65v13.49h-1.39v-1.22h-10.05v1.31h-1.31v-13.58h4.39c.4-.92.77-2.09.99-2.94l1.66.31c-.34.88-.77,1.84-1.19,2.63h6.9Zm-11.43,1.33v4.09h10.05v-4.09h-10.05Zm10.05,9.6v-4.2h-10.05v4.2h10.05Z"/>
    <path class="cls-7" d="m151.15,270.26c1.55,1.51,4.07,2.81,6.45,3.38-.29.29-.7.79-.9,1.15-2.45-.77-5.1-2.34-6.73-4.21v4.63h-1.37v-4.5c-1.71,1.82-4.32,3.42-6.68,4.25-.22-.36-.61-.85-.9-1.13,2.29-.67,4.83-2.04,6.45-3.57h-6.03v-1.19h7.17v-1.37h1.37v1.37h7.33v1.19h-6.14Zm-6-9h-3.8v-1.15h3.8v-1.31h1.3v1.31h2.3v1.15h-2.3v1.24h-1.3v-1.24Zm10.77,2.11c-3.48.79-9.04,1.19-13.61,1.28-.04-.32-.16-.85-.29-1.13,4.48-.13,9.96-.49,12.86-1.17l1.04,1.03Zm-11.51,4.84c-.25-.76-.92-1.89-1.58-2.7l1.12-.45c.7.79,1.39,1.87,1.66,2.65l-1.19.5Zm4.43-.54c-.13-.74-.58-1.8-1.1-2.63l1.17-.38c.54.77,1.04,1.85,1.19,2.57l-1.26.43Zm3.53-6.43h-2.59v-1.15h2.59v-1.3h1.28v1.3h3.55v1.15h-3.55v1.13h-1.28v-1.13Zm3.78,3.64c-.72,1.19-1.62,2.58-2.32,3.46l-1.04-.49c.68-.92,1.55-2.41,2.03-3.47l1.33.5Z"/>
    <path class="cls-7" d="m160.57,265.61l1.17-1.03c1.28,1.04,2.92,2.67,4.03,4l-1.22,1.03c-1.17-1.42-2.7-2.95-3.98-4Z"/>
    <path class="cls-7" d="m168.71,274.36c1.12-.95,1.75-2.54,2.02-4.11l1.19.32c-.34,1.67-.9,3.44-2.12,4.46l-1.08-.68Zm16.03-6.05s-.02.4-.05.58c-.23,3.76-.5,5.24-1.01,5.8-.31.34-.65.47-1.15.5-.47.04-1.37.04-2.29-.04-.04-.34-.16-.88-.36-1.22.88.11,1.73.11,2.03.11.32,0,.5-.04.65-.18.32-.36.56-1.49.76-4.36h-12.28v-9.85h12.57v1.19h-5.76v1.76h5.15v1.08h-5.15v1.76h5.15v1.1h-5.15v1.76h6.9Zm-12.41-7.47v1.76h4.2v-1.76h-4.2Zm4.2,2.84h-4.2v1.76h4.2v-1.76Zm-4.2,4.63h4.2v-1.76h-4.2v1.76Zm2.12,2.38c.32,1.13.56,2.59.59,3.57l-1.19.2c-.02-.97-.25-2.43-.56-3.58l1.15-.18Zm2.97-.16c.52.97.99,2.3,1.13,3.13l-1.12.32c-.13-.83-.58-2.2-1.04-3.22l1.03-.23Zm3.38,2.45c-.27-.67-.92-1.73-1.53-2.48l.97-.4c.65.74,1.31,1.76,1.58,2.41l-1.03.47Z"/>
    <path class="cls-7" d="m194.03,272.06l.09,1.08c-2.32.52-4.81,1.08-6.59,1.46l-.31-1.21c.83-.13,1.91-.34,3.06-.58v-5.2h-2.84v-1.17h2.84v-1.94h-1.82v-.81c-.31.31-.61.56-.92.81-.11-.31-.41-1.03-.59-1.35,1.46-1.06,2.97-2.72,3.84-4.46l1.04.47c-.11.23-.25.49-.4.74,1.19.76,2.34,1.67,3.08,2.38l-.63,1.08c-.74-.74-1.93-1.71-3.04-2.48-.61.88-1.3,1.73-2.02,2.47h4.57v1.17h-2v1.94h2.56v1.17h-2.56v4.99l2.63-.54Zm-5.31-3.48c.34,1.04.63,2.41.74,3.29l-.95.27c-.07-.9-.38-2.29-.68-3.33l.9-.23Zm3.22,3.06c.29-.88.67-2.3.85-3.28l1.03.32c-.36,1.08-.74,2.41-1.06,3.24l-.81-.29Zm7.51-12.44c-.09.18-.18.4-.29.59,1.12,1.91,3.01,3.94,4.59,4.97-.27.23-.67.7-.85,1.03-.49-.36-1.03-.86-1.55-1.39v.99h-5.2v-1.01c-.49.54-1.03,1.08-1.57,1.55-.22-.25-.63-.68-.88-.9,2-1.58,3.73-4.03,4.63-6.23l1.12.4Zm3.4,8.52c-.86,1.67-2.41,3.71-3.62,5.04.61.58,1.15,1.15,1.55,1.58l-.9.85c-.86-1.01-2.59-2.77-3.92-3.96l.86-.7c.47.4.99.86,1.51,1.35.92-.92,2.03-2.32,2.77-3.51h-6.07v-1.19h6.79l.2-.07.83.61Zm-1.66-3.49c-.94-.99-1.85-2.18-2.57-3.35-.67,1.17-1.44,2.32-2.32,3.35h4.9Z"/>
    <path class="cls-7" d="m220.57,266.04c-.95.77-2.05,1.51-3.26,2.14h4.27v1.01h-6.36c-.76.32-1.53.65-2.36.92h7.04v5.06h-1.28v-.5h-8.25v.54h-1.24v-3.92c-1.1.29-2.16.56-3.24.79-.13-.25-.43-.77-.63-1.03,1.28-.23,2.59-.52,3.87-.86v-.07h.23c1.04-.27,2.05-.58,3.04-.92h-6.7v-1.01h6.37v-1.17h-4.54v-.95h4.54v-.92h-4.86v-3.19h13.09v3.19h-6.95v.92h4.34v.72c.7-.41,1.35-.88,1.94-1.35l.92.61Zm-11.16-5.22h-3.6v-1.06h3.6v-.99h1.31v.99h2.41v1.06h-2.41v.74h-1.31v-.74Zm1.75,2.05h-2.72v1.35h2.72v-1.35Zm7.47,8.1h-8.25v.99h8.25v-.99Zm0,2.83v-1.04h-8.25v1.04h8.25Zm-6.36-9.58h2.79v-1.35h-2.79v1.35Zm2.7,3.96c.83-.38,1.6-.76,2.34-1.17h-3.94v1.17h1.6Zm6.63-8.43v1.06h-3.64v.76h-1.31v-.76h-2.63v-1.06h2.63v-.99h1.31v.99h3.64Zm-5.42,4.46h2.88v-1.35h-2.88v1.35Z"/>
    <path class="cls-7" d="m224.89,265.61l1.17-1.03c1.28,1.04,2.92,2.67,4.03,4l-1.22,1.03c-1.17-1.42-2.7-2.95-3.98-4Z"/>
    <path class="cls-7" d="m240.63,267.75v-2.74c-1.22,1.31-3.04,2.48-4.86,3.31h11.4v6.84h-1.37v-.56h-8.84v.63h-1.31v-6.86c-.54.25-1.1.47-1.64.63-.2-.32-.59-.83-.88-1.08,2.07-.61,4.36-1.73,5.87-3.02h-5.53v-1.17h4.02c-.31-.58-.88-1.46-1.35-2.12l1.17-.43c.47.68,1.13,1.6,1.44,2.16l-.92.4h2.81v-2.86c-1.98.14-4,.22-5.82.23-.02-.32-.16-.79-.29-1.08,4.25-.07,9.6-.41,12.3-1.12l.9.97c-1.53.41-3.57.68-5.76.88v2.97h1.75c.65-.83,1.42-2.09,1.84-2.97l1.28.63c-.52.77-1.13,1.64-1.69,2.34h4.07v1.17h-5.08c1.94,1.01,4.03,2.21,5.2,3.08l-.81,1.03c-1.42-1.13-4.29-2.84-6.55-3.96v2.7h-1.33Zm-3.67,1.64v1.58h3.69v-1.58h-3.69Zm3.69,4.16v-1.62h-3.69v1.62h3.69Zm5.15-4.16h-3.85v1.58h3.85v-1.58Zm0,4.16v-1.62h-3.85v1.62h3.85Z"/>
    <path class="cls-7" d="m259.41,266.01c-.22,5.85-.4,7.85-.9,8.48-.29.4-.61.54-1.08.59-.41.05-1.15.04-1.89,0-.04-.38-.16-.88-.38-1.22.74.05,1.4.07,1.69.05.27.02.4-.04.54-.22.36-.41.56-2.2.72-7.06h-2.61c-.27,3.58-.99,6.73-3.26,8.7-.2-.32-.63-.76-.95-.95,2.07-1.71,2.68-4.54,2.92-7.74h-2.47v-1.24h2.52c.04-.67.05-1.35.07-2.04h1.31c-.02.68-.04,1.37-.07,2.04h3.83v.61Zm-3.94-4.43h-3.8v-1.19h3.8v-1.6h1.31v1.6h2.29v1.19h-2.29v1.28h-1.31v-1.28Zm12.05-1.19v1.19h-3.51v1.28h-1.31v-1.28h-2.58v-1.19h2.58v-1.6h1.31v1.6h3.51Zm-6.84,4.3h6.27v10.14h-1.31v-.94h-3.67v1.19h-1.28v-10.39Zm1.28,1.26v6.7h3.67v-6.7h-3.67Z"/>
    <path class="cls-7" d="m272.52,261.24c-.54.83-1.15,1.58-1.78,2.14-.18-.22-.65-.67-.95-.88,1.13-.94,2.16-2.38,2.77-3.83l1.19.32c-.16.36-.32.72-.5,1.08h4.63v1.17h-3.37c.61.52,1.35,1.19,1.73,1.64l-.88.77c-.4-.52-1.21-1.33-1.87-1.89l.65-.52h-1.6Zm9.76,8.41h3.58v1.13h-3.58v3.04c0,.77-.2,1.08-.79,1.24-.61.18-1.64.18-3.21.18-.04-.36-.2-.77-.36-1.13,1.21.05,2.3.05,2.61.04.31-.04.4-.11.4-.36v-3.01h-10.86v-1.13h10.86v-1.26h1.35v1.26Zm3.91-9.56v1.17h-3.96c.59.54,1.31,1.28,1.67,1.76l-.92.77c-.34-.52-1.08-1.35-1.71-1.94l.79-.59h-1.76c-.47.85-.99,1.57-1.51,2.16l-.16-.14v.85h6.59v1.17h-6.59v1.6h5.58v1.08h-12.57v-1.08h5.64v-1.6h-6.54v-1.17h6.54v-1.12h1.01c-.18-.14-.38-.29-.52-.38.99-.97,1.78-2.43,2.23-3.96l1.24.29c-.11.4-.25.76-.41,1.13h5.37Zm-12.19,10.86c1.03.79,2.38,1.93,3.06,2.66l-.99.79c-.65-.72-1.98-1.93-3.02-2.75l.95-.7Z"/>
    <path class="cls-7" d="m304.29,272.92v1.31h-15.9v-1.31h4.38c.36-1.64.74-3.75,1.1-5.89h-3.35v-1.31h3.56c.22-1.33.42-2.67.58-3.87h-5.13v-1.31h13.47v1.31h-6.91c-.18,1.21-.38,2.56-.59,3.87h4.54l.23-.07,1.03.11c-.13,1.98-.38,4.83-.65,7.17h3.66Zm-9-5.89c-.34,2.14-.72,4.25-1.06,5.89h5.02c.2-1.91.41-4.21.56-5.89h-4.52Z"/>
    <path class="cls-7" d="m311.25,270.13c.76.49,2.74,1.91,3.21,2.3l-.76.95c-.45-.47-1.58-1.46-2.45-2.14v3.98h-1.22v-3.91c-.88,1.13-2,2.23-3.04,2.92-.14-.31-.45-.77-.7-1.03,1.21-.67,2.57-1.96,3.42-3.24h-2.97v-1.08h3.29v-1.26h-1.94l.02-1.04h5.31v1.04h-2.16v1.26h3.4v1.08h-3.4v.16Zm-1.3-8.91h-3.33v-1.08h3.33v-1.33h1.24v1.33h3.58v1.08h-3.58v1.21h3.15v1.06h-7.29v-1.06h2.9v-1.21Zm3.57,5.8v-1.57h-5.69v1.57h-1.13v-2.63h7.99v2.63h-1.17Zm8.61-.05c-.47,1.93-1.28,3.53-2.29,4.81.88.97,1.96,1.73,3.24,2.18-.27.25-.61.74-.79,1.08-1.28-.54-2.34-1.33-3.24-2.34-1.08,1.12-2.34,1.96-3.67,2.56-.14-.32-.47-.83-.72-1.06,1.33-.52,2.58-1.35,3.62-2.43-.74-1.06-1.33-2.3-1.76-3.67l.99-.27h-1.76v-1.13h5.4l.22-.05.77.34Zm-4.23-4.9c0,1.46-.31,3.24-1.85,4.45-.16-.25-.63-.68-.85-.85,1.39-1.03,1.57-2.41,1.57-3.62v-2.52h4.23v4.3c0,.49.02.63.23.63h.77c.18,0,.47-.02.67-.07.02.32.05.79.11,1.08-.2.07-.49.09-.77.09h-.88c-1.06,0-1.26-.49-1.26-1.75v-3.17h-1.96v1.42Zm-.32,5.74c.36,1.12.85,2.14,1.49,3.03.67-.88,1.21-1.89,1.58-3.03h-3.08Z"/>
    <path class="cls-7" d="m65.06,291.09c-.76,2.92-2.14,5.1-3.96,6.73,1.37.97,3.01,1.69,4.86,2.14-.31.31-.72.86-.92,1.26-1.96-.54-3.64-1.37-5.06-2.5-1.67,1.24-3.64,2.07-5.71,2.63-.16-.38-.49-.95-.76-1.22,1.94-.45,3.8-1.21,5.4-2.34-1.57-1.53-2.74-3.49-3.57-5.78h-.67c-.36,2.92-1.4,6.14-4.32,8.89-.2-.36-.68-.88-.97-1.13,3.82-3.55,4.12-8.03,4.12-11.22v-1.62h-3.15v-1.31h11.04c-.36,1.66-.83,3.69-1.22,5.13h3.69l.25-.07.94.41Zm-10.19-2.54c0,.68-.02,1.42-.07,2.2h3.94c.32-1.12.68-2.52.97-3.82h-4.84v1.62Zm1.78,3.46c.74,1.94,1.87,3.6,3.35,4.93,1.46-1.26,2.59-2.9,3.29-4.93h-6.64Z"/>
    <path class="cls-7" d="m74.56,298.53c-1.6.99-4.03,2.02-5.96,2.67-.2-.29-.59-.74-.88-1.03,1.94-.58,4.39-1.6,5.65-2.47l1.19.83Zm9.25-1.15h-15.92v-1.24h3.29v-7.99h-2.79v-1.26h2.79v-2.05h1.31v2.05h6.66v-2.05h1.33v2.05h2.88v1.26h-2.88v7.99h3.29l.02,1.24Zm-11.31-9.24v1.78h6.66v-1.78h-6.66Zm0,4.88h6.66v-1.94h-6.66v1.94Zm0,3.12h6.66v-1.96h-6.66v1.96Zm5.58,1.66c2.11.74,4.39,1.73,5.78,2.47l-1.21.9c-1.26-.76-3.4-1.75-5.47-2.52l.9-.85Z"/>
    <path class="cls-7" d="m91.13,285.24c-.5,1.33-1.15,2.68-1.87,3.93v12.03h-1.28v-10.07c-.56.81-1.17,1.53-1.78,2.16-.13-.31-.5-.99-.76-1.3,1.76-1.73,3.44-4.41,4.45-7.15l1.24.4Zm8.57,14.6c1.08,0,1.28-.49,1.42-2.59.32.22.85.43,1.22.5-.23,2.5-.65,3.29-2.61,3.29h-4.74c-2.12,0-2.75-.5-2.75-2.48v-5.91l-1.78.68-.5-1.17,2.29-.9v-4.68h1.28v4.18l2.63-1.03v-4.93h1.22v4.46l2.99-1.15.25-.2.99.31-.05.25c-.05,2.59-.23,6.03-.52,8.16l-1.1-.32c.18-1.69.29-4.45.32-6.79l-2.88,1.12v6.59h-1.22v-6.1l-2.63,1.03v6.41c0,1.04.23,1.28,1.49,1.28h4.68Z"/>
    <path class="cls-7" d="m112.04,288.84c-.14,7.96-.27,10.57-.83,11.34-.32.47-.65.63-1.19.68-.49.07-1.31.07-2.11.02-.04-.4-.16-.97-.4-1.35.83.07,1.6.07,1.93.07.29.02.47-.04.59-.29.41-.5.58-2.95.7-9.85h-2.72c-.16,4.83-.77,9.13-3.21,11.76-.2-.29-.68-.72-1.01-.92,2.23-2.36,2.77-6.34,2.92-10.84h-2.48v-1.31h2.52c.02-1.03.02-2.07.02-3.13h1.31c0,1.06-.02,2.11-.04,3.13h3.98v.68Zm7.56-1.84v13.81h-1.33v-1.19h-3.49v1.31h-1.26v-13.94h6.09Zm-1.33,11.34v-10.05h-3.49v10.05h3.49Z"/>
    <path class="cls-7" d="m138.45,298.51v1.33h-16.06v-1.33h7.24v-10.34h-6.3v-1.37h14.22v1.37h-6.46v10.34h7.36Z"/>
    <path class="cls-7" d="m156.49,287h-13.18v3.85c0,2.88-.23,7.13-1.89,9.99-.25-.22-.81-.54-1.15-.67,1.57-2.74,1.73-6.59,1.73-9.33v-5.08h14.49v1.22Zm-8.95,9.67c-.92,1.3-2.16,2.81-3.17,3.78-.27-.2-.81-.56-1.13-.76,1.06-.9,2.25-2.25,3.06-3.46l1.24.43Zm3.08-1.31v4.39c0,.7-.14,1.04-.68,1.24-.54.22-1.42.22-2.79.22-.05-.36-.25-.85-.41-1.19,1.04.02,1.96.02,2.23.02.29-.02.36-.09.36-.31v-4.38h-4.39v-6.48h3.51c.27-.54.52-1.19.68-1.66l1.55.23c-.27.49-.54.97-.79,1.42h5.19v6.48h-4.45Zm-4.38-3.75h7.47v-1.67h-7.47v1.67Zm0,2.68h7.47v-1.67h-7.47v1.67Zm6.95,1.98c1.06,1.12,2.5,2.65,3.22,3.57l-1.12.72c-.67-.97-2.09-2.56-3.17-3.73l1.06-.56Z"/>
    <path class="cls-7" d="m161.2,293.39c-.38,2-1.13,4.52-2.07,5.82-.14-.45-.45-1.08-.68-1.48.74-1.04,1.48-3.04,1.78-4.65l.97.31Zm1.6-1.35v9.18h-1.24v-9.18h-2.88v-1.26h2.88v-6h1.24v6h2.95v1.26h-2.95Zm-3.01-1.89c-.11-1.06-.5-2.72-.99-3.98l.97-.23c.52,1.24.94,2.86,1.06,3.94l-1.04.27Zm3.84,2.95c.34.52,1.64,2.97,1.91,3.58l-.95.99c-.32-.99-1.31-3.28-1.69-4.05l.74-.52Zm2.11-6.95c-.43,1.35-.99,3.02-1.48,4.03l-.88-.29c.43-1.06.94-2.83,1.21-4.03l1.15.29Zm7.02,9.99v5.06h-1.26v-4.83l-5.58,1.01-.22-1.24,5.8-1.03v-10.33h1.26v10.1l2.12-.38.2,1.22-2.32.41Zm-3.64-2.52c-.63-.67-1.91-1.58-2.99-2.16l.63-.94c1.06.56,2.39,1.37,3.02,2.02l-.67,1.08Zm.76-4.36c-.58-.68-1.8-1.66-2.83-2.32l.68-.9c1.01.61,2.25,1.53,2.83,2.2l-.68,1.03Z"/>
  </g>
</svg>