<?xml version="1.0" encoding="UTF-8"?>
<svg id="_1" data-name="1" xmlns="http://www.w3.org/2000/svg" xmlns:xlink="http://www.w3.org/1999/xlink" viewBox="0 0 371 371">
  <defs>
    <style>
      .cls-1 {
        fill: #d13554;
      }

      .cls-2 {
        fill: #0fb698;
      }

      .cls-3, .cls-4 {
        fill: #fff;
      }

      .cls-5 {
        fill: url(#_未命名漸層_10-3);
      }

      .cls-4 {
        opacity: .3;
      }

      .cls-6 {
        fill: #2a59ff;
      }

      .cls-7 {
        fill: url(#_未命名漸層_10);
      }

      .cls-8 {
        isolation: isolate;
      }

      .cls-9 {
        fill: url(#_未命名漸層_10-2);
      }

      .cls-10 {
        fill: #f83462;
      }

      .cls-11 {
        fill: #f7eca4;
      }

      .cls-12 {
        fill: #27d8ae;
      }

      .cls-13 {
        clip-path: url(#clippath);
      }

      .cls-14 {
        fill: none;
      }

      .cls-15 {
        fill: #271e49;
      }

      .cls-16 {
        opacity: .36;
      }

      .cls-17 {
        fill: url(#_未命名漸層_10-4);
      }

      .cls-18 {
        fill: #f87e95;
      }

      .cls-19 {
        fill: #819ef4;
      }

      .cls-20 {
        fill: #fbbeca;
        opacity: .8;
      }

      .cls-21 {
        fill: #f7d627;
      }
    </style>
    <linearGradient id="_未命名漸層_10" data-name="未命名漸層 10" x1="426.69" y1="371.86" x2="-83.44" y2="-70.1" gradientUnits="userSpaceOnUse">
      <stop offset="0" stop-color="#f87e95"/>
      <stop offset="1" stop-color="#f83462"/>
    </linearGradient>
    <linearGradient id="_未命名漸層_10-2" data-name="未命名漸層 10" x1="572.47" y1="203.59" x2="62.34" y2="-238.36" xlink:href="#_未命名漸層_10"/>
    <clipPath id="clippath">
      <rect class="cls-14" x=".52" y="-.37" width="370" height="320"/>
    </clipPath>
    <linearGradient id="_未命名漸層_10-3" data-name="未命名漸層 10" x1="403.71" y1="402.38" x2="-106.42" y2="-39.57" xlink:href="#_未命名漸層_10"/>
    <linearGradient id="_未命名漸層_10-4" data-name="未命名漸層 10" x1="257.5" y1="571.15" x2="-252.63" y2="129.19" xlink:href="#_未命名漸層_10"/>
  </defs>
  <circle class="cls-7" cx="15.52" cy="15.63" r="7"/>
  <circle class="cls-9" cx="355.52" cy="15.63" r="7"/>
  <g class="cls-13">
    <rect class="cls-10" x="24.52" y="23.63" width="322" height="322"/>
    <g>
      <polygon class="cls-1" points="122.88 340.63 132.97 363.63 138.24 375.63 147.52 375.63 147.52 363.63 147.52 340.63 122.88 340.63"/>
      <polygon class="cls-16" points="122.88 340.63 132.97 363.63 147.52 363.63 147.52 340.63 122.88 340.63"/>
    </g>
    <g>
      <polygon class="cls-1" points="30.52 360.42 30.52 363.63 30.52 375.63 59.7 363.63 67.52 360.42 30.52 360.42"/>
      <polygon class="cls-16" points="30.52 360.42 30.52 363.63 59.7 363.63 67.52 360.42 30.52 360.42"/>
    </g>
    <g>
      <polygon class="cls-1" points="248.15 340.63 238.06 363.63 232.79 375.63 223.52 375.63 223.52 363.63 223.52 340.63 248.15 340.63"/>
      <polygon class="cls-16" points="248.15 340.63 238.06 363.63 223.52 363.63 223.52 340.63 248.15 340.63"/>
    </g>
    <g>
      <polygon class="cls-1" points="340.52 360.42 340.52 363.63 340.52 375.63 311.33 363.63 303.52 360.42 340.52 360.42"/>
      <polygon class="cls-16" points="340.52 360.42 340.52 363.63 311.33 363.63 303.52 360.42 340.52 360.42"/>
    </g>
    <polygon class="cls-1" points="323.52 322.63 323.52 29.63 316.52 29.63 316.52 339.63 281.52 322.63 281.52 29.63 274.52 29.63 274.52 339.63 239.52 322.63 239.52 29.63 232.52 29.63 232.52 339.63 197.52 322.63 197.52 29.63 190.52 29.63 190.52 339.63 155.52 322.63 155.52 29.63 148.52 29.63 148.52 339.63 113.52 322.63 113.52 29.63 106.52 29.63 106.52 339.63 71.52 322.63 71.52 29.63 64.52 29.63 64.52 339.63 32.52 324.09 32.52 29.63 24.52 29.63 24.52 346.63 29.52 346.63 32.52 346.63 355.52 346.63 355.52 339.63 323.52 322.63"/>
    <rect class="cls-18" x="41.52" y="29.73" width="7" height="314.91"/>
    <rect class="cls-18" x="82.52" y="29.73" width="7" height="314.91"/>
    <rect class="cls-18" x="123.52" y="29.73" width="7" height="314.91"/>
    <rect class="cls-18" x="164.52" y="29.73" width="7" height="314.91"/>
    <rect class="cls-18" x="205.52" y="29.73" width="7" height="314.91"/>
    <rect class="cls-18" x="246.52" y="29.73" width="7" height="314.91"/>
    <rect class="cls-18" x="287.52" y="29.73" width="7" height="314.91"/>
    <rect class="cls-18" x="328.52" y="29.73" width="7" height="314.91"/>
    <rect class="cls-10" x="48.52" y="23.63" width="16" height="321"/>
    <rect class="cls-10" x="89.52" y="23.63" width="17" height="321"/>
    <rect class="cls-10" x="130.52" y="23.63" width="18" height="321"/>
    <rect class="cls-10" x="171.52" y="23.63" width="19" height="321"/>
    <rect class="cls-10" x="212.52" y="23.63" width="20" height="321"/>
    <rect class="cls-10" x="253.52" y="23.63" width="21" height="321"/>
    <rect class="cls-10" x="294.52" y="23.63" width="22" height="321"/>
    <rect class="cls-10" x="335.52" y="23.63" width="22" height="321"/>
    <g>
      <rect class="cls-1" x="4.52" y="28.63" width="20" height="322"/>
      <rect class="cls-1" x="346.52" y="28.63" width="20" height="322"/>
      <rect class="cls-1" x="24.52" y="8.63" width="322" height="20"/>
      <rect class="cls-1" x="24.52" y="350.63" width="322" height="10"/>
    </g>
    <rect class="cls-15" x="346.52" y="29.13" width="1" height="311"/>
    <rect class="cls-15" x="24.52" y="349.63" width="323" height="1"/>
    <rect class="cls-10" x=".52" y="345.63" width="30" height="30"/>
    <rect class="cls-10" x="340.52" y="345.63" width="30" height="30"/>
    <circle class="cls-5" cx="355.52" cy="360.63" r="7"/>
    <circle class="cls-17" cx="14.52" cy="360.63" r="7"/>
    <circle class="cls-16" cx="355.52" cy="360.63" r="7"/>
    <circle class="cls-16" cx="14.52" cy="360.63" r="7"/>
    <polygon class="cls-1" points="32.52 47.18 41.52 47.18 49.02 31.86 64.52 31.86 71.52 47.18 82.52 47.18 90.26 31.86 106.52 31.86 113.52 47.18 123.52 47.18 130.52 31.86 148.52 31.86 155.52 47.18 164.52 47.18 171.52 31.86 190.02 31.86 197.52 47.18 205.52 47.18 212.52 31.86 232.52 31.86 239.52 47.18 246.52 47.18 253.52 31.86 274.52 31.86 281.52 47.18 287.52 47.18 294.52 31.86 316.52 31.86 323.52 47.18 328.52 47.18 335.52 31.86 357.52 31.86 357.52 13.63 24.52 13.63 24.52 30.41 32.52 47.18"/>
    <rect class="cls-15" x="30.02" y="23.63" width="310" height="1"/>
    <rect class="cls-15" x="24.52" y="29.13" width="1" height="313"/>
  </g>
  <g>
    <rect class="cls-20" x="59.02" y="57.63" width="253" height="253" rx="11.64" ry="11.64"/>
    <g id="_紡織品" data-name="紡織品" class="cls-8">
      <g class="cls-8">
        <path class="cls-15" d="m132.54,289.3v1.9h-22.96v-1.9h6.32c.52-2.37,1.07-5.41,1.59-8.5h-4.84v-1.9h5.15c.31-1.92.6-3.85.83-5.59h-7.41v-1.9h19.45v1.9h-9.98c-.26,1.74-.55,3.69-.86,5.59h6.55l.34-.1,1.48.16c-.18,2.86-.55,6.97-.94,10.35h5.28Zm-13-8.5c-.49,3.09-1.04,6.14-1.53,8.5h7.25c.29-2.76.6-6.08.81-8.5h-6.53Z"/>
        <path class="cls-15" d="m138.36,289.36v2.08h-1.48v-9.36c-.39.75-.78,1.46-1.22,2.08-.13-.44-.52-1.53-.78-2.05,1.64-2.44,2.73-6.11,3.38-10.06h-2.91v-1.79h7.88v1.79h-3.38c-.34,2.16-.83,4.26-1.43,6.19h4.26v11.13h-4.32Zm2.81-9.41h-2.81v7.67h2.81v-7.67Zm4.63.78c-.03,3.77-.49,8.76-3.07,12.01-.26-.34-.94-.94-1.33-1.17,2.44-3.09,2.68-7.62,2.68-11.18v-9.54h7.15c-.23-.55-.49-1.14-.73-1.66l1.79-.44c.36.65.73,1.48.96,2.11h5.54v1.51h-13v6.99h13.08v1.38h-13.08Zm5.3,9.49c-1.51.83-3.41,1.74-4.76,2.39-.18-.36-.6-.91-.91-1.25,1.3-.6,3.22-1.53,4.29-2.24l1.38,1.09Zm-2.55-11.88v-2.57h-2.08v-1.22h2.08v-1.53h1.64v1.53h4.24v-1.53h1.72v1.53h2.24v1.22h-2.24v2.57h-7.59Zm-1.69,10.38v-6.99h11.18v6.99h-11.18Zm1.51-4.11h3.12v-1.64h-3.12v1.64Zm0,2.86h3.12v-1.69h-3.12v1.69Zm1.82-11.7v1.35h4.24v-1.35h-4.24Zm6.29,7.2h-3.28v1.64h3.28v-1.64Zm0,2.81h-3.28v1.69h3.28v-1.69Zm-1.82,3.33c1.53.78,3.28,1.72,4.37,2.39l-1.01,1.2c-1.04-.7-2.76-1.69-4.26-2.47l.91-1.12Z"/>
        <path class="cls-15" d="m169.95,269.57c-.75,1.69-1.61,3.35-2.6,4.91v18.15h-1.87v-15.39c-1.12,1.48-2.31,2.83-3.51,3.95-.21-.47-.75-1.46-1.09-1.92,2.83-2.44,5.62-6.32,7.28-10.3l1.79.6Zm10.97,20.41c1.46,0,1.66-1.14,1.87-5.59.49.39,1.25.75,1.79.88-.31,4.81-.83,6.47-3.56,6.47h-4.94c-2.57,0-3.38-.75-3.38-3.51v-18.95h1.87v7.07h9.23v1.87h-9.23v10.06c0,1.38.29,1.69,1.64,1.69h4.71Z"/>
        <path class="cls-15" d="m210.64,288.71v1.92h-23.19v-1.92h10.45v-14.92h-9.1v-1.98h20.54v1.98h-9.33v14.92h10.63Z"/>
        <path class="cls-15" d="m217.16,279.4v3.87c0,2.94-.44,6.92-2.78,9.59-.29-.36-1.04-1.01-1.46-1.25,2.11-2.42,2.37-5.77,2.37-8.37v-5.46h3.28c-.26-.34-.68-.73-.94-.96,2.05-.39,4.42-.91,6.66-1.53-1.98-.57-4-1.09-5.85-1.51l1.14-.94h-4.16v-1.59h9.59c-.44-.65-.94-1.35-1.4-1.92l1.38-.7c.68.78,1.48,1.82,1.98,2.63h8.74v1.59h-3.98l1.04.62c-1.14.62-2.5,1.22-3.98,1.74,1.9.57,3.67,1.14,4.97,1.61l-1.04.96h3.77v1.61h-19.32Zm19.73,10.74v1.64h-19.27v-1.64h8.5v-2.6h-6.06v-1.56h6.06v-2.31h-5.43c-.73,1.25-1.59,2.37-2.47,3.2-.18-.34-.68-1.25-1.01-1.59,1.43-1.35,2.68-3.35,3.43-5.43l1.66.47c-.23.6-.47,1.17-.73,1.77h4.55v-2.21h1.9v2.21h6.99v1.59h-6.99v2.31h6.42v1.56h-6.42v2.6h8.87Zm-4.81-12.35c-1.51-.57-3.41-1.2-5.51-1.85-2.34.75-4.81,1.35-7.02,1.85h12.53Zm-11.93-4.94c2.03.49,4.32,1.09,6.53,1.74,1.66-.55,3.17-1.12,4.34-1.74h-10.87Z"/>
        <path class="cls-15" d="m240.25,281.32h9.18v11.08h-1.9v-1.17h-5.43v1.4h-1.85v-11.31Zm1.85,1.87v6.16h5.43v-6.16h-5.43Zm16.07-4.6h-14.14v-8.61h14.14v8.61Zm-1.95-6.76h-10.32v4.91h10.32v-4.91Zm5.72,9.49v11.13h-1.9v-1.22h-5.9v1.4h-1.87v-11.31h9.67Zm-1.9,8.03v-6.16h-5.9v6.16h5.9Z"/>
      </g>
    </g>
    <g>
      <g>
        <g>
          <path class="cls-11" d="m112.21,106.32s-4.74-3.22-1.68-7.31c0,0,6.28-.43,15.63.61,16.67-5.56,28.73-2.24,43.03-.71,4.06.44,31.07,10.08,33.84,10.06s9.84-2.2,9.86.56c.02,2.77-3.63,2.55-4.6,6.13-.88,3.24-2.16,16.45-5.26,30.7-5.19,23.89-9.38,28.47-10.39,42.59-1.04,14.54-6.62,31.84-9.35,37.4-2.73,5.55-5.19,9.44-5.19,10.39,0,2.08,3.12,2.08,4.16,4.16.9,1.8-4.41,1-10.39,0s-14.41.16-20.78-2.08c-6.36-2.24-29.62-7.49-38.12-12.31-7.65.21-24.77-3.26-26.56-4.38,0,0,.04-.18,1.79-3.11,1.75-2.93-1.89-11.49,11.98-56.4,9.72-31.48,3.06-20.82,12.03-56.28Z"/>
          <path class="cls-21" d="m200.71,118.83c-2.26-2.96-11.46,5.73-17.19,16.05-5.73,10.32-14.68,43.64-24.53,47.61s-1.83,2.97,10.21,12.07c12.04,9.1,5.38,15.34,6.99,22.53,1.61,7.19,4.68,24.07,10.02-25.06,1.9-12.45,12.22-36.52,14.51-52.57,2.29-16.05,2.82-16.95,0-20.63Z"/>
          <path class="cls-21" d="m109.01,149.78c5.73-4.59-2.29,14.9,11.46,24.07,9.54,6.36-6.95,6.81-9.78,13.72-2.83,6.91-9.71,12.64-9.71,2.33s5.73-12.61,4.59-22.93c-1.15-10.32-.36-14.16,3.44-17.19Z"/>
        </g>
        <g>
          <path class="cls-21" d="m119.38,119.39c1.49-.05,2.24-.05,3.72,0-.54.78-2.95,7.08-5.13,14.17-1-.29-1.47-.43-2.36-.69.57-1.83.91-2.83,1.55-4.7-1.48-.38-2.17-.55-3.38-.81-1,1.67-1.46,2.56-2.18,4.28-.52-.17-.73-.24-1.06-.35,1.81-6.7,4.95-11.46,8.83-11.9Zm-3.99,5.54c1.04.16,1.59.27,2.74.51.27-.74.4-1.09.65-1.75.56-1.58,1.17-2.97,1.5-3.7-.04,0-.06,0-.1,0-1.13.7-2.43,1.98-3.6,3.38-.49.59-.73.91-1.19,1.57Z"/>
          <path class="cls-21" d="m132.58,120.19c1.79.33,2.64.53,4.16.96,2.37.66,3.19,1.37,1.05,4.22-1.05,1.41-2.72,2.84-4.06,2.86-.03.05-.05.07-.08.12.9,1.11.84,3.07-.7,5.44-2.29,3.54-5.37,3.7-8.28,2.54-1.89-.75-2.82-1.15-4.55-1.93,4.53-6.52,8.28-13.12,12.46-14.22Zm-.95,5.68c1.53.72,2.8.12,3.78-1.07,1.08-1.31.86-1.94-.55-2.45-.56-.21-.85-.31-1.43-.5-1.22,1.01-1.88,1.75-3.22,3.37.58.26.86.39,1.42.65Zm-5.39,7.92c1.75.81,3.25.48,4.53-1.4,1.19-1.75.9-3-.79-3.84-.68-.34-1.03-.51-1.72-.84-1.55,2.07-2.34,3.21-3.79,5.24.71.33,1.06.5,1.78.83Z"/>
          <path class="cls-21" d="m131.13,137.99c1.08-.43,1.61-.68,2.64-1.21.16,1.31.9,2.15,1.85,2.47,1.13.37,1.91.21,2.36-.61.48-.86.14-1.5-.33-2.55-.28-.63-.42-.96-.69-1.65-.53-1.28-.61-3.4.97-5.89,1.76-2.8,4.11-3.71,4.98-2.86.5.49.44,1.62.14,3.46-.38.73-.61,1.1-1.13,1.82.1-1.28.06-2.12-.39-2.54-.48-.45-1.23-.1-1.86,1.07-.69,1.26-.4,2.14-.08,3.21.18.68.27,1.02.45,1.68.42,1.49.39,3.3-.28,4.8-.75,1.71-2.43,1.52-5.26,1.13-1.64-.22-3.05-.79-3.36-2.33Z"/>
        </g>
        <path class="cls-15" d="m145.69,182.45s-.05,0-.08,0c-37.01-5.2-38.28-21.83-38.32-22.54-.02-.31.22-.58.54-.6.35-.04.59.22.6.54.01.16,1.37,16.41,37.33,21.46.31.04.53.33.49.65-.04.29-.29.49-.57.49Z"/>
        <path class="cls-15" d="m153.52,217.42c-.18-.04-.29-.07-.33-.08-.3-.09-.47-.41-.38-.72.09-.3.43-.46.71-.38.15.05,10.8,2.87,22.41-18.96.15-.28.49-.38.78-.24.28.15.38.5.24.78-11.12,20.9-21.44,20-23.43,19.6Z"/>
      </g>
      <g>
        <polygon class="cls-3" points="237.83 195.73 190.51 195.73 147.98 217.68 147.98 247.17 195.31 217.68 237.83 195.73"/>
        <polygon class="cls-6" points="237.83 225.22 237.83 195.73 195.31 217.68 147.98 247.17 195.31 247.17 237.83 225.22"/>
        <rect class="cls-19" x="147.98" y="217.68" width="47.33" height="29.49"/>
        <polygon class="cls-3" points="305.02 185.49 257.69 185.49 215.16 207.35 215.16 236.72 262.49 207.35 305.02 185.49"/>
        <polygon class="cls-6" points="305.02 214.77 305.02 185.28 262.49 207.23 215.16 236.72 262.49 236.72 305.02 214.77"/>
        <rect class="cls-19" x="215.16" y="207.23" width="47.33" height="29.49"/>
        <g>
          <polygon class="cls-3" points="283.63 155.91 241.68 155.91 196.64 174.99 196.64 204.49 243.97 174.99 283.63 155.91"/>
          <polygon class="cls-6" points="283.66 185.4 283.66 155.91 243.97 174.99 196.64 204.49 243.97 204.49 283.66 185.4"/>
        </g>
        <rect class="cls-19" x="196.64" y="174.99" width="47.33" height="29.49"/>
      </g>
      <g>
        <path class="cls-4" d="m109.92,232.02c2.42,0,4.39-.27,6.08-.71l-13.76-19.84v-15.92c0-.62.5-1.12,1.12-1.12s1.06-.48,1.06-1.06v-2.68c0-.59-.48-1.06-1.06-1.06h-16.22c-.59,0-1.06.48-1.06,1.06v2.68c0,.59.48,1.06,1.06,1.06.62,0,1.12.5,1.12,1.12v15.92l-9.2,13.28c1.43-.29,3.05-.46,4.96-.46,12.95,0,12.95,7.74,25.9,7.74Z"/>
        <path class="cls-2" d="m72.1,249.92h46.3c4.44,0,7.04-4.98,4.52-8.63l-6.92-9.98c-1.69.44-3.66.71-6.08.71-12.95,0-12.95-7.74-25.9-7.74-1.91,0-3.53.17-4.96.46l-11.47,16.55c-2.53,3.65.08,8.63,4.52,8.63Z"/>
        <circle class="cls-2" cx="102.7" cy="227.15" r="1.72"/>
        <circle class="cls-12" cx="88.37" cy="235.75" r="3.44"/>
        <circle class="cls-2" cx="97.54" cy="221.99" r="1.15"/>
      </g>
      <path class="cls-15" d="m118.4,250.5h-46.3c-2.3,0-4.31-1.22-5.38-3.25-1.07-2.04-.92-4.38.39-6.27l20.57-29.68v-15.74c0-.3-.25-.55-.55-.55-.9,0-1.64-.74-1.64-1.64v-2.68c0-.9.73-1.64,1.64-1.64h16.22c.9,0,1.64.73,1.64,1.64v2.68c0,.9-.73,1.64-1.64,1.64-.3,0-.55.25-.55.55v15.74l20.57,29.68c1.31,1.89,1.46,4.24.39,6.27s-3.08,3.25-5.38,3.25Zm-31.26-60.3c-.27,0-.49.22-.49.49v2.68c0,.27.22.49.49.49.93,0,1.69.76,1.69,1.69v16.1l-20.78,29.98c-1.06,1.53-1.18,3.44-.32,5.09.87,1.65,2.5,2.64,4.36,2.64h46.3c1.87,0,3.5-.99,4.36-2.64.87-1.65.75-3.56-.32-5.09l-20.78-29.98v-16.1c0-.93.76-1.69,1.69-1.69.27,0,.49-.22.49-.49v-2.68c0-.27-.22-.49-.49-.49h-16.22Z"/>
      <path class="cls-15" d="m116.66,247.11h-26.39c-.32,0-.57-.26-.57-.57s.26-.57.57-.57h26.39c.32,0,.57.26.57.57s-.26.57-.57.57Z"/>
      <path class="cls-15" d="m220.77,195.63c-.18,0-.37-.09-.48-.26-.18-.26-.1-.62.16-.79l17.19-11.46c.26-.17.62-.11.79.16.18.26.1.62-.16.79l-17.19,11.46c-.1.06-.21.1-.32.1Z"/>
      <path class="cls-15" d="m228.79,195.63c-.18,0-.37-.09-.48-.26-.18-.26-.1-.62.16-.79l10.32-6.88c.26-.18.62-.11.79.16.18.26.1.62-.16.79l-10.32,6.88c-.1.06-.21.1-.32.1Z"/>
      <path class="cls-15" d="m225.35,230.02c-.19,0-.39-.1-.49-.28-.16-.27-.07-.62.2-.78l30.95-18.34c.27-.16.62-.07.78.2.16.27.07.62-.2.78l-30.95,18.34c-.09.05-.19.08-.29.08Z"/>
      <path class="cls-15" d="m241.4,226.58c-.19,0-.38-.1-.49-.28-.16-.27-.07-.62.2-.79l17.19-10.32c.27-.16.62-.07.79.2.16.27.07.62-.2.79l-17.19,10.32c-.09.06-.19.08-.29.08Z"/>
      <path class="cls-15" d="m150.85,244.92c-.19,0-.37-.09-.48-.27-.17-.27-.09-.62.18-.79l21.78-13.76c.26-.17.62-.09.79.18.17.27.09.62-.18.79l-21.78,13.76c-.09.06-.2.09-.31.09Z"/>
      <path class="cls-15" d="m153.14,238.04c-.19,0-.38-.1-.49-.27-.17-.27-.09-.62.18-.79l9.17-5.73c.27-.17.62-.09.79.18.17.27.09.62-.18.79l-9.17,5.73c-.09.06-.2.09-.3.09Z"/>
    </g>
  </g>
  <rect class="cls-10" x=".52" y=".63" width="30" height="30"/>
  <rect class="cls-10" x="340.52" y=".63" width="30" height="30"/>
  <circle class="cls-16" cx="15.52" cy="15.63" r="7"/>
  <circle class="cls-16" cx="355.52" cy="15.63" r="7"/>
</svg>