<?xml version="1.0" encoding="UTF-8"?>
<svg id="_1" data-name="1" xmlns="http://www.w3.org/2000/svg" xmlns:xlink="http://www.w3.org/1999/xlink" viewBox="0 0 371 371">
  <defs>
    <style>
      .cls-1 {
        fill: #0fb698;
      }

      .cls-2 {
        fill: url(#_未命名漸層_14);
      }

      .cls-3 {
        fill: #95f9ca;
      }

      .cls-4 {
        fill: url(#_未命名漸層_14-4);
      }

      .cls-5 {
        fill: #27d8ae;
      }

      .cls-6 {
        fill: url(#_未命名漸層_14-2);
      }

      .cls-7 {
        clip-path: url(#clippath);
      }

      .cls-8 {
        fill: #cafce4;
        opacity: .8;
      }

      .cls-9 {
        fill: none;
      }

      .cls-10 {
        fill: #271e49;
      }

      .cls-11 {
        opacity: .36;
      }

      .cls-12 {
        fill: url(#_未命名漸層_14-3);
      }
    </style>
    <clipPath id="clippath">
      <rect class="cls-9" x="-.36" y="47" width="370" height="324"/>
    </clipPath>
    <linearGradient id="_未命名漸層_14" data-name="未命名漸層 14" x1="426.32" y1="371.23" x2="-83.81" y2="-70.73" gradientUnits="userSpaceOnUse">
      <stop offset="0" stop-color="#95f9ca"/>
      <stop offset="1" stop-color="#0fb698"/>
    </linearGradient>
    <linearGradient id="_未命名漸層_14-2" data-name="未命名漸層 14" x1="572.1" y1="202.96" x2="61.97" y2="-238.99" xlink:href="#_未命名漸層_14"/>
    <linearGradient id="_未命名漸層_14-3" data-name="未命名漸層 14" x1="403.34" y1="397.75" x2="-106.79" y2="-44.2" xlink:href="#_未命名漸層_14"/>
    <linearGradient id="_未命名漸層_14-4" data-name="未命名漸層 14" x1="257.13" y1="566.51" x2="-253" y2="124.56" xlink:href="#_未命名漸層_14"/>
  </defs>
  <g class="cls-7">
    <g>
      <polygon class="cls-1" points="122.5 336 132.6 359 137.86 371 147.14 371 147.14 359 147.14 336 122.5 336"/>
      <polygon class="cls-11" points="122.5 336 132.6 359 147.14 359 147.14 336 122.5 336"/>
    </g>
    <g>
      <polygon class="cls-1" points="30.14 355.79 30.14 359 30.14 371 59.33 359 67.14 355.79 30.14 355.79"/>
      <polygon class="cls-11" points="30.14 355.79 30.14 359 59.33 359 67.14 355.79 30.14 355.79"/>
    </g>
    <g>
      <polygon class="cls-1" points="247.78 336 237.68 359 232.42 371 223.14 371 223.14 359 223.14 336 247.78 336"/>
      <polygon class="cls-11" points="247.78 336 237.68 359 223.14 359 223.14 336 247.78 336"/>
    </g>
    <g>
      <polygon class="cls-1" points="340.14 355.79 340.14 359 340.14 371 310.96 359 303.14 355.79 340.14 355.79"/>
      <polygon class="cls-11" points="340.14 355.79 340.14 359 310.96 359 303.14 355.79 340.14 355.79"/>
    </g>
    <rect class="cls-5" x="24.14" y="24" width="322" height="322"/>
    <polygon class="cls-1" points="323.14 323 323.14 30 316.14 30 316.14 340 281.14 323 281.14 30 274.14 30 274.14 340 239.14 323 239.14 30 232.14 30 232.14 340 197.14 323 197.14 30 190.14 30 190.14 340 155.14 323 155.14 30 148.14 30 148.14 340 113.14 323 113.14 30 106.14 30 106.14 340 71.14 323 71.14 30 64.14 30 64.14 340 32.14 324.46 32.14 30 24.14 30 24.14 347 29.14 347 32.14 347 355.14 347 355.14 340 323.14 323"/>
    <g>
      <rect class="cls-3" x="41.14" y="30.09" width="7" height="314.91"/>
      <rect class="cls-3" x="82.14" y="30.09" width="7" height="314.91"/>
      <rect class="cls-3" x="123.14" y="30.09" width="7" height="314.91"/>
      <rect class="cls-3" x="164.14" y="30.09" width="7" height="314.91"/>
      <rect class="cls-3" x="205.14" y="30.09" width="7" height="314.91"/>
      <rect class="cls-3" x="246.14" y="30.09" width="7" height="314.91"/>
      <rect class="cls-3" x="287.14" y="30.09" width="7" height="314.91"/>
      <rect class="cls-3" x="328.14" y="30.09" width="7" height="314.91"/>
    </g>
    <rect class="cls-5" x="48.14" y="24" width="16" height="321"/>
    <rect class="cls-5" x="89.14" y="24" width="17" height="321"/>
    <rect class="cls-5" x="130.14" y="24" width="18" height="321"/>
    <rect class="cls-5" x="171.14" y="24" width="19" height="321"/>
    <rect class="cls-5" x="212.14" y="24" width="20" height="321"/>
    <rect class="cls-5" x="253.14" y="24" width="21" height="321"/>
    <rect class="cls-5" x="294.14" y="24" width="22" height="321"/>
    <rect class="cls-5" x="335.14" y="24" width="22" height="321"/>
    <polygon class="cls-1" points="32.14 46.55 41.14 46.55 48.64 31.23 64.14 31.23 71.14 46.55 82.14 46.55 89.89 31.23 106.14 31.23 113.14 46.55 123.14 46.55 130.14 31.23 148.14 31.23 155.14 46.55 164.14 46.55 171.14 31.23 189.64 31.23 197.14 46.55 205.14 46.55 212.14 31.23 232.14 31.23 239.14 46.55 246.14 46.55 253.14 31.23 274.14 31.23 281.14 46.55 287.14 46.55 294.14 31.23 316.14 31.23 323.14 46.55 328.14 46.55 335.14 31.23 357.14 31.23 357.14 13 24.14 13 24.14 29.78 32.14 46.55"/>
    <g>
      <rect class="cls-1" x="4.14" y="24" width="20" height="322"/>
      <rect class="cls-1" x="346.14" y="24" width="20" height="322"/>
      <rect class="cls-1" x="24.14" y="4" width="322" height="20"/>
      <rect class="cls-1" x="24.14" y="346" width="322" height="10"/>
    </g>
    <rect class="cls-10" x="24.14" y="29.5" width="1" height="313"/>
    <rect class="cls-10" x="29.64" y="23" width="310" height="1"/>
    <rect class="cls-10" x="346.14" y="29.5" width="1" height="311"/>
    <rect class="cls-10" x="24.14" y="345" width="323" height="1"/>
    <rect class="cls-5" x=".14" width="30" height="30"/>
    <rect class="cls-5" x=".14" y="341" width="30" height="30"/>
    <rect class="cls-5" x="340.14" y="341" width="30" height="30"/>
    <rect class="cls-5" x="340.14" width="30" height="30"/>
    <circle class="cls-2" cx="15.14" cy="15" r="7"/>
    <circle class="cls-6" cx="355.14" cy="15" r="7"/>
    <circle class="cls-12" cx="355.14" cy="356" r="7"/>
    <circle class="cls-4" cx="14.14" cy="356" r="7"/>
    <circle class="cls-11" cx="15.14" cy="15" r="7"/>
    <circle class="cls-11" cx="355.14" cy="15" r="7"/>
    <circle class="cls-11" cx="355.14" cy="356" r="7"/>
    <circle class="cls-11" cx="14.14" cy="356" r="7"/>
  </g>
  <rect id="Rectangle_1328" data-name="Rectangle 1328" class="cls-8" x="32.14" y="212.27" width="305" height="97" rx="4" ry="4"/>
  <g>
    <path class="cls-10" d="m50.71,232.38c-.38,1.94-1.15,4.41-2.09,5.67-.13-.4-.43-.97-.65-1.31.74-1.04,1.53-3.04,1.85-4.65l.88.29Zm1.4-1.33v9.18h-1.21v-9.18h-2.63v-1.26h2.63v-6h1.21v6h2.21v1.26h-2.21Zm-2.77-2.04c-.18-1.03-.59-2.61-.97-3.8l.99-.23c.4,1.21.83,2.75,1.01,3.76l-1.03.27Zm3.73,3.1c.32.47,1.55,2.7,1.8,3.24l-.92.99c-.31-.88-1.26-3.02-1.62-3.73l.74-.5Zm1.71-6.73c-.47,1.24-1.03,2.81-1.49,3.75l-.86-.31c.41-1.01.97-2.7,1.22-3.83l1.13.4Zm8.84,13.45c0,.65-.13.97-.61,1.17-.45.2-1.19.2-2.32.2-.05-.34-.22-.79-.38-1.12.81.04,1.55.04,1.76.02.23,0,.29-.07.29-.27v-1.53h-5.58c-.2,1.13-.56,2.27-1.3,3.15-.2-.25-.67-.74-.94-.88,1.06-1.35,1.19-3.17,1.19-4.59v-3.31h7.89v7.17Zm1.04-9.25v1.03h-9.99v-1.03h4.25v-1.22h-3.6v-.97h3.6v-1.1h-4.05v-1.03h4.05v-1.46h1.31v1.46h4.25v1.03h-4.25v1.1h3.92v.97h-3.92v1.22h4.43Zm-2.3,6.77v-1.33h-5.4c0,.41-.02.86-.05,1.33h5.46Zm-5.4-3.62v1.33h5.4v-1.33h-5.4Z"/>
    <path class="cls-10" d="m72.32,233.49c-.23-.58-.81-1.66-1.3-2.54v9.25h-1.22v-8.75c-.59,1.98-1.39,3.92-2.21,5.11-.14-.4-.47-.97-.7-1.3,1.12-1.49,2.25-4.34,2.79-6.79h-2.36v-1.26h2.49v-3.46h1.22v3.46h1.75v1.26h-1.75v.85c.47.63,1.8,2.7,2.11,3.22l-.81.94Zm2.07-1.26h1.19v2.04c0,1.98-.29,4.27-2.61,5.96-.18-.29-.59-.72-.86-.9,2.05-1.48,2.29-3.44,2.29-5.08v-2.02Zm8.07-.14c-.22-.34-.52-.77-.85-1.22-6.7.45-7.51.5-8,.72-.07-.27-.29-.92-.45-1.28.38-.09.79-.49,1.33-1.12.27-.31.85-1.01,1.51-1.95h-2.88v-1.15h3.64c.45-.7.92-1.46,1.3-2.21l1.31.52c-.34.56-.68,1.15-1.06,1.69h4.88v1.15h-5.67c-.74,1.04-1.51,2.02-2.27,2.84l5.55-.32c-.43-.56-.86-1.13-1.28-1.62l.94-.58c1.01,1.19,2.34,2.84,2.99,3.8l-.99.72Zm-5.17.31h1.19v7.04h-1.19v-7.04Zm5.44,6.52c.22,0,.58-.02.79-.09,0,.31.05.76.09,1.03-.2.07-.54.07-.86.07h-1.1c-1.15,0-1.39-.43-1.39-1.66v-6.01h1.13v6.03c0,.49.04.63.29.63h1.04Z"/>
    <path class="cls-10" d="m99.84,238.61c1.06,0,1.24-.47,1.39-2.54.34.25.9.45,1.31.56-.23,2.49-.68,3.28-2.67,3.28h-4.59c-2.16,0-2.79-.52-2.79-2.5v-2.39l-5.87.77-.2-1.26,6.07-.79v-2.79l-5.31.74-.2-1.26,5.51-.76v-2.74c-1.82.34-3.67.63-5.44.85-.05-.32-.25-.86-.4-1.15,4.45-.59,9.53-1.57,12.3-2.72l1.13,1.04c-1.71.68-3.91,1.24-6.23,1.73v2.79l6.84-.95.18,1.24-7.02.99v2.81l8.05-1.04.18,1.24-8.23,1.08v2.61c0,.95.23,1.17,1.5,1.17h4.48Z"/>
    <path class="cls-10" d="m110.67,234.41c-.05-.25-.11-.54-.22-.86-4.07.61-4.63.76-4.99.96-.07-.27-.27-.9-.41-1.24.38-.09.81-.52,1.35-1.17.31-.32.9-1.08,1.58-2.05-1.96.22-2.38.31-2.63.43-.07-.27-.27-.9-.41-1.21.31-.07.63-.47,1.03-.99.38-.56,1.69-2.59,2.47-4.56l1.22.52c-.83,1.69-1.85,3.44-2.9,4.81l2.03-.18c.47-.76.95-1.55,1.33-2.34l1.15.67c-1.21,2.05-2.65,4.11-4.12,5.73l2.95-.41c-.2-.58-.41-1.15-.65-1.67l1.03-.36c.52,1.13,1.06,2.63,1.28,3.51l-1.1.43Zm-3.71,1.06c-.18,1.55-.54,3.24-.92,4.36-.25-.14-.81-.32-1.1-.41.41-1.1.68-2.7.86-4.14l1.15.2Zm1.93-.29c.23,1.26.45,2.86.5,3.93l-1.13.22c-.04-1.06-.23-2.68-.45-3.94l1.08-.2Zm1.85-.49c.4.99.81,2.27.97,3.1l-1.06.38c-.14-.85-.56-2.18-.9-3.19l.99-.29Zm9.78-1.8c-1.33,3.8-4.14,6.12-8.61,7.31-.14-.36-.45-.88-.76-1.15,4.21-.99,6.9-3.1,8.14-6.54l1.22.38Zm-5.87-5.82c-.38,2.04-.95,4.23-1.58,5.67-.23-.16-.83-.43-1.12-.52.63-1.4,1.15-3.51,1.49-5.42l1.21.27Zm2.45,7.63h-1.28v-10.93h1.28v10.93Zm3.21-2.84c-.31-1.33-1.13-3.39-1.98-4.92l1.12-.38c.9,1.53,1.75,3.53,2.09,4.84l-1.22.45Z"/>
    <path class="cls-10" d="m125.07,230.61l1.17-1.03c1.28,1.04,2.92,2.67,4.03,4l-1.22,1.03c-1.17-1.42-2.7-2.95-3.98-4Z"/>
    <path class="cls-10" d="m136.36,232.38c-.38,1.94-1.15,4.41-2.09,5.67-.13-.4-.43-.97-.65-1.31.74-1.04,1.53-3.04,1.85-4.65l.88.29Zm1.4-1.33v9.18h-1.21v-9.18h-2.63v-1.26h2.63v-6h1.21v6h2.21v1.26h-2.21Zm-2.77-2.04c-.18-1.03-.59-2.61-.97-3.8l.99-.23c.4,1.21.83,2.75,1.01,3.76l-1.03.27Zm3.73,3.1c.32.47,1.55,2.7,1.8,3.24l-.92.99c-.31-.88-1.26-3.02-1.62-3.73l.74-.5Zm1.71-6.73c-.47,1.24-1.03,2.81-1.49,3.75l-.86-.31c.41-1.01.97-2.7,1.22-3.83l1.13.4Zm8.84,13.45c0,.65-.13.97-.61,1.17-.45.2-1.19.2-2.32.2-.05-.34-.22-.79-.38-1.12.81.04,1.55.04,1.76.02.23,0,.29-.07.29-.27v-1.53h-5.58c-.2,1.13-.56,2.27-1.3,3.15-.2-.25-.67-.74-.94-.88,1.06-1.35,1.19-3.17,1.19-4.59v-3.31h7.89v7.17Zm1.04-9.25v1.03h-9.99v-1.03h4.25v-1.22h-3.6v-.97h3.6v-1.1h-4.05v-1.03h4.05v-1.46h1.31v1.46h4.25v1.03h-4.25v1.1h3.92v.97h-3.92v1.22h4.43Zm-2.3,6.77v-1.33h-5.4c0,.41-.02.86-.05,1.33h5.46Zm-5.4-3.62v1.33h5.4v-1.33h-5.4Z"/>
    <path class="cls-10" d="m157.98,233.49c-.23-.58-.81-1.66-1.3-2.54v9.25h-1.22v-8.75c-.59,1.98-1.39,3.92-2.21,5.11-.14-.4-.47-.97-.7-1.3,1.12-1.49,2.25-4.34,2.79-6.79h-2.36v-1.26h2.49v-3.46h1.22v3.46h1.75v1.26h-1.75v.85c.47.63,1.8,2.7,2.11,3.22l-.81.94Zm2.07-1.26h1.19v2.04c0,1.98-.29,4.27-2.61,5.96-.18-.29-.59-.72-.86-.9,2.05-1.48,2.29-3.44,2.29-5.08v-2.02Zm8.07-.14c-.22-.34-.52-.77-.85-1.22-6.7.45-7.51.5-8,.72-.07-.27-.29-.92-.45-1.28.38-.09.79-.49,1.33-1.12.27-.31.85-1.01,1.51-1.95h-2.88v-1.15h3.64c.45-.7.92-1.46,1.3-2.21l1.31.52c-.34.56-.68,1.15-1.06,1.69h4.88v1.15h-5.67c-.74,1.04-1.51,2.02-2.27,2.84l5.55-.32c-.43-.56-.86-1.13-1.28-1.62l.94-.58c1.01,1.19,2.34,2.84,2.99,3.8l-.99.72Zm-5.17.31h1.19v7.04h-1.19v-7.04Zm5.44,6.52c.22,0,.58-.02.79-.09,0,.31.05.76.09,1.03-.2.07-.54.07-.86.07h-1.1c-1.15,0-1.39-.43-1.39-1.66v-6.01h1.13v6.03c0,.49.04.63.29.63h1.04Z"/>
    <path class="cls-10" d="m175.83,229.75c.54.63,2.02,2.5,2.36,2.99l-.83,1.03c-.27-.56-.95-1.6-1.53-2.45v8.88h-1.28v-8.32c-.59,1.94-1.39,3.85-2.21,5-.14-.36-.47-.9-.7-1.21,1.12-1.51,2.25-4.34,2.77-6.79h-2.47v-1.26h2.61v-3.85h1.28v3.85h2.32v1.26h-2.32v.86Zm11.79,7.69c0,.63-.11.95-.56,1.15-.41.2-1.1.2-2.09.2-.04-.34-.2-.79-.36-1.15.7.02,1.28.04,1.48.02.2-.02.25-.05.25-.23v-3.13h-2.81v5.91h-1.3v-5.91h-2.63v4.52h-1.26v-5.71h3.89v-1.46h-3.44v-6.16h2.99c.13-.58.27-1.24.34-1.73l1.53.16c-.18.52-.38,1.1-.58,1.57h4.18v6.16h-3.73v1.46h4.09v4.34Zm-7.56-9.4h5.91v-1.51h-5.91v1.51Zm0,2.56h5.91v-1.57h-5.91v1.57Z"/>
    <path class="cls-10" d="m196.32,234.41c-.05-.25-.11-.54-.22-.86-4.07.61-4.63.76-4.99.96-.07-.27-.27-.9-.41-1.24.38-.09.81-.52,1.35-1.17.31-.32.9-1.08,1.58-2.05-1.96.22-2.38.31-2.63.43-.07-.27-.27-.9-.41-1.21.31-.07.63-.47,1.03-.99.38-.56,1.69-2.59,2.47-4.56l1.22.52c-.83,1.69-1.85,3.44-2.9,4.81l2.03-.18c.47-.76.95-1.55,1.33-2.34l1.15.67c-1.21,2.05-2.65,4.11-4.12,5.73l2.95-.41c-.2-.58-.41-1.15-.65-1.67l1.03-.36c.52,1.13,1.06,2.63,1.28,3.51l-1.1.43Zm-3.71,1.06c-.18,1.55-.54,3.24-.92,4.36-.25-.14-.81-.32-1.1-.41.41-1.1.68-2.7.86-4.14l1.15.2Zm1.93-.29c.23,1.26.45,2.86.5,3.93l-1.13.22c-.04-1.06-.23-2.68-.45-3.94l1.08-.2Zm1.85-.49c.4.99.81,2.27.97,3.1l-1.06.38c-.14-.85-.56-2.18-.9-3.19l.99-.29Zm9.78-1.8c-1.33,3.8-4.14,6.12-8.61,7.31-.14-.36-.45-.88-.76-1.15,4.21-.99,6.9-3.1,8.14-6.54l1.22.38Zm-5.87-5.82c-.38,2.04-.95,4.23-1.58,5.67-.23-.16-.83-.43-1.12-.52.63-1.4,1.15-3.51,1.49-5.42l1.21.27Zm2.45,7.63h-1.28v-10.93h1.28v10.93Zm3.21-2.84c-.31-1.33-1.13-3.39-1.98-4.92l1.12-.38c.9,1.53,1.75,3.53,2.09,4.84l-1.22.45Z"/>
    <path class="cls-10" d="m210.72,230.61l1.17-1.03c1.28,1.04,2.92,2.67,4.03,4l-1.22,1.03c-1.17-1.42-2.7-2.95-3.98-4Z"/>
    <path class="cls-10" d="m224.48,233.51c-.23-.56-.74-1.55-1.21-2.41v9.11h-1.26v-8.34c-.52,1.84-1.22,3.58-1.93,4.7-.16-.38-.47-.97-.68-1.28,1.03-1.53,2.07-4.38,2.54-6.81h-2.07v-1.26h2.14v-3.46h1.26v3.46h1.98v1.26h-1.98v.92c.5.7,1.73,2.63,2.02,3.11l-.81.99Zm10.15-.16c-.67,1.71-1.73,3.06-3.02,4.1,1.22.7,2.68,1.26,4.43,1.58-.25.25-.58.77-.74,1.13-1.89-.43-3.47-1.12-4.75-1.96-1.55.95-3.35,1.6-5.24,2.03-.13-.34-.43-.83-.67-1.1,1.75-.31,3.42-.88,4.86-1.71-.68-.56-1.28-1.17-1.75-1.82-.45.43-.92.79-1.4,1.13-.2-.25-.65-.68-.9-.9.58-.34,1.13-.76,1.64-1.22-.23-.4-.43-.81-.61-1.21l.95-.59c.13.32.29.65.47.95.58-.72,1.06-1.51,1.39-2.41l1.17.27c-.18.49-.41.94-.65,1.37h3.75l.23-.05.85.4Zm-5-5.01c-.32,2.02-1.17,3.31-3.67,4.07-.13-.27-.47-.74-.72-.95,2.11-.56,2.88-1.5,3.13-3.01-1.49.13-1.87.2-2.12.31-.07-.27-.27-.88-.43-1.22.32-.04.67-.31,1.08-.67s1.85-1.78,2.81-3.22l1.28.45c-.92,1.17-1.93,2.29-2.94,3.19l5.11-.29c-.47-.59-.97-1.19-1.4-1.69l1.03-.52c1.01,1.12,2.36,2.7,3.03,3.64l-1.06.65c-.18-.29-.45-.63-.76-1.03l-1.53.11v1.98c0,.43.05.56.38.56h1.85c.31,0,.77-.02,1.01-.09.04.32.07.81.11,1.08-.22.09-.65.09-1.08.09h-1.93c-1.24,0-1.53-.43-1.53-1.64v-1.89l-1.64.11Zm-.52,5.74c-.16.25-.36.47-.56.7.52.7,1.19,1.39,2,1.96.97-.72,1.78-1.6,2.36-2.67h-3.8Z"/>
    <path class="cls-10" d="m240.21,235.44c-.2,1.55-.5,3.22-.88,4.32-.22-.11-.67-.25-.92-.32.43-1.12.68-2.7.85-4.14l.95.14Zm2.92-.9c-.04-.27-.09-.59-.18-.97-3.19.63-3.69.77-3.98.94-.05-.23-.25-.81-.38-1.08.34-.09.7-.56,1.21-1.22.25-.32.81-1.13,1.42-2.18-1.76.23-2.14.32-2.38.45-.05-.25-.25-.81-.4-1.13.29-.07.56-.43.86-.99.36-.52,1.44-2.59,2-4.54l1.15.49c-.65,1.69-1.49,3.44-2.38,4.81l1.75-.14c.41-.77.81-1.57,1.13-2.36l1.06.56c-1.03,2.07-2.32,4.18-3.62,5.83l2.32-.38c-.13-.58-.29-1.15-.47-1.66l.9-.2c.4,1.13.79,2.65.92,3.51l-.95.27Zm-1.44.74c.22,1.21.43,2.77.49,3.8l-.95.22c-.02-1.04-.23-2.63-.43-3.83l.9-.18Zm1.53-.36c.41,1.1.88,2.52,1.08,3.46l-.9.31c-.18-.95-.65-2.41-1.03-3.49l.85-.27Zm11.24-3.4c-.47,1.62-1.15,3.13-2.04,4.48.31,1.39.7,2.2,1.15,2.21.27,0,.49-.83.59-2.27.2.27.67.56.86.67-.34,2.41-.9,3.08-1.46,3.06-.9-.02-1.55-.94-2.02-2.48-.81,1.03-1.78,1.93-2.88,2.68-.16-.23-.58-.65-.81-.83.43-.29.85-.59,1.24-.94h-.61v-.47h-2.67v1.24h-1.04v-7.51h4.83v6.3c.59-.56,1.12-1.19,1.6-1.84-.29-1.49-.5-3.35-.65-5.49h-6.79v-1.1h1.64c-.07-.67-.27-1.48-.49-2.14l.92-.2c.27.72.5,1.66.58,2.34h1.26c.23-.72.49-1.67.61-2.34l1.13.27c-.23.68-.49,1.44-.7,2.07h1.8c-.09-1.67-.14-3.49-.18-5.4h1.15c.02,1.91.07,3.73.16,5.4h3.15v1.1h-3.1c.09,1.53.23,2.93.41,4.1.56-1.01.99-2.09,1.31-3.21l1.01.27Zm-4.45-4.68h-5.87v-1.06h2.56c-.23-.49-.52-1.04-.81-1.49l1.08-.36c.38.54.79,1.3,1.01,1.85h2.04v1.06Zm-4.18,5.51v1.66h2.67v-1.66h-2.67Zm2.67,4.32v-1.69h-2.67v1.69h2.67Zm5.28-8.01c-.31-.88-1.03-2.25-1.71-3.26l.99-.41c.68,1.01,1.44,2.32,1.76,3.17l-1.04.5Z"/>
    <path class="cls-10" d="m261.88,233.67v6.55h-1.24v-6.16c-1.06.32-2.09.65-2.97.92l-.36-1.28c.92-.25,2.07-.56,3.33-.95v-4.01h-1.64c-.22,1.01-.47,1.93-.79,2.66-.23-.16-.74-.49-1.03-.59.68-1.53,1.03-3.8,1.24-6l1.17.2c-.09.81-.22,1.64-.34,2.43h1.39v-3.66h1.24v3.66h1.84v1.3h-1.84v3.67l2.09-.65.18,1.19-2.27.72Zm11.78-6.9s0,.52-.02.68c-.4,8.16-.79,10.95-1.51,11.85-.34.47-.7.63-1.24.68-.49.07-1.26.05-2.05,0-.02-.4-.14-.95-.38-1.31.81.07,1.53.09,1.89.09.29,0,.47-.07.67-.31.58-.63.97-3.29,1.33-10.42h-.86c-.9,4.72-2.88,9.51-5.87,11.88-.25-.29-.72-.61-1.12-.81,2.95-2.12,4.9-6.55,5.83-11.07h-1.48c-.81,3.08-2.47,6.45-4.43,8.16-.25-.27-.68-.58-1.06-.77,1.91-1.49,3.51-4.5,4.34-7.38h-1.55c-.59,1.31-1.28,2.5-2.05,3.42-.22-.22-.76-.59-1.03-.77,1.48-1.6,2.56-4.2,3.15-6.91l1.22.25c-.22.95-.49,1.87-.79,2.75h7Z"/>
    <path class="cls-10" d="m277.44,230.61l1.17-1.03c1.28,1.04,2.92,2.67,4.03,4l-1.22,1.03c-1.17-1.42-2.7-2.95-3.98-4Z"/>
    <path class="cls-10" d="m288.68,236.26c1.53-.45,3.35-.99,5.11-1.53l.18,1.19c-2.5.81-5.19,1.66-7.15,2.25l-.31-1.31c.27-.07.54-.14.85-.23v-10.75c1.87-.43,4.02-1.12,5.24-1.73l1.04,1.06c-1.37.59-3.24,1.13-4.97,1.53v3.35h4.99v1.3h-4.99v4.88Zm13.31-.56c0,.77-.16,1.24-.72,1.48-.56.25-1.51.27-2.83.27-.07-.38-.32-1.04-.54-1.42,1.1.05,2.09.04,2.38.04.31-.02.38-.11.38-.38v-9.33h-4.45v13.79h-1.31v-15.11h7.09v10.66Z"/>
    <path class="cls-10" d="m311.11,228.99c-.41.86-.92,1.73-1.48,2.54v8.7h-1.31v-6.97c-.68.81-1.4,1.51-2.12,2.11-.22-.25-.77-.72-1.08-.94,1.87-1.37,3.62-3.58,4.7-5.83l1.3.4Zm.04-3.42h1.89v1.28h-1.89v1.69h-1.31v-1.69h-4.3v-1.28h4.3v-1.8h1.31v1.8Zm4.56,1.28h-2v-1.28h2v-1.8h1.31v1.8h4.21v1.28h-4.21v1.78h-1.31v-1.78Zm3.58,11.87c.83,0,.97-.45,1.08-2.77.31.25.83.47,1.22.56-.2,2.68-.58,3.48-2.23,3.48h-3.31c-1.78,0-2.29-.45-2.29-2.16v-9.02h1.31v3.01h6.12v1.28h-6.12v4.75c0,.74.18.88,1.08.88h3.13Z"/>
    <path class="cls-10" d="m52.31,255.75c.54.63,2.02,2.5,2.36,2.99l-.83,1.03c-.27-.56-.95-1.6-1.53-2.45v8.88h-1.28v-8.32c-.59,1.94-1.39,3.85-2.21,5-.14-.36-.47-.9-.7-1.21,1.12-1.51,2.25-4.34,2.77-6.79h-2.47v-1.26h2.61v-3.85h1.28v3.85h2.32v1.26h-2.32v.86Zm11.79,7.69c0,.63-.11.95-.56,1.15-.41.2-1.1.2-2.09.2-.04-.34-.2-.79-.36-1.15.7.02,1.28.04,1.48.02.2-.02.25-.05.25-.23v-3.13h-2.81v5.91h-1.3v-5.91h-2.63v4.52h-1.26v-5.71h3.89v-1.46h-3.44v-6.16h2.99c.13-.58.27-1.24.34-1.73l1.53.16c-.18.52-.38,1.1-.58,1.57h4.18v6.16h-3.73v1.46h4.09v4.34Zm-7.56-9.4h5.91v-1.51h-5.91v1.51Zm0,2.56h5.91v-1.57h-5.91v1.57Z"/>
    <path class="cls-10" d="m68.28,256.61l1.17-1.03c1.28,1.04,2.92,2.67,4.03,4l-1.22,1.03c-1.17-1.42-2.7-2.95-3.98-4Z"/>
    <path class="cls-10" d="m82.33,258.61s-.02.4-.04.58c-.22,4.21-.43,5.8-.9,6.36-.31.36-.61.49-1.12.54-.45.04-1.3.02-2.14-.02-.02-.41-.18-.94-.38-1.31.86.09,1.69.11,2,.11s.47-.04.63-.2c.29-.32.5-1.6.67-4.86h-3.58c.13-1.37.18-3.57.18-5.22h3.38v-2.75h-3.66v-1.21h4.9v5.17h-3.49c-.02.95-.05,1.96-.09,2.83h3.64Zm11.2,4.93h-4.9v2.68h-1.24v-2.68h-4.63v-1.13h4.63v-1.22h-3.76v-5.94h8.93v5.94h-3.92v1.22h4.9v1.13Zm-6.03-9.27h-4.21v-3.82h4.21v3.82Zm-1.13-2.84h-2v1.87h2v-1.87Zm-1.55,6.28h2.58v-1.42h-2.58v1.42Zm2.58,2.43v-1.44h-2.58v1.44h2.58Zm5.47-5.87h-4.34v-3.82h4.34v3.82Zm-1.53,2.02h-2.7v1.42h2.7v-1.42Zm0,2.41h-2.7v1.44h2.7v-1.44Zm.4-7.27h-2.12v1.87h2.12v-1.87Z"/>
    <path class="cls-10" d="m95.78,257.78c.49-1.19.81-3.15.94-4.61l1.01.14c-.09,1.48-.43,3.51-.9,4.83l-1.04-.36Zm2.59-8.01h1.33v16.44h-1.33v-16.44Zm2.39,2.88c.54.97,1.1,2.25,1.31,3.01l-1.01.49c-.2-.77-.74-2.07-1.24-3.06l.94-.43Zm11.47,11.67v1.28h-10.98v-1.28h5.15v-4.5h-3.82v-1.24h3.82v-3.73h-2.63c-.36,1.08-.77,2.02-1.26,2.79-.27-.18-.86-.47-1.19-.61,1.04-1.57,1.76-3.98,2.18-6.43l1.3.22c-.18.94-.4,1.87-.65,2.75h2.25v-3.73h1.33v3.73h4.07v1.28h-4.07v3.73h3.67v1.24h-3.67v4.5h4.5Z"/>
    <path class="cls-10" d="m117.04,261.49c-.32,1.51-.77,3.19-1.22,4.29-.23-.13-.74-.27-1.03-.34.5-1.12.9-2.72,1.17-4.16l1.08.22Zm4.03-5.08c.54,1.12,1.1,2.65,1.3,3.55l-1.06.34c-.05-.23-.14-.56-.23-.88-4.75.72-5.35.86-5.71,1.08-.07-.27-.27-.86-.41-1.19.4-.09.85-.54,1.46-1.19.34-.34,1.01-1.12,1.78-2.14-2.27.25-2.7.36-2.95.49-.05-.25-.25-.83-.4-1.15.32-.07.65-.45,1.08-.99.43-.52,1.87-2.61,2.74-4.61l1.15.52c-.9,1.71-2,3.46-3.11,4.81l2.34-.2c.56-.79,1.1-1.66,1.58-2.5l1.08.68c-1.39,2.16-2.97,4.27-4.59,5.92l3.66-.52c-.22-.59-.45-1.21-.68-1.75l.99-.27Zm-2.03,4.74c.23,1.22.47,2.77.54,3.82l-1.06.25c-.05-1.04-.27-2.61-.49-3.83l1.01-.23Zm2.07-.41c.47,1.04.95,2.41,1.17,3.29l-1.01.38c-.22-.88-.68-2.3-1.12-3.37l.95-.31Zm4.38-.29c-.38,1.66-1.04,3.28-1.78,4.36-.25-.18-.79-.4-1.1-.52.81-1.04,1.37-2.54,1.71-4.07l1.17.23Zm2.2-1.33v5.64c0,.65-.09.95-.54,1.17-.41.2-1.1.2-2.05.2-.05-.34-.22-.81-.38-1.15.68.02,1.31.02,1.5.02.2-.02.25-.07.25-.25v-5.47c-2.27.23-2.68.32-2.97.45-.05-.25-.25-.85-.4-1.19.4-.07.83-.5,1.44-1.12.32-.32,1.01-1.08,1.76-2.05-2.2.25-2.61.34-2.86.43-.07-.23-.25-.81-.4-1.12.29-.05.56-.38.92-.85.36-.45,1.53-2.21,2.21-3.87l1.15.49c-.72,1.4-1.62,2.84-2.5,4l2.32-.22c.54-.74,1.06-1.51,1.53-2.29l1.06.67c-1.39,2.11-2.99,4.12-4.59,5.73l4.18-.41c-.31-.67-.7-1.33-1.08-1.95l.99-.43c.81,1.22,1.64,2.86,1.93,3.91l-1.06.52c-.07-.32-.2-.68-.34-1.06l-2.07.22Zm2.03,1.03c.72,1.26,1.42,2.92,1.73,4.01l-1.15.41c-.27-1.08-.99-2.79-1.66-4.07l1.08-.36Z"/>
    <path class="cls-10" d="m139.53,260.41c-.05-.25-.11-.54-.22-.86-4.07.61-4.63.76-4.99.96-.07-.27-.27-.9-.41-1.24.38-.09.81-.52,1.35-1.17.31-.32.9-1.08,1.58-2.05-1.96.22-2.38.31-2.63.43-.07-.27-.27-.9-.41-1.21.31-.07.63-.47,1.03-.99.38-.56,1.69-2.59,2.47-4.56l1.22.52c-.83,1.69-1.85,3.44-2.9,4.81l2.03-.18c.47-.76.95-1.55,1.33-2.34l1.15.67c-1.21,2.05-2.65,4.11-4.12,5.73l2.95-.41c-.2-.58-.41-1.15-.65-1.67l1.03-.36c.52,1.13,1.06,2.63,1.28,3.51l-1.1.43Zm-3.71,1.06c-.18,1.55-.54,3.24-.92,4.36-.25-.14-.81-.32-1.1-.41.41-1.1.68-2.7.86-4.14l1.15.2Zm1.93-.29c.23,1.26.45,2.86.5,3.93l-1.13.22c-.04-1.06-.23-2.68-.45-3.94l1.08-.2Zm1.85-.49c.4.99.81,2.27.97,3.1l-1.06.38c-.14-.85-.56-2.18-.9-3.19l.99-.29Zm9.78-1.8c-1.33,3.8-4.14,6.12-8.61,7.31-.14-.36-.45-.88-.76-1.15,4.21-.99,6.9-3.1,8.14-6.54l1.22.38Zm-5.87-5.82c-.38,2.04-.95,4.23-1.58,5.67-.23-.16-.83-.43-1.12-.52.63-1.4,1.15-3.51,1.49-5.42l1.21.27Zm2.45,7.63h-1.28v-10.93h1.28v10.93Zm3.21-2.84c-.31-1.33-1.13-3.39-1.98-4.92l1.12-.38c.9,1.53,1.75,3.53,2.09,4.84l-1.22.45Z"/>
    <path class="cls-10" d="m153.93,256.61l1.17-1.03c1.28,1.04,2.92,2.67,4.03,4l-1.22,1.03c-1.17-1.42-2.7-2.95-3.98-4Z"/>
    <path class="cls-10" d="m172.41,250.31c-.18.29-.38.54-.58.81,2.11,2.23,4.61,3.71,7.47,4.92-.34.29-.72.79-.92,1.21-1.03-.5-2-1.01-2.92-1.6v1.22h-9.02v-.92c-.9.54-1.82,1.04-2.75,1.46-.23-.36-.59-.86-.97-1.17,3.4-1.35,6.7-3.73,8.52-6.5l1.17.58Zm-6.9,8.71h11.09v7.09h-1.39v-.94h-8.35v1.01h-1.35v-7.17Zm1.35,1.19v3.73h8.35v-3.73h-8.35Zm8.57-4.59c-1.58-.97-3.03-2.11-4.38-3.55-1.17,1.35-2.59,2.54-4.12,3.55h8.5Z"/>
    <path class="cls-10" d="m196.85,255.87c-.77,2.32-1.84,4.38-3.17,6.09.67,1.76,1.49,2.79,2.41,2.79.5,0,.72-.94.85-3.33.31.31.79.61,1.15.72-.25,3.06-.74,3.94-2.11,3.94s-2.47-1.1-3.29-2.95c-1.08,1.17-2.32,2.18-3.71,2.99-.2-.27-.67-.81-.97-1.06,1.6-.86,2.99-1.98,4.14-3.33-.65-2.03-1.08-4.68-1.31-7.58h-6.21v2.34h4.59v.58c-.09,4.03-.2,5.55-.58,6.01-.27.34-.58.47-1.08.52-.45.04-1.26.04-2.14,0-.02-.41-.16-.92-.38-1.26.83.07,1.6.09,1.91.09.25,0,.43-.04.54-.2.25-.27.34-1.41.41-4.5h-3.28v.14c0,2.52-.27,6.14-1.89,8.48-.23-.27-.81-.74-1.12-.9,1.48-2.2,1.64-5.28,1.64-7.6v-5.02h7.51c-.07-.99-.09-2-.11-3.02h1.39c0,1.04.02,2.05.07,3.02h5.82v1.31h-5.73c.18,2.39.5,4.54.99,6.25.97-1.42,1.75-3.04,2.3-4.86l1.35.34Zm-3.12-6.01c1.12.56,2.52,1.42,3.22,2.05l-.83.92c-.68-.63-2.05-1.55-3.19-2.16l.79-.81Z"/>
    <path class="cls-10" d="m202.31,261.44c-.22,1.66-.52,3.46-.92,4.63-.23-.11-.7-.27-.99-.32.45-1.19.72-2.92.9-4.47l1.01.16Zm2.72-.67c-.05-.27-.11-.61-.2-.99-3.01.47-3.49.58-3.8.72-.04-.23-.22-.79-.36-1.08.34-.09.67-.56,1.13-1.24.22-.32.7-1.1,1.24-2.09-1.53.18-1.89.27-2.11.38-.07-.23-.25-.79-.38-1.08.27-.05.5-.45.81-1.01.31-.54,1.3-2.65,1.78-4.59l1.1.41c-.54,1.73-1.35,3.49-2.14,4.9l1.51-.13c.38-.79.77-1.66,1.08-2.48l1.04.56c-.94,2.11-2.11,4.29-3.33,6l2.2-.29c-.16-.63-.34-1.3-.52-1.87l.88-.22c.43,1.26.85,2.92,1.01,3.84l-.95.27Zm-1.3.47c.23,1.3.41,2.97.47,4.11l-.97.14c-.02-1.12-.2-2.79-.41-4.11l.92-.14Zm1.35-.36c.32.92.68,2.12.83,2.9l-.88.27c-.13-.79-.47-2.02-.79-2.95l.85-.22Zm11.38-3.42c-.38,1.98-1.01,3.69-1.82,5.17.29,1.33.65,2.07,1.12,2.11.27.02.47-.83.56-2.16.22.31.67.65.86.79-.34,2.25-.92,2.88-1.48,2.86-.88-.04-1.48-.83-1.93-2.25-.68.95-1.46,1.76-2.34,2.39-.14-.2-.49-.5-.72-.67.54-.41,1.06-.86,1.53-1.42-2.34.41-4.77.81-6.52,1.08l-.18-1.08c.68-.09,1.51-.2,2.43-.32v-1.64h-1.69v-.92h1.69v-1.21h-1.58v-.92h1.58v-1.21h-1.64v-.92h1.64v-1.19h-2.34v-1.13h7.2c-.04-1.55-.05-3.24-.07-5.02h1.21c-.02,1.8,0,3.47.04,5.02h3.01v1.13h-2.97c.07,1.87.18,3.51.32,4.86.47-1.15.85-2.43,1.08-3.83l1.01.47Zm-7.69-3.94c-.22-.22-.56-.52-.92-.79-.32.77-.74,1.44-1.21,1.98-.2-.18-.65-.47-.9-.61.97-1.01,1.57-2.54,1.82-4.25l1.06.14c-.11.65-.25,1.26-.43,1.84.4.29.79.61,1.03.83l-.45.86Zm3.15.85c-.23-.4-.67-.92-1.13-1.42-.34.7-.77,1.33-1.26,1.82-.16-.16-.63-.45-.88-.61,1.08-.99,1.73-2.52,2.02-4.29l1.03.13c-.13.74-.31,1.4-.52,2.03.56.52,1.13,1.15,1.42,1.58l-.67.76Zm-2.95,9.42l1.03-.13v-7.69h-1.03v7.81Zm3.6.11c.32-.38.63-.81.9-1.26-.32-1.71-.5-3.98-.59-6.66h-1.87v1.21h1.48v.92h-1.48v1.19h1.42v.92h-1.42v1.21h1.55v.92h-1.55v1.17l1.57-.23v.63Zm3.24-9.76c-.34-.79-1.1-2.05-1.69-2.99l.9-.38c.65.94,1.39,2.14,1.75,2.92l-.95.45Z"/>
    <path class="cls-10" d="m221.42,261.47c-.18,1.53-.5,3.21-.9,4.32-.22-.13-.74-.31-1.01-.38.41-1.1.68-2.68.86-4.12l1.04.18Zm3.58-4.99c.54,1.13,1.08,2.63,1.28,3.55l-1.03.41c-.05-.25-.11-.56-.2-.9-4.12.65-4.68.79-5.01.97-.07-.27-.25-.86-.4-1.17.36-.07.77-.54,1.3-1.21.29-.34.86-1.12,1.53-2.11-1.91.22-2.3.31-2.56.43-.05-.25-.25-.85-.38-1.15.31-.07.59-.45.97-.99.38-.54,1.62-2.61,2.34-4.54l1.15.49c-.76,1.69-1.75,3.46-2.75,4.83l1.93-.18c.47-.77.95-1.64,1.37-2.48l1.04.61c-1.13,2.14-2.56,4.29-4.02,6l3.19-.43c-.22-.61-.47-1.24-.7-1.78l.94-.34Zm-1.75,4.74c.23,1.19.45,2.74.5,3.78l-1.03.25c-.04-1.06-.23-2.63-.45-3.83l.97-.2Zm1.93-.47c.41,1.12.88,2.54,1.08,3.46l-.97.32c-.18-.96-.63-2.38-1.03-3.48l.92-.31Zm10.66,4.18h-7.22v1.31h-1.24v-10.33c-.36.52-.7,1.03-1.1,1.48-.14-.31-.45-.88-.65-1.19,1.37-1.66,2.57-4.29,3.19-6.32l1.26.36c-.29.9-.68,1.84-1.1,2.77h6.61v1.22h-3.1v2.27h2.75v1.22h-2.75v2.3h2.79v1.21h-2.79v2.45h3.35v1.24Zm-4.57-10.7h-2.65v2.27h2.65v-2.27Zm0,3.49h-2.65v2.3h2.65v-2.3Zm-2.65,5.96h2.65v-2.45h-2.65v2.45Zm3.22-10.8c-.23-.68-.77-1.76-1.21-2.56l1.13-.45c.45.79.99,1.8,1.22,2.47l-1.15.54Z"/>
    <path class="cls-10" d="m239.58,256.61l1.17-1.03c1.28,1.04,2.92,2.67,4.03,4l-1.22,1.03c-1.17-1.42-2.7-2.95-3.98-4Z"/>
    <path class="cls-10" d="m250.25,261.46c-.2,1.6-.54,3.37-.92,4.52-.22-.13-.76-.31-1.04-.4.43-1.13.72-2.77.88-4.3l1.08.18Zm3.35-.74c-.04-.31-.11-.67-.2-1.06-3.69.56-4.23.67-4.57.85-.05-.27-.27-.86-.4-1.19.36-.09.79-.54,1.33-1.19.29-.32.88-1.1,1.55-2.09-1.94.22-2.34.31-2.59.43-.07-.27-.25-.86-.41-1.19.31-.07.63-.45,1.03-.99.38-.5,1.69-2.58,2.45-4.52l1.19.5c-.81,1.69-1.82,3.42-2.84,4.77l1.94-.18c.49-.74.96-1.57,1.37-2.4l1.1.65c-1.21,2.09-2.65,4.21-4.1,5.87l2.72-.38c-.16-.59-.32-1.21-.52-1.76l.99-.23c.43,1.22.88,2.86,1.03,3.78l-1.04.32Zm-1.67.5c.23,1.31.43,2.97.49,4.11l-1.03.18c-.04-1.12-.22-2.83-.43-4.12l.97-.16Zm1.64-.43c.38,1.03.76,2.32.92,3.17l-.95.31c-.14-.86-.52-2.2-.85-3.21l.88-.27Zm4.07,2.02c-.68,1.03-1.64,2.25-2.39,3.06-.22-.2-.68-.5-.97-.67.79-.76,1.66-1.8,2.27-2.75l1.1.36Zm2.74-1.15v3.1c0,.63-.11.92-.59,1.12-.45.18-1.15.18-2.27.18-.05-.34-.2-.76-.36-1.08.81.02,1.53.02,1.73.02.23,0,.29-.07.29-.25v-2.97c-3.21.25-3.73.34-4.07.45-.05-.23-.23-.85-.38-1.17.43-.05.97-.29,1.64-.68.4-.18,1.19-.65,2.12-1.26-2.11.11-2.5.16-2.75.27-.07-.27-.25-.83-.4-1.15.27-.04.56-.18.9-.41.25-.16.95-.72,1.6-1.37h-2.63v-5.87h8.66v5.87h-4.41c-.63.61-1.31,1.21-1.98,1.67l2.47-.07c.49-.38.95-.76,1.4-1.15l.97.77c-1.53,1.21-3.13,2.29-4.75,3.15l4.79-.32c-.27-.36-.56-.72-.83-1.04l.88-.49c.81.97,1.84,2.29,2.34,3.06l-.92.59c-.2-.32-.49-.72-.77-1.17l-2.68.22Zm-3.98-8.64h2.5v-1.44h-2.5v1.44Zm0,2.41h2.5v-1.46h-2.5v1.46Zm6.25-3.85h-2.57v1.44h2.57v-1.44Zm0,2.39h-2.57v1.46h2.57v-1.46Zm-.47,8.35c.77.86,1.78,2.05,2.29,2.75l-.9.68c-.47-.72-1.48-1.96-2.25-2.86l.86-.58Z"/>
    <path class="cls-10" d="m273.05,263.18c-1.13,1.06-2.88,2.12-4.34,2.77-.22-.25-.72-.68-1.03-.9,1.49-.58,3.13-1.46,4.14-2.36l1.22.49Zm-3.76-10.61c-.32-.45-.92-1.22-1.42-1.76l.83-.59c.47.5,1.12,1.22,1.41,1.66l-.81.7Zm4.92,2.45c-.54-.52-1.55-1.26-2.5-1.86-.56.88-1.48,1.51-2.99,1.95-.11-.27-.43-.72-.68-.94,2.68-.7,3.21-1.93,3.35-4.47h1.17c-.05,1.01-.18,1.87-.43,2.58,1.03.59,2.23,1.39,2.86,1.96l-.77.77Zm2.25,6.99v2.67c0,.68-.16.99-.7,1.17-.56.18-1.44.18-2.77.18-.05-.34-.22-.77-.4-1.12,1.04.05,1.96.05,2.21.02.29,0,.36-.07.36-.29v-2.56c-5.13.31-5.82.38-6.3.52-.04-.23-.18-.83-.32-1.15.61-.05,1.44-.32,2.56-.74.59-.2,1.82-.7,3.29-1.39-3.35.16-3.82.23-4.12.34-.05-.27-.22-.85-.36-1.17.36-.04.76-.16,1.22-.38.5-.18,2.14-.94,3.4-1.84h-5.17v1.87h-1.3v-2.86h15v2.86h-1.31v-1.87h-6.97l1.03.47c-1.1.72-2.27,1.35-3.38,1.82l3.83-.14c1.04-.5,2.09-1.08,3.08-1.69l.95.81c-2.61,1.53-5.28,2.75-7.9,3.71l7.31-.38c-.41-.32-.85-.65-1.24-.92l.88-.65c1.21.83,2.74,2.05,3.49,2.88l-.92.74c-.29-.34-.68-.74-1.17-1.17l-4.29.25Zm-1.03-11.38c-.52.74-1.15,1.51-1.62,2.02l-.88-.41c.49-.54,1.13-1.44,1.46-2.04l1.04.43Zm6.86,4.61c-.68-.58-1.98-1.44-3.12-2.11-.61.9-1.55,1.53-3.15,1.96-.13-.27-.42-.74-.67-.95,2.77-.68,3.35-1.91,3.49-4.41h1.19c-.07.95-.18,1.78-.43,2.48,1.21.63,2.68,1.55,3.46,2.18l-.77.85Zm-5.37-2.75c-.31-.45-.92-1.21-1.4-1.75l.79-.59c.5.5,1.13,1.21,1.42,1.64l-.81.7Zm2.02,10.1c1.48.63,3.35,1.67,4.3,2.45l-1.01.79c-.9-.77-2.74-1.85-4.25-2.56l.95-.68Zm4.27-12.01c-.54.76-1.19,1.53-1.73,2.05l-.88-.41c.52-.56,1.21-1.48,1.55-2.09l1.06.45Z"/>
    <path class="cls-10" d="m288.34,261.49c-.32,1.51-.77,3.19-1.22,4.29-.23-.13-.74-.27-1.03-.34.5-1.12.9-2.72,1.17-4.16l1.08.22Zm4.03-5.08c.54,1.12,1.1,2.65,1.3,3.55l-1.06.34c-.05-.23-.14-.56-.23-.88-4.75.72-5.35.86-5.71,1.08-.07-.27-.27-.86-.41-1.19.4-.09.85-.54,1.46-1.19.34-.34,1.01-1.12,1.78-2.14-2.27.25-2.7.36-2.95.49-.05-.25-.25-.83-.4-1.15.32-.07.65-.45,1.08-.99.43-.52,1.87-2.61,2.74-4.61l1.15.52c-.9,1.71-2,3.46-3.11,4.81l2.34-.2c.56-.79,1.1-1.66,1.58-2.5l1.08.68c-1.39,2.16-2.97,4.27-4.59,5.92l3.66-.52c-.22-.59-.45-1.21-.68-1.75l.99-.27Zm-2.03,4.74c.23,1.22.47,2.77.54,3.82l-1.06.25c-.05-1.04-.27-2.61-.49-3.83l1.01-.23Zm2.07-.41c.47,1.04.95,2.41,1.17,3.29l-1.01.38c-.22-.88-.68-2.3-1.12-3.37l.95-.31Zm4.38-.29c-.38,1.66-1.04,3.28-1.78,4.36-.25-.18-.79-.4-1.1-.52.81-1.04,1.37-2.54,1.71-4.07l1.17.23Zm2.2-1.33v5.64c0,.65-.09.95-.54,1.17-.41.2-1.1.2-2.05.2-.05-.34-.22-.81-.38-1.15.68.02,1.31.02,1.5.02.2-.02.25-.07.25-.25v-5.47c-2.27.23-2.68.32-2.97.45-.05-.25-.25-.85-.4-1.19.4-.07.83-.5,1.44-1.12.32-.32,1.01-1.08,1.76-2.05-2.2.25-2.61.34-2.86.43-.07-.23-.25-.81-.4-1.12.29-.05.56-.38.92-.85.36-.45,1.53-2.21,2.21-3.87l1.15.49c-.72,1.4-1.62,2.84-2.5,4l2.32-.22c.54-.74,1.06-1.51,1.53-2.29l1.06.67c-1.39,2.11-2.99,4.12-4.59,5.73l4.18-.41c-.31-.67-.7-1.33-1.08-1.95l.99-.43c.81,1.22,1.64,2.86,1.93,3.91l-1.06.52c-.07-.32-.2-.68-.34-1.06l-2.07.22Zm2.03,1.03c.72,1.26,1.42,2.92,1.73,4.01l-1.15.41c-.27-1.08-.99-2.79-1.66-4.07l1.08-.36Z"/>
    <path class="cls-10" d="m310.84,260.41c-.05-.25-.11-.54-.22-.86-4.07.61-4.63.76-4.99.96-.07-.27-.27-.9-.41-1.24.38-.09.81-.52,1.35-1.17.31-.32.9-1.08,1.58-2.05-1.96.22-2.38.31-2.63.43-.07-.27-.27-.9-.41-1.21.31-.07.63-.47,1.03-.99.38-.56,1.69-2.59,2.47-4.56l1.22.52c-.83,1.69-1.85,3.44-2.9,4.81l2.03-.18c.47-.76.95-1.55,1.33-2.34l1.15.67c-1.21,2.05-2.65,4.11-4.12,5.73l2.95-.41c-.2-.58-.41-1.15-.65-1.67l1.03-.36c.52,1.13,1.06,2.63,1.28,3.51l-1.1.43Zm-3.71,1.06c-.18,1.55-.54,3.24-.92,4.36-.25-.14-.81-.32-1.1-.41.41-1.1.68-2.7.86-4.14l1.15.2Zm1.93-.29c.23,1.26.45,2.86.5,3.93l-1.13.22c-.04-1.06-.23-2.68-.45-3.94l1.08-.2Zm1.85-.49c.4.99.81,2.27.97,3.1l-1.06.38c-.14-.85-.56-2.18-.9-3.19l.99-.29Zm9.78-1.8c-1.33,3.8-4.14,6.12-8.61,7.31-.14-.36-.45-.88-.76-1.15,4.21-.99,6.9-3.1,8.14-6.54l1.22.38Zm-5.87-5.82c-.38,2.04-.95,4.23-1.58,5.67-.23-.16-.83-.43-1.12-.52.63-1.4,1.15-3.51,1.49-5.42l1.21.27Zm2.45,7.63h-1.28v-10.93h1.28v10.93Zm3.21-2.84c-.31-1.33-1.13-3.39-1.98-4.92l1.12-.38c.9,1.53,1.75,3.53,2.09,4.84l-1.22.45Z"/>
    <path class="cls-10" d="m49.34,282.61l1.17-1.03c1.28,1.04,2.92,2.67,4.03,4l-1.22,1.03c-1.17-1.42-2.7-2.95-3.98-4Z"/>
    <path class="cls-10" d="m74.06,287.89h-2.18v2.7c0,.81-.2,1.21-.77,1.42-.59.22-1.58.23-3.13.23-.07-.36-.29-.94-.49-1.28,1.19.04,2.34.02,2.65,0,.32,0,.43-.09.43-.38v-2.7h-9.56v4.38h-1.31v-4.38h-2.12v-1.24h2.12v-6.79h5.37v-1.73h-6.82v-1.26h15.16v1.26h-7v1.73h5.49v6.79h2.18v1.24Zm-13.05-6.81v2.18h4.05v-2.18h-4.05Zm0,5.56h4.05v-2.21h-4.05v2.21Zm5.38-5.56v2.18h4.18v-2.18h-4.18Zm4.18,5.56v-2.21h-4.18v2.21h4.18Z"/>
    <path class="cls-10" d="m92.17,290.35v1.3h-15.95v-1.3h7.29v-4.57h-5.35v-1.3h5.35v-3.93h-4.23c-.58,1.13-1.21,2.12-1.87,2.94-.27-.22-.86-.61-1.22-.79,1.48-1.58,2.63-4.07,3.33-6.63l1.35.29c-.29.99-.61,1.96-1.01,2.88h3.66v-3.46h1.37v3.46h6.45v1.31h-6.45v3.93h5.78v1.3h-5.78v4.57h7.29Z"/>
    <path class="cls-10" d="m96.02,287.44c-.22,1.66-.52,3.46-.92,4.63-.23-.11-.7-.27-.99-.32.45-1.19.72-2.92.9-4.47l1.01.16Zm2.72-.67c-.05-.27-.11-.61-.2-.99-3.01.47-3.49.58-3.8.72-.04-.23-.22-.79-.36-1.08.34-.09.67-.56,1.13-1.24.22-.32.7-1.1,1.24-2.09-1.53.18-1.89.27-2.11.38-.07-.23-.25-.79-.38-1.08.27-.05.5-.45.81-1.01.31-.54,1.3-2.65,1.78-4.59l1.1.41c-.54,1.73-1.35,3.49-2.14,4.9l1.51-.13c.38-.79.77-1.66,1.08-2.48l1.04.56c-.94,2.11-2.11,4.29-3.33,6l2.2-.29c-.16-.63-.34-1.3-.52-1.87l.88-.22c.43,1.26.85,2.92,1.01,3.84l-.95.27Zm-1.3.47c.23,1.3.41,2.97.47,4.11l-.97.14c-.02-1.12-.2-2.79-.41-4.11l.92-.14Zm1.35-.36c.32.92.68,2.12.83,2.9l-.88.27c-.13-.79-.47-2.02-.79-2.95l.85-.22Zm11.38-3.42c-.38,1.98-1.01,3.69-1.82,5.17.29,1.33.65,2.07,1.12,2.11.27.02.47-.83.56-2.16.22.31.67.65.86.79-.34,2.25-.92,2.88-1.48,2.86-.88-.04-1.48-.83-1.93-2.25-.68.95-1.46,1.76-2.34,2.39-.14-.2-.49-.5-.72-.67.54-.41,1.06-.86,1.53-1.42-2.34.41-4.77.81-6.52,1.08l-.18-1.08c.68-.09,1.51-.2,2.43-.32v-1.64h-1.69v-.92h1.69v-1.21h-1.58v-.92h1.58v-1.21h-1.64v-.92h1.64v-1.19h-2.34v-1.13h7.2c-.04-1.55-.05-3.24-.07-5.02h1.21c-.02,1.8,0,3.47.04,5.02h3.01v1.13h-2.97c.07,1.87.18,3.51.32,4.86.47-1.15.85-2.43,1.08-3.83l1.01.47Zm-7.69-3.94c-.22-.22-.56-.52-.92-.79-.32.77-.74,1.44-1.21,1.98-.2-.18-.65-.47-.9-.61.97-1.01,1.57-2.54,1.82-4.25l1.06.14c-.11.65-.25,1.26-.43,1.84.4.29.79.61,1.03.83l-.45.86Zm3.15.85c-.23-.4-.67-.92-1.13-1.42-.34.7-.77,1.33-1.26,1.82-.16-.16-.63-.45-.88-.61,1.08-.99,1.73-2.52,2.02-4.29l1.03.13c-.13.74-.31,1.4-.52,2.03.56.52,1.13,1.15,1.42,1.58l-.67.76Zm-2.95,9.42l1.03-.13v-7.69h-1.03v7.81Zm3.6.11c.32-.38.63-.81.9-1.26-.32-1.71-.5-3.98-.59-6.66h-1.87v1.21h1.48v.92h-1.48v1.19h1.42v.92h-1.42v1.21h1.55v.92h-1.55v1.17l1.57-.23v.63Zm3.24-9.76c-.34-.79-1.1-2.05-1.69-2.99l.9-.38c.65.94,1.39,2.14,1.75,2.92l-.95.45Z"/>
    <path class="cls-10" d="m114.56,287.47c-.18,1.53-.5,3.21-.9,4.32-.22-.13-.74-.31-1.01-.38.41-1.1.68-2.68.86-4.12l1.04.18Zm3.58-4.99c.54,1.13,1.08,2.63,1.28,3.55l-1.03.41c-.05-.25-.11-.56-.2-.9-4.12.65-4.68.79-5.01.97-.07-.27-.25-.86-.4-1.17.36-.07.77-.54,1.3-1.21.29-.34.86-1.12,1.53-2.11-1.91.22-2.3.31-2.56.43-.05-.25-.25-.85-.38-1.15.31-.07.59-.45.97-.99.38-.54,1.62-2.61,2.34-4.54l1.15.49c-.76,1.69-1.75,3.46-2.75,4.83l1.93-.18c.47-.77.95-1.64,1.37-2.48l1.04.61c-1.13,2.14-2.56,4.29-4.02,6l3.19-.43c-.22-.61-.47-1.24-.7-1.78l.94-.34Zm-1.75,4.74c.23,1.19.45,2.74.5,3.78l-1.03.25c-.04-1.06-.23-2.63-.45-3.83l.97-.2Zm1.93-.47c.41,1.12.88,2.54,1.08,3.46l-.97.32c-.18-.96-.63-2.38-1.03-3.48l.92-.31Zm10.66,4.18h-7.22v1.31h-1.24v-10.33c-.36.52-.7,1.03-1.1,1.48-.14-.31-.45-.88-.65-1.19,1.37-1.66,2.57-4.29,3.19-6.32l1.26.36c-.29.9-.68,1.84-1.1,2.77h6.61v1.22h-3.1v2.27h2.75v1.22h-2.75v2.3h2.79v1.21h-2.79v2.45h3.35v1.24Zm-4.57-10.7h-2.65v2.27h2.65v-2.27Zm0,3.49h-2.65v2.3h2.65v-2.3Zm-2.65,5.96h2.65v-2.45h-2.65v2.45Zm3.22-10.8c-.23-.68-.77-1.76-1.21-2.56l1.13-.45c.45.79.99,1.8,1.22,2.47l-1.15.54Z"/>
    <path class="cls-10" d="m132.14,282.61l1.17-1.03c1.28,1.04,2.92,2.67,4.03,4l-1.22,1.03c-1.17-1.42-2.7-2.95-3.98-4Z"/>
    <path class="cls-10" d="m146.92,282.54c-2.3.25-4.63.5-6.36.7l-.16-1.03,1.73-.16v-4.92h-1.39v-1.03h8.68v1.03h-1.28v6.37h-1.22v-.97Zm-1.8,3.67c-.16.45-.34.86-.54,1.28.85.72,1.78,1.62,2.25,2.21l-.76.79c-.47-.58-1.26-1.4-2.04-2.12-.74,1.12-1.69,2.02-2.75,2.67-.07-.29-.34-.94-.52-1.24,1.44-.81,2.74-2.12,3.33-3.85l1.03.27Zm9.6-2.02c-1.51.32-3.44.61-5.46.83v7.17h-1.33v-7.04c-1.89.2-3.8.34-5.46.41-.16-.31-.5-.94-.74-1.22,3.91-.04,9.04-.45,11.99-1.01l.99.86Zm-11.38-7.06v.99h3.58v-.99h-3.58Zm0,2.81h3.58v-.97h-3.58v.97Zm0,2.02c1.13-.13,2.34-.25,3.58-.4v-.77h-3.58v1.17Zm6.66-3.6c.86.41,1.84.95,2.77,1.49.63-.56,1.17-1.21,1.58-1.89h-4.86v-1.12h5.54l.22-.05.85.41c-.5,1.26-1.3,2.36-2.27,3.28,1.04.65,1.96,1.3,2.59,1.84l-.92.94c-.63-.58-1.58-1.28-2.65-1.96-1.12.85-2.34,1.48-3.58,1.93-.16-.31-.5-.72-.76-.97,1.12-.36,2.25-.9,3.26-1.62-.88-.52-1.8-1.04-2.65-1.46l.86-.81Zm4.18,7.15c-.13.49-.31.92-.52,1.37.65,1.1,1.8,2.21,2.97,2.77-.29.22-.67.63-.85.94-1.01-.58-1.98-1.6-2.66-2.68-.77,1.22-1.71,2.23-2.79,2.95-.11-.29-.38-.94-.56-1.24,1.51-.92,2.79-2.43,3.4-4.39l1.01.29Z"/>
    <path class="cls-10" d="m158.85,276.54h7.4v1.15h-2.18v2.3h1.98v11.92h-1.06v-1.03h-4.77v1.28h-1.04v-12.17h1.93v-2.3h-2.25v-1.15Zm6.14,13.25v-4.79h-1.01c-.7,0-.92-.18-.92-1.03v-2.83h-.99v1.35c0,1.08-.27,2.43-1.39,3.42-.11-.13-.29-.32-.47-.45v4.32h4.77Zm-4.77-8.64v4.18c.94-.86,1.1-1.94,1.1-2.83v-1.35h-1.1Zm.72,5.78h3.31v1.06h-3.31v-1.06Zm2.16-9.24h-1.04v2.3h1.04v-2.3Zm1.89,3.46h-1.17v2.81c0,.23.02.25.23.25h.67c.16,0,.23,0,.27-.02v-3.04Zm4.27,1.37c-1.58,0-2.07-.52-2.07-1.98v-4.48h1.22v1.94h5.96v1.17h-5.96v1.41c0,.61.16.83.83.83h4.05c.5,0,1.31-.02,1.73-.11,0,.34.05.83.11,1.1-.31.09-1.04.13-1.8.13h-4.07Zm-1.94,1.35h7.13v8.07h-1.28v-.95h-4.65v1.04h-1.21v-8.16Zm1.21,1.13v1.87h4.65v-1.87h-4.65Zm4.65,4.9v-2h-4.65v2h4.65Z"/>
    <path class="cls-10" d="m178.82,287.44c-.22,1.66-.52,3.46-.92,4.63-.23-.11-.7-.27-.99-.32.45-1.19.72-2.92.9-4.47l1.01.16Zm2.72-.67c-.05-.27-.11-.61-.2-.99-3.01.47-3.49.58-3.8.72-.04-.23-.22-.79-.36-1.08.34-.09.67-.56,1.13-1.24.22-.32.7-1.1,1.24-2.09-1.53.18-1.89.27-2.11.38-.07-.23-.25-.79-.38-1.08.27-.05.5-.45.81-1.01.31-.54,1.3-2.65,1.78-4.59l1.1.41c-.54,1.73-1.35,3.49-2.14,4.9l1.51-.13c.38-.79.77-1.66,1.08-2.48l1.04.56c-.94,2.11-2.11,4.29-3.33,6l2.2-.29c-.16-.63-.34-1.3-.52-1.87l.88-.22c.43,1.26.85,2.92,1.01,3.84l-.95.27Zm-1.3.47c.23,1.3.41,2.97.47,4.11l-.97.14c-.02-1.12-.2-2.79-.41-4.11l.92-.14Zm1.35-.36c.32.92.68,2.12.83,2.9l-.88.27c-.13-.79-.47-2.02-.79-2.95l.85-.22Zm11.38-3.42c-.38,1.98-1.01,3.69-1.82,5.17.29,1.33.65,2.07,1.12,2.11.27.02.47-.83.56-2.16.22.31.67.65.86.79-.34,2.25-.92,2.88-1.48,2.86-.88-.04-1.48-.83-1.93-2.25-.68.95-1.46,1.76-2.34,2.39-.14-.2-.49-.5-.72-.67.54-.41,1.06-.86,1.53-1.42-2.34.41-4.77.81-6.52,1.08l-.18-1.08c.68-.09,1.51-.2,2.43-.32v-1.64h-1.69v-.92h1.69v-1.21h-1.58v-.92h1.58v-1.21h-1.64v-.92h1.64v-1.19h-2.34v-1.13h7.2c-.04-1.55-.05-3.24-.07-5.02h1.21c-.02,1.8,0,3.47.04,5.02h3.01v1.13h-2.97c.07,1.87.18,3.51.32,4.86.47-1.15.85-2.43,1.08-3.83l1.01.47Zm-7.69-3.94c-.22-.22-.56-.52-.92-.79-.32.77-.74,1.44-1.21,1.98-.2-.18-.65-.47-.9-.61.97-1.01,1.57-2.54,1.82-4.25l1.06.14c-.11.65-.25,1.26-.43,1.84.4.29.79.61,1.03.83l-.45.86Zm3.15.85c-.23-.4-.67-.92-1.13-1.42-.34.7-.77,1.33-1.26,1.82-.16-.16-.63-.45-.88-.61,1.08-.99,1.73-2.52,2.02-4.29l1.03.13c-.13.74-.31,1.4-.52,2.03.56.52,1.13,1.15,1.42,1.58l-.67.76Zm-2.95,9.42l1.03-.13v-7.69h-1.03v7.81Zm3.6.11c.32-.38.63-.81.9-1.26-.32-1.71-.5-3.98-.59-6.66h-1.87v1.21h1.48v.92h-1.48v1.19h1.42v.92h-1.42v1.21h1.55v.92h-1.55v1.17l1.57-.23v.63Zm3.24-9.76c-.34-.79-1.1-2.05-1.69-2.99l.9-.38c.65.94,1.39,2.14,1.75,2.92l-.95.45Z"/>
    <path class="cls-10" d="m197.36,287.47c-.18,1.53-.5,3.21-.9,4.32-.22-.13-.74-.31-1.01-.38.41-1.1.68-2.68.86-4.12l1.04.18Zm3.58-4.99c.54,1.13,1.08,2.63,1.28,3.55l-1.03.41c-.05-.25-.11-.56-.2-.9-4.12.65-4.68.79-5.01.97-.07-.27-.25-.86-.4-1.17.36-.07.77-.54,1.3-1.21.29-.34.86-1.12,1.53-2.11-1.91.22-2.3.31-2.56.43-.05-.25-.25-.85-.38-1.15.31-.07.59-.45.97-.99.38-.54,1.62-2.61,2.34-4.54l1.15.49c-.76,1.69-1.75,3.46-2.75,4.83l1.93-.18c.47-.77.95-1.64,1.37-2.48l1.04.61c-1.13,2.14-2.56,4.29-4.02,6l3.19-.43c-.22-.61-.47-1.24-.7-1.78l.94-.34Zm-1.75,4.74c.23,1.19.45,2.74.5,3.78l-1.03.25c-.04-1.06-.23-2.63-.45-3.83l.97-.2Zm1.93-.47c.41,1.12.88,2.54,1.08,3.46l-.97.32c-.18-.96-.63-2.38-1.03-3.48l.92-.31Zm10.66,4.18h-7.22v1.31h-1.24v-10.33c-.36.52-.7,1.03-1.1,1.48-.14-.31-.45-.88-.65-1.19,1.37-1.66,2.57-4.29,3.19-6.32l1.26.36c-.29.9-.68,1.84-1.1,2.77h6.61v1.22h-3.1v2.27h2.75v1.22h-2.75v2.3h2.79v1.21h-2.79v2.45h3.35v1.24Zm-4.57-10.7h-2.65v2.27h2.65v-2.27Zm0,3.49h-2.65v2.3h2.65v-2.3Zm-2.65,5.96h2.65v-2.45h-2.65v2.45Zm3.22-10.8c-.23-.68-.77-1.76-1.21-2.56l1.13-.45c.45.79.99,1.8,1.22,2.47l-1.15.54Z"/>
    <path class="cls-10" d="m214.94,282.61l1.17-1.03c1.28,1.04,2.92,2.67,4.03,4l-1.22,1.03c-1.17-1.42-2.7-2.95-3.98-4Z"/>
    <path class="cls-10" d="m230.96,289.02l.07,1.08c-2.5.54-5.19,1.12-7.11,1.49l-.29-1.21c.88-.14,2.05-.36,3.31-.59v-5.19h-3.13v-1.17h3.13v-1.94h-1.91v-.81c-.32.31-.63.56-.95.81-.11-.29-.4-1.03-.61-1.35,1.51-1.06,3.1-2.72,4.02-4.46l1.12.47c-.13.23-.27.49-.43.74,1.24.76,2.49,1.69,3.28,2.39l-.76,1.04c-.76-.74-1.98-1.67-3.15-2.45-.65.88-1.37,1.73-2.11,2.45h4.83v1.17h-2.12v1.94h2.77v1.17h-2.77v4.97l2.83-.56Zm-5.65-3.46c.34,1.04.67,2.41.77,3.29l-1.01.27c-.07-.9-.38-2.27-.7-3.33l.94-.23Zm3.37,3.08c.32-.88.72-2.32.88-3.29l1.08.32c-.34,1.1-.76,2.41-1.1,3.24l-.86-.27Zm10.98-5.55h-3.69v9.11h-1.35v-9.11h-3.69v-1.31h3.69v-5.85h1.35v5.85h3.69v1.31Z"/>
    <path class="cls-10" d="m243.29,287.44c-.2,1.55-.5,3.22-.88,4.32-.22-.11-.67-.25-.92-.32.43-1.12.68-2.7.85-4.14l.96.14Zm2.92-.9c-.04-.27-.09-.59-.18-.97-3.19.63-3.69.77-3.98.94-.05-.23-.25-.81-.38-1.08.34-.09.7-.56,1.21-1.22.25-.32.81-1.13,1.42-2.18-1.76.23-2.14.32-2.38.45-.05-.25-.25-.81-.4-1.13.29-.07.56-.43.86-.99.36-.52,1.44-2.59,2-4.54l1.15.49c-.65,1.69-1.49,3.44-2.38,4.81l1.75-.14c.41-.77.81-1.57,1.13-2.36l1.06.56c-1.03,2.07-2.32,4.18-3.62,5.83l2.32-.38c-.13-.58-.29-1.15-.47-1.66l.9-.2c.4,1.13.79,2.65.92,3.51l-.95.27Zm-1.44.74c.22,1.21.43,2.77.49,3.8l-.95.22c-.02-1.04-.23-2.63-.43-3.83l.9-.18Zm1.53-.36c.41,1.1.88,2.52,1.08,3.46l-.9.31c-.18-.95-.65-2.41-1.03-3.49l.85-.27Zm11.24-3.4c-.47,1.62-1.15,3.13-2.04,4.48.31,1.39.7,2.2,1.15,2.21.27,0,.49-.83.59-2.27.2.27.67.56.86.67-.34,2.41-.9,3.08-1.46,3.06-.9-.02-1.55-.94-2.02-2.48-.81,1.03-1.78,1.93-2.88,2.68-.16-.23-.58-.65-.81-.83.43-.29.85-.59,1.24-.94h-.61v-.47h-2.67v1.24h-1.04v-7.51h4.83v6.3c.59-.56,1.12-1.19,1.6-1.84-.29-1.49-.5-3.35-.65-5.49h-6.79v-1.1h1.64c-.07-.67-.27-1.48-.49-2.14l.92-.2c.27.72.5,1.66.58,2.34h1.26c.23-.72.49-1.67.61-2.34l1.13.27c-.23.68-.49,1.44-.7,2.07h1.8c-.09-1.67-.14-3.49-.18-5.4h1.15c.02,1.91.07,3.73.16,5.4h3.15v1.1h-3.1c.09,1.53.23,2.93.41,4.1.56-1.01.99-2.09,1.31-3.21l1.01.27Zm-4.45-4.68h-5.87v-1.06h2.56c-.23-.49-.52-1.04-.81-1.49l1.08-.36c.38.54.79,1.3,1.01,1.85h2.04v1.06Zm-4.18,5.51v1.66h2.67v-1.66h-2.67Zm2.67,4.32v-1.69h-2.67v1.69h2.67Zm5.28-8.01c-.31-.88-1.03-2.25-1.71-3.26l.99-.41c.68,1.01,1.44,2.32,1.76,3.17l-1.04.5Z"/>
    <path class="cls-10" d="m264.39,285.67v6.55h-1.24v-6.16c-1.06.32-2.09.65-2.97.92l-.36-1.28c.92-.25,2.07-.56,3.33-.95v-4.01h-1.64c-.22,1.01-.47,1.93-.79,2.66-.23-.16-.74-.49-1.03-.59.68-1.53,1.03-3.8,1.24-6l1.17.2c-.09.81-.22,1.64-.34,2.43h1.39v-3.66h1.24v3.66h1.84v1.3h-1.84v3.67l2.09-.65.18,1.19-2.27.72Zm11.78-6.9s0,.52-.02.68c-.4,8.16-.79,10.95-1.51,11.85-.34.47-.7.63-1.24.68-.49.07-1.26.05-2.05,0-.02-.4-.14-.95-.38-1.31.81.07,1.53.09,1.89.09.29,0,.47-.07.67-.31.58-.63.97-3.29,1.33-10.42h-.86c-.9,4.72-2.88,9.51-5.87,11.88-.25-.29-.72-.61-1.12-.81,2.95-2.12,4.9-6.55,5.83-11.07h-1.48c-.81,3.08-2.47,6.45-4.43,8.16-.25-.27-.68-.58-1.06-.77,1.91-1.49,3.51-4.5,4.34-7.38h-1.55c-.59,1.31-1.28,2.5-2.05,3.42-.22-.22-.76-.59-1.03-.77,1.48-1.6,2.56-4.2,3.15-6.91l1.22.25c-.22.95-.49,1.87-.79,2.75h7Z"/>
  </g>
</svg>