<?xml version="1.0" encoding="UTF-8"?>
<svg id="_圖層_1" data-name=" 圖層 1" xmlns="http://www.w3.org/2000/svg" viewBox="0 0 400 277.57">
  <defs>
    <style>
      .cls-1 {
        fill: #fff;
      }

      .cls-2 {
        fill: #2a59ff;
      }

      .cls-3 {
        fill-rule: evenodd;
      }

      .cls-3, .cls-4 {
        fill: #f83462;
      }

      .cls-5 {
        fill: #000095;
      }

      .cls-6 {
        fill: #d9e2e9;
      }

      .cls-7 {
        fill: #271e49;
      }

      .cls-8 {
        fill: #819ef4;
      }
    </style>
  </defs>
  <g>
    <rect class="cls-6" x="32.12" y="127.94" width="16.19" height=".91"/>
    <polygon class="cls-1" points="32.12 226.69 57.72 226.69 48.31 128.4 32.12 128.4 32.12 226.69"/>
    <rect class="cls-1" x="27.98" y="118.32" width="24.56" height="10.07" transform="translate(80.53 246.72) rotate(180)"/>
    <polygon class="cls-1" points="26 115.98 54.53 115.98 52.5 119.16 28.07 119.16 26 115.98"/>
    <rect class="cls-2" x="27.98" y="121.45" width="24.56" height="3.82" transform="translate(80.53 246.72) rotate(180)"/>
    <g>
      <rect class="cls-8" x="47.69" y="122.18" width="3.56" height="2.36" transform="translate(98.95 246.72) rotate(180)"/>
      <rect class="cls-8" x="41.55" y="122.18" width="3.56" height="2.36" transform="translate(86.67 246.72) rotate(180)"/>
      <rect class="cls-8" x="35.41" y="122.18" width="3.56" height="2.36" transform="translate(74.39 246.72) rotate(180)"/>
      <rect class="cls-8" x="29.27" y="122.18" width="3.56" height="2.36" transform="translate(62.11 246.72) rotate(180)"/>
    </g>
    <rect class="cls-6" x="28.06" y="118.7" width="24.48" height=".91"/>
    <rect class="cls-1" x="44.46" y="102.27" width=".91" height="14.93"/>
    <rect class="cls-1" x="33.85" y="110.68" width=".91" height="6.52"/>
    <rect class="cls-1" x="42.87" y="104.99" width="4.11" height=".91"/>
    <rect class="cls-1" x="42.87" y="112.6" width="4.11" height=".91"/>
    <rect class="cls-1" x="32.25" y="110.43" width="4.11" height=".91"/>
    <rect class="cls-1" x="32.25" y="112.12" width="4.11" height=".91"/>
    <rect class="cls-1" x="42.87" y="107.29" width="4.11" height=".91"/>
    <polygon class="cls-6" points="49.98 202.94 32.12 202.94 32.12 202.03 48.97 202.03 42.92 143.63 32.12 143.63 32.12 142.72 43.75 142.72 43.79 143.13 49.98 202.94"/>
    <path class="cls-6" d="m28.43,226.69s-.51-5.38-4.11-7.31c-3.6-1.93-23.75-6.23-23.75-6.23v13.54h27.86Z"/>
    <path class="cls-2" d="m28.43,227.15H.57c-.25,0-.46-.2-.46-.46v-13.54c0-.14.06-.27.17-.35.11-.09.25-.12.38-.09.83.18,20.25,4.34,23.87,6.28,3.77,2.02,4.33,7.44,4.35,7.67.01.13-.03.25-.12.35-.09.09-.21.15-.34.15Zm-27.41-.91h26.88c-.23-1.34-1.08-4.99-3.8-6.45-3.17-1.7-19.82-5.37-23.08-6.07v12.52Z"/>
    <path class="cls-7" d="m232.84,208.73c-2.73,10.34-12.14,17.96-23.33,17.96H.07v16.52c2.15,16.82,10.88,29,29.26,34.34h309.08s42.43-16,61.51-68.83h-167.08Z"/>
    <path class="cls-4" d="m12.3,268.54c4.38,3.92,10,6.97,17.03,9.02h309.08s6.79-2.56,16.17-9.02H12.3Z"/>
    <polygon class="cls-2" points="380.88 243.58 .07 243.58 .07 242.67 381.57 242.67 380.88 243.58"/>
    <rect class="cls-2" y="226.24" width="296.24" height=".91"/>
    <polygon class="cls-1" points="379.46 208.73 388.43 208.73 386.82 192.15 381.08 192.15 379.46 208.73"/>
    <rect class="cls-7" x="379.98" y="190.59" width="7.93" height="1.9" transform="translate(767.89 383.08) rotate(180)"/>
    <path class="cls-2" d="m337.01,260.86h-18.29c-2.38,0-4.32-1.94-4.32-4.32s1.94-4.32,4.32-4.32h18.29c2.38,0,4.32,1.94,4.32,4.32s-1.94,4.32-4.32,4.32Zm-18.29-7.73c-1.88,0-3.41,1.53-3.41,3.41s1.53,3.41,3.41,3.41h18.29c1.88,0,3.41-1.53,3.41-3.41s-1.53-3.41-3.41-3.41h-18.29Z"/>
    <g>
      <path class="cls-3" d="m310.38,208.73h50.94v33.96h-50.94v-33.96Z"/>
      <rect class="cls-2" x="310.38" y="208.73" width="25.47" height="16.98"/>
      <path class="cls-1" d="m328.63,214.04l-2.85.76c.34.38.61.82.77,1.32l2.08-2.08Z"/>
      <path class="cls-1" d="m328.63,220.4l-2.08-2.08c-.16.49-.42.94-.77,1.32l2.85.76Z"/>
      <path class="cls-1" d="m326.64,217.98l2.84-.76-2.84-.76c.05.25.08.5.08.76s-.03.52-.08.76Z"/>
      <path class="cls-1" d="m326.3,211.7l-2.08,2.08c.49.16.94.42,1.32.77l.76-2.85Z"/>
      <path class="cls-1" d="m323.88,213.69l-.76-2.84-1.07,2.92c.34-.11.7-.16,1.07-.16.26,0,.52.03.76.08Z"/>
      <path class="cls-1" d="m326.3,222.73l-.76-2.85c-.38.34-.82.61-1.32.77l2.08,2.08Z"/>
      <path class="cls-1" d="m319.93,222.73l2.08-2.08c-.49-.16-.94-.42-1.32-.77l-.76,2.85Z"/>
      <path class="cls-1" d="m317.6,214.04l2.08,2.08c.16-.49.42-.94.77-1.32l-2.85-.76Z"/>
      <path class="cls-1" d="m317.6,220.4l2.85-.76c-.34-.38-.61-.82-.77-1.32l-2.08,2.08Z"/>
      <path class="cls-1" d="m319.93,211.7l.76,2.85c.38-.34.82-.61,1.32-.77l-2.08-2.08Z"/>
      <path class="cls-1" d="m319.59,216.46l-2.84.76,2.84.76c-.05-.25-.08-.5-.08-.76s.03-.52.08-.76Z"/>
      <path class="cls-1" d="m322.35,220.74l.76,2.84.76-2.84c-.25.05-.5.08-.76.08s-.52-.03-.76-.08Z"/>
      <path class="cls-1" d="m323.11,214.37c-1.57,0-2.85,1.28-2.85,2.85s1.28,2.85,2.85,2.85,2.85-1.28,2.85-2.85-1.28-2.85-2.85-2.85Z"/>
      <path class="cls-5" d="m322.04,213.77s-.02,0-.03.01l.02.02v-.03Z"/>
    </g>
  </g>
  <g>
    <path class="cls-1" d="m14.75,258.93c3.27-3.11,5.42-5.25,5.42-7.06,0-1.24-.68-1.98-1.88-1.98-.91,0-1.66.61-2.3,1.3l-1.35-1.35c1.15-1.23,2.27-1.91,3.98-1.91,2.37,0,3.94,1.51,3.94,3.81,0,2.13-1.96,4.33-4.2,6.67.63-.07,1.46-.14,2.05-.14h2.74v2.1h-8.4v-1.44Z"/>
    <path class="cls-1" d="m24.74,254.2c0-4.13,1.68-6.28,4.25-6.28s4.23,2.17,4.23,6.28-1.66,6.4-4.23,6.4-4.25-2.25-4.25-6.4Zm6.13,0c0-3.39-.8-4.33-1.88-4.33s-1.9.95-1.9,4.33.81,4.45,1.9,4.45,1.88-1.05,1.88-4.45Z"/>
    <path class="cls-1" d="m34.7,258.93c3.27-3.11,5.42-5.25,5.42-7.06,0-1.24-.68-1.98-1.88-1.98-.91,0-1.66.61-2.3,1.3l-1.35-1.35c1.15-1.23,2.27-1.91,3.98-1.91,2.37,0,3.94,1.51,3.94,3.81,0,2.13-1.96,4.33-4.2,6.67.63-.07,1.46-.14,2.05-.14h2.74v2.1h-8.4v-1.44Z"/>
    <path class="cls-1" d="m44.67,258.93c3.27-3.11,5.42-5.25,5.42-7.06,0-1.24-.68-1.98-1.88-1.98-.91,0-1.66.61-2.3,1.3l-1.35-1.35c1.15-1.23,2.27-1.91,3.98-1.91,2.37,0,3.94,1.51,3.94,3.81,0,2.13-1.96,4.33-4.2,6.67.63-.07,1.46-.14,2.05-.14h2.74v2.1h-8.4v-1.44Z"/>
  </g>
</svg>