<?xml version="1.0" encoding="utf-8"?>
<!-- Generator: Adobe Illustrator 27.5.0, SVG Export Plug-In . SVG Version: 6.00 Build 0)  -->
<svg version="1.1" id="_圖層_1" xmlns="http://www.w3.org/2000/svg" xmlns:xlink="http://www.w3.org/1999/xlink" x="0px" y="0px"
	 viewBox="0 0 500 1636.4" style="enable-background:new 0 0 500 1636.4;" xml:space="preserve">
<style type="text/css">
	.st0{fill:#D9E2E9;}
	.st1{fill:#271E49;}
	.st2{fill:#819EF4;}
	.st3{fill:#FFFFFF;}
	.st4{fill:#F83462;}
	.st5{fill:#F87E95;}
	.st6{fill:#F7D627;}
	.st7{fill:#FF9300;}
	.st8{fill:#D4EBFF;}
</style>
<polygon class="st0" points="1.2,0 1.2,1088.1 339,1104.2 339,1636.1 500,1636.1 500,0 "/>
<g>
	<polygon class="st1" points="6.6,1081.5 6.4,1080.2 343.1,1007.4 343.3,1007.6 423,1073.9 422.1,1074.9 342.7,1008.8 	"/>
	<g>
		<polygon class="st2" points="342.9,1104.2 1.2,1088.1 1.2,1074.6 342.9,1074.6 		"/>
		<path class="st1" d="M6.7,1084.4c-1.6,0-2.8-1.3-2.8-2.8s1.3-2.8,2.8-2.8s2.8,1.3,2.8,2.8S8.3,1084.4,6.7,1084.4z M6.7,1079.8
			c-1,0-1.8,0.8-1.8,1.8c0,1,0.8,1.8,1.8,1.8s1.8-0.8,1.8-1.8C8.5,1080.6,7.7,1079.8,6.7,1079.8z"/>
		<rect x="9.2" y="1081.2" class="st1" width="327.4" height="1"/>
		<rect x="288.5" y="1081.7" class="st1" width="1" height="14.5"/>
		<rect x="212.7" y="1081.2" class="st1" width="1" height="11.4"/>
		<rect x="137" y="1081.2" class="st1" width="1" height="8.7"/>
		<rect x="58.7" y="1081.2" class="st1" width="1" height="6.5"/>
	</g>
	<path class="st3" d="M341.1,1082.2c0,0-0.1-8.9,0.8-7.7l67.6,83.5c0.8,1,0.8,2.4,0,3.4l-66.7,84.5c-0.5,0.7-1.3,1-2.2,1
		c-0.6,0-1.2-0.2-1.7-0.6c-1.2-0.9-1.4-2.7-0.5-3.9l65.4-82.8L341.1,1082.2"/>
	<path class="st3" d="M338.8,1418.2c-0.6,0-1.3-0.2-1.8-0.7c-1.1-1-1.3-2.7-0.3-3.9l71.1-81.4l-69.3-86.6c-1-1.2-0.8-2.9,0.4-3.9
		c1.2-1,2.9-0.8,3.9,0.4l70.7,88.4c0.8,1,0.8,2.5-0.1,3.5l-72.6,83.1C340.3,1417.9,339.6,1418.2,338.8,1418.2L338.8,1418.2z"/>
	<path class="st3" d="M332.6,1584.6c-0.7,0-1.4-0.3-2-0.8c-1.1-1.1-1-2.8,0.1-3.9l79.1-77.3l-73.1-84.7c-1-1.1-0.9-2.9,0.3-3.9
		c1.1-1,2.9-0.9,3.9,0.3l74.7,86.7c1,1.1,0.9,2.7-0.2,3.8l-81,79.1C334,1584.3,333.3,1584.6,332.6,1584.6L332.6,1584.6z"/>
	<rect x="340.4" y="1413.1" class="st3" width="69.6" height="5.8"/>
	<rect x="340.4" y="1241" class="st3" width="69.6" height="5.8"/>
	<rect x="319.4" y="1584.5" class="st2" width="111.4" height="11.2"/>
	<g>
		<polygon class="st1" points="500,1636.4 269.5,1636.4 269.5,1615.8 313.3,1595.2 500,1595.2 		"/>
		<rect x="436.2" y="1569.3" class="st4" width="63.8" height="25.9"/>
		<g>
			<polygon class="st5" points="500,1593.2 439.2,1593.2 439.2,1571.3 500,1571.3 500,1572.3 440.2,1572.3 440.2,1592.1 500,1592.1 
							"/>
			<rect x="444.8" y="1571.8" class="st5" width="1" height="20.9"/>
			<rect x="450.5" y="1571.8" class="st5" width="1" height="20.9"/>
			<rect x="456.1" y="1571.8" class="st5" width="1" height="20.9"/>
			<rect x="461.8" y="1571.8" class="st5" width="1" height="20.9"/>
			<rect x="467.4" y="1571.8" class="st5" width="1" height="20.9"/>
			<rect x="473.1" y="1571.8" class="st5" width="1" height="20.9"/>
			<rect x="478.7" y="1571.8" class="st5" width="1" height="20.9"/>
			<rect x="484.4" y="1571.8" class="st5" width="1" height="20.9"/>
			<rect x="490.1" y="1571.8" class="st5" width="1" height="20.9"/>
			<rect x="495.7" y="1571.8" class="st5" width="1" height="20.9"/>
		</g>
		<rect x="470.8" y="1543.3" class="st6" width="29.2" height="25.9"/>
		<g>
			<polygon class="st7" points="500,1567.1 473.9,1567.1 473.9,1545.5 500,1545.5 500,1546.2 474.6,1546.2 474.6,1566.3 500,1566.3 
							"/>
			<rect x="479.5" y="1545.9" class="st7" width="0.8" height="20.9"/>
			<rect x="485.2" y="1545.9" class="st7" width="0.8" height="20.9"/>
			<rect x="490.8" y="1545.9" class="st7" width="0.8" height="20.9"/>
			<rect x="496.5" y="1545.9" class="st7" width="0.8" height="20.9"/>
		</g>
	</g>
	<rect x="19" y="1071.5" class="st3" width="405.6" height="6.1"/>
	<path class="st3" d="M363.7,1076.6H311c-0.7,0-1.3-0.3-1.7-0.8c-0.4-0.5-0.5-1.2-0.3-1.8l19.2-64.3c0.3-0.8,1.1-1.4,1.9-1.4h14
		c0.9,0,1.7,0.6,1.9,1.4l19.4,64.3c0.2,0.6,0.1,1.3-0.3,1.8C365,1076.3,364.3,1076.6,363.7,1076.6L363.7,1076.6z M313.9,1072.5h47
		l-18-60.2h-11.1L313.9,1072.5z"/>
	<polygon class="st2" points="354,1012.8 320.8,1012.8 315.6,1004.8 359.1,1004.8 	"/>
	<path class="st1" d="M360.6,1005.6h-46.5c-0.3,0-0.6-0.2-0.6-0.5v-3.6c0-0.3,0.3-0.5,0.6-0.5h46.5c0.3,0,0.6,0.2,0.6,0.5v3.6
		C361.2,1005.4,361,1005.6,360.6,1005.6z M314.7,1004.6H360v-2.6h-45.3C314.7,1002,314.7,1004.6,314.7,1004.6z"/>
	
		<rect x="86.9" y="1324.5" transform="matrix(1.849939e-02 -0.9998 0.9998 1.849939e-02 -995.6132 1642.1978)" class="st3" width="503.5" height="7.5"/>
	
		<rect x="407.5" y="1077.1" transform="matrix(0.9998 -2.094242e-02 2.094242e-02 0.9998 -27.7325 8.9044)" class="st3" width="7.5" height="502.9"/>
	<g>
		<rect x="327.8" y="1578.3" class="st8" width="94.6" height="6.2"/>
		<path class="st1" d="M422.5,1585h-94.6c-0.3,0-0.5-0.2-0.5-0.5v-6.2c0-0.3,0.2-0.5,0.5-0.5h94.6c0.3,0,0.5,0.2,0.5,0.5v6.2
			C423,1584.8,422.7,1585,422.5,1585z M328.3,1584h93.6v-5.2h-93.6V1584z"/>
	</g>
</g>
</svg>
