<?xml version="1.0" encoding="UTF-8"?>
<svg id="_圖層_1" data-name=" 圖層 1" xmlns="http://www.w3.org/2000/svg" xmlns:xlink="http://www.w3.org/1999/xlink" viewBox="0 0 1920 212">
  <defs>
    <style>
      .cls-1 {
        fill: #fff;
      }

      .cls-2 {
        fill: url(#_未命名漸層_98);
      }

      .cls-2, .cls-3 {
        opacity: .32;
      }

      .cls-4 {
        fill: #2a59ff;
      }

      .cls-5 {
        filter: url(#drop-shadow-1);
      }

      .cls-3 {
        fill: url(#_未命名漸層_101);
      }

      .cls-6 {
        fill: #d9e2e9;
      }
    </style>
    <linearGradient id="_未命名漸層_101" data-name="未命名漸層 101" x1="1317.84" y1="211.5" x2="1317.84" y2="49" gradientUnits="userSpaceOnUse">
      <stop offset="0" stop-color="#d9e2e9"/>
      <stop offset="1" stop-color="#5b8ec7"/>
    </linearGradient>
    <linearGradient id="_未命名漸層_98" data-name="未命名漸層 98" x1="1119.42" y1="211.5" x2="1119.42" y2="49" gradientUnits="userSpaceOnUse">
      <stop offset="0" stop-color="#d9e2e9"/>
      <stop offset="1" stop-color="#0160b0"/>
    </linearGradient>
    <filter id="drop-shadow-1" filterUnits="userSpaceOnUse">
      <feOffset dx="0" dy="0"/>
      <feGaussianBlur result="blur" stdDeviation="5"/>
      <feFlood flood-color="#fff" flood-opacity=".75"/>
      <feComposite in2="blur" operator="in"/>
      <feComposite in="SourceGraphic"/>
    </filter>
  </defs>
  <g>
    <rect class="cls-6" y="54" width="1920" height="158"/>
    <path class="cls-3" d="m1428,201c-6-8-49-12-49-15s19-3,16-10-9-3-15-11.43,3-8.57,0-13.57-24-5-23-8,25-6,15-13-23-8-26-13,5-8,3-13-15-10-16-14,8-7,3-12-22-5-23-9,12-1,11-7-10-13-10-13h-93.32c2.29,3.28,3.37,6.73-.18,8.5-8,4-18,5-13,10s12,6,12,9-5,6-4,9,9,6,9,9-21,5-21,9,17,4.57,21,9.28,2,6.72,8,9.72,0,7-9,11,2,8,10,12-7,6-7,9,6,7-1,8-9.65,4.48-5.83,10.74c3.83,6.26,5.83,9.26,4.83,15.26s-5.65,6.09-4.83,11.54c.83,5.46,8,6.46,7.91,10.96,0,.14-.04.3-.09.5h110.69s-.1-.19-.28-.5h93.88s2.22-2-3.78-10Z"/>
    <path class="cls-2" d="m1219.67,200.04c-.83-5.46,3.83-5.54,4.83-11.54s-1-9-4.83-15.26c-3.83-6.26-1.17-9.74,5.83-10.74s1-5,1-8,15-5,7-9-19-8-10-12,15-8,9-11-4-5-8-9.72-21-5.28-21-9.28,21-6,21-9-8-6-9-9,4-6,4-9-7-4-12-9,5-6,13-10c3.55-1.77,2.47-5.22.18-8.5h-4.68c-.85.11-1.53.28-2.1.5h-92.72s-9,7-10,13,12,3,11,7-18,4-23,9,4,8,3,12-14,9-16,14,6,8,3,13-16,6-26,13,14,10,15,13-20,3-23,8,6,5.13,0,13.57-12,4.43-15,11.43,16,7,16,10-43,7-49,15-3.78,10-3.78,10h224.09c.06-.2.09-.36.09-.5.09-4.5-7.09-5.5-7.91-10.96Z"/>
  </g>
  <path class="cls-1" d="m1213,34.84s-29.52-22.1-86.92-32.42c-78.87-14.17-82,38.31-82,38.31-62.32-25.05-147.6,11.79-200.08,13.26h369v-19.16Z"/>
  <path class="cls-1" d="m1213,34.84s29.52-22.1,86.92-32.42c78.87-14.17,82,38.31,82,38.31,62.32-25.05,147.6,11.79,200.08,13.26h-369v-19.16Z"/>
  <g class="cls-5">
    <path class="cls-4" d="m503.49,103.21v21.47h-4.36v-2.43h-11.68v14.29h-4.36v-14.29h-11.63v2.65h-4.18v-21.7h15.81v-7.82h4.36v7.82h16.04Zm-20.39,14.96v-10.87h-11.63v10.87h11.63Zm16.04,0v-10.87h-11.68v10.87h11.68Z"/>
    <path class="cls-4" d="m551.29,97.33v39.4h-4.13v-1.98h-29.38v1.98h-3.95v-39.4h37.46Zm-4.13,33.65v-29.87h-29.38v29.87h29.38Zm-3.32-19.18c-1.08,4.09-2.74,7.64-4.81,10.65.76,1.93,1.75,3.14,2.92,3.37.54.18.94-1.66,1.21-4.45.67.67,1.93,1.57,2.65,1.98-.63,5.12-2.52,6.87-5.12,5.84-1.66-.45-3.01-1.75-4.09-3.73-1.57,1.71-3.37,3.23-5.35,4.49-.45-.63-1.66-1.98-2.34-2.56,1.21-.72,2.38-1.53,3.46-2.43-4.4.72-8.94,1.57-12.53,2.2l-.45-3.14c3.28-.45,8.18-1.21,13.03-1.98l.09,2.79c.99-.85,1.89-1.8,2.7-2.83-1.08-3.41-1.75-7.77-2.2-12.53h-13.16v-3.1h12.89l-.27-4.31h3.46c.04,1.44.13,2.92.22,4.31h6.33c-.9-1.03-2.83-2.29-4.45-3.1l1.93-1.93c1.62.76,3.59,1.98,4.58,2.96l-1.98,2.07h2.74v3.1h-8.89c.31,3.23.76,6.29,1.3,8.8,1.21-2.16,2.11-4.54,2.79-7.14l3.32.67Zm-12.67.04v8.62h-9.93v-8.62h9.93Zm-2.92,2.38h-4.22v3.86h4.22v-3.86Z"/>
    <path class="cls-4" d="m583.06,112.1c3.05,9.34,8.71,16.94,17.21,20.48-1.03.9-2.43,2.65-3.1,3.91-8.4-3.91-13.84-11.19-17.34-20.71-2.29,8.13-7.14,15.9-17.34,20.71-.67-1.12-2.02-2.61-3.19-3.5,10.69-4.67,15.05-12.76,16.85-20.89h-15.95v-4.31h16.71c.54-4.49.49-8.8.54-12.4h4.54c-.04,3.64-.09,7.95-.63,12.4h18.1v4.31h-16.4Z"/>
    <path class="cls-4" d="m631.45,111.16c-.58,4.85-2.38,7.77-8.27,9.48-.36-.85-1.21-2.2-2.02-2.92.13.76.18,1.48.18,2.16,0,2.61-.54,4.45-1.89,5.44-.67.4-1.48.67-2.43.85-.85.09-1.93.13-2.96.09-.04-1.03-.4-2.74-.99-3.77.9.13,1.66.13,2.25.09.54,0,1.03-.13,1.39-.4.58-.45.81-1.48.81-2.79,0-2.2-.72-5.08-3.59-8.31,1.08-3.01,2.29-7.01,3.1-10.06h-4.9v35.62h-3.91v-39.35h10.2l.63-.18,2.88,1.62c-1.3,3.73-2.88,8.4-4.27,11.86,2.2,2.56,3.14,4.94,3.5,7.05,4.63-1.17,6.02-3.1,6.51-6.47h-6.51v-3.55h10.65v-4.31h-8.36v-3.5h8.36v-4.31h4.13v4.31h8.62v3.5h-8.62v4.31h11.14v3.55h-7.59v3.1c0,1.03.09,1.39.9,1.39h3.82c.76,0,2.02-.09,2.65-.22.09.94.18,2.11.27,3.01-.58.22-1.8.27-2.83.27h-4.4c-3.32,0-4.04-1.3-4.04-4.49v-3.05h-4.4Zm16.08,20.71v3.73h-28.17v-3.73h12.44v-5.39h-8.89v-3.59h8.89v-4.4h4.13v4.4h9.16v3.59h-9.16v5.39h11.59Z"/>
    <path class="cls-4" d="m676.69,105.32c-.49,1.21-.99,2.43-1.48,3.5h13.97v27.76h-4.36v-2.34h-21.7v2.34h-4.18v-27.76h11.77c.31-1.12.67-2.38.9-3.5h-17.47v-3.86h10.96c-.9-1.44-2.29-3.32-3.5-4.67l3.68-1.62c1.62,1.53,3.37,3.73,4.27,5.26l-1.98,1.03h11.14c1.35-1.8,2.88-4.36,3.77-6.15l4.72,1.08c-1.21,1.8-2.56,3.59-3.77,5.08h10.69v3.86h-17.43Zm8.13,7.14h-21.7v3.73h21.7v-3.73Zm0,7.01h-21.7v3.82h21.7v-3.82Zm0,11.14v-4.04h-21.7v4.04h21.7Z"/>
    <path class="cls-4" d="m715.25,124.41h-14.11v-4.18h14.11v4.18Zm-1.17-18.28h-11.99v-4.04h11.99v4.04Zm13.88,6.06v1.44c1.93,9.12,6.11,16.17,14.15,19-.94.85-2.25,2.52-2.83,3.73-6.24-2.7-10.2-7.59-12.67-14.2-1.75,5.21-5.48,10.56-13.52,14.6-.58-1.03-2.11-2.61-3.1-3.37,12.44-6.06,13.52-15.09,13.52-21.29v-3.73h4.45v3.82Zm-7.46-5.3c-1.35,3.59-2.92,6.83-4.72,9.34-.94-.72-3.05-1.89-4.22-2.43,3.59-4.27,6.11-11.32,7.46-18.46l4.58.85c-.45,2.25-1.03,4.4-1.66,6.51h15l.85-.22,3.01,1.71c-1.08,4.54-3.05,9.3-4.67,12.49-.85-.45-2.52-1.3-3.5-1.75.94-2.02,2.11-5.08,2.96-8.04h-15.09Z"/>
    <path class="cls-4" d="m763.36,106.17h-15.5v-3.37h7.68c-.67-1.62-1.98-4.13-3.05-5.97l3.1-1.35c1.21,1.84,2.61,4.31,3.28,5.84l-3.01,1.48h7.5v3.37Zm-10.42,27.85v1.89h-3.32v-15.09h12.44v13.21h-9.12Zm-3.28-19.27h12.26v3.23h-12.26v-3.23Zm12.31-2.65h-12.26v-3.28h12.26v3.28Zm-9.03,12.08v6.42h5.75v-6.42h-5.75Zm34.72,7.68c0,1.93-.4,3.01-1.62,3.59-1.21.63-3.14.72-6.15.72-.13-.94-.63-2.61-1.12-3.55,2.07.09,4,.09,4.58.04.63,0,.85-.18.85-.85v-16.31h-15.32c-.09,6.65-.76,15.5-4.09,21.2-.58-.63-2.11-1.71-2.83-2.07,3.23-5.75,3.5-14.11,3.5-20.44v-16.98h22.19v34.63Zm-18.78-31v4.09h5.84v-4.09h-5.84Zm0,11.37h5.84v-3.95h-5.84v3.95Zm4.58,16.58v2.02h-3.01v-12.76h11.72v10.74h-8.71Zm0-7.68v4.63h5.53v-4.63h-5.53Zm10.74-20.26h-6.02v4.09h6.02v-4.09Zm0,11.37v-3.95h-6.02v3.95h6.02Z"/>
    <path class="cls-4" d="m835.43,104.38h-12.85c4.72,3.01,9.75,6.51,12.67,9.03l-2.79,3.1c-3.23-3.05-9.57-7.64-14.91-11.1v8.49h10.29v14.91h-24.57v-14.73c-1.8,1.12-3.68,2.02-5.53,2.79-.63-1.03-1.89-2.52-2.7-3.37,5.21-1.75,10.65-5.21,14.29-9.12h-13.48v-3.64h17.56v-5.39h4.13v5.39h17.88v3.64Zm-38.95,27.13h38.45v3.73h-38.45v-3.73Zm16.94-17.61v-8.58c-2.65,3.28-6.15,6.24-9.88,8.58h9.88Zm10.11,2.92h-16.13v3.14h16.13v-3.14Zm0,5.93h-16.13v3.19h16.13v-3.19Z"/>
    <path class="cls-4" d="m870.11,99.98c4.22,3.82,9.48,9.34,11.81,13.03l-3.5,2.61c-.67-1.12-1.57-2.38-2.61-3.68-24.71,1.3-27.58,1.39-29.6,2.11-.18-.85-.9-2.92-1.35-4.09,1.08-.18,2.2-1.12,3.68-2.56,1.57-1.48,6.65-7.01,9.93-12.44l4.18,1.8c-3.23,4.54-7.05,8.89-10.74,12.4l20.89-.85c-1.93-2.16-4-4.31-5.93-6.11l3.23-2.2Zm-21.88,17.47h29.11v19.05h-4.45v-2.29h-20.44v2.38h-4.22v-19.14Zm4.22,4v8.71h20.44v-8.71h-20.44Z"/>
    <path class="cls-4" d="m895.55,115.25c-1.3-1.44-4.18-3.46-6.42-4.67l2.29-2.88c2.29,1.12,5.21,2.92,6.56,4.31l-2.43,3.23Zm-5.53,18.69c1.62-3.46,3.91-9.21,5.57-14.24l3.32,2.16c-1.44,4.63-3.37,10.02-5.17,14.2l-3.73-2.11Zm6.29-30.23c-1.21-1.53-4-3.59-6.24-4.99l2.43-2.74c2.25,1.21,5.03,3.14,6.38,4.58l-2.56,3.14Zm5.26,8.49c-.36,2.16-1.08,4.54-1.89,6.06-.4-.4-1.35-.99-1.93-1.3.85-1.53,1.35-3.46,1.62-5.3l2.2.54Zm5.84-1.8c-.13-.4-.27-.9-.49-1.39-5.88.81-7.01,1.08-7.64,1.35-.13-.4-.58-1.39-.9-1.89.72-.13,1.35-.72,2.11-1.57.49-.45,1.48-1.66,2.56-3.14-2.65.27-3.46.45-3.91.63-.13-.45-.54-1.44-.85-1.89.54-.09.9-.54,1.39-1.21.45-.63,2.02-3.19,2.7-5.57l2.47.85c-.72,1.75-1.8,3.59-2.92,5.08l2.56-.13c.45-.67.81-1.35,1.17-2.02l2.34,1.03c-1.44,2.43-3.28,4.85-5.17,6.87l3.28-.4c-.22-.4-.49-.9-.72-1.3l1.89-.67c.85,1.44,1.75,3.37,2.07,4.49l-1.93.9Zm21.25,16.98s-.09,1.08-.27,1.57c-.76,3.73-1.66,5.71-2.83,6.6-1.03.76-2.07.99-3.73,1.03-1.35,0-4.09,0-6.87-.13-.04-.99-.54-2.29-1.12-3.19,2.74.27,5.66.31,6.78.31.99,0,1.44,0,1.93-.31.63-.45,1.12-1.44,1.62-3.19h-23.13c.72-2.02,1.44-4.76,1.98-7.1h19.68v-1.93h-21.16v-2.52h25.07v6.96h-20.3l-.54,1.89h22.91Zm-25.43-9.93c-.04-1.39-.4-3.64-.9-5.35l1.98-.49c.54,1.66.99,3.82,1.03,5.17l-2.11.67Zm3.91-1.08c-.18-1.26-.72-3.28-1.39-4.9l1.8-.63c.72,1.48,1.35,3.46,1.53,4.67l-1.93.85Zm12.22-14.24h-10.69v-2.34h4.54c-.31-.99-1.03-2.38-1.57-3.41l2.74-.63c.72,1.03,1.48,2.61,1.8,3.5l-2.07.54h5.26v2.34Zm-9.48,8.36h8.49v6.6h-8.49v-6.6Zm8.45-4.81h-8.36v-2.11h8.36v2.11Zm-8.36,1.21h8.36v2.11h-8.36v-2.11Zm2.52,8.13h3.19v-2.47h-3.19v2.47Zm9.97-3.01c-.4,2.16-1.08,4.49-1.89,6.06-.4-.4-1.35-1.03-1.93-1.35.9-1.48,1.35-3.41,1.62-5.26l2.2.54Zm5.88-1.53c-.13-.4-.31-.99-.54-1.57-5.88.85-7.01,1.08-7.68,1.35-.13-.36-.58-1.39-.85-1.93.67-.09,1.3-.67,2.11-1.53.4-.45,1.44-1.62,2.47-3.1-2.61.27-3.37.4-3.86.63-.13-.45-.54-1.44-.81-1.93.45-.04.9-.49,1.35-1.17.49-.63,2.02-3.19,2.74-5.57l2.43.85c-.72,1.75-1.8,3.59-2.92,5.08l2.61-.13c.36-.67.76-1.35,1.08-2.02l2.38,1.03c-1.44,2.43-3.23,4.85-5.17,6.87l3.28-.4c-.22-.45-.49-.9-.72-1.3l1.84-.67c.94,1.48,1.89,3.46,2.2,4.72l-1.93.81Zm-4.27,7.37c0-1.48-.45-3.91-.94-5.84l1.98-.45c.54,1.84,1.03,4.18,1.03,5.62l-2.07.67Zm4.31-7.05c.85,1.75,1.62,4.04,1.84,5.53l-1.98.85c-.18-1.53-.9-3.95-1.71-5.75l1.84-.63Z"/>
    <path class="cls-4" d="m954,131.56c-3.68,2.02-9.34,4-13.84,5.12-.67-.85-2.11-2.34-3.01-3.05,4.58-.85,9.97-2.2,13.07-3.77l3.77,1.71Zm-.76-21.47c-.22-.63-.58-1.35-.94-2.11-9.3,2.52-10.69,3.01-11.63,3.64-.27-.9-1.12-2.38-1.71-3.1.72-.36,1.71-1.26,1.71-3.1v-7.59c4.4-.45,9.61-1.35,12.85-2.29l1.89,3.1c-3.05.85-7.01,1.44-10.74,1.84v6.02l5.84-1.44c-.67-.99-1.35-1.93-2.02-2.79l3.23-1.08c1.66,1.98,3.55,4.67,4.54,6.69,4.18-1.53,5.75-3.91,6.42-7.28h-5.71v-3.28h18.73s-.04.99-.09,1.48c-.45,6.42-.94,9.12-1.93,10.2-.76.81-1.53,1.08-2.7,1.21-.94.09-2.79.09-4.67.04-.09-1.03-.49-2.52-1.08-3.46,1.71.18,3.23.18,3.86.18s.99-.04,1.35-.4c.45-.54.81-2.16,1.12-5.97h-5.17c-.85,5.12-3.05,8.67-9.25,10.78-.27-.63-.85-1.53-1.39-2.25l-2.52.94Zm-10.47,1.53h29.29v17.79h-29.29v-17.79Zm4.04,5.12h21.07v-2.47h-21.07v2.47Zm0,4.94h21.07v-2.43h-21.07v2.43Zm0,5.08h21.07v-2.52h-21.07v2.52Zm17.16,2.92c4.63,1.35,9.75,3.14,12.8,4.45l-3.41,2.43c-2.7-1.3-7.41-3.14-11.95-4.54l2.56-2.34Z"/>
    <path class="cls-4" d="m1022.38,118.17s-.09,1.12-.18,1.71c-.9,9.88-1.84,13.84-3.23,15.27-.94.94-1.93,1.3-3.28,1.39-1.21.13-3.32.13-5.53,0-.09-1.03-.49-2.56-1.12-3.55,2.07.22,4,.22,4.81.22.76,0,1.17-.09,1.62-.54.9-.81,1.71-3.86,2.38-10.87h-4.72c-2.38,6.2-6.2,11.54-10.38,15.05-.67-.72-2.38-2.02-3.28-2.61,3.95-2.88,7.23-7.32,9.34-12.44h-5.08c-3.32,5.71-8.36,10.6-13.43,13.84-.67-.81-2.2-2.29-3.14-3.01,4.63-2.52,8.94-6.33,11.86-10.83h-5.21c-2.29,2.25-4.76,4.18-7.1,5.71-.67-.81-2.25-2.29-3.19-2.96,4.22-2.34,8.36-5.79,11.14-9.75h-4.49v-17.43h28.93v17.43h-19.54c-.76,1.17-1.57,2.25-2.43,3.37h25.25Zm-28.12-13.75h20.57v-3.64h-20.57v3.64Zm0,7.01h20.57v-3.77h-20.57v3.77Z"/>
    <path class="cls-4" d="m1035.82,114.8c-.63,2.07-1.44,4.04-2.7,5.71-.54-.81-1.98-2.43-2.7-2.92,2.79-3.95,3.05-9.34,3.05-13.34v-7.37h16.13v10.15h-12.58c-.04.9-.13,1.8-.22,2.74h13.16v10.15h-14.15v-5.12Zm17.83,17.12h18.06v3.59h-40.43v-3.59h18.06v-4.49h-13.48v-3.55h13.48v-3.19h4.31v3.19h14.02v3.55h-14.02v4.49Zm-16.53-31.89v3.86h8.71v-3.86h-8.71Zm2.07,16.8h7.23v-3.95h-7.23v3.95Zm32.61-10.6v3.32h-8.85v3.23h7.82v3.28h-7.82v4.67h-3.86v-4.67h-7.73v-3.28h7.73v-3.23h-8.49v-3.32h4.72c-.27-1.17-.76-2.7-1.3-3.82l2.56-.67h-4.9v-3.23h7.64c-.27-.85-.58-1.66-.94-2.43l3.77-.9c.49.99,1.03,2.25,1.35,3.32h7.32v3.23h-13.48c.63,1.44,1.3,3.28,1.53,4.45l-.13.04h4.4c.54-1.44,1.17-3.19,1.44-4.49l3.68.58c-.58,1.35-1.17,2.74-1.66,3.91h5.21Z"/>
    <path class="cls-4" d="m1118.97,132.18v3.37h-40.47v-3.37h17.97v-2.96h-13.79v-3.23h13.79v-2.56h4.18v2.56h14.11v3.23h-14.11v2.96h18.33Zm-21.56-9.07h-17.43v-12.22h17.43v12.22Zm-14.2-7.32h3.95v-2.29h-3.95v2.29Zm0,4.81h3.95v-2.34h-3.95v2.34Zm29.11-11.41h-27.31v-12.31h27.31v12.31Zm-23.4-7.46h7.59v-2.25h-7.59v2.25Zm0,4.81h7.59v-2.29h-7.59v2.29Zm5.17,6.96h-4.13v2.29h4.13v-2.29Zm0,4.76h-4.13v2.34h4.13v-2.34Zm5.97-7.37h17.52v12.22h-17.52v-12.22Zm8.22-11.41h-7.77v2.25h7.77v-2.25Zm0,4.76h-7.77v2.29h7.77v-2.29Zm-4.99,11.54h4v-2.29h-4v2.29Zm0,4.81h4v-2.34h-4v2.34Zm11.01-7.1h-4.13v2.29h4.13v-2.29Zm0,4.76h-4.13v2.34h4.13v-2.34Z"/>
    <path class="cls-4" d="m1129.72,122.21c3.46-1.3,5.48-3.37,5.71-6.06-.18.04-.4.04-.63.04-2.02,0-3.77-1.26-3.77-3.59s1.75-3.59,3.82-3.59c2.83,0,4.31,2.2,4.31,5.62,0,4.99-3.14,8.85-8.27,10.51l-1.17-2.92Z"/>
    <path class="cls-4" d="m1172.31,102.04v4.85h16.22v25.11c0,2.11-.45,3.14-1.89,3.77-1.48.63-3.77.67-6.92.67-.22-1.08-.81-2.65-1.39-3.64,2.2.09,4.54.09,5.21.04.67,0,.9-.22.9-.85v-21.2h-12.13v25.56h-4v-7.86c-.63.4-1.39,1.03-1.8,1.53-1.66-2.07-2.65-4.45-3.23-6.96-.94,2.83-2.25,5.21-4,7.05-.49-.45-1.57-1.3-2.25-1.66,2.83-2.79,4.22-7.01,4.9-11.99h-2.61v-2.83h5.48c0,4.67.27,9.88,3.5,14.11v-16.94h-11.5v25.65h-4v-29.56h15.5v-4.85h-16.98v-4.09h38.68v4.09h-17.7Zm8.04,11.59c0,4.85.27,10.29,4.04,14.55-.67.31-1.84,1.17-2.38,1.66-1.71-2.07-2.7-4.49-3.32-7.01-.9,2.74-2.16,5.12-3.77,6.92-.49-.4-1.57-1.3-2.29-1.66,2.61-2.74,4.04-6.87,4.72-11.63h-2.65v-2.83h5.66Z"/>
    <path class="cls-4" d="m1204.97,112.96v4.85c0,5.44-.76,13.16-4.81,18.1-.63-.76-2.43-2.2-3.32-2.7,3.55-4.45,3.95-10.78,3.95-15.45v-8.49h36.39v3.68h-32.21Zm30.01-6.74h-34.01v-9.16h4.22v5.44h10.38v-7.14h4.4v7.14h10.6v-5.44h4.4v9.16Zm2.88,21.47h-14.02v8.94h-4.4v-8.94h-13.39v-3.68h13.39v-4.27h-11.23v-3.55h27.45v3.55h-11.81v4.27h14.02v3.68Z"/>
    <path class="cls-4" d="m1282.56,107.48c-1.12,7.14-2.83,13.03-5.57,17.79,2.29,3.37,5.26,6.02,8.89,7.73-.94.85-2.25,2.43-2.83,3.55-3.5-1.84-6.29-4.4-8.58-7.55-2.52,3.1-5.71,5.62-9.66,7.68-.4-.94-1.62-2.83-2.43-3.68,4.18-1.93,7.37-4.49,9.75-7.82-1.8-3.32-3.14-7.14-4.18-11.32-.76,1.3-1.53,2.47-2.34,3.59-.49-.63-1.62-1.57-2.52-2.29h-4.99v10.33l7.05-1.48.4,3.77c-7.37,1.75-15.23,3.59-20.84,4.81l-.76-4.18,2.52-.49v-19.5h3.77v18.78l3.77-.81v-24.08h-9.16v-4.04h20.39v4.04h-7.14v8.89h5.62v1.39c2.92-4.45,4.81-10.74,5.97-17.29l4.13.72c-.49,2.61-1.12,5.12-1.8,7.55h13.48v3.91h-2.96Zm-12.08.72c.94,4.72,2.25,9.07,4.13,12.89,1.84-3.82,2.96-8.31,3.77-13.61h-7.64l-.27.72Z"/>
    <path class="cls-4" d="m1304.9,122.62c-.09-.63-.27-1.39-.45-2.25-9.25,1.39-10.74,1.75-11.63,2.2-.22-.76-.81-2.74-1.26-3.77.99-.22,1.98-1.3,3.32-2.92.63-.72,1.89-2.34,3.28-4.49-4,.49-5.03.76-5.66,1.03-.22-.76-.76-2.56-1.21-3.59.81-.18,1.53-1.08,2.47-2.43.94-1.3,3.95-6.33,5.62-11.14l3.73,1.53c-1.8,3.95-4.18,8.04-6.56,11.37l3.95-.31c1.12-1.84,2.25-3.86,3.14-5.84l3.5,2.07c-2.7,4.9-6.11,9.88-9.57,13.88l6.02-.76c-.4-1.35-.85-2.74-1.35-4l3.1-.85c1.17,2.92,2.38,6.83,2.88,9.16l-3.32,1.12Zm-8.09,2.2c-.45,4.04-1.21,8.4-2.2,11.23-.72-.45-2.38-.99-3.28-1.26,1.03-2.7,1.66-6.78,2.02-10.51l3.46.54Zm4.45-.58c.54,2.92,1.08,6.74,1.21,9.25l-3.28.67c-.09-2.56-.58-6.42-1.08-9.39l3.14-.54Zm4.22-1.3c.85,2.29,1.8,5.3,2.2,7.23l-3.01,1.03c-.36-1.98-1.26-4.99-2.07-7.32l2.88-.94Zm27.04,8.8v3.82h-25.52v-3.82h10.83v-7.55h-8.54v-3.73h21.43v3.73h-8.71v7.55h10.51Zm-19.54-12.44c-.9-2.34-2.96-5.75-5.26-8.8,1.75-2.7,3.64-6.02,4.63-8.18l3.64.9c-1.26,2.29-2.88,5.03-4.36,7.19,1.93,2.52,3.86,5.53,4.81,7.46l-3.46,1.44Zm19.09-18.1h-23.85v-3.73h23.85v3.73Zm-8.49,2.07c-1.26,2.29-2.92,4.99-4.45,7.1,1.98,2.47,4,5.39,4.94,7.32l-3.37,1.48c-.99-2.34-3.1-5.71-5.53-8.71,1.84-2.65,3.77-5.97,4.81-8.09l3.59.9Zm5.03,16.04c-1.08-2.34-3.37-5.79-5.93-8.8,1.89-2.7,3.86-6.02,4.94-8.18l3.64.94c-1.35,2.29-3.05,4.99-4.54,7.14,2.02,2.47,4.18,5.39,5.21,7.32l-3.32,1.57Z"/>
    <path class="cls-4" d="m1346.05,124.01c-1.12,3.14-2.92,6.74-4.54,9.03-.67-.54-2.02-1.53-2.88-1.98,1.66-2.11,3.19-5.17,4.13-8.04l3.28.99Zm5.79-2.92v15.23h-4.04v-15.23h-8.62v-3.55h8.62v-4.09h-8.89v-3.5h4.9c-.18-1.53-.81-3.86-1.57-5.62l3.41-.85c.72,1.75,1.44,4.04,1.66,5.53l-3.32.94h7.1c.81-1.89,1.75-4.63,2.2-6.51l3.86.81c-.76,1.98-1.53,4.04-2.29,5.71h5.26v3.5h-8.27v4.09h7.64v3.55h-7.64Zm7.55-17.7h-19.77v-3.46h8.22c-.49-1.26-1.08-2.7-1.62-3.82l4.13-1.08c.76,1.53,1.66,3.41,2.25,4.9h6.78v3.46Zm-3.19,19.27c1.48,2.11,3.01,4.94,3.73,6.74l-2.92,1.75c-.72-1.89-2.25-4.81-3.59-6.96l2.79-1.53Zm23.63-8.54h-4.58v22.24h-4.09v-22.24h-5.26v1.08c0,6.47-.58,15.45-4.58,21.16-.63-.76-2.34-2.02-3.19-2.47,3.55-5.21,3.86-12.8,3.86-18.69v-15.54c4.99-.85,10.51-2.25,13.75-3.64l3.28,3.05c-3.68,1.44-8.54,2.52-13.12,3.32v7.86h13.93v3.86Z"/>
    <path class="cls-4" d="m1395.11,110.67v25.88h-4.09v-25.88h-5.21v-3.82h5.21v-11.5h4.09v11.5h4.63v3.82h-4.63Zm31.85,15.86h-6.2v5.88c0,1.93-.36,2.96-1.84,3.55-1.39.54-3.55.58-6.78.58-.18-1.03-.63-2.56-1.12-3.55,2.29.09,4.54.09,5.17.04.67-.04.85-.18.85-.67v-5.84h-10.65c1.98,1.39,4.27,3.05,5.57,4.13l-2.61,2.83c-1.48-1.44-4.45-3.68-6.65-5.3l1.66-1.66h-5.97v-3.37h18.64v-1.98h3.73v1.98h6.2v3.37Zm-15.86-23.13h-11.23v-3.28h11.23v-4.76h3.86v4.76h6.51c-1.53-.81-3.28-1.75-4.72-2.47l1.93-2.29c2.11.94,5.03,2.34,6.56,3.23l-1.17,1.53h2.38v3.28h-11.5v1.89h9.75v12.85c0,1.57-.31,2.16-1.39,2.61-1.12.4-2.65.4-4.85.4-.22-.81-.76-1.84-1.17-2.56,1.44.04,2.7.04,3.14,0,.45,0,.58-.13.58-.54v-1.12h-6.06v3.32h-3.86v-3.32h-6.02v4.09h-3.55v-15.72h9.57v-1.89Zm-6.02,4.67v2.07h6.02v-2.07h-6.02Zm6.02,6.42v-1.89h-6.02v1.89h6.02Zm3.86-6.42v2.07h6.06v-2.07h-6.06Zm6.06,6.42v-1.89h-6.06v1.89h6.06Z"/>
    <path class="cls-4" d="m1473.74,125.99h-10.2v10.78h-4.31v-10.78h-10.74c-.76,4.18-3.41,8.27-11.63,10.92-.54-.99-1.8-2.56-2.61-3.32,6.51-1.98,8.98-4.76,9.84-7.59h-10.56v-3.68h11.05v-4.76h4.18v4.76h10.47v-4.76h-2.38v-14.38h-5.71v1.98c0,4.72-1.26,10.33-11.28,13.79-.49-.99-1.8-2.47-2.65-3.19,8.89-2.79,9.93-7.19,9.93-10.74v-1.84h-13.34v-3.55h18.33c-.58-1.12-1.26-2.47-1.93-3.5l4.09-.99c.9,1.3,1.93,3.14,2.56,4.49h16.62v3.55h-12.44v14.33h2.52v4.81h10.24l-.04,3.68Zm-29.92-20.3c-1.8,2.92-4.63,6.11-7.05,8.09-.72-.67-2.2-1.89-3.1-2.43,2.52-1.71,4.99-4.27,6.47-6.78l3.68,1.12Zm21.97-.94c2.56,2.43,5.48,5.84,6.83,8.18l-3.55,1.8c-1.26-2.29-4.13-5.88-6.6-8.36l3.32-1.62Z"/>
  </g>
  <path id="Path_5595" data-name="Path 5595" class="cls-4" d="m988.05,178.5h-56.1l28.84,17.4,27.26-17.4Z"/>
</svg>